<svg width="43" height="46" viewBox="0 0 43 46" fill="none" xmlns="http://www.w3.org/2000/svg">
<path d="M8.96895 45.1327L0.540365 26.8289C0.230978 26.1573 0.525539 25.359 1.19611 25.0494L13.9633 19.164C14.6338 18.8555 15.4324 19.1492 15.7413 19.8213L24.1712 38.1239C24.4805 38.7966 24.186 39.5938 23.5142 39.9041L10.7482 45.7887C10.0765 46.0997 9.27854 45.8036 8.96895 45.1327ZM11.5558 38.2782L13.0699 33.8751L17.4707 35.3902L18.2279 33.1894L13.8269 31.6745L15.3417 27.2714L13.1422 26.5139L11.6274 30.9164L7.22729 29.4009L6.47013 31.6021L10.8704 33.1176L9.35564 37.5207L11.5558 38.2782ZM22.0403 17.4059C26.7751 8.93786 16.7906 6.99166 11.9001 11.2157L8.05503 16.2943C4.53671 18.4506 3.73635 15.0861 4.86052 13.3499L10.2087 6.07944L19.8123 0.922345C20.5149 0.40808 21.5756 0.118014 23.0512 0.0871582L36.9959 0.19212C39.9236 0.214157 42.2916 2.58175 42.3143 5.50938C42.3384 8.63693 39.6902 11.1204 36.5706 10.8957L31.7525 10.5487C31.9322 14.8402 27.5285 15.7982 25.1612 21.1213L23.7958 25.7082C20.809 24.7034 19.7145 22.3095 22.0403 17.4059ZM9.20737 17.1016L13.0669 12.0252C14.296 10.9891 15.9839 10.2772 17.7048 10.3069C16.196 11.89 15.7122 12.8344 15.3844 14.1684C14.5936 16.1241 13.6308 17.1047 12.3828 16.4723C11.324 17.4932 10.2663 17.9428 9.20737 17.1016Z" fill="#BA0404"/>
</svg>
