<svg width="32" height="148" viewBox="0 0 32 148" fill="none" xmlns="http://www.w3.org/2000/svg">
<path d="M2.03906 125.286C2.04361 126.681 2.44145 128.047 3.18712 129.227C3.93279 130.407 4.99622 131.354 6.25591 131.96C7.5156 132.566 8.92076 132.806 10.3109 132.653C11.7009 132.5 13.0199 131.96 14.117 131.095C14.3042 130.952 14.4817 130.797 14.6485 130.631C14.8665 130.431 15.0685 130.215 15.2528 129.984C15.4648 129.733 15.6571 129.466 15.8279 129.186L16.0245 128.852C16.1355 128.657 16.2352 128.455 16.323 128.249C16.4249 128.017 16.5195 127.77 16.5996 127.523C16.6797 127.276 16.6942 127.211 16.7306 127.051C16.767 126.891 16.8253 126.63 16.8617 126.412C16.9203 126.035 16.9495 125.653 16.9491 125.272C16.9601 125.059 16.9601 124.846 16.9491 124.633C16.9393 124.492 16.9222 124.351 16.8981 124.212C16.8667 123.967 16.8206 123.724 16.7598 123.485C16.7598 123.326 16.6797 123.166 16.6287 123.013C16.5778 122.861 16.505 122.65 16.4322 122.476C16.3004 122.15 16.1447 121.835 15.9662 121.532C15.8311 121.295 15.6803 121.067 15.5148 120.85C15.4784 120.806 15.4493 120.755 15.4056 120.712C15.2604 120.522 15.1048 120.34 14.9397 120.167C14.6948 119.904 14.4295 119.662 14.1462 119.441C12.8177 118.391 11.1671 117.829 9.47222 117.851C7.49882 117.856 5.60821 118.642 4.21485 120.036C2.82149 121.43 2.03905 123.318 2.03906 125.286ZM13.5564 123.028C13.6438 123.18 13.7166 123.34 13.7894 123.5C13.8856 123.736 13.9635 123.978 14.0224 124.226C14.0568 124.367 14.0835 124.51 14.1025 124.655C14.132 124.861 14.1466 125.07 14.1462 125.279C14.1462 125.664 14.0973 126.047 14.0005 126.419C13.9489 126.638 13.8783 126.852 13.7894 127.058C13.7235 127.221 13.6457 127.379 13.5564 127.53C13.4152 127.789 13.2468 128.033 13.0541 128.256C12.8214 128.531 12.5548 128.775 12.2606 128.982C12.0108 129.175 11.7396 129.338 11.4525 129.469C10.8344 129.765 10.1577 129.918 9.47222 129.919C9.41647 129.923 9.36052 129.923 9.30477 129.919C9.06039 129.911 8.81699 129.884 8.57674 129.839C7.44284 129.617 6.43248 128.982 5.74243 128.057C5.05238 127.132 4.73204 125.985 4.84379 124.838C4.95554 123.69 5.49138 122.626 6.34696 121.851C7.20254 121.076 8.31661 120.647 9.47222 120.646C9.60801 120.639 9.74412 120.639 9.87991 120.646C10.1263 120.661 10.3704 120.703 10.6079 120.77C10.9727 120.841 11.3257 120.963 11.6563 121.133C11.7806 121.191 11.8999 121.259 12.013 121.336C12.3756 121.559 12.702 121.836 12.9813 122.157C13.0764 122.249 13.1618 122.352 13.2361 122.462C13.3614 122.639 13.4687 122.829 13.5564 123.028Z" fill="#FC8019"/>
<path d="M8.59766 127.537L16.606 127.537C16.5259 127.784 16.4312 128.031 16.3293 128.263C16.2416 128.47 16.1419 128.671 16.0308 128.866L15.8342 129.2C15.6635 129.481 15.4712 129.748 15.2591 129.999C15.0749 130.23 14.8728 130.446 14.6548 130.645C14.488 130.811 14.3105 130.967 14.1234 131.11L9.32568 131.11L8.59766 130.384L8.59766 127.537Z" fill="#AF510B"/>
<path d="M9.32617 128.263L16.3225 128.263C16.2348 128.47 16.1351 128.671 16.024 128.866L15.8275 129.2C15.6567 129.481 15.4644 129.748 15.2523 129.999C15.0681 130.23 14.866 130.446 14.648 130.645C14.4812 130.811 14.3037 130.967 14.1166 131.11L9.32617 131.11L9.32617 128.263Z" fill="#FC8019"/>
<path d="M6.26172 123.5L16.7526 123.5C16.8134 123.739 16.8596 123.982 16.8909 124.226C16.9151 124.366 16.9321 124.506 16.9419 124.647C16.9529 124.86 16.9529 125.074 16.9419 125.286C16.9423 125.668 16.9131 126.049 16.8545 126.426C16.8545 126.644 16.7744 126.855 16.7235 127.065L6.98975 127.065L6.26172 126.339L6.26172 123.5Z" fill="#AF510B"/>
<path d="M6.99023 124.226L16.8696 124.226C16.8937 124.366 16.9107 124.506 16.9205 124.647C16.9316 124.86 16.9316 125.074 16.9205 125.286C16.921 125.668 16.8917 126.049 16.8332 126.426C16.8332 126.644 16.7531 126.855 16.7021 127.065L6.99023 127.065L6.99023 124.226Z" fill="#FC8019"/>
<path d="M9.90234 119.456L14.1176 119.456C14.4009 119.676 14.6663 119.919 14.9112 120.182C15.0763 120.355 15.2318 120.536 15.3771 120.726C15.4073 120.73 15.4352 120.744 15.4554 120.767C15.4755 120.79 15.4865 120.819 15.4863 120.85C15.6518 121.067 15.8026 121.295 15.9377 121.532C16.1161 121.835 16.2719 122.151 16.4036 122.476C16.4764 122.651 16.542 122.832 16.6002 123.014L10.6304 123.014L9.90234 122.288L9.90234 119.456Z" fill="#AF510B"/>
<path d="M10.6289 120.182L14.9097 120.182C15.0748 120.355 15.2304 120.536 15.3756 120.726C15.4059 120.73 15.4337 120.744 15.4539 120.767C15.474 120.79 15.4851 120.819 15.4848 120.85C15.6503 121.067 15.8011 121.295 15.9362 121.532C16.1147 121.835 16.2704 122.151 16.4022 122.476C16.475 122.651 16.5405 122.832 16.5987 123.014L10.6289 123.014L10.6289 120.182Z" fill="#FC8019"/>
<path d="M9.32568 128.263L8.59766 127.537L8.59766 130.384L9.32568 131.11L9.32568 128.263Z" fill="#934612"/>
<path d="M6.98975 124.226L6.26172 123.5L6.26172 126.339L6.98975 127.065L6.98975 124.226Z" fill="#934612"/>
<path d="M10.6304 120.182L9.90234 119.456L9.90234 122.295L10.6304 123.021L10.6304 120.182Z" fill="#934612"/>
<path opacity="0.43" d="M11.3945 130.13L11.3945 130.5C11.3945 130.576 11.4565 130.638 11.5329 130.638L12.1226 130.638C12.199 130.638 12.2609 130.576 12.2609 130.5L12.2609 130.13C12.2609 130.054 12.199 129.992 12.1226 129.992L11.5329 129.992C11.4565 129.992 11.3945 130.054 11.3945 130.13Z" fill="white"/>
<path opacity="0.43" d="M11.3945 129.004L11.3945 129.375C11.3945 129.451 11.4565 129.513 11.5329 129.513L12.1226 129.513C12.199 129.513 12.2609 129.451 12.2609 129.375L12.2609 129.004C12.2609 128.928 12.199 128.866 12.1226 128.866L11.5329 128.866C11.4565 128.866 11.3945 128.928 11.3945 129.004Z" fill="white"/>
<path opacity="0.43" d="M10.127 130.13L10.127 130.5C10.127 130.576 10.1889 130.638 10.2653 130.638L10.855 130.638C10.9314 130.638 10.9933 130.576 10.9933 130.5L10.9933 130.13C10.9933 130.054 10.9314 129.992 10.855 129.992L10.2653 129.992C10.1889 129.992 10.127 130.054 10.127 130.13Z" fill="white"/>
<path opacity="0.43" d="M10.127 129.004L10.127 129.375C10.127 129.451 10.1889 129.513 10.2653 129.513L10.855 129.513C10.9314 129.513 10.9933 129.451 10.9933 129.375L10.9933 129.004C10.9933 128.928 10.9314 128.866 10.855 128.866L10.2653 128.866C10.1889 128.866 10.127 128.928 10.127 129.004Z" fill="white"/>
<path opacity="0.43" d="M7.55078 125.911L7.55078 126.281C7.55078 126.357 7.61271 126.419 7.68911 126.419L8.27881 126.419C8.3552 126.419 8.41713 126.357 8.41713 126.281L8.41713 125.911C8.41713 125.834 8.3552 125.773 8.27881 125.773L7.68911 125.773C7.61271 125.773 7.55078 125.834 7.55078 125.911Z" fill="white"/>
<path opacity="0.43" d="M7.55078 124.785L7.55078 125.155C7.55078 125.232 7.61271 125.293 7.68911 125.293L8.27881 125.293C8.3552 125.293 8.41713 125.232 8.41713 125.155L8.41713 124.785C8.41713 124.709 8.3552 124.647 8.27881 124.647L7.68911 124.647C7.61271 124.647 7.55078 124.709 7.55078 124.785Z" fill="white"/>
<path opacity="0.43" d="M12.7109 129.004L12.7109 130.493C12.7109 130.573 12.7761 130.638 12.8565 130.638L13.6283 130.638C13.7087 130.638 13.7739 130.573 13.7739 130.493L13.7739 129.004C13.7739 128.924 13.7087 128.859 13.6283 128.859L12.8565 128.859C12.7761 128.859 12.7109 128.924 12.7109 129.004Z" fill="white"/>
<path opacity="0.43" d="M8.70703 125.911L8.70703 126.281C8.70703 126.357 8.76896 126.419 8.84536 126.419L9.43506 126.419C9.51145 126.419 9.57338 126.357 9.57338 126.281L9.57338 125.911C9.57338 125.834 9.51145 125.773 9.43506 125.773L8.84536 125.773C8.76896 125.773 8.70703 125.834 8.70703 125.911Z" fill="white"/>
<path opacity="0.43" d="M8.70703 124.785L8.70703 125.155C8.70703 125.232 8.76896 125.293 8.84536 125.293L9.43506 125.293C9.51145 125.293 9.57338 125.232 9.57338 125.155L9.57338 124.785C9.57338 124.709 9.51145 124.647 9.43506 124.647L8.84536 124.647C8.76896 124.647 8.70703 124.709 8.70703 124.785Z" fill="white"/>
<path opacity="0.43" d="M10.0254 124.785L10.0254 126.274C10.0254 126.354 10.0906 126.419 10.171 126.419L10.9427 126.419C11.0231 126.419 11.0883 126.354 11.0883 126.274L11.0883 124.785C11.0883 124.705 11.0231 124.64 10.9427 124.64L10.171 124.64C10.0906 124.64 10.0254 124.705 10.0254 124.785Z" fill="white"/>
<path opacity="0.43" d="M11.6191 121.982L11.6191 122.353C11.6191 122.429 11.6811 122.491 11.7575 122.491L12.3472 122.491C12.4236 122.491 12.4855 122.429 12.4855 122.353L12.4855 121.982C12.4855 121.906 12.4236 121.844 12.3472 121.844L11.7575 121.844C11.6811 121.844 11.6191 121.906 11.6191 121.982Z" fill="white"/>
<path opacity="0.43" d="M11.6191 120.857L11.6191 121.227C11.6191 121.303 11.6811 121.365 11.7575 121.365L12.3472 121.365C12.4236 121.365 12.4855 121.303 12.4855 121.227L12.4855 120.857C12.4855 120.781 12.4236 120.719 12.3472 120.719L11.7575 120.719C11.6811 120.719 11.6191 120.781 11.6191 120.857Z" fill="white"/>
<path opacity="0.43" d="M12.9375 120.857L12.9375 122.345C12.9375 122.426 13.0027 122.491 13.0831 122.491L13.8548 122.491C13.9352 122.491 14.0004 122.426 14.0004 122.345L14.0004 120.857C14.0004 120.777 13.9352 120.712 13.8548 120.712L13.0831 120.712C13.0027 120.712 12.9375 120.777 12.9375 120.857Z" fill="white"/>
<path opacity="0.43" d="M14.6191 121.982L14.6191 122.353C14.6191 122.429 14.6811 122.491 14.7575 122.491L15.3472 122.491C15.4236 122.491 15.4855 122.429 15.4855 122.353L15.4855 121.982C15.4855 121.906 15.4236 121.844 15.3472 121.844L14.7575 121.844C14.6811 121.844 14.6191 121.906 14.6191 121.982Z" fill="white"/>
<path opacity="0.43" d="M15.9375 121.547C16.116 121.849 16.2717 122.165 16.4034 122.491L16.0904 122.491C16.0707 122.492 16.0509 122.488 16.0324 122.482C16.0139 122.475 15.997 122.464 15.9827 122.451C15.9684 122.437 15.957 122.421 15.9492 122.403C15.9415 122.385 15.9375 122.365 15.9375 122.345L15.9375 121.547Z" fill="white"/>
<path opacity="0.43" d="M11.8242 125.911L11.8242 126.281C11.8242 126.357 11.8861 126.419 11.9625 126.419L12.5522 126.419C12.6286 126.419 12.6906 126.357 12.6906 126.281L12.6906 125.911C12.6906 125.834 12.6286 125.773 12.5522 125.773L11.9625 125.773C11.8861 125.773 11.8242 125.834 11.8242 125.911Z" fill="white"/>
<path opacity="0.43" d="M11.8242 124.785L11.8242 125.155C11.8242 125.232 11.8861 125.293 11.9625 125.293L12.5522 125.293C12.6286 125.293 12.6906 125.232 12.6906 125.155L12.6906 124.785C12.6906 124.709 12.6286 124.647 12.5522 124.647L11.9625 124.647C11.8861 124.647 11.8242 124.709 11.8242 124.785Z" fill="white"/>
<path opacity="0.43" d="M13.1484 124.785L13.1484 126.274C13.1484 126.354 13.2136 126.419 13.294 126.419L14.0658 126.419C14.1462 126.419 14.2114 126.354 14.2114 126.274L14.2114 124.785C14.2114 124.705 14.1462 124.64 14.0658 124.64L13.294 124.64C13.2136 124.64 13.1484 124.705 13.1484 124.785Z" fill="white"/>
<path opacity="0.43" d="M14.9824 125.911L14.9824 126.281C14.9824 126.357 15.0444 126.419 15.1207 126.419L15.7104 126.419C15.7868 126.419 15.8488 126.357 15.8488 126.281L15.8488 125.911C15.8488 125.834 15.7868 125.773 15.7104 125.773L15.1207 125.773C15.0444 125.773 14.9824 125.834 14.9824 125.911Z" fill="white"/>
<path opacity="0.43" d="M14.9824 124.785L14.9824 125.155C14.9824 125.232 15.0444 125.293 15.1207 125.293L15.7104 125.293C15.7868 125.293 15.8488 125.232 15.8488 125.155L15.8488 124.785C15.8488 124.709 15.7868 124.647 15.7104 124.647L15.1207 124.647C15.0444 124.647 14.9824 124.709 14.9824 124.785Z" fill="white"/>
<path opacity="0.43" d="M16.4538 124.647L16.9198 124.647C16.9308 124.86 16.9308 125.073 16.9198 125.286C16.9202 125.668 16.891 126.049 16.8324 126.426L16.4247 126.426C16.3842 126.426 16.3453 126.41 16.3166 126.382C16.2879 126.353 16.2718 126.314 16.2718 126.274L16.2718 124.821C16.2657 124.797 16.2662 124.771 16.2733 124.746C16.2804 124.722 16.2939 124.7 16.3123 124.682C16.3308 124.664 16.3536 124.652 16.3784 124.646C16.4033 124.64 16.4293 124.64 16.4538 124.647Z" fill="white"/>
<path opacity="0.43" d="M14.6481 129.992L15.2524 129.992C15.0681 130.223 14.8661 130.439 14.6481 130.638C14.6299 130.638 14.6119 130.635 14.5952 130.628C14.5784 130.621 14.5631 130.611 14.5503 130.598C14.5374 130.585 14.5272 130.57 14.5203 130.553C14.5133 130.536 14.5098 130.518 14.5098 130.5L14.5098 130.123C14.5116 130.087 14.527 130.054 14.5528 130.03C14.5785 130.005 14.6126 129.992 14.6481 129.992Z" fill="white"/>
<path opacity="0.43" d="M14.5098 129.004L14.5098 129.375C14.5098 129.451 14.5717 129.513 14.6481 129.513L15.2378 129.513C15.3142 129.513 15.3761 129.451 15.3761 129.375L15.3761 129.004C15.3761 128.928 15.3142 128.866 15.2378 128.866L14.6481 128.866C14.5717 128.866 14.5098 128.928 14.5098 129.004Z" fill="white"/>
<path opacity="0.43" d="M15.981 128.866L16.0247 128.866L15.8281 129.2L15.8281 129.011C15.8281 128.992 15.8321 128.972 15.8399 128.954C15.8476 128.936 15.859 128.92 15.8733 128.906C15.8876 128.892 15.9045 128.882 15.9231 128.875C15.9416 128.868 15.9613 128.865 15.981 128.866Z" fill="white"/>
<path opacity="0.15" d="M11.9327 120.058L11.7871 119.935L11.7871 119.862L12.304 119.862L12.4278 119.978C12.4338 119.982 12.4387 119.988 12.4421 119.994C12.4455 120 12.4473 120.007 12.4473 120.014C12.4473 120.022 12.4455 120.029 12.4421 120.035C12.4387 120.041 12.4338 120.047 12.4278 120.051L11.9327 120.051C11.9327 120.051 11.94 120.065 11.9327 120.058Z" fill="white"/>
<path opacity="0.15" d="M11.7003 119.738L11.5547 119.615C11.5487 119.611 11.5438 119.606 11.5403 119.599C11.5369 119.593 11.5352 119.586 11.5352 119.579C11.5352 119.572 11.5369 119.564 11.5403 119.558C11.5438 119.552 11.5487 119.546 11.5547 119.542L12.0789 119.542L12.1954 119.666L12.1954 119.738L11.7003 119.738C11.7003 119.738 11.7076 119.746 11.7003 119.738Z" fill="white"/>
<path opacity="0.15" d="M15.296 124.139L15.1504 124.016C15.1444 124.012 15.1395 124.006 15.1361 124C15.1326 123.994 15.1309 123.987 15.1309 123.979C15.1309 123.972 15.1326 123.965 15.1361 123.959C15.1395 123.952 15.1444 123.947 15.1504 123.943L15.6673 123.943L15.7911 124.067C15.7971 124.071 15.802 124.076 15.8054 124.082C15.8088 124.089 15.8106 124.096 15.8106 124.103C15.8106 124.11 15.8088 124.117 15.8054 124.123C15.802 124.13 15.7971 124.135 15.7911 124.139L15.296 124.139Z" fill="white"/>
<path opacity="0.15" d="M15.0558 123.819L14.9102 123.696C14.9042 123.692 14.8992 123.687 14.8958 123.68C14.8924 123.674 14.8906 123.667 14.8906 123.66C14.8906 123.652 14.8924 123.645 14.8958 123.639C14.8992 123.633 14.9042 123.627 14.9102 123.623L15.4343 123.623L15.5508 123.739C15.5568 123.743 15.5618 123.749 15.5652 123.755C15.5686 123.761 15.5704 123.769 15.5704 123.776C15.5704 123.783 15.5686 123.79 15.5652 123.796C15.5618 123.803 15.5568 123.808 15.5508 123.812L15.0776 123.812L15.0558 123.819Z" fill="white"/>
<path opacity="0.15" d="M12.0499 124.081L11.9043 123.958L11.9043 123.885L12.4212 123.885L12.6032 124.038C12.6092 124.042 12.6141 124.047 12.6175 124.053C12.621 124.06 12.6227 124.067 12.6227 124.074C12.6227 124.081 12.621 124.088 12.6175 124.095C12.6141 124.101 12.6092 124.106 12.6032 124.11L12.1081 124.11C12.1024 124.112 12.0963 124.114 12.0902 124.113C12.084 124.113 12.078 124.111 12.0725 124.109C12.067 124.106 12.0622 124.102 12.0583 124.097C12.0544 124.093 12.0515 124.087 12.0499 124.081Z" fill="white"/>
<path opacity="0.15" d="M11.8155 123.761L11.6699 123.638C11.6639 123.634 11.659 123.628 11.6556 123.622C11.6522 123.616 11.6504 123.609 11.6504 123.601C11.6504 123.594 11.6522 123.587 11.6556 123.581C11.659 123.575 11.6639 123.569 11.6699 123.565L12.1868 123.565L12.3106 123.689C12.3167 123.692 12.3219 123.696 12.3256 123.702C12.3292 123.708 12.3311 123.714 12.3311 123.721C12.3311 123.728 12.3292 123.735 12.3256 123.741C12.3219 123.746 12.3167 123.751 12.3106 123.754L11.8083 123.754L11.8155 123.761Z" fill="white"/>
<path opacity="0.15" d="M8.99131 124.081L8.8457 123.958L8.8457 123.885L9.3626 123.885L9.54461 124.038C9.55062 124.042 9.55554 124.047 9.55895 124.053C9.56236 124.06 9.56414 124.067 9.56414 124.074C9.56414 124.081 9.56236 124.088 9.55895 124.095C9.55554 124.101 9.55062 124.106 9.54461 124.11L9.04955 124.11C9.04384 124.112 9.03771 124.114 9.03157 124.113C9.02543 124.113 9.01941 124.111 9.01392 124.109C9.00842 124.106 9.00357 124.102 8.99967 124.097C8.99577 124.093 8.99292 124.087 8.99131 124.081Z" fill="white"/>
<path opacity="0.15" d="M8.74327 123.761L8.59766 123.638C8.59165 123.634 8.58673 123.628 8.58332 123.622C8.57991 123.616 8.57812 123.609 8.57812 123.601C8.57812 123.594 8.57991 123.587 8.58332 123.581C8.58673 123.575 8.59165 123.569 8.59766 123.565L9.11456 123.565L9.23832 123.689C9.24448 123.692 9.24967 123.696 9.2533 123.702C9.25693 123.708 9.25886 123.714 9.25886 123.721C9.25886 123.728 9.25693 123.735 9.2533 123.741C9.24967 123.746 9.24448 123.751 9.23832 123.754L8.73599 123.754L8.74327 123.761Z" fill="white"/>
<path opacity="0.15" d="M10.294 128.169L10.1484 128.046C10.1424 128.042 10.1375 128.037 10.1341 128.03C10.1307 128.024 10.1289 128.017 10.1289 128.01C10.1289 128.002 10.1307 127.995 10.1341 127.989C10.1375 127.983 10.1424 127.977 10.1484 127.973L10.6653 127.973L10.7891 128.097C10.7953 128.1 10.8005 128.104 10.8041 128.11C10.8077 128.116 10.8096 128.123 10.8096 128.129C10.8096 128.136 10.8077 128.143 10.8041 128.149C10.8005 128.154 10.7953 128.159 10.7891 128.162L10.294 128.162C10.294 128.162 10.3013 128.177 10.294 128.169Z" fill="white"/>
<path opacity="0.15" d="M10.0536 127.85L9.91531 127.733C9.90565 127.733 9.89639 127.73 9.88957 127.723C9.88274 127.716 9.87891 127.707 9.87891 127.697C9.87891 127.688 9.88274 127.678 9.88957 127.672C9.89639 127.665 9.90565 127.661 9.91531 127.661L10.4395 127.661L10.556 127.784C10.562 127.788 10.5669 127.794 10.5703 127.8C10.5737 127.806 10.5755 127.813 10.5755 127.821C10.5755 127.828 10.5737 127.835 10.5703 127.841C10.5669 127.848 10.562 127.853 10.556 127.857L10.0609 127.857C10.0583 127.855 10.0558 127.852 10.0536 127.85Z" fill="white"/>
<path opacity="0.15" d="M14.6124 128.169L14.4668 128.046L14.4668 127.973L14.9837 127.973L15.1075 128.097L15.1075 128.162L14.6415 128.162C14.6415 128.162 14.6197 128.177 14.6124 128.169Z" fill="white"/>
<path opacity="0.15" d="M14.378 127.85L14.2324 127.733L14.2324 127.661L14.7566 127.661L14.8731 127.784C14.8791 127.788 14.884 127.794 14.8874 127.8C14.8908 127.806 14.8926 127.813 14.8926 127.821C14.8926 127.828 14.8908 127.835 14.8874 127.841C14.884 127.848 14.8791 127.853 14.8731 127.857L14.378 127.857L14.378 127.85Z" fill="white"/>
<path d="M0.109374 133.557L14.1894 133.557L16.2061 135.423L14.1894 135.423L14.1894 137.464L8.53993 137.464L8.53993 142.227L10.5566 142.227L10.5566 144.093L14.1894 144.093L14.1894 146.126L0.109375 146.126L0.109375 142.227L5.40213 142.227L5.40213 137.464L0.109375 137.464L0.109374 133.557Z" fill="#AF510B"/>
<path d="M10.5566 142.227L14.1895 142.227L16.2061 144.093L10.5566 144.093L10.5566 142.227Z" fill="#934612"/>
<path d="M2.12695 139.33L7.41971 139.33L7.41971 144.093L2.12695 144.093L2.12695 148L16.207 148L16.207 144.093L10.5575 144.093L10.5575 139.33L16.207 139.33L16.207 135.431L2.12695 135.431L2.12695 139.33Z" fill="#FC8019"/>
<path d="M2.12601 144.093L0.109375 142.227L0.109375 146.127L2.12601 148" fill="#934612"/>
<path d="M2.12601 135.431L0.109375 133.557L0.109375 137.464L2.12601 139.33" fill="#934612"/>
<path d="M7.42679 139.33L5.41016 139.33L5.41016 142.227L7.42679 144.093" fill="#934612"/>
<path d="M4.9575 96.524C6.03825 95.5795 7.44683 95.0947 8.88157 95.1734L15.7396 95.1734C15.8632 95.1734 15.9817 95.2223 16.069 95.3095C16.1564 95.3966 16.2055 95.5148 16.2055 95.6381L16.2055 99.08C16.2055 99.2039 16.1567 99.3229 16.0695 99.4112C15.9823 99.4995 15.8638 99.5501 15.7396 99.552L9.47127 99.552C9.18738 99.5292 8.9018 99.5638 8.63161 99.6536C8.36141 99.7435 8.11216 99.8867 7.89873 100.075C7.5367 100.498 7.33782 101.036 7.33782 101.592C7.33782 102.149 7.5367 102.687 7.89873 103.11C8.10517 103.313 8.35157 103.47 8.62227 103.573C8.89298 103.675 9.18209 103.72 9.47127 103.706L15.7469 103.706C15.8711 103.707 15.9896 103.758 16.0768 103.846C16.164 103.935 16.2128 104.054 16.2128 104.178L16.2128 107.619C16.2128 107.743 16.164 107.862 16.0768 107.951C15.9896 108.039 15.8711 108.089 15.7469 108.091L9.47127 108.091C8.89803 108.061 8.33573 108.256 7.90601 108.636C7.71256 108.835 7.5628 109.072 7.46629 109.332C7.36977 109.592 7.32861 109.87 7.34543 110.146C7.32807 110.428 7.36888 110.709 7.46532 110.974C7.56175 111.239 7.71176 111.481 7.90601 111.686C8.11466 111.881 8.36124 112.031 8.63048 112.127C8.89972 112.223 9.18589 112.264 9.47127 112.245L15.7469 112.245C15.8711 112.247 15.9896 112.297 16.0768 112.386C16.164 112.474 16.2128 112.593 16.2128 112.717L16.2128 116.159C16.2128 116.22 16.2007 116.28 16.1773 116.337C16.1539 116.393 16.1196 116.444 16.0763 116.487C16.0331 116.531 15.9817 116.565 15.9252 116.588C15.8686 116.612 15.8081 116.624 15.7469 116.624L4.09843 116.624C3.978 116.618 3.86422 116.567 3.78034 116.48C3.69645 116.394 3.64878 116.279 3.64705 116.159L3.64705 112.717C3.64705 112.592 3.69691 112.472 3.78566 112.383C3.8744 112.295 3.99477 112.245 4.12027 112.245C4.21015 112.244 4.29793 112.218 4.37335 112.169C4.44876 112.12 4.50868 112.051 4.54611 111.969C4.58353 111.888 4.59691 111.797 4.58467 111.709C4.57243 111.62 4.53509 111.536 4.477 111.468C4.29719 111.241 4.13877 110.998 4.00379 110.742C3.67312 110.079 3.50826 109.347 3.52329 108.607C3.50961 107.746 3.71767 106.896 4.12755 106.138C4.42555 105.607 4.82941 105.142 5.31423 104.773C5.36769 104.729 5.41072 104.673 5.44024 104.61C5.46977 104.548 5.48508 104.479 5.48508 104.41C5.48508 104.341 5.46977 104.272 5.44024 104.209C5.41072 104.147 5.36769 104.091 5.31423 104.047C4.85324 103.66 4.4639 103.195 4.16395 102.674C3.73893 101.939 3.5178 101.105 3.52329 100.256C3.48464 99.5685 3.59246 98.8803 3.83966 98.237C4.08686 97.5937 4.46783 97.0099 4.9575 96.524Z" fill="#FC8019"/>
<path d="M10.6508 81.5362L10.6508 88.2603C10.6492 88.3817 10.6781 88.5015 10.7349 88.6089C10.7917 88.7163 10.8746 88.8078 10.976 88.8749C11.0774 88.9421 11.194 88.9829 11.3153 88.9934C11.4365 89.004 11.5585 88.9841 11.6701 88.9356C11.8615 88.8505 12.0365 88.7325 12.187 88.587C12.354 88.4182 12.4847 88.2171 12.5711 87.9961C12.6575 87.7751 12.6977 87.5388 12.6893 87.3018C12.7028 87.036 12.6493 86.7711 12.5335 86.5313C12.4178 86.2915 12.2436 86.0845 12.0268 85.9293C11.928 85.8627 11.8471 85.7729 11.7913 85.6679C11.7354 85.5628 11.7063 85.4456 11.7065 85.3267L11.7065 82.0663C11.7059 81.9467 11.7349 81.8289 11.7909 81.7232C11.8469 81.6175 11.9283 81.5273 12.0276 81.4605C12.127 81.3937 12.2414 81.3524 12.3607 81.3402C12.4799 81.3281 12.6003 81.3455 12.7112 81.391C13.1849 81.5947 13.6264 81.8662 14.0216 82.197C14.7133 82.7673 15.2617 83.4909 15.6233 84.3101C16.021 85.1931 16.2198 86.1523 16.2057 87.1202C16.2307 88.2672 15.9626 89.4017 15.4267 90.4169C14.9147 91.3707 14.1356 92.1553 13.1844 92.6752C12.1324 93.2415 10.9505 93.5243 9.75538 93.4957C8.56644 93.5266 7.38987 93.2488 6.34093 92.6897C5.39417 92.1729 4.61785 91.3936 4.10589 90.4459C3.60059 89.4175 3.33789 88.2873 3.33789 87.142C3.33789 85.9967 3.60059 84.8665 4.10589 83.8381C4.6029 82.8984 5.36128 82.1218 6.28997 81.6016C7.3166 81.0459 8.47118 80.768 9.63889 80.7955C9.75537 80.7955 9.87186 80.7955 9.98834 80.7955C10.1724 80.8121 10.3433 80.8978 10.4663 81.0353C10.5893 81.1729 10.6553 81.3519 10.6508 81.5362ZM8.52501 86.2779C8.52747 86.1312 8.48532 85.9872 8.40413 85.8649C8.32293 85.7426 8.2065 85.6477 8.07015 85.5926C7.93381 85.5376 7.78396 85.5251 7.64032 85.5567C7.49669 85.5882 7.36602 85.6625 7.26552 85.7696C6.95289 86.1463 6.78969 86.6243 6.80687 87.113C6.78803 87.5894 6.94325 88.0564 7.24368 88.4273C7.34324 88.5366 7.47384 88.613 7.61806 88.6464C7.76228 88.6797 7.91328 88.6684 8.0509 88.614C8.18853 88.5596 8.30624 88.4646 8.38835 88.3417C8.47046 88.2188 8.51305 88.0739 8.51045 87.9262L8.52501 86.2779Z" fill="#FC8019"/>
<path d="M14.8958 75.5096C14.2152 76.4427 13.2014 77.0795 12.0637 77.2887C11.9544 77.311 11.8415 77.3091 11.7329 77.2832C11.6244 77.2574 11.5228 77.2081 11.4354 77.1389C11.3479 77.0697 11.2768 76.9822 11.2268 76.8826C11.1769 76.7831 11.1495 76.6738 11.1464 76.5625L11.1464 73.4038C11.1506 73.2391 11.2072 73.0801 11.308 72.9495C11.4087 72.819 11.5485 72.7238 11.707 72.6777C11.956 72.6111 12.1808 72.4751 12.355 72.2856C12.6165 71.9843 12.752 71.5944 12.7335 71.1964C12.7473 70.8409 12.6423 70.491 12.435 70.2015C12.3365 70.073 12.2082 69.9702 12.0611 69.902C11.914 69.8337 11.7526 69.8019 11.5905 69.8094C11.3697 69.8079 11.1527 69.8675 10.9638 69.9816C10.7748 70.0956 10.6213 70.2598 10.5203 70.4557C10.172 71.1022 9.8868 71.7807 9.66854 72.4816C9.39206 73.3354 9.05885 74.1699 8.67114 74.9795C8.34638 75.6379 7.87288 76.2121 7.28789 76.6569C6.58113 77.1625 5.7253 77.4181 4.85628 77.3831C3.93075 77.4165 3.01761 77.1628 2.24266 76.6569C1.50304 76.1269 0.93188 75.3959 0.597323 74.5511C0.194261 73.5726 -0.00632269 72.5228 0.00762067 71.465C-0.0654362 69.9096 0.388463 68.375 1.29623 67.1082C1.95917 66.2506 2.91546 65.6664 3.98265 65.4671C4.09289 65.4437 4.20694 65.4447 4.31677 65.47C4.42661 65.4952 4.52955 65.5442 4.61838 65.6134C4.7072 65.6826 4.77974 65.7704 4.83091 65.8706C4.88207 65.9708 4.91061 66.0809 4.91452 66.1932L4.91452 69.4536C4.91355 69.617 4.85996 69.7758 4.76165 69.9066C4.66334 70.0373 4.52552 70.1331 4.3685 70.1798C4.16253 70.2449 3.9786 70.3655 3.83704 70.5283C3.59395 70.8273 3.46728 71.2037 3.48031 71.5885C3.46784 71.8848 3.5724 72.1742 3.77152 72.3945C3.87972 72.5023 4.00969 72.5859 4.15279 72.6397C4.29589 72.6936 4.44884 72.7164 4.60147 72.7067C4.74764 72.7072 4.8922 72.6763 5.02535 72.6162C5.1585 72.5561 5.27713 72.4681 5.37318 72.3582C5.60833 72.1071 5.798 71.8171 5.93376 71.5013C6.09393 71.16 6.29049 70.6517 6.53074 69.9837C6.81132 69.1353 7.15192 68.3078 7.54998 67.5076C7.89145 66.8537 8.37378 66.2834 8.96235 65.8374C9.62216 65.3431 10.4308 65.0871 11.2556 65.1113C12.1527 65.1042 13.0327 65.3564 13.7892 65.8374C14.5626 66.3314 15.1768 67.0373 15.5583 67.8706C16.0132 68.8527 16.2349 69.9261 16.2062 71.0076C16.2712 72.6104 15.8112 74.1907 14.8958 75.5096Z" fill="#F8D319"/>
<path d="M6.34885 62.9909C5.40016 62.4742 4.62145 61.695 4.10653 60.7471C3.57241 59.7313 3.30444 58.5973 3.32754 57.4504C3.28003 55.998 3.74365 54.5748 4.63799 53.4276C5.32444 52.5739 6.24526 51.9381 7.288 51.5978C7.40388 51.5586 7.52744 51.5475 7.64846 51.5654C7.76949 51.5832 7.88453 51.6295 7.98409 51.7005C8.08364 51.7714 8.16486 51.8649 8.22105 51.9733C8.27724 52.0817 8.30678 52.2019 8.30724 52.3239L8.30724 55.4608C8.3123 55.5971 8.27879 55.732 8.21055 55.8501C8.14231 55.9683 8.0421 56.0649 7.92139 56.1289C7.65582 56.2509 7.43323 56.4498 7.2826 56.6998C7.13197 56.9497 7.06029 57.2391 7.07688 57.5303C7.06936 57.7876 7.12756 58.0425 7.246 58.2711C7.36444 58.4998 7.53923 58.6946 7.75394 58.8374C8.36016 59.195 9.06043 59.3621 9.7633 59.3166C10.4684 59.3613 11.1708 59.1944 11.7799 58.8374C11.9988 58.6979 12.1776 58.5041 12.2989 58.275C12.4201 58.0459 12.4796 57.7893 12.4716 57.5303C12.4906 57.2423 12.4233 56.9552 12.278 56.7056C12.1328 56.456 11.9163 56.2552 11.6562 56.1289C11.5341 56.0659 11.4324 55.9697 11.3628 55.8515C11.2933 55.7333 11.2587 55.5978 11.263 55.4608L11.263 52.3384C11.2635 52.2164 11.293 52.0962 11.3492 51.9878C11.4054 51.8794 11.4866 51.7859 11.5862 51.715C11.6857 51.644 11.8008 51.5977 11.9218 51.5799C12.0428 51.562 12.1664 51.5731 12.2823 51.6123C13.317 51.9568 14.2314 52.5892 14.9177 53.4349C15.8174 54.5796 16.284 56.0039 16.2355 57.4577C16.2586 58.6045 15.9906 59.7385 15.4565 60.7544C14.9415 61.7023 14.1628 62.4815 13.2141 62.9981C12.1475 63.5486 10.9561 63.8138 9.75602 63.7679C8.57233 63.8041 7.39915 63.5365 6.34885 62.9909Z" fill="#F8D319"/>
<path d="M3.52344 22.4722L16.0965 22.4722L16.0965 26.8726L14.3055 26.8726C14.8881 27.2605 15.3617 27.7904 15.6815 28.412C16.0403 29.1101 16.2203 29.8859 16.2057 30.6703C16.2362 31.3182 16.1214 31.9647 15.8695 32.5627C15.6176 33.1607 15.235 33.695 14.7496 34.1267C13.6409 35.0183 12.2403 35.4684 10.8183 35.3902L3.538 35.3902L3.538 31.0334L10.2722 31.0334C10.8883 31.0663 11.4933 30.8608 11.9613 30.4597C12.3549 30.0535 12.575 29.5107 12.575 28.9457C12.575 28.3808 12.3549 27.8379 11.9613 27.4317C11.4897 27.0385 10.886 26.8387 10.2722 26.8726L3.52344 26.8726L3.52344 22.4722Z" fill="#F8D319"/>
<path d="M13.243 12.5675L15.427 12.5675C15.6317 12.5675 15.828 12.6485 15.9727 12.7929C16.1174 12.9372 16.1987 13.133 16.1987 13.3372L16.1987 14.4699C16.1987 17.6746 14.6092 19.277 11.4302 19.277L8.06668 19.277C7.96473 19.276 7.86359 19.2952 7.76912 19.3335C7.67465 19.3717 7.58872 19.4283 7.51629 19.4998C7.44386 19.5714 7.38636 19.6566 7.34712 19.7505C7.30789 19.8443 7.28769 19.945 7.28769 20.0467C7.28769 20.2508 7.20639 20.4466 7.06166 20.591C6.91694 20.7353 6.72065 20.8164 6.51598 20.8164L4.41199 20.8164C4.20858 20.8145 4.01416 20.7326 3.871 20.5884C3.72785 20.4443 3.64755 20.2496 3.64756 20.0467C3.64756 19.945 3.62736 19.8443 3.58813 19.7505C3.54889 19.6566 3.49139 19.5714 3.41896 19.4998C3.34653 19.4283 3.26059 19.3717 3.16612 19.3335C3.07165 19.2952 2.97052 19.276 2.86857 19.277L1.36155 19.277C1.15622 19.2751 0.959942 19.1924 0.815424 19.0469C0.670906 18.9014 0.589835 18.7048 0.589844 18.5L0.589844 15.639C0.591742 15.4355 0.673656 15.2408 0.81797 15.0968C0.962284 14.9529 1.15747 14.8712 1.36155 14.8693L2.86129 14.8693C2.96385 14.8712 3.06577 14.8528 3.16108 14.8149C3.2564 14.7771 3.3432 14.7207 3.4164 14.6491C3.48961 14.5774 3.54776 14.4919 3.58745 14.3976C3.62714 14.3032 3.64757 14.2019 3.64756 14.0996L3.64756 13.3735C3.64756 13.2724 3.66752 13.1723 3.7063 13.0789C3.74508 12.9855 3.80192 12.9007 3.87358 12.8292C3.94524 12.7577 4.03032 12.701 4.12394 12.6623C4.21757 12.6237 4.31792 12.6038 4.41926 12.6038L6.51598 12.6038C6.71815 12.6037 6.91227 12.6828 7.05658 12.824C7.20089 12.9653 7.28388 13.1573 7.28769 13.3589L7.28769 14.0851C7.28769 14.1868 7.30789 14.2875 7.34712 14.3813C7.38636 14.4752 7.44386 14.5604 7.51629 14.6319C7.58872 14.7035 7.67465 14.76 7.76912 14.7983C7.86359 14.8365 7.96473 14.8558 8.06668 14.8548L11.503 14.8548C11.7667 14.8745 12.0277 14.7912 12.231 14.6224C12.3979 14.3939 12.4756 14.1125 12.4494 13.8309L12.4494 13.3226C12.4551 13.1178 12.5417 12.9236 12.6903 12.7821C12.839 12.6407 13.0376 12.5635 13.243 12.5675Z" fill="#F8D319"/>
<path d="M15.6383 8.24725C15.3069 9.0718 14.7648 9.79535 14.0657 10.3458C13.698 10.6328 13.2845 10.8561 12.8426 11.0066C12.7264 11.0455 12.6025 11.0564 12.4812 11.0385C12.3598 11.0206 12.2444 10.9744 12.1444 10.9037C12.0444 10.8329 11.9625 10.7396 11.9054 10.6313C11.8484 10.523 11.8178 10.4028 11.8161 10.2804L11.8161 7.52838C11.8161 7.38489 11.8564 7.24426 11.9323 7.12236C12.0082 7.00047 12.1167 6.90217 12.2457 6.83855C12.4508 6.74367 12.6268 6.59574 12.7553 6.41012C12.9904 6.06632 13.1102 5.65701 13.0975 5.24103C13.1105 4.94383 13.0317 4.64981 12.8718 4.39872C12.8071 4.30318 12.7205 4.22436 12.6192 4.1688C12.518 4.11324 12.4049 4.08254 12.2893 4.07922C12.1278 4.07233 11.9686 4.11926 11.8368 4.21261C11.705 4.30596 11.6081 4.44041 11.5613 4.59477C11.3511 5.14646 11.1879 5.71487 11.0735 6.29395C10.9273 7.0532 10.7253 7.80071 10.4693 8.53045C10.2368 9.13084 9.85914 9.66465 9.36996 10.0844C8.78692 10.5478 8.05421 10.7828 7.30964 10.7452C6.58725 10.7523 5.87946 10.5423 5.27845 10.1425C4.63671 9.69601 4.13248 9.07994 3.82239 8.36344C3.44502 7.46799 3.26382 6.50246 3.29093 5.5315C3.20991 4.14014 3.6395 2.76694 4.49946 1.66843C5.07066 0.983082 5.82957 0.47845 6.68354 0.216151C6.79896 0.180045 6.92123 0.17125 7.04066 0.190457C7.16009 0.209663 7.27339 0.256346 7.37158 0.326808C7.46978 0.39727 7.55018 0.489574 7.6064 0.596406C7.66262 0.703238 7.69313 0.821659 7.6955 0.942291L7.6955 3.4039C7.70799 3.5553 7.67256 3.7068 7.5942 3.83707C7.51584 3.96733 7.39849 4.06979 7.25868 4.13004C7.06757 4.2209 6.89863 4.35224 6.76362 4.5149C6.53064 4.83715 6.41505 5.22914 6.43601 5.62589C6.4187 5.91142 6.48987 6.19536 6.63986 6.43917C6.70202 6.52944 6.78594 6.60268 6.88389 6.65216C6.98184 6.70165 7.09069 6.72579 7.20044 6.72237C7.35453 6.71974 7.50382 6.6684 7.6268 6.57575C7.74978 6.48311 7.84011 6.35392 7.88478 6.2068C8.10268 5.67325 8.26373 5.11834 8.36528 4.5512C8.52331 3.78071 8.73992 3.02334 9.01322 2.28565C9.27043 1.66357 9.67813 1.11472 10.1999 0.688148C10.8201 0.202558 11.5969 -0.0401968 12.384 0.00557574C13.0942 -0.00339456 13.7875 0.221179 14.3569 0.644582C14.9718 1.11137 15.4475 1.73645 15.7329 2.45266C16.0851 3.32928 16.2559 4.26785 16.2353 5.21199C16.2436 6.25356 16.0406 7.28603 15.6383 8.24725Z" fill="#F8D319"/>
<path d="M14.8883 43.2836C14.4104 43.9373 13.7742 44.4594 13.0391 44.8013C13.1943 44.3313 13.2873 43.843 13.3157 43.349C13.3157 43.1529 13.3157 42.9569 13.3157 42.7753C13.3043 42.2581 13.2109 41.7459 13.0391 41.2577C13.7808 41.8076 14.4088 42.4956 14.8883 43.2836Z" fill="white"/>
<path d="M13.0391 44.8013C13.7742 44.4594 14.4104 43.9373 14.8883 43.2836C14.4088 42.4956 13.7808 41.8076 13.0391 41.2577M13.0391 44.794C13.1943 44.324 13.2873 43.8358 13.3157 43.3417M13.0391 44.794L13.8399 43.6975L13.3448 43.3562M13.0391 41.2577C13.2134 41.7455 13.3092 42.2577 13.323 42.7753M13.0391 41.2577L13.8399 42.4921L13.3521 42.7826M13.3521 43.3562C13.3521 43.1602 13.3521 42.9641 13.3521 42.7826" stroke="#EDE8FF" stroke-width="2" stroke-linejoin="round"/>
<path d="M13.6793 41.7438L13.6793 40.6691C13.3342 39.8681 13.0565 39.0399 12.8493 38.193L13.8394 38.8683C14.2572 39.2843 14.6283 39.7444 14.946 40.2407C15.0663 40.4766 15.1733 40.719 15.2664 40.9668L14.946 41.8745L15.7614 41.6857L15.6668 44.7427L14.8223 44.4741C15.0476 44.7241 15.201 45.0302 15.2664 45.36C14.5192 46.2109 13.7114 47.0069 12.8493 47.7417L12.5581 47.0954L11.9902 46.6525L13.0968 46.1152L14.1234 45.2946L13.8394 44.888L13.5919 44.5757L14.3199 44.0529L15.0916 43.2832L13.9777 41.9834L13.6793 41.7438Z" fill="#CA872C"/>
<path d="M14.1743 40.9306C13.9831 40.9058 13.8073 40.8129 13.6793 40.6692M13.6793 40.6692L13.6793 41.7439L13.9777 41.9908M13.6793 40.6692C13.3342 39.8682 13.0565 39.04 12.8493 38.1931L13.8394 38.8684C14.2572 39.2844 14.6283 39.7445 14.946 40.2408C15.0663 40.4767 15.1733 40.7191 15.2664 40.9669L14.946 41.8746M14.946 41.8746L13.9777 41.9835M14.946 41.831L15.7614 41.6422L15.6668 44.6993L14.8223 44.4306M13.9777 41.9835L15.0989 43.2688L14.3272 44.0385M14.8223 44.4306L14.5747 44.3507L14.3272 44.0385M14.8223 44.4306C15.0476 44.6806 15.201 44.9867 15.2664 45.3165C14.5192 46.1674 13.7114 46.9634 12.8493 47.6982L12.5581 47.052L11.9902 46.609L13.0968 46.0717L14.3272 45.0841L14.1743 45.3165L13.8394 44.8881L13.5919 44.5758L14.3199 44.053" stroke="#3E2916" stroke-width="0.05" stroke-linejoin="round"/>
<path d="M13.7809 43.3559C13.6651 43.453 13.538 43.5359 13.4023 43.6028L13.4023 42.7096C13.5402 42.7695 13.6679 42.8504 13.7809 42.9493M13.7809 43.3849L14.6254 43.6318L15.2224 43.2688C15.055 43.109 14.5308 42.7096 14.5308 42.7096L13.8028 42.9493M13.8028 43.3849C13.9702 43.2324 13.9702 43.0945 13.8028 42.9493" stroke="white" stroke-width="2" stroke-linejoin="round"/>
<path d="M12.711 46.3403C12.4098 46.2049 12.1379 46.0126 11.9102 45.7739C13.1696 44.6702 13.7448 43.8424 15.5503 42.971C15.1045 43.4412 14.7425 43.984 14.4801 44.5758C14.4482 44.4676 14.3879 44.3698 14.3054 44.2926C13.6079 44.8288 13.0592 45.5336 12.711 46.3403Z" fill="#CA872C" stroke="#3E2713" stroke-width="0.05" stroke-linejoin="round"/>
<path d="M12.864 39.7324C12.5549 39.8414 12.2686 40.0063 12.0195 40.2189C13.1698 41.4316 13.6722 42.3175 15.3903 43.3413C14.9898 42.8326 14.6773 42.2608 14.4657 41.6494C14.4277 41.7541 14.3593 41.8451 14.2691 41.9108C13.6225 41.3158 13.1389 40.566 12.864 39.7324Z" fill="#CA872C" stroke="#3E2713" stroke-width="0.05" stroke-linejoin="round"/>
<path d="M8.74317 35.9202C10.2182 35.9173 11.661 36.351 12.8889 37.1663C14.1168 37.9815 15.0746 39.1418 15.6411 40.5003C16.2075 41.8587 16.3573 43.3542 16.0713 44.7976C15.7852 46.2409 15.0764 47.5672 14.0344 48.6085C12.9923 49.6499 11.664 50.3595 10.2175 50.6476C8.77097 50.9356 7.27127 50.7893 5.9082 50.2269C4.54513 49.6645 3.37996 48.7115 2.56015 47.4884C1.74033 46.2653 1.30274 44.8271 1.30273 43.3558C1.30273 41.3863 2.08617 39.4972 3.4811 38.1032C4.87604 36.7091 6.76851 35.924 8.74317 35.9202ZM8.74317 48.9326C9.8487 48.9312 10.929 48.6029 11.8475 47.9892C12.766 47.3756 13.4815 46.5041 13.9036 45.4849C14.3257 44.4658 14.4354 43.3447 14.2188 42.2634C14.0023 41.1821 13.4692 40.1891 12.6869 39.4099C11.9047 38.6307 10.9084 38.1003 9.82401 37.8857C8.73962 37.6711 7.61578 37.782 6.59453 38.2043C5.57329 38.6266 4.70049 39.3414 4.08643 40.2583C3.47238 41.1753 3.14464 42.2532 3.14464 43.3558C3.14464 44.0888 3.2895 44.8146 3.57095 45.4917C3.85239 46.1687 4.26489 46.7838 4.78485 47.3018C5.30482 47.8197 5.92206 48.2303 6.60126 48.5102C7.28046 48.79 8.0083 48.9336 8.74317 48.9326Z" fill="#AB6F29"/>
<path d="M8.33535 38.6214C11.1455 38.6214 13.3733 40.5457 13.3733 42.8621C13.3733 45.1784 11.1455 47.0664 8.33535 47.0664C5.52517 47.0664 3.30469 45.1494 3.30469 42.8258C3.30469 40.5021 5.53245 38.6214 8.33535 38.6214Z" fill="#F6BE81" stroke="#964927" stroke-width="0.25" stroke-miterlimit="10"/>
<path d="M8.54586 37.4473C7.89628 37.2777 7.27888 37.4861 7.16687 37.9129C7.05486 38.3396 7.49066 38.8231 8.14024 38.9927C8.78982 39.1623 9.40721 38.9538 9.51922 38.5271C9.63123 38.1003 9.19544 37.6169 8.54586 37.4473Z" fill="#964927"/>
<path d="M8.49983 37.6227C8.00195 37.4927 7.52816 37.6546 7.44161 37.9844C7.35506 38.3141 7.68851 38.6869 8.1864 38.8169C8.68428 38.9469 9.15806 38.7849 9.24461 38.4551C9.33116 38.1254 8.99771 37.7527 8.49983 37.6227Z" fill="#F6BE81"/>
<path opacity="0.2" d="M7.74023 37.9536C7.74023 38.5708 8.46826 38.6797 8.73763 38.6797M8.73763 38.6797C8.9706 38.7378 9.01428 38.4328 8.8978 38.3239C8.67211 38.1279 8.4173 38.5563 8.74491 38.6797L8.73763 38.6797Z" stroke="black" stroke-width="0.25" stroke-miterlimit="10"/>
<path d="M9.36437 47.3465C9.25236 46.9197 8.63497 46.7113 7.98539 46.8809C7.33581 47.0505 6.90002 47.5339 7.01203 47.9607C7.12404 48.3874 7.74143 48.5959 8.39101 48.4263C9.04059 48.2567 9.47638 47.7732 9.36437 47.3465Z" fill="#964927"/>
<path d="M9.08963 47.418C9.00308 47.0882 8.5293 46.9263 8.03142 47.0563C7.53354 47.1863 7.20009 47.559 7.28664 47.8887C7.37319 48.2185 7.84697 48.3805 8.34486 48.2505C8.84274 48.1205 9.17619 47.7477 9.08963 47.418Z" fill="#F6BE81"/>
<g opacity="0.2">
<path d="M7.58699 47.916C7.46323 47.3859 8.14757 47.0301 8.59167 47.1899C8.16941 47.3061 7.74716 47.4513 7.58699 47.916Z" fill="black"/>
<path d="M8.59213 47.1971C8.86878 47.0955 8.99983 47.5892 8.69406 47.6764C8.63397 47.6814 8.5741 47.6644 8.5257 47.6285C8.4773 47.5927 8.44368 47.5404 8.43117 47.4816C8.41866 47.4228 8.42811 47.3614 8.45774 47.309C8.48738 47.2566 8.53517 47.2168 8.59213 47.1971ZM8.59213 47.1971C8.38101 47.2697 8.48293 47.5457 8.6431 47.5021C8.80326 47.4585 8.8251 47.139 8.59213 47.1971Z" fill="black"/>
</g>
<path d="M7.57094 45.0481C7.50542 45.8396 8.49554 46.6166 9.027 46.9071C8.51119 47.0895 7.95561 47.1298 7.41877 47.0237C6.88193 46.9176 6.3837 46.6691 5.97656 46.3044L5.97656 45.0481C6.5153 44.7214 7.62918 44.2639 7.57094 45.0481Z" fill="#5D3A1C"/>
<path d="M7.43369 40.7201C7.48465 39.9286 8.8315 39.0863 9.37024 38.8685C6.93863 38.4546 6.67654 38.8685 6.01404 39.2461L5.83203 40.4805C6.34165 40.8871 7.37545 41.5044 7.43369 40.7201Z" fill="#5D3A1C"/>
<path d="M11.2841 44.3727C11.2841 43.302 10.4139 42.4339 9.34032 42.4339C8.26677 42.4339 7.39648 43.302 7.39648 44.3727C7.39648 45.4435 8.26677 46.3115 9.34032 46.3115C10.4139 46.3115 11.2841 45.4435 11.2841 44.3727Z" fill="#FCDEBD"/>
<path d="M9.3408 43.1601C9.10034 43.1601 8.86528 43.2313 8.66534 43.3645C8.4654 43.4978 8.30957 43.6871 8.21755 43.9087C8.12553 44.1303 8.10145 44.3741 8.14836 44.6094C8.19527 44.8446 8.31107 45.0607 8.4811 45.2303C8.65113 45.3999 8.86777 45.5154 9.10361 45.5621C9.33946 45.6089 9.58391 45.5849 9.80607 45.4931C10.0282 45.4014 10.2181 45.2459 10.3517 45.0465C10.4853 44.8471 10.5566 44.6126 10.5566 44.3728" fill="#FCFCFC"/>
<path d="M9.34081 43.1601C9.10034 43.1601 8.86528 43.2313 8.66534 43.3645C8.4654 43.4978 8.30957 43.6871 8.21755 43.9087C8.12553 44.1303 8.10145 44.3741 8.14836 44.6094C8.19527 44.8446 8.31107 45.0607 8.4811 45.2303C8.65113 45.3999 8.86777 45.5154 9.10361 45.5621C9.33946 45.6089 9.58391 45.5849 9.80607 45.4931C10.0282 45.4014 10.2181 45.2459 10.3517 45.0465C10.4853 44.8471 10.5566 44.6126 10.5566 44.3728" stroke="black" stroke-width="0.15"/>
<path d="M9.77118 44.1839C9.77118 43.9473 9.57887 43.7555 9.34165 43.7555C9.10442 43.7555 8.91211 43.9473 8.91211 44.1839C8.91211 44.4205 9.10442 44.6123 9.34165 44.6123C9.57887 44.6123 9.77118 44.4205 9.77118 44.1839Z" fill="#ABC7E5"/>
<path d="M9.34058 44.3072C9.34058 44.207 9.25909 44.1257 9.15857 44.1257C9.05805 44.1257 8.97656 44.207 8.97656 44.3072C8.97656 44.4075 9.05805 44.4888 9.15857 44.4888C9.25909 44.4888 9.34058 44.4075 9.34058 44.3072Z" fill="#8E908F"/>
<path d="M9.71237 44.2491C9.71237 44.1809 9.65696 44.1257 9.58861 44.1257C9.52026 44.1257 9.46484 44.1809 9.46484 44.2491C9.46484 44.3173 9.52026 44.3726 9.58861 44.3726C9.65696 44.3726 9.71237 44.3173 9.71237 44.2491Z" fill="white"/>
<path d="M9.37093 43.9368C9.37093 43.8847 9.32855 43.8424 9.27628 43.8424C9.22401 43.8424 9.18164 43.8847 9.18164 43.9368C9.18164 43.989 9.22401 44.0312 9.27628 44.0312C9.32855 44.0312 9.37093 43.989 9.37093 43.9368Z" fill="white"/>
<path d="M11.6568 42.8623C11.8242 42.4121 11.7733 41.2793 10.2735 40.3281M9.99688 39.8997C9.79303 39.936 9.51638 40.132 9.99688 40.6258M9.26885 41.577C9.16307 41.3832 9.10766 41.166 9.10766 40.9453C9.10766 40.7246 9.16307 40.5074 9.26885 40.3135M8.9922 41.577C8.86843 41.5117 8.65002 41.3229 8.73011 41.0978" stroke="#8C8C8C" stroke-width="0.15" stroke-miterlimit="10"/>
<path d="M8.59842 42.9855C9.42109 43.2542 8.30721 42.7531 7.43358 44.5249C7.38301 43.9788 7.53023 43.4327 7.84856 42.9855C8.39458 42.4917 8.32177 42.8984 8.59842 42.9855Z" fill="white"/>
<path d="M9.18872 42.4071C9.11268 42.2567 8.89097 42.2153 8.69351 42.3146C8.49605 42.4139 8.39762 42.6164 8.47365 42.7667C8.54969 42.9171 8.7714 42.9586 8.96886 42.8592C9.16632 42.7599 9.26475 42.5575 9.18872 42.4071Z" fill="#D9D9D9"/>
<path d="M10.8779 46.0719C10.9104 46.0412 10.9534 46.0241 10.998 46.0241C11.0427 46.0241 11.0857 46.0412 11.1182 46.0719L11.3803 46.3333C11.411 46.3656 11.4281 46.4085 11.4281 46.4531C11.4281 46.4976 11.411 46.5405 11.3803 46.5729C11.3478 46.6035 11.3048 46.6206 11.2601 46.6206C11.2154 46.6206 11.1725 46.6035 11.14 46.5729L10.8779 46.3115C10.8472 46.2791 10.8301 46.2362 10.8301 46.1917C10.8301 46.1471 10.8472 46.1042 10.8779 46.0719Z" fill="#696969"/>
<path d="M11.108 46.6691L12.5854 48.1427C12.6224 48.1796 12.6823 48.1796 12.7193 48.1427L12.9561 47.9065C12.993 47.8697 12.993 47.8099 12.9561 47.773L11.4786 46.2994C11.4417 46.2625 11.3817 46.2625 11.3448 46.2994L11.108 46.5356C11.071 46.5725 11.071 46.6322 11.108 46.6691Z" fill="#D9D9D9"/>
<path d="M11.2478 47.4586C11.1532 47.3061 11.2842 47.081 11.3643 46.9503L11.539 47.0955L11.7356 47.0375C11.6918 46.9079 11.6918 46.7676 11.7356 46.6381C12.1724 46.2024 13.1407 46.9431 12.9077 47.7128L12.3544 47.2262L12.3544 47.2698C12.3371 47.304 12.3122 47.3337 12.2816 47.3569C12.5656 47.3569 12.5656 47.5458 12.5364 47.6474C12.5947 47.5675 12.9369 47.6474 12.7403 47.9379C12.5437 48.2283 12.369 48.3735 12.1142 48.3445C11.8594 48.3155 11.8812 48.2065 11.9103 48.0904C11.5245 48.1339 11.5536 47.8435 11.6264 47.6619C11.3643 47.6982 11.3206 47.5748 11.2478 47.4586Z" fill="#FBD393"/>
<path d="M12.0636 47.4806L12.0127 47.4806C11.4011 47.7783 11.3501 47.5968 11.2846 47.4298C11.2191 47.2628 11.321 47.0522 11.4011 46.9215L11.5758 47.0667L11.7724 47.0086M12.1 47.4516C12.5077 47.2483 12.3839 47.0232 12.2747 46.8997C12.3139 46.9379 12.3436 46.9847 12.3613 47.0364C12.379 47.0882 12.3843 47.1433 12.3767 47.1974M12.1 47.4516C12.2188 47.4012 12.3165 47.3114 12.3767 47.1974M12.1 47.4516C11.9548 47.3341 11.8421 47.1817 11.7724 47.0086M12.3767 47.1974L12.93 47.6839C13.1629 46.9142 12.2019 46.1736 11.7578 46.6092C11.714 46.7388 11.714 46.8791 11.7578 47.0086M11.8962 48.0615C11.5103 48.1051 11.5394 47.8146 11.6122 47.6331C11.8495 47.5843 12.0716 47.4798 12.2602 47.3281C12.5805 47.3281 12.5514 47.5532 12.515 47.6404M11.8962 48.0615C12.1409 47.9878 12.357 47.8408 12.515 47.6404M11.8962 48.0615C12.1422 47.9905 12.359 47.843 12.515 47.6404M11.8962 48.0615C11.8962 48.1777 11.8962 48.2939 12.1 48.3157C12.3039 48.3375 12.5077 48.2285 12.7261 47.909C12.9445 47.5895 12.5077 47.5314 12.515 47.6404" stroke="#974C28" stroke-width="0.05" stroke-linejoin="round"/>
<path d="M12.6384 38.4834C13.1116 38.6359 12.602 39.1079 12.5801 39.1587C12.5583 39.2096 12.6384 39.3766 12.7185 39.4637C12.6583 39.4841 12.5946 39.4925 12.5311 39.4882C12.4677 39.4839 12.4057 39.467 12.3488 39.4387C12.2919 39.4103 12.2412 39.3709 12.1997 39.3229C12.1582 39.2748 12.1267 39.219 12.1069 39.1587C12.0054 39.1361 11.9158 39.0769 11.8554 38.9925C11.7949 38.9081 11.7678 38.8044 11.7793 38.7013C11.6847 38.7013 11.5245 38.5706 11.5827 38.2656C11.6847 38.1276 11.9322 37.8444 12.1142 37.888C12.1454 37.8889 12.176 37.897 12.2036 37.9116C12.2313 37.9262 12.2551 37.9469 12.2734 37.9722C12.2917 37.9974 12.3039 38.0266 12.3092 38.0573C12.3144 38.088 12.3124 38.1195 12.3035 38.1494C12.3641 38.1244 12.4322 38.1244 12.4928 38.1494C12.5253 38.1605 12.5551 38.1783 12.5803 38.2015C12.6055 38.2248 12.6256 38.253 12.6393 38.2844C12.653 38.3159 12.66 38.3498 12.6598 38.384C12.6597 38.4183 12.6524 38.4521 12.6384 38.4834Z" fill="#F7C183"/>
<path d="M12.1069 39.1587C12.1267 39.009 12.1864 38.8673 12.2799 38.7485C12.3734 38.6297 12.4972 38.5381 12.6384 38.4834M12.1069 39.1587C12.0054 39.1361 11.9158 39.0769 11.8554 38.9925C11.7949 38.9081 11.7678 38.8044 11.7793 38.7013M12.1069 39.1587C12.1267 39.219 12.1582 39.2748 12.1997 39.3229C12.2412 39.3709 12.2919 39.4103 12.3488 39.4387C12.4057 39.467 12.4677 39.4839 12.5311 39.4882C12.5946 39.4925 12.6583 39.4841 12.7185 39.4637C12.6384 39.3766 12.551 39.2023 12.5801 39.1587C12.6093 39.1152 13.1116 38.6359 12.6384 38.4834M12.6384 38.4834C12.6524 38.4521 12.6597 38.4183 12.6598 38.384C12.66 38.3498 12.653 38.3159 12.6393 38.2844C12.6256 38.253 12.6055 38.2248 12.5803 38.2015C12.5551 38.1783 12.5253 38.1605 12.4928 38.1494C12.4322 38.1244 12.3641 38.1244 12.3035 38.1494M11.7793 38.7013C11.6847 38.7013 11.5245 38.5706 11.5827 38.2656C11.6847 38.1276 11.9322 37.8444 12.1142 37.888C12.1454 37.8889 12.176 37.897 12.2036 37.9116C12.2313 37.9262 12.2551 37.9469 12.2734 37.9722C12.2917 37.9974 12.3039 38.0266 12.3092 38.0573C12.3144 38.088 12.3124 38.1195 12.3035 38.1494M11.7793 38.7013C11.8981 38.4715 12.0799 38.2801 12.3035 38.1494" stroke="#974C28" stroke-width="0.05" stroke-linejoin="round"/>
<path d="M4.04795 42.3901C3.66206 41.9153 3.44904 41.3239 3.44369 40.7127C3.44369 39.3694 4.52845 38.2293 6.14467 37.8808C6.28506 37.8502 6.43017 37.8479 6.57145 37.8741C6.71274 37.9003 6.84734 37.9544 6.96734 38.0333C7.07602 38.0975 7.16606 38.1889 7.2286 38.2984C7.29115 38.4079 7.32405 38.5317 7.32407 38.6578C4.04795 40.2044 11.583 48.9762 5.94082 48.9762C5.94082 47.1826 6.66885 45.4544 5.51129 44.0893L4.04795 42.3901ZM3.7349 46.471L1.01936 45.999C0.872374 45.9734 0.732106 45.9183 0.606994 45.8372C0.481882 45.7561 0.374509 45.6506 0.291333 45.527C0.207243 45.4027 0.149085 45.2628 0.120319 45.1156C0.0915522 44.9684 0.0927659 44.8169 0.123887 44.6702L0.851914 41.3517C0.897166 41.1222 1.01484 40.9131 1.18774 40.755C1.36064 40.5969 1.57971 40.4981 1.81291 40.4731L3.7349 39.8051C3.7349 39.9212 4.04795 40.8144 4.04795 40.9378C4.04795 41.664 5.88986 42.9202 5.22008 43.3196C5.22008 43.3196 5.08175 42.8766 6.14467 44.1038C7.20759 45.331 6.77077 46.471 6.77077 48.1557C6.77173 48.265 6.75098 48.3734 6.7097 48.4747C6.66842 48.576 6.60744 48.6681 6.53028 48.7457C6.45311 48.8233 6.36129 48.885 6.26012 48.927C6.15895 48.9691 6.05043 48.9907 5.94082 48.9907C5.32712 48.9141 4.76313 48.6149 4.35632 48.1503C3.94951 47.6856 3.72832 47.0879 3.7349 46.471Z" fill="#5E5E5E"/>
<path d="M3.3565 44.7354L1.90044 44.5539L1.01953 45.1421L1.52915 43.9076L1.46363 41.2572L1.90044 44.0964L3.62587 44.8226L3.3565 44.7354Z" fill="#D9D9D9"/>
<path opacity="0.2" d="M3.75 46.4278C4.79836 46.4859 6.27625 45.2514 3.75 39.8925" stroke="#EDE8FF" stroke-width="0.25" stroke-linejoin="round"/>
<path opacity="0.4" d="M11.7135 44.3364C11.7135 43.029 10.6509 41.9692 9.34016 41.9692C8.02939 41.9692 6.9668 43.029 6.9668 44.3364C6.9668 45.6438 8.02939 46.7036 9.34016 46.7036C10.6509 46.7036 11.7135 45.6438 11.7135 44.3364Z" fill="#D9D9D9" stroke="black" stroke-width="0.25"/>
<path d="M10.5576 44.3726C10.5576 44.2133 10.5262 44.0556 10.4651 43.9085C10.404 43.7614 10.3144 43.6277 10.2015 43.5151C10.0886 43.4025 9.95457 43.3132 9.80707 43.2522C9.65956 43.1913 9.50146 43.1599 9.3418 43.1599" fill="#FCFCFC"/>
<path d="M10.5576 44.3726C10.5576 44.2133 10.5262 44.0556 10.4651 43.9085C10.404 43.7614 10.3144 43.6277 10.2015 43.5151C10.0886 43.4025 9.95457 43.3132 9.80707 43.2522C9.65956 43.1913 9.50146 43.1599 9.3418 43.1599" stroke="black" stroke-width="0.15" stroke-miterlimit="10"/>
<path d="M14.8883 43.2836C14.4104 43.9373 13.7742 44.4594 13.0391 44.8013C13.1943 44.3313 13.2873 43.843 13.3157 43.349C13.3157 43.1529 13.3157 42.9569 13.3157 42.7753C13.3043 42.2581 13.2109 41.7459 13.0391 41.2577C13.7808 41.8076 14.4088 42.4956 14.8883 43.2836Z" fill="white"/>
<path d="M13.0391 44.8013C13.7742 44.4594 14.4104 43.9373 14.8883 43.2836C14.4088 42.4956 13.7808 41.8076 13.0391 41.2577M13.0391 44.794C13.1943 44.324 13.2873 43.8358 13.3157 43.3417M13.0391 44.794L13.8399 43.6975L13.3448 43.3562M13.0391 41.2577C13.2134 41.7455 13.3092 42.2577 13.323 42.7753M13.0391 41.2577L13.8399 42.4921L13.3521 42.7826M13.3521 43.3562C13.3521 43.1602 13.3521 42.9641 13.3521 42.7826" stroke="#EDE8FF" stroke-width="2" stroke-linejoin="round"/>
<path d="M13.6793 41.7438L13.6793 40.6691C13.3342 39.8681 13.0565 39.0399 12.8493 38.193L13.8394 38.8683C14.2572 39.2843 14.6283 39.7444 14.946 40.2407C15.0663 40.4766 15.1733 40.719 15.2664 40.9668L14.946 41.8745L15.7614 41.6857L15.6668 44.7427L14.8223 44.4741C15.0476 44.7241 15.201 45.0302 15.2664 45.36C14.5192 46.2109 13.7114 47.0069 12.8493 47.7417L12.5581 47.0954L11.9902 46.6525L13.0968 46.1152L14.1234 45.2946L13.8394 44.888L13.5919 44.5757L14.3199 44.0529L15.0916 43.2832L13.9777 41.9834L13.6793 41.7438Z" fill="#CA872C"/>
<path d="M14.1743 40.9306C13.9831 40.9058 13.8073 40.8129 13.6793 40.6692M13.6793 40.6692L13.6793 41.7439L13.9777 41.9908M13.6793 40.6692C13.3342 39.8682 13.0565 39.04 12.8493 38.1931L13.8394 38.8684C14.2572 39.2844 14.6283 39.7445 14.946 40.2408C15.0663 40.4767 15.1733 40.7191 15.2664 40.9669L14.946 41.8746M14.946 41.8746L13.9777 41.9835M14.946 41.831L15.7614 41.6422L15.6668 44.6993L14.8223 44.4306M13.9777 41.9835L15.0989 43.2688L14.3272 44.0385M14.8223 44.4306L14.5747 44.3507L14.3272 44.0385M14.8223 44.4306C15.0476 44.6806 15.201 44.9867 15.2664 45.3165C14.5192 46.1674 13.7114 46.9634 12.8493 47.6982L12.5581 47.052L11.9902 46.609L13.0968 46.0717L14.3272 45.0841L14.1743 45.3165L13.8394 44.8881L13.5919 44.5758L14.3199 44.053" stroke="#3E2916" stroke-width="0.05" stroke-linejoin="round"/>
<path d="M13.7809 43.3559C13.6651 43.453 13.538 43.5359 13.4023 43.6028L13.4023 42.7096C13.5402 42.7695 13.6679 42.8504 13.7809 42.9493L14.5089 42.7096C14.5089 42.7096 15.0331 43.109 15.2006 43.2688L14.6036 43.6318L13.7809 43.3559Z" fill="#FF0202"/>
<path d="M13.7809 43.3559C13.6651 43.453 13.538 43.5359 13.4023 43.6028L13.4023 42.7096C13.5402 42.7695 13.6679 42.8504 13.7809 42.9493M13.7809 43.3849L14.6254 43.6318L15.2224 43.2688C15.055 43.109 14.5308 42.7096 14.5308 42.7096L13.8028 42.9493M13.8028 43.3849C13.9702 43.2324 13.9702 43.0945 13.8028 42.9493" stroke="white" stroke-width="2" stroke-linejoin="round"/>
<path d="M13.7809 43.3559C13.6651 43.453 13.538 43.5359 13.4023 43.6028L13.4023 42.7096C13.5402 42.7695 13.6679 42.8504 13.7809 42.9493L14.5089 42.7096C14.5089 42.7096 15.0331 43.109 15.2006 43.2688L14.6036 43.6318L13.7809 43.3559Z" fill="#FF0202"/>
<path d="M12.711 46.3403C12.4098 46.2049 12.1379 46.0126 11.9102 45.7739C13.1696 44.6702 13.7448 43.8424 15.5503 42.971C15.1045 43.4412 14.7425 43.984 14.4801 44.5758C14.4482 44.4676 14.3879 44.3698 14.3054 44.2926C13.6079 44.8288 13.0592 45.5336 12.711 46.3403Z" fill="#CA872C" stroke="#3E2713" stroke-width="0.05" stroke-linejoin="round"/>
<path d="M12.864 39.7324C12.5549 39.8414 12.2686 40.0063 12.0195 40.2189C13.1698 41.4316 13.6722 42.3175 15.3903 43.3413C14.9898 42.8326 14.6773 42.2608 14.4657 41.6494C14.4277 41.7541 14.3593 41.8451 14.2691 41.9108C13.6225 41.3158 13.1389 40.566 12.864 39.7324Z" fill="#CA872C" stroke="#3E2713" stroke-width="0.05" stroke-linejoin="round"/>
<path d="M13.3747 42.8624C13.3747 40.5203 11.1192 38.6217 8.33677 38.6217C5.55439 38.6217 3.29883 40.5203 3.29883 42.8624C3.29883 45.2044 5.55439 47.103 8.33677 47.103C11.1192 47.103 13.3747 45.2044 13.3747 42.8624Z" fill="#F6BE81"/>
<path d="M8.33642 38.6217C10.7462 38.5636 13.4326 40.2773 13.4326 42.8623C13.1996 48.5843 3.5096 48.5843 3.24023 42.8623C3.24023 40.2773 5.91937 38.5636 8.33642 38.6217ZM8.33642 38.6217C5.95577 38.6217 3.33488 40.3136 3.34944 42.8623C3.58969 48.3519 13.0904 48.3519 13.3307 42.8623C13.3307 40.3136 10.7171 38.5926 8.33642 38.6217Z" fill="#964927"/>
<path d="M8.54586 37.4473C7.89628 37.2777 7.27888 37.4861 7.16687 37.9129C7.05486 38.3396 7.49066 38.8231 8.14024 38.9927C8.78982 39.1623 9.40721 38.9538 9.51922 38.5271C9.63123 38.1003 9.19544 37.6169 8.54586 37.4473Z" fill="#964927"/>
<path d="M8.49983 37.6227C8.00195 37.4927 7.52816 37.6546 7.44161 37.9844C7.35506 38.3141 7.68851 38.6869 8.1864 38.8169C8.68428 38.9469 9.15806 38.7849 9.24461 38.4551C9.33116 38.1254 8.99771 37.7527 8.49983 37.6227Z" fill="#F6BE81"/>
<g opacity="0.2">
<path d="M7.83366 37.8954C7.92102 38.4981 8.52528 38.4835 9.01306 38.5416C8.61993 38.9337 7.68805 38.4327 7.83366 37.8954Z" fill="black"/>
<path d="M8.8379 38.5708C9.0563 38.6288 9.06358 38.2658 8.89614 38.2512C8.72869 38.2367 8.68501 38.4909 8.8379 38.5708ZM8.8379 38.5708C8.74325 38.5708 8.57581 38.4764 8.59765 38.3093C8.60214 38.2718 8.61499 38.2357 8.63525 38.2037C8.65551 38.1717 8.68268 38.1446 8.71477 38.1244C8.74687 38.1043 8.78307 38.0915 8.82074 38.087C8.85842 38.0826 8.89661 38.0866 8.93254 38.0988C9.22375 38.1859 9.12183 38.6652 8.8379 38.5708Z" fill="black"/>
</g>
<path d="M9.36437 47.3465C9.25236 46.9197 8.63497 46.7113 7.98539 46.8809C7.33581 47.0505 6.90002 47.5339 7.01203 47.9607C7.12404 48.3874 7.74143 48.5959 8.39101 48.4263C9.04059 48.2567 9.47638 47.7732 9.36437 47.3465Z" fill="#964927"/>
<path d="M9.08963 47.418C9.00308 47.0882 8.5293 46.9263 8.03142 47.0563C7.53354 47.1863 7.20009 47.559 7.28664 47.8887C7.37319 48.2185 7.84697 48.3805 8.34486 48.2505C8.84274 48.1205 9.17619 47.7477 9.08963 47.418Z" fill="#F6BE81"/>
<path opacity="0.2" d="M7.60742 48.0688C7.64382 47.4516 8.33545 47.3427 8.6121 47.3427M8.6121 47.3427C8.84507 47.2773 8.88875 47.5823 8.76498 47.6912C8.64122 47.8002 8.28449 47.4734 8.6121 47.35L8.6121 47.3427Z" stroke="black" stroke-width="0.25" stroke-miterlimit="10"/>
<path d="M7.78224 45.0841C7.72399 45.8684 8.71411 46.6453 9.23829 46.9358C8.72049 47.1258 8.16042 47.1707 7.61883 47.0658C7.07723 46.9608 6.5748 46.7099 6.16602 46.3403L6.16602 45.0914C6.7266 44.7501 7.84048 44.2926 7.78224 45.0841Z" fill="#5D3A1C"/>
<path d="M7.65244 40.6112C7.71068 39.8198 9.05025 38.9774 9.59627 38.7596C7.15738 38.3457 6.90257 38.7596 6.24007 39.1372L6.05078 40.3716C6.5604 40.7783 7.60148 41.3955 7.65244 40.6112Z" fill="#5D3A1C"/>
<path d="M11.2841 44.3727C11.2841 43.302 10.4139 42.4339 9.34032 42.4339C8.26677 42.4339 7.39648 43.302 7.39648 44.3727C7.39648 45.4435 8.26677 46.3115 9.34032 46.3115C10.4139 46.3115 11.2841 45.4435 11.2841 44.3727Z" fill="#FCDEBD"/>
<path d="M7.39746 44.3728C7.23002 41.4682 11.4235 41.6425 11.4599 44.3728C11.4963 47.103 7.2373 47.2773 7.39746 44.3728ZM7.39746 44.3728C7.46106 44.8469 7.69139 45.2831 8.0474 45.6036C8.4034 45.9241 8.86194 46.1081 9.34129 46.1228C9.78804 46.0941 10.2071 45.8968 10.5133 45.5711C10.8195 45.2454 10.9899 44.8156 10.9899 44.3691C10.9899 43.9226 10.8195 43.4929 10.5133 43.1671C10.2071 42.8414 9.78804 42.6442 9.34129 42.6155C8.8613 42.6319 8.40265 42.8174 8.04679 43.1391C7.69093 43.4608 7.46087 43.8979 7.39746 44.3728Z" fill="#EDE8FF"/>
<path d="M10.5561 44.3726C10.5581 44.5337 10.5281 44.6937 10.4681 44.8433C10.408 44.9929 10.319 45.1293 10.2061 45.2446C10.0932 45.3599 9.95864 45.4519 9.81009 45.5153C9.66154 45.5787 9.50192 45.6124 9.34034 45.6143C9.02247 45.6001 8.72142 45.4677 8.49642 45.2433C8.27143 45.0189 8.13877 44.7187 8.12454 44.4016C8.11633 44.2395 8.14205 44.0775 8.20005 43.9259C8.25805 43.7743 8.34707 43.6363 8.46144 43.5209C8.5758 43.4055 8.71301 43.3151 8.86433 43.2554C9.01564 43.1957 9.17776 43.1682 9.34034 43.1744C9.65692 43.1851 9.95786 43.3143 10.1832 43.5363C10.4085 43.7584 10.5417 44.0569 10.5561 44.3726Z" fill="#FCFCFC"/>
<path d="M10.5565 44.3724C10.5696 44.5429 10.5473 44.7144 10.4908 44.8759C10.4344 45.0374 10.3451 45.1856 10.2285 45.3111C10.112 45.4366 9.97072 45.5367 9.81356 45.6052C9.65639 45.6736 9.48674 45.709 9.31524 45.709C9.14374 45.709 8.97408 45.6736 8.81692 45.6052C8.65976 45.5367 8.51847 45.4366 8.40193 45.3111C8.28538 45.1856 8.19609 45.0374 8.13965 44.8759C8.08321 44.7144 8.06085 44.5429 8.07395 44.3724C8.09792 44.0604 8.2391 43.769 8.46925 43.5563C8.69939 43.3437 9.00153 43.2256 9.31524 43.2256C9.62895 43.2256 9.93109 43.3437 10.1612 43.5563C10.3914 43.769 10.5326 44.0604 10.5565 44.3724ZM10.5565 44.3724C10.5056 42.8257 8.1686 42.7604 8.17588 44.3724C8.19933 44.6712 8.3349 44.9503 8.55555 45.1538C8.77619 45.3573 9.06567 45.4703 9.3662 45.4703C9.66673 45.4703 9.95621 45.3573 10.1769 45.1538C10.3975 44.9503 10.5331 44.6712 10.5565 44.3724Z" fill="#666666"/>
<path d="M9.77118 44.1839C9.77118 43.9473 9.57887 43.7555 9.34165 43.7555C9.10442 43.7555 8.91211 43.9473 8.91211 44.1839C8.91211 44.4205 9.10442 44.6123 9.34165 44.6123C9.57887 44.6123 9.77118 44.4205 9.77118 44.1839Z" fill="#ABC7E5"/>
<path d="M9.34058 44.3072C9.34058 44.207 9.25909 44.1257 9.15857 44.1257C9.05805 44.1257 8.97656 44.207 8.97656 44.3072C8.97656 44.4075 9.05805 44.4888 9.15857 44.4888C9.25909 44.4888 9.34058 44.4075 9.34058 44.3072Z" fill="#8E908F"/>
<path d="M9.71237 44.2491C9.71237 44.1809 9.65696 44.1257 9.58861 44.1257C9.52026 44.1257 9.46484 44.1809 9.46484 44.2491C9.46484 44.3173 9.52026 44.3726 9.58861 44.3726C9.65696 44.3726 9.71237 44.3173 9.71237 44.2491Z" fill="white"/>
<path d="M9.37093 43.9368C9.37093 43.8847 9.32855 43.8424 9.27628 43.8424C9.22401 43.8424 9.18164 43.8847 9.18164 43.9368C9.18164 43.989 9.22401 44.0312 9.27628 44.0312C9.32855 44.0312 9.37093 43.989 9.37093 43.9368Z" fill="white"/>
<path d="M12.063 43.5591C12.2195 42.8958 12.1237 42.1982 11.7942 41.6013C11.4647 41.0043 10.9249 40.5506 10.2793 40.3278C10.6287 40.3891 10.9599 40.5278 11.2485 40.7337C11.5371 40.9396 11.7758 41.2074 11.9469 41.5174C12.118 41.8274 12.2173 42.1718 12.2374 42.5251C12.2574 42.8784 12.1979 43.2318 12.063 43.5591Z" fill="#8C8C8C"/>
<path d="M9.31101 41.5913C9.15595 41.4172 9.07031 41.1924 9.07031 40.9596C9.07031 40.7267 9.15595 40.5019 9.31101 40.3278C9.23095 40.7452 9.23095 41.1739 9.31101 41.5913Z" fill="#8C8C8C"/>
<path d="M9.0348 41.5913C8.79456 41.5913 8.56887 41.2863 8.77272 41.1121C8.8528 41.3372 8.94016 41.3735 9.0348 41.5913Z" fill="#8C8C8C"/>
<path d="M10.8779 46.0719C10.9104 46.0412 10.9534 46.0241 10.998 46.0241C11.0427 46.0241 11.0857 46.0412 11.1182 46.0719L11.3803 46.3333C11.411 46.3656 11.4281 46.4085 11.4281 46.4531C11.4281 46.4976 11.411 46.5405 11.3803 46.5729C11.3478 46.6035 11.3048 46.6206 11.2601 46.6206C11.2154 46.6206 11.1725 46.6035 11.14 46.5729L10.8779 46.3115C10.8472 46.2791 10.8301 46.2362 10.8301 46.1917C10.8301 46.1471 10.8472 46.1042 10.8779 46.0719Z" fill="#696969"/>
<path d="M11.108 46.6691L12.5854 48.1427C12.6224 48.1796 12.6823 48.1796 12.7193 48.1427L12.9561 47.9065C12.993 47.8697 12.993 47.8099 12.9561 47.773L11.4786 46.2994C11.4417 46.2625 11.3817 46.2625 11.3448 46.2994L11.108 46.5356C11.071 46.5725 11.071 46.6322 11.108 46.6691Z" fill="#D9D9D9"/>
<path d="M11.2478 47.4586C11.1532 47.3061 11.2842 47.081 11.3643 46.9503L11.539 47.0955L11.7356 47.0375C11.6918 46.9079 11.6918 46.7676 11.7356 46.6381C12.1724 46.2024 13.1407 46.9431 12.9077 47.7128L12.3544 47.2262L12.3544 47.2698C12.3371 47.304 12.3122 47.3337 12.2816 47.3569C12.5656 47.3569 12.5656 47.5458 12.5364 47.6474C12.5947 47.5675 12.9369 47.6474 12.7403 47.9379C12.5437 48.2283 12.369 48.3735 12.1142 48.3445C11.8594 48.3155 11.8812 48.2065 11.9103 48.0904C11.5245 48.1339 11.5536 47.8435 11.6264 47.6619C11.3643 47.6982 11.3206 47.5748 11.2478 47.4586Z" fill="#FBD393"/>
<path d="M12.0636 47.4806L12.0127 47.4806C11.4011 47.7783 11.3501 47.5968 11.2846 47.4298C11.2191 47.2628 11.321 47.0522 11.4011 46.9215L11.5758 47.0667L11.7724 47.0086M12.1 47.4516C12.5077 47.2483 12.3839 47.0232 12.2747 46.8997C12.3139 46.9379 12.3436 46.9847 12.3613 47.0364C12.379 47.0882 12.3843 47.1433 12.3767 47.1974M12.1 47.4516C12.2188 47.4012 12.3165 47.3114 12.3767 47.1974M12.1 47.4516C11.9548 47.3341 11.8421 47.1817 11.7724 47.0086M12.3767 47.1974L12.93 47.6839C13.1629 46.9142 12.2019 46.1736 11.7578 46.6092C11.714 46.7388 11.714 46.8791 11.7578 47.0086M11.8962 48.0615C11.5103 48.1051 11.5394 47.8146 11.6122 47.6331C11.8495 47.5843 12.0716 47.4798 12.2602 47.3281C12.5805 47.3281 12.5514 47.5532 12.515 47.6404M11.8962 48.0615C12.1409 47.9878 12.357 47.8408 12.515 47.6404M11.8962 48.0615C12.1422 47.9905 12.359 47.843 12.515 47.6404M11.8962 48.0615C11.8962 48.1777 11.8962 48.2939 12.1 48.3157C12.3039 48.3375 12.5077 48.2285 12.7261 47.909C12.9445 47.5895 12.5077 47.5314 12.515 47.6404" stroke="#974C28" stroke-width="0.05" stroke-linejoin="round"/>
<path d="M12.6384 38.4834C13.1116 38.6359 12.602 39.1079 12.5801 39.1587C12.5583 39.2096 12.6384 39.3766 12.7185 39.4637C12.6583 39.4841 12.5946 39.4925 12.5311 39.4882C12.4677 39.4839 12.4057 39.467 12.3488 39.4387C12.2919 39.4103 12.2412 39.3709 12.1997 39.3229C12.1582 39.2748 12.1267 39.219 12.1069 39.1587C12.0054 39.1361 11.9158 39.0769 11.8554 38.9925C11.7949 38.9081 11.7678 38.8044 11.7793 38.7013C11.6847 38.7013 11.5245 38.5706 11.5827 38.2656C11.6847 38.1276 11.9322 37.8444 12.1142 37.888C12.1454 37.8889 12.176 37.897 12.2036 37.9116C12.2313 37.9262 12.2551 37.9469 12.2734 37.9722C12.2917 37.9974 12.3039 38.0266 12.3092 38.0573C12.3144 38.088 12.3124 38.1195 12.3035 38.1494C12.3641 38.1244 12.4322 38.1244 12.4928 38.1494C12.5253 38.1605 12.5551 38.1783 12.5803 38.2015C12.6055 38.2248 12.6256 38.253 12.6393 38.2844C12.653 38.3159 12.66 38.3498 12.6598 38.384C12.6597 38.4183 12.6524 38.4521 12.6384 38.4834Z" fill="#F7C183"/>
<path d="M12.1069 39.1587C12.1267 39.009 12.1864 38.8673 12.2799 38.7485C12.3734 38.6297 12.4972 38.5381 12.6384 38.4834M12.1069 39.1587C12.0054 39.1361 11.9158 39.0769 11.8554 38.9925C11.7949 38.9081 11.7678 38.8044 11.7793 38.7013M12.1069 39.1587C12.1267 39.219 12.1582 39.2748 12.1997 39.3229C12.2412 39.3709 12.2919 39.4103 12.3488 39.4387C12.4057 39.467 12.4677 39.4839 12.5311 39.4882C12.5946 39.4925 12.6583 39.4841 12.7185 39.4637C12.6384 39.3766 12.551 39.2023 12.5801 39.1587C12.6093 39.1152 13.1116 38.6359 12.6384 38.4834M12.6384 38.4834C12.6524 38.4521 12.6597 38.4183 12.6598 38.384C12.66 38.3498 12.653 38.3159 12.6393 38.2844C12.6256 38.253 12.6055 38.2248 12.5803 38.2015C12.5551 38.1783 12.5253 38.1605 12.4928 38.1494C12.4322 38.1244 12.3641 38.1244 12.3035 38.1494M11.7793 38.7013C11.6847 38.7013 11.5245 38.5706 11.5827 38.2656C11.6847 38.1276 11.9322 37.8444 12.1142 37.888C12.1454 37.8889 12.176 37.897 12.2036 37.9116C12.2313 37.9262 12.2551 37.9469 12.2734 37.9722C12.2917 37.9974 12.3039 38.0266 12.3092 38.0573C12.3144 38.088 12.3124 38.1195 12.3035 38.1494M11.7793 38.7013C11.8981 38.4715 12.0799 38.2801 12.3035 38.1494" stroke="#974C28" stroke-width="0.05" stroke-linejoin="round"/>
<path d="M4.04795 42.3901C3.66206 41.9153 3.44904 41.3239 3.44369 40.7127C3.44369 39.3694 4.52845 38.2293 6.14467 37.8808C6.28506 37.8502 6.43017 37.8479 6.57145 37.8741C6.71274 37.9003 6.84734 37.9544 6.96734 38.0333C7.07602 38.0975 7.16606 38.1889 7.2286 38.2984C7.29115 38.4079 7.32405 38.5317 7.32407 38.6578C4.04795 40.2044 11.583 48.9762 5.94082 48.9762C5.94082 47.1826 6.66885 45.4544 5.51129 44.0893L4.04795 42.3901ZM3.7349 46.471L1.01936 45.999C0.872374 45.9734 0.732106 45.9183 0.606994 45.8372C0.481882 45.7561 0.374509 45.6506 0.291333 45.527C0.207243 45.4027 0.149085 45.2628 0.120319 45.1156C0.0915522 44.9684 0.0927659 44.8169 0.123887 44.6702L0.851914 41.3517C0.897166 41.1222 1.01484 40.9131 1.18774 40.755C1.36064 40.5969 1.57971 40.4981 1.81291 40.4731L3.7349 39.8051C3.7349 39.9212 4.04795 40.8144 4.04795 40.9378C4.04795 41.664 5.88986 42.9202 5.22008 43.3196C5.22008 43.3196 5.08175 42.8766 6.14467 44.1038C7.20759 45.331 6.77077 46.471 6.77077 48.1557C6.77173 48.265 6.75098 48.3734 6.7097 48.4747C6.66842 48.576 6.60744 48.6681 6.53028 48.7457C6.45311 48.8233 6.36129 48.885 6.26012 48.927C6.15895 48.9691 6.05043 48.9907 5.94082 48.9907C5.32712 48.9141 4.76313 48.6149 4.35632 48.1503C3.94951 47.6856 3.72832 47.0879 3.7349 46.471Z" fill="#5E5E5E"/>
<path opacity="0.2" d="M1.87115 44.5539L0.990234 45.1421L1.49985 44.3361L1.46345 41.2572L1.7765 44.1618L4.37556 44.8516L1.87115 44.5539Z" fill="#D9D9D9"/>
<g opacity="0.2">
<path d="M3.75 46.4274C6.43642 46.0571 4.3033 41.3953 3.75 39.8922L4.17226 40.7345C4.84204 42.1505 6.35634 46.304 3.75 46.4492L3.75 46.4274Z" fill="#EDE8FF"/>
</g>
<path d="M14.7288 121.619C14.7966 121.689 14.8776 121.744 14.967 121.781C15.0564 121.819 15.1524 121.838 15.2493 121.838C15.3463 121.838 15.4423 121.819 15.5317 121.781C15.6211 121.744 15.7021 121.689 15.7699 121.619L16.9129 120.487C16.9834 120.419 17.0394 120.338 17.0777 120.248C17.116 120.158 17.1357 120.061 17.1357 119.964C17.1357 119.866 17.116 119.77 17.0777 119.68C17.0394 119.59 16.9834 119.509 16.9129 119.441C16.8451 119.372 16.7641 119.317 16.6747 119.279C16.5853 119.242 16.4893 119.223 16.3924 119.223C16.2954 119.223 16.1994 119.242 16.11 119.279C16.0206 119.317 15.9396 119.372 15.8718 119.441L14.7288 120.581C14.6595 120.649 14.6044 120.729 14.5668 120.819C14.5291 120.908 14.5098 121.003 14.5098 121.1C14.5098 121.197 14.5291 121.293 14.5668 121.382C14.6044 121.471 14.6595 121.552 14.7288 121.619Z" fill="#F8D319" stroke="white" stroke-miterlimit="10"/>
<path d="M13.7093 48.5188C13.7772 48.4485 13.8586 48.3926 13.9487 48.3544C14.0387 48.3163 14.1356 48.2966 14.2335 48.2966C14.3313 48.2966 14.4282 48.3163 14.5182 48.3544C14.6083 48.3926 14.6897 48.4485 14.7576 48.5188L15.9006 49.6516C15.9711 49.7193 16.0271 49.8005 16.0654 49.8903C16.1037 49.9802 16.1234 50.0768 16.1234 50.1744C16.1234 50.272 16.1037 50.3686 16.0654 50.4584C16.0271 50.5483 15.9711 50.6295 15.9006 50.6972C15.8327 50.7675 15.7513 50.8234 15.6612 50.8616C15.5712 50.8998 15.4743 50.9194 15.3765 50.9194C15.2786 50.9194 15.1817 50.8998 15.0917 50.8616C15.0016 50.8234 14.9202 50.7675 14.8523 50.6972L13.7093 49.5572C13.6399 49.4895 13.5848 49.4088 13.5472 49.3196C13.5096 49.2305 13.4902 49.1347 13.4902 49.038C13.4902 48.9413 13.5096 48.8455 13.5472 48.7563C13.5848 48.6672 13.6399 48.5864 13.7093 48.5188Z" fill="#FC8019" stroke="white" stroke-miterlimit="10"/>
<path d="M16.9121 119.441C28.8226 105.158 33.1544 84.9567 26.0561 67.5366C23.7729 61.7436 20.578 56.3509 16.5918 51.5616C21.3543 55.8107 25.1754 61.0044 27.8107 66.8105C36.1976 84.3323 31.7056 106.748 16.8903 119.463L16.9121 119.441Z" fill="#F8D319"/>
<path d="M10.1996 40.0595C9.85012 40.2919 10.1049 40.5024 10.1996 40.7856C9.82828 40.6767 9.66083 39.9869 10.1996 40.0595Z" fill="#8C8C8C"/>
</svg>
