<svg width="38" height="38" viewBox="0 0 38 38" fill="none" xmlns="http://www.w3.org/2000/svg">
<path d="M37.6463 0.351297C37.8138 0.51907 37.9283 0.732361 37.9757 0.964674C38.023 1.19699 38.001 1.43808 37.9125 1.65802L23.8331 36.8596C23.7091 37.1696 23.5019 37.4393 23.2344 37.6392C22.9669 37.839 22.6495 37.9611 22.317 37.9921C21.9846 38.0232 21.65 37.9619 21.3502 37.815C21.0504 37.6681 20.7968 37.4413 20.6176 37.1596L12.9282 25.0725L0.842616 17.3822C0.560299 17.2031 0.332943 16.9495 0.185637 16.6493C0.0383307 16.3491 -0.0231992 16.0141 0.00783667 15.6812C0.0388725 15.3482 0.161268 15.0304 0.361516 14.7626C0.561765 14.4948 0.832082 14.2876 1.14264 14.1638L36.3398 0.0875337C36.5597 -0.00100311 36.8007 -0.0229747 37.033 0.0243483C37.2653 0.0716713 37.4786 0.186203 37.6463 0.353717V0.351297ZM15.343 24.3659L22.0233 34.8632L33.475 6.23153L15.343 24.3659ZM31.7644 4.5207L3.13635 15.9738L13.6348 22.6526L31.7668 4.5207H31.7644Z" fill="black"/>
</svg>
