<svg width="136" height="11" viewBox="0 0 136 11" fill="none" xmlns="http://www.w3.org/2000/svg">
<path d="M1.34008 0.594629L1.2961 1.39031H1.0442L0.996221 0.594629H1.34008ZM1.87986 0.594629L1.83588 1.39031H1.58398L1.536 0.594629H1.87986ZM4.52277 3.77734H4.15891L2.6955 1.55824V3.77734H2.33165V0.986471H2.6955L4.15891 3.20158V0.986471H4.52277V3.77734ZM6.09863 3.81333C5.89338 3.81333 5.70679 3.76668 5.53885 3.67339C5.37359 3.58009 5.24297 3.44814 5.14701 3.27755C5.05372 3.10428 5.00707 2.90436 5.00707 2.67779C5.00707 2.45388 5.05505 2.25662 5.15101 2.08603C5.24964 1.91276 5.38292 1.78082 5.55085 1.69019C5.71878 1.59689 5.90671 1.55024 6.11462 1.55024C6.32254 1.55024 6.51046 1.59689 6.67839 1.69019C6.84633 1.78082 6.97827 1.91143 7.07423 2.08203C7.17286 2.25263 7.22217 2.45121 7.22217 2.67779C7.22217 2.90436 7.17153 3.10428 7.07024 3.27755C6.97161 3.44814 6.837 3.58009 6.6664 3.67339C6.4958 3.76668 6.30654 3.81333 6.09863 3.81333ZM6.09863 3.49346C6.22924 3.49346 6.35186 3.4628 6.46648 3.4015C6.5811 3.34019 6.67306 3.24822 6.74237 3.12561C6.81434 3.00299 6.85033 2.85372 6.85033 2.67779C6.85033 2.50186 6.81567 2.35259 6.74637 2.22997C6.67706 2.10735 6.58643 2.01672 6.47448 1.95808C6.36252 1.89677 6.24124 1.86612 6.11062 1.86612C5.97734 1.86612 5.85473 1.89677 5.74277 1.95808C5.63348 2.01672 5.54552 2.10735 5.47888 2.22997C5.41224 2.35259 5.37892 2.50186 5.37892 2.67779C5.37892 2.85638 5.41091 3.00699 5.47488 3.12961C5.54152 3.25222 5.62948 3.34419 5.73877 3.40549C5.84806 3.46414 5.96801 3.49346 6.09863 3.49346ZM11.4015 1.54624C11.5721 1.54624 11.724 1.58223 11.8573 1.6542C11.9906 1.72351 12.0959 1.8288 12.1732 1.97007C12.2505 2.11135 12.2891 2.28328 12.2891 2.48587V3.77734H11.9293V2.53784C11.9293 2.31927 11.8746 2.15267 11.7653 2.03805C11.6587 1.92076 11.5134 1.86212 11.3295 1.86212C11.1403 1.86212 10.9897 1.92343 10.8777 2.04604C10.7657 2.16599 10.7098 2.34059 10.7098 2.56983V3.77734H10.3499V2.53784C10.3499 2.31927 10.2953 2.15267 10.186 2.03805C10.0794 1.92076 9.93408 1.86212 9.75015 1.86212C9.5609 1.86212 9.41029 1.92343 9.29834 2.04604C9.18638 2.16599 9.1304 2.34059 9.1304 2.56983V3.77734H8.76655V1.58623H9.1304V1.9021C9.20238 1.78748 9.29834 1.69952 9.41829 1.63821C9.5409 1.5769 9.67552 1.54624 9.82212 1.54624C10.0061 1.54624 10.1687 1.58756 10.3099 1.67019C10.4512 1.75283 10.5565 1.87411 10.6258 2.03405C10.6871 1.87944 10.7884 1.75949 10.9297 1.67419C11.071 1.58889 11.2282 1.54624 11.4015 1.54624ZM14.8852 2.59782C14.8852 2.66713 14.8812 2.74043 14.8732 2.81773H13.1219C13.1352 3.03364 13.2085 3.20291 13.3418 3.32553C13.4777 3.44548 13.6417 3.50545 13.8336 3.50545C13.9909 3.50545 14.1215 3.46947 14.2254 3.3975C14.3321 3.32286 14.4067 3.22423 14.4493 3.10162H14.8412C14.7825 3.3122 14.6653 3.48413 14.4893 3.61741C14.3134 3.74802 14.0948 3.81333 13.8336 3.81333C13.6257 3.81333 13.4391 3.76668 13.2738 3.67339C13.1112 3.58009 12.9833 3.44814 12.89 3.27755C12.7967 3.10428 12.75 2.90436 12.75 2.67779C12.75 2.45121 12.7954 2.25263 12.886 2.08203C12.9766 1.91143 13.1032 1.78082 13.2658 1.69019C13.4311 1.59689 13.6204 1.55024 13.8336 1.55024C14.0415 1.55024 14.2254 1.59556 14.3854 1.68619C14.5453 1.77682 14.6679 1.9021 14.7532 2.06204C14.8412 2.21931 14.8852 2.3979 14.8852 2.59782ZM14.5093 2.52185C14.5093 2.38324 14.4787 2.26462 14.4174 2.16599C14.3561 2.0647 14.2721 1.98873 14.1655 1.93809C14.0615 1.88477 13.9456 1.85812 13.8176 1.85812C13.6337 1.85812 13.4764 1.91676 13.3458 2.03405C13.2178 2.15133 13.1445 2.31393 13.1259 2.52185H14.5093ZM16.1411 3.81333C15.9732 3.81333 15.8226 3.78534 15.6893 3.72936C15.556 3.67072 15.4507 3.59075 15.3734 3.48946C15.2961 3.3855 15.2535 3.26688 15.2455 3.1336H15.6213C15.632 3.24289 15.6827 3.33219 15.7733 3.4015C15.8666 3.4708 15.9879 3.50545 16.1371 3.50545C16.2757 3.50545 16.385 3.4748 16.465 3.41349C16.545 3.35218 16.585 3.27488 16.585 3.18158C16.585 3.08562 16.5423 3.01499 16.457 2.96967C16.3717 2.92169 16.2398 2.87504 16.0612 2.82973C15.8986 2.78708 15.7653 2.74443 15.6613 2.70178C15.56 2.65646 15.4721 2.59116 15.3974 2.50586C15.3255 2.41789 15.2895 2.30327 15.2895 2.162C15.2895 2.05004 15.3228 1.94742 15.3894 1.85412C15.4561 1.76082 15.5507 1.68752 15.6733 1.63421C15.7959 1.57823 15.9359 1.55024 16.0932 1.55024C16.3357 1.55024 16.5316 1.61155 16.6809 1.73417C16.8302 1.85679 16.9102 2.02472 16.9208 2.23797H16.557C16.549 2.12335 16.5023 2.03138 16.417 1.96208C16.3344 1.89277 16.2224 1.85812 16.0812 1.85812C15.9505 1.85812 15.8466 1.88611 15.7693 1.94208C15.692 1.99806 15.6533 2.07137 15.6533 2.162C15.6533 2.23397 15.676 2.29394 15.7213 2.34192C15.7693 2.38724 15.8279 2.42456 15.8972 2.45388C15.9692 2.48053 16.0678 2.51119 16.1931 2.54584C16.3504 2.58849 16.4783 2.63114 16.577 2.67379C16.6756 2.71377 16.7596 2.77508 16.8289 2.85772C16.9008 2.94035 16.9381 3.0483 16.9408 3.18158C16.9408 3.30154 16.9075 3.40949 16.8409 3.50545C16.7742 3.60141 16.6796 3.67738 16.557 3.73336C16.437 3.78667 16.2984 3.81333 16.1411 3.81333ZM18.2301 3.81333C18.0622 3.81333 17.9116 3.78534 17.7783 3.72936C17.645 3.67072 17.5397 3.59075 17.4624 3.48946C17.3851 3.3855 17.3425 3.26688 17.3345 3.1336H17.7103C17.721 3.24289 17.7717 3.33219 17.8623 3.4015C17.9556 3.4708 18.0769 3.50545 18.2261 3.50545C18.3647 3.50545 18.474 3.4748 18.554 3.41349C18.634 3.35218 18.674 3.27488 18.674 3.18158C18.674 3.08562 18.6313 3.01499 18.546 2.96967C18.4607 2.92169 18.3288 2.87504 18.1502 2.82973C17.9876 2.78708 17.8543 2.74443 17.7503 2.70178C17.649 2.65646 17.5611 2.59116 17.4864 2.50586C17.4145 2.41789 17.3785 2.30327 17.3785 2.162C17.3785 2.05004 17.4118 1.94742 17.4784 1.85412C17.5451 1.76082 17.6397 1.68752 17.7623 1.63421C17.8849 1.57823 18.0249 1.55024 18.1822 1.55024C18.4247 1.55024 18.6206 1.61155 18.7699 1.73417C18.9192 1.85679 18.9992 2.02472 19.0098 2.23797H18.646C18.638 2.12335 18.5913 2.03138 18.506 1.96208C18.4234 1.89277 18.3114 1.85812 18.1702 1.85812C18.0395 1.85812 17.9356 1.88611 17.8583 1.94208C17.781 1.99806 17.7423 2.07137 17.7423 2.162C17.7423 2.23397 17.765 2.29394 17.8103 2.34192C17.8583 2.38724 17.9169 2.42456 17.9862 2.45388C18.0582 2.48053 18.1568 2.51119 18.2821 2.54584C18.4394 2.58849 18.5673 2.63114 18.666 2.67379C18.7646 2.71377 18.8486 2.77508 18.9179 2.85772C18.9898 2.94035 19.0271 3.0483 19.0298 3.18158C19.0298 3.30154 18.9965 3.40949 18.9299 3.50545C18.8632 3.60141 18.7686 3.67738 18.646 3.73336C18.526 3.78667 18.3874 3.81333 18.2301 3.81333ZM19.4075 2.67379C19.4075 2.44988 19.4528 2.25396 19.5434 2.08603C19.6341 1.91543 19.758 1.78348 19.9153 1.69019C20.0752 1.59689 20.2525 1.55024 20.4471 1.55024C20.639 1.55024 20.8056 1.59156 20.9469 1.67419C21.0882 1.75683 21.1934 1.86078 21.2628 1.98607V1.58623H21.6306V3.77734H21.2628V3.36951C21.1908 3.49746 21.0828 3.60408 20.9389 3.68938C20.7976 3.77201 20.6323 3.81333 20.4431 3.81333C20.2485 3.81333 20.0726 3.76535 19.9153 3.66939C19.758 3.57343 19.6341 3.43881 19.5434 3.26555C19.4528 3.09229 19.4075 2.89503 19.4075 2.67379ZM21.2628 2.67779C21.2628 2.51252 21.2294 2.36858 21.1628 2.24596C21.0962 2.12335 21.0055 2.03005 20.8909 1.96608C20.7789 1.89944 20.655 1.86612 20.5191 1.86612C20.3831 1.86612 20.2592 1.8981 20.1472 1.96208C20.0352 2.02605 19.946 2.11935 19.8793 2.24196C19.8127 2.36458 19.7794 2.50852 19.7794 2.67379C19.7794 2.84172 19.8127 2.98833 19.8793 3.11361C19.946 3.23623 20.0352 3.33086 20.1472 3.3975C20.2592 3.46147 20.3831 3.49346 20.5191 3.49346C20.655 3.49346 20.7789 3.46147 20.8909 3.3975C21.0055 3.33086 21.0962 3.23623 21.1628 3.11361C21.2294 2.98833 21.2628 2.84305 21.2628 2.67779ZM23.1491 1.55024C23.3384 1.55024 23.5036 1.59156 23.6449 1.67419C23.7889 1.75683 23.8955 1.86078 23.9648 1.98607V1.58623H24.3326V3.82532C24.3326 4.02524 24.29 4.20251 24.2047 4.35711C24.1194 4.51438 23.9968 4.637 23.8368 4.72496C23.6796 4.81293 23.4956 4.85691 23.2851 4.85691C22.9972 4.85691 22.7573 4.78894 22.5654 4.65299C22.3734 4.51705 22.2601 4.33179 22.2255 4.09721H22.5853C22.6253 4.23049 22.708 4.33712 22.8332 4.41709C22.9585 4.49972 23.1091 4.54104 23.2851 4.54104C23.485 4.54104 23.6476 4.47839 23.7729 4.35311C23.9008 4.22783 23.9648 4.0519 23.9648 3.82532V3.36551C23.8928 3.49346 23.7862 3.60008 23.6449 3.68538C23.5036 3.77068 23.3384 3.81333 23.1491 3.81333C22.9545 3.81333 22.7773 3.76535 22.6173 3.66939C22.4601 3.57343 22.3361 3.43881 22.2455 3.26555C22.1549 3.09229 22.1095 2.89503 22.1095 2.67379C22.1095 2.44988 22.1549 2.25396 22.2455 2.08603C22.3361 1.91543 22.4601 1.78348 22.6173 1.69019C22.7773 1.59689 22.9545 1.55024 23.1491 1.55024ZM23.9648 2.67779C23.9648 2.51252 23.9315 2.36858 23.8648 2.24596C23.7982 2.12335 23.7076 2.03005 23.5929 1.96608C23.481 1.89944 23.357 1.86612 23.2211 1.86612C23.0851 1.86612 22.9612 1.8981 22.8492 1.96208C22.7373 2.02605 22.648 2.11935 22.5813 2.24196C22.5147 2.36458 22.4814 2.50852 22.4814 2.67379C22.4814 2.84172 22.5147 2.98833 22.5813 3.11361C22.648 3.23623 22.7373 3.33086 22.8492 3.3975C22.9612 3.46147 23.0851 3.49346 23.2211 3.49346C23.357 3.49346 23.481 3.46147 23.5929 3.3975C23.7076 3.33086 23.7982 3.23623 23.8648 3.11361C23.9315 2.98833 23.9648 2.84305 23.9648 2.67779ZM26.9467 2.59782C26.9467 2.66713 26.9427 2.74043 26.9347 2.81773H25.1834C25.1967 3.03364 25.2701 3.20291 25.4033 3.32553C25.5393 3.44548 25.7032 3.50545 25.8951 3.50545C26.0524 3.50545 26.183 3.46947 26.287 3.3975C26.3936 3.32286 26.4682 3.22423 26.5109 3.10162H26.9027C26.8441 3.3122 26.7268 3.48413 26.5509 3.61741C26.3749 3.74802 26.1564 3.81333 25.8951 3.81333C25.6872 3.81333 25.5006 3.76668 25.3354 3.67339C25.1728 3.58009 25.0448 3.44814 24.9515 3.27755C24.8582 3.10428 24.8116 2.90436 24.8116 2.67779C24.8116 2.45121 24.8569 2.25263 24.9475 2.08203C25.0381 1.91143 25.1648 1.78082 25.3274 1.69019C25.4926 1.59689 25.6819 1.55024 25.8951 1.55024C26.103 1.55024 26.287 1.59556 26.4469 1.68619C26.6068 1.77682 26.7295 1.9021 26.8148 2.06204C26.9027 2.21931 26.9467 2.3979 26.9467 2.59782ZM26.5709 2.52185C26.5709 2.38324 26.5402 2.26462 26.4789 2.16599C26.4176 2.0647 26.3336 1.98873 26.227 1.93809C26.123 1.88477 26.0071 1.85812 25.8791 1.85812C25.6952 1.85812 25.5379 1.91676 25.4073 2.03405C25.2794 2.15133 25.2061 2.31393 25.1874 2.52185H26.5709ZM30.3802 1.58623L29.0607 4.80893H28.6849L29.1167 3.75335L28.2331 1.58623H28.6369L29.3246 3.36151L30.0043 1.58623H30.3802ZM32.7451 2.59782C32.7451 2.66713 32.7411 2.74043 32.7332 2.81773H30.9819C30.9952 3.03364 31.0685 3.20291 31.2018 3.32553C31.3377 3.44548 31.5016 3.50545 31.6936 3.50545C31.8508 3.50545 31.9815 3.46947 32.0854 3.3975C32.192 3.32286 32.2667 3.22423 32.3093 3.10162H32.7012C32.6425 3.3122 32.5252 3.48413 32.3493 3.61741C32.1734 3.74802 31.9548 3.81333 31.6936 3.81333C31.4857 3.81333 31.2991 3.76668 31.1338 3.67339C30.9712 3.58009 30.8432 3.44814 30.75 3.27755C30.6567 3.10428 30.61 2.90436 30.61 2.67779C30.61 2.45121 30.6553 2.25263 30.746 2.08203C30.8366 1.91143 30.9632 1.78082 31.1258 1.69019C31.2911 1.59689 31.4803 1.55024 31.6936 1.55024C31.9015 1.55024 32.0854 1.59556 32.2453 1.68619C32.4053 1.77682 32.5279 1.9021 32.6132 2.06204C32.7012 2.21931 32.7451 2.3979 32.7451 2.59782ZM32.3693 2.52185C32.3693 2.38324 32.3386 2.26462 32.2773 2.16599C32.216 2.0647 32.1321 1.98873 32.0254 1.93809C31.9215 1.88477 31.8055 1.85812 31.6776 1.85812C31.4937 1.85812 31.3364 1.91676 31.2058 2.03405C31.0778 2.15133 31.0045 2.31393 30.9859 2.52185H32.3693ZM33.6692 1.88611V3.17759C33.6692 3.28421 33.6919 3.36018 33.7372 3.40549C33.7825 3.44814 33.8612 3.46947 33.9731 3.46947H34.241V3.77734H33.9131C33.7106 3.77734 33.5586 3.7307 33.4573 3.6374C33.356 3.5441 33.3054 3.39083 33.3054 3.17759V1.88611H33.0215V1.58623H33.3054V1.03445H33.6692V1.58623H34.241V1.88611H33.6692ZM35.1537 0.990469L35.1097 2.98966H34.8058L34.7618 0.990469H35.1537ZM34.9737 3.80133C34.9044 3.80133 34.8458 3.77734 34.7978 3.72936C34.7498 3.68138 34.7258 3.62274 34.7258 3.55343C34.7258 3.48413 34.7498 3.42549 34.7978 3.37751C34.8458 3.32952 34.9044 3.30553 34.9737 3.30553C35.0404 3.30553 35.0964 3.32952 35.1417 3.37751C35.1897 3.42549 35.2136 3.48413 35.2136 3.55343C35.2136 3.62274 35.1897 3.68138 35.1417 3.72936C35.0964 3.77734 35.0404 3.80133 34.9737 3.80133ZM37.2946 0.990469V2.75376C37.2946 3.00166 37.3546 3.18558 37.4745 3.30553C37.5972 3.42549 37.7664 3.48546 37.9823 3.48546C38.1956 3.48546 38.3622 3.42549 38.4821 3.30553C38.6048 3.18558 38.6661 3.00166 38.6661 2.75376V0.990469H39.0299V2.74976C39.0299 2.98167 38.9833 3.17759 38.89 3.33752C38.7967 3.49479 38.6701 3.61208 38.5101 3.68938C38.3529 3.76668 38.1756 3.80533 37.9783 3.80533C37.7811 3.80533 37.6025 3.76668 37.4426 3.68938C37.2853 3.61208 37.16 3.49479 37.0667 3.33752C36.9761 3.17759 36.9308 2.98167 36.9308 2.74976V0.990469H37.2946ZM40.4126 3.81333C40.2446 3.81333 40.094 3.78534 39.9608 3.72936C39.8275 3.67072 39.7222 3.59075 39.6449 3.48946C39.5676 3.3855 39.5249 3.26688 39.5169 3.1336H39.8928C39.9035 3.24289 39.9541 3.33219 40.0447 3.4015C40.138 3.4708 40.2593 3.50545 40.4086 3.50545C40.5472 3.50545 40.6565 3.4748 40.7364 3.41349C40.8164 3.35218 40.8564 3.27488 40.8564 3.18158C40.8564 3.08562 40.8138 3.01499 40.7285 2.96967C40.6432 2.92169 40.5112 2.87504 40.3326 2.82973C40.17 2.78708 40.0367 2.74443 39.9328 2.70178C39.8315 2.65646 39.7435 2.59116 39.6689 2.50586C39.5969 2.41789 39.5609 2.30327 39.5609 2.162C39.5609 2.05004 39.5942 1.94742 39.6609 1.85412C39.7275 1.76082 39.8222 1.68752 39.9448 1.63421C40.0674 1.57823 40.2073 1.55024 40.3646 1.55024C40.6072 1.55024 40.8031 1.61155 40.9524 1.73417C41.1016 1.85679 41.1816 2.02472 41.1923 2.23797H40.8284C40.8204 2.12335 40.7738 2.03138 40.6885 1.96208C40.6058 1.89277 40.4939 1.85812 40.3526 1.85812C40.222 1.85812 40.118 1.88611 40.0407 1.94208C39.9634 1.99806 39.9248 2.07137 39.9248 2.162C39.9248 2.23397 39.9474 2.29394 39.9927 2.34192C40.0407 2.38724 40.0994 2.42456 40.1687 2.45388C40.2406 2.48053 40.3393 2.51119 40.4646 2.54584C40.6218 2.58849 40.7498 2.63114 40.8484 2.67379C40.947 2.71377 41.031 2.77508 41.1003 2.85772C41.1723 2.94035 41.2096 3.0483 41.2123 3.18158C41.2123 3.30154 41.1789 3.40949 41.1123 3.50545C41.0457 3.60141 40.951 3.67738 40.8284 3.73336C40.7085 3.78667 40.5698 3.81333 40.4126 3.81333ZM43.7251 2.59782C43.7251 2.66713 43.7211 2.74043 43.7131 2.81773H41.9618C41.9751 3.03364 42.0484 3.20291 42.1817 3.32553C42.3177 3.44548 42.4816 3.50545 42.6735 3.50545C42.8308 3.50545 42.9614 3.46947 43.0654 3.3975C43.172 3.32286 43.2466 3.22423 43.2893 3.10162H43.6811C43.6225 3.3122 43.5052 3.48413 43.3292 3.61741C43.1533 3.74802 42.9347 3.81333 42.6735 3.81333C42.4656 3.81333 42.279 3.76668 42.1137 3.67339C41.9511 3.58009 41.8232 3.44814 41.7299 3.27755C41.6366 3.10428 41.5899 2.90436 41.5899 2.67779C41.5899 2.45121 41.6353 2.25263 41.7259 2.08203C41.8165 1.91143 41.9431 1.78082 42.1057 1.69019C42.271 1.59689 42.4603 1.55024 42.6735 1.55024C42.8814 1.55024 43.0654 1.59556 43.2253 1.68619C43.3852 1.77682 43.5078 1.9021 43.5931 2.06204C43.6811 2.21931 43.7251 2.3979 43.7251 2.59782ZM43.3492 2.52185C43.3492 2.38324 43.3186 2.26462 43.2573 2.16599C43.196 2.0647 43.112 1.98873 43.0054 1.93809C42.9014 1.88477 42.7855 1.85812 42.6575 1.85812C42.4736 1.85812 42.3163 1.91676 42.1857 2.03405C42.0578 2.15133 41.9845 2.31393 41.9658 2.52185H43.3492ZM45.4553 0.594629L45.4073 1.39031H45.1554L45.1034 0.594629H45.4553ZM73.6743 0.594629L73.6264 1.39031H73.3745L73.3225 0.594629H73.6743ZM76.0845 1.88611H75.6247V3.77734H75.2608V1.88611H74.9769V1.58623H75.2608V1.43029C75.2608 1.18506 75.3235 1.00646 75.4487 0.894508C75.5767 0.779888 75.7806 0.722577 76.0605 0.722577V1.02645C75.9006 1.02645 75.7873 1.05844 75.7206 1.12242C75.6567 1.18372 75.6247 1.28635 75.6247 1.43029V1.58623H76.0845V1.88611ZM78.5079 2.59782C78.5079 2.66713 78.5039 2.74043 78.4959 2.81773H76.7446C76.758 3.03364 76.8313 3.20291 76.9645 3.32553C77.1005 3.44548 77.2644 3.50545 77.4563 3.50545C77.6136 3.50545 77.7442 3.46947 77.8482 3.3975C77.9548 3.32286 78.0294 3.22423 78.0721 3.10162H78.4639C78.4053 3.3122 78.288 3.48413 78.1121 3.61741C77.9361 3.74802 77.7176 3.81333 77.4563 3.81333C77.2484 3.81333 77.0618 3.76668 76.8966 3.67339C76.734 3.58009 76.606 3.44814 76.5127 3.27755C76.4194 3.10428 76.3728 2.90436 76.3728 2.67779C76.3728 2.45121 76.4181 2.25263 76.5087 2.08203C76.5993 1.91143 76.726 1.78082 76.8886 1.69019C77.0538 1.59689 77.2431 1.55024 77.4563 1.55024C77.6643 1.55024 77.8482 1.59556 78.0081 1.68619C78.168 1.77682 78.2907 1.9021 78.376 2.06204C78.4639 2.21931 78.5079 2.3979 78.5079 2.59782ZM78.1321 2.52185C78.1321 2.38324 78.1014 2.26462 78.0401 2.16599C77.9788 2.0647 77.8948 1.98873 77.7882 1.93809C77.6842 1.88477 77.5683 1.85812 77.4403 1.85812C77.2564 1.85812 77.0991 1.91676 76.9685 2.03405C76.8406 2.15133 76.7673 2.31393 76.7486 2.52185H78.1321ZM78.8522 2.67379C78.8522 2.44988 78.8976 2.25396 78.9882 2.08603C79.0788 1.91543 79.2028 1.78348 79.36 1.69019C79.52 1.59689 79.6972 1.55024 79.8918 1.55024C80.0837 1.55024 80.2503 1.59156 80.3916 1.67419C80.5329 1.75683 80.6382 1.86078 80.7075 1.98607V1.58623H81.0753V3.77734H80.7075V3.36951C80.6355 3.49746 80.5276 3.60408 80.3836 3.68938C80.2423 3.77201 80.0771 3.81333 79.8878 3.81333C79.6932 3.81333 79.5173 3.76535 79.36 3.66939C79.2028 3.57343 79.0788 3.43881 78.9882 3.26555C78.8976 3.09229 78.8522 2.89503 78.8522 2.67379ZM80.7075 2.67779C80.7075 2.51252 80.6742 2.36858 80.6075 2.24596C80.5409 2.12335 80.4503 2.03005 80.3356 1.96608C80.2237 1.89944 80.0997 1.86612 79.9638 1.86612C79.8278 1.86612 79.7039 1.8981 79.5919 1.96208C79.48 2.02605 79.3907 2.11935 79.3241 2.24196C79.2574 2.36458 79.2241 2.50852 79.2241 2.67379C79.2241 2.84172 79.2574 2.98833 79.3241 3.11361C79.3907 3.23623 79.48 3.33086 79.5919 3.3975C79.7039 3.46147 79.8278 3.49346 79.9638 3.49346C80.0997 3.49346 80.2237 3.46147 80.3356 3.3975C80.4503 3.33086 80.5409 3.23623 80.6075 3.11361C80.6742 2.98833 80.7075 2.84305 80.7075 2.67779ZM82.134 1.88611V3.17759C82.134 3.28421 82.1567 3.36018 82.202 3.40549C82.2473 3.44814 82.326 3.46947 82.4379 3.46947H82.7058V3.77734H82.3779C82.1754 3.77734 82.0234 3.7307 81.9221 3.6374C81.8208 3.5441 81.7702 3.39083 81.7702 3.17759V1.88611H81.4863V1.58623H81.7702V1.03445H82.134V1.58623H82.7058V1.88611H82.134ZM85.0899 1.58623V3.77734H84.726V3.45347C84.6567 3.56543 84.5594 3.65339 84.4341 3.71737C84.3115 3.77868 84.1756 3.80933 84.0263 3.80933C83.8557 3.80933 83.7024 3.77468 83.5665 3.70537C83.4305 3.6334 83.3226 3.52678 83.2426 3.3855C83.1653 3.24423 83.1267 3.0723 83.1267 2.86971V1.58623H83.4865V2.82173C83.4865 3.03764 83.5412 3.20424 83.6505 3.32153C83.7597 3.43615 83.909 3.49346 84.0983 3.49346C84.2929 3.49346 84.4461 3.43348 84.5581 3.31353C84.67 3.19358 84.726 3.01898 84.726 2.78974V1.58623H85.0899ZM86.0681 1.94208C86.132 1.8168 86.2227 1.71951 86.34 1.6502C86.4599 1.5809 86.6052 1.54624 86.7758 1.54624V1.92209H86.6798C86.272 1.92209 86.0681 2.14334 86.0681 2.58583V3.77734H85.7042V1.58623H86.0681V1.94208ZM89.195 2.59782C89.195 2.66713 89.191 2.74043 89.183 2.81773H87.4317C87.445 3.03364 87.5183 3.20291 87.6516 3.32553C87.7876 3.44548 87.9515 3.50545 88.1434 3.50545C88.3007 3.50545 88.4313 3.46947 88.5353 3.3975C88.6419 3.32286 88.7165 3.22423 88.7592 3.10162H89.151C89.0924 3.3122 88.9751 3.48413 88.7992 3.61741C88.6232 3.74802 88.4047 3.81333 88.1434 3.81333C87.9355 3.81333 87.7489 3.76668 87.5837 3.67339C87.421 3.58009 87.2931 3.44814 87.1998 3.27755C87.1065 3.10428 87.0599 2.90436 87.0599 2.67779C87.0599 2.45121 87.1052 2.25263 87.1958 2.08203C87.2864 1.91143 87.4131 1.78082 87.5757 1.69019C87.7409 1.59689 87.9302 1.55024 88.1434 1.55024C88.3513 1.55024 88.5353 1.59556 88.6952 1.68619C88.8551 1.77682 88.9778 1.9021 89.0631 2.06204C89.151 2.21931 89.195 2.3979 89.195 2.59782ZM88.8192 2.52185C88.8192 2.38324 88.7885 2.26462 88.7272 2.16599C88.6659 2.0647 88.5819 1.98873 88.4753 1.93809C88.3713 1.88477 88.2554 1.85812 88.1274 1.85812C87.9435 1.85812 87.7862 1.91676 87.6556 2.03405C87.5277 2.15133 87.4544 2.31393 87.4357 2.52185H88.8192ZM91.6329 1.88611H91.1731V3.77734H90.8092V1.88611H90.5253V1.58623H90.8092V1.43029C90.8092 1.18506 90.8719 1.00646 90.9971 0.894508C91.1251 0.779888 91.329 0.722577 91.6089 0.722577V1.02645C91.449 1.02645 91.3357 1.05844 91.269 1.12242C91.2051 1.18372 91.1731 1.28635 91.1731 1.43029V1.58623H91.6329V1.88611ZM92.421 1.94208C92.485 1.8168 92.5756 1.71951 92.6929 1.6502C92.8128 1.5809 92.9581 1.54624 93.1287 1.54624V1.92209H93.0327C92.6249 1.92209 92.421 2.14334 92.421 2.58583V3.77734H92.0571V1.58623H92.421V1.94208ZM94.5043 3.81333C94.2991 3.81333 94.1125 3.76668 93.9446 3.67339C93.7793 3.58009 93.6487 3.44814 93.5527 3.27755C93.4594 3.10428 93.4128 2.90436 93.4128 2.67779C93.4128 2.45388 93.4607 2.25662 93.5567 2.08603C93.6553 1.91276 93.7886 1.78082 93.9565 1.69019C94.1245 1.59689 94.3124 1.55024 94.5203 1.55024C94.7282 1.55024 94.9162 1.59689 95.0841 1.69019C95.252 1.78082 95.384 1.91143 95.4799 2.08203C95.5786 2.25263 95.6279 2.45121 95.6279 2.67779C95.6279 2.90436 95.5772 3.10428 95.4759 3.27755C95.3773 3.44814 95.2427 3.58009 95.0721 3.67339C94.9015 3.76668 94.7122 3.81333 94.5043 3.81333ZM94.5043 3.49346C94.6349 3.49346 94.7576 3.4628 94.8722 3.4015C94.9868 3.34019 95.0788 3.24822 95.1481 3.12561C95.22 3.00299 95.256 2.85372 95.256 2.67779C95.256 2.50186 95.2214 2.35259 95.1521 2.22997C95.0828 2.10735 94.9921 2.01672 94.8802 1.95808C94.7682 1.89677 94.6469 1.86612 94.5163 1.86612C94.383 1.86612 94.2604 1.89677 94.1485 1.95808C94.0392 2.01672 93.9512 2.10735 93.8846 2.22997C93.8179 2.35259 93.7846 2.50186 93.7846 2.67779C93.7846 2.85638 93.8166 3.00699 93.8806 3.12961C93.9472 3.25222 94.0352 3.34419 94.1445 3.40549C94.2538 3.46414 94.3737 3.49346 94.5043 3.49346ZM98.7412 1.54624C98.9118 1.54624 99.0637 1.58223 99.197 1.6542C99.3303 1.72351 99.4356 1.8288 99.5129 1.97007C99.5902 2.11135 99.6288 2.28328 99.6288 2.48587V3.77734H99.269V2.53784C99.269 2.31927 99.2143 2.15267 99.1051 2.03805C98.9984 1.92076 98.8532 1.86212 98.6692 1.86212C98.48 1.86212 98.3294 1.92343 98.2174 2.04604C98.1055 2.16599 98.0495 2.34059 98.0495 2.56983V3.77734H97.6896V2.53784C97.6896 2.31927 97.635 2.15267 97.5257 2.03805C97.4191 1.92076 97.2738 1.86212 97.0899 1.86212C96.9006 1.86212 96.75 1.92343 96.6381 2.04604C96.5261 2.16599 96.4701 2.34059 96.4701 2.56983V3.77734H96.1063V1.58623H96.4701V1.9021C96.5421 1.78748 96.6381 1.69952 96.758 1.63821C96.8806 1.5769 97.0152 1.54624 97.1618 1.54624C97.3458 1.54624 97.5084 1.58756 97.6496 1.67019C97.7909 1.75283 97.8962 1.87411 97.9655 2.03405C98.0268 1.87944 98.1281 1.75949 98.2694 1.67419C98.4107 1.58889 98.5679 1.54624 98.7412 1.54624ZM101.156 2.38191C101.156 2.11002 101.217 1.86612 101.34 1.6502C101.462 1.43162 101.629 1.26103 101.839 1.13841C102.053 1.01579 102.289 0.954484 102.547 0.954484C102.851 0.954484 103.116 1.02779 103.343 1.1744C103.569 1.321 103.735 1.52892 103.839 1.79814H103.403C103.326 1.63021 103.214 1.50093 103.067 1.4103C102.923 1.31967 102.75 1.27435 102.547 1.27435C102.353 1.27435 102.178 1.31967 102.023 1.4103C101.869 1.50093 101.747 1.63021 101.66 1.79814C101.572 1.96341 101.528 2.158 101.528 2.38191C101.528 2.60315 101.572 2.79774 101.66 2.96567C101.747 3.13094 101.869 3.25889 102.023 3.34952C102.178 3.44015 102.353 3.48546 102.547 3.48546C102.75 3.48546 102.923 3.44148 103.067 3.35351C103.214 3.26288 103.326 3.1336 103.403 2.96567H103.839C103.735 3.23223 103.569 3.43881 103.343 3.58542C103.116 3.72936 102.851 3.80133 102.547 3.80133C102.289 3.80133 102.053 3.74136 101.839 3.62141C101.629 3.49879 101.462 3.32952 101.34 3.11361C101.217 2.8977 101.156 2.6538 101.156 2.38191ZM105.468 1.54624C105.633 1.54624 105.782 1.58223 105.916 1.6542C106.049 1.72351 106.153 1.8288 106.228 1.97007C106.305 2.11135 106.343 2.28328 106.343 2.48587V3.77734H105.984V2.53784C105.984 2.31927 105.929 2.15267 105.82 2.03805C105.71 1.92076 105.561 1.86212 105.372 1.86212C105.18 1.86212 105.027 1.92209 104.912 2.04204C104.8 2.162 104.744 2.33659 104.744 2.56583V3.77734H104.38V0.818539H104.744V1.8981C104.816 1.78615 104.915 1.69952 105.04 1.63821C105.168 1.5769 105.311 1.54624 105.468 1.54624ZM106.802 2.67379C106.802 2.44988 106.847 2.25396 106.938 2.08603C107.028 1.91543 107.152 1.78348 107.31 1.69019C107.47 1.59689 107.647 1.55024 107.841 1.55024C108.033 1.55024 108.2 1.59156 108.341 1.67419C108.483 1.75683 108.588 1.86078 108.657 1.98607V1.58623H109.025V3.77734H108.657V3.36951C108.585 3.49746 108.477 3.60408 108.333 3.68938C108.192 3.77201 108.027 3.81333 107.837 3.81333C107.643 3.81333 107.467 3.76535 107.31 3.66939C107.152 3.57343 107.028 3.43881 106.938 3.26555C106.847 3.09229 106.802 2.89503 106.802 2.67379ZM108.657 2.67779C108.657 2.51252 108.624 2.36858 108.557 2.24596C108.491 2.12335 108.4 2.03005 108.285 1.96608C108.173 1.89944 108.049 1.86612 107.913 1.86612C107.777 1.86612 107.654 1.8981 107.542 1.96208C107.43 2.02605 107.34 2.11935 107.274 2.24196C107.207 2.36458 107.174 2.50852 107.174 2.67379C107.174 2.84172 107.207 2.98833 107.274 3.11361C107.34 3.23623 107.43 3.33086 107.542 3.3975C107.654 3.46147 107.777 3.49346 107.913 3.49346C108.049 3.49346 108.173 3.46147 108.285 3.3975C108.4 3.33086 108.491 3.23623 108.557 3.11361C108.624 2.98833 108.657 2.84305 108.657 2.67779ZM110.084 1.88611V3.17759C110.084 3.28421 110.106 3.36018 110.152 3.40549C110.197 3.44814 110.276 3.46947 110.388 3.46947H110.655V3.77734H110.328C110.125 3.77734 109.973 3.7307 109.872 3.6374C109.77 3.5441 109.72 3.39083 109.72 3.17759V1.88611H109.436V1.58623H109.72V1.03445H110.084V1.58623H110.655V1.88611H110.084ZM113.81 3.15759H112.594L112.37 3.77734H111.986L112.994 1.00646H113.414L114.417 3.77734H114.034L113.81 3.15759ZM113.706 2.86171L113.202 1.45428L112.698 2.86171H113.706ZM115.924 1.54624C116.191 1.54624 116.407 1.62755 116.572 1.79015C116.737 1.95008 116.82 2.18199 116.82 2.48587V3.77734H116.46V2.53784C116.46 2.31927 116.405 2.15267 116.296 2.03805C116.187 1.92076 116.037 1.86212 115.848 1.86212C115.656 1.86212 115.503 1.92209 115.388 2.04204C115.276 2.162 115.22 2.33659 115.22 2.56583V3.77734H114.857V1.58623H115.22V1.8981C115.292 1.78615 115.39 1.69952 115.512 1.63821C115.638 1.5769 115.775 1.54624 115.924 1.54624ZM118.37 3.81333C118.164 3.81333 117.978 3.76668 117.81 3.67339C117.645 3.58009 117.514 3.44814 117.418 3.27755C117.325 3.10428 117.278 2.90436 117.278 2.67779C117.278 2.45388 117.326 2.25662 117.422 2.08603C117.521 1.91276 117.654 1.78082 117.822 1.69019C117.99 1.59689 118.178 1.55024 118.386 1.55024C118.594 1.55024 118.782 1.59689 118.949 1.69019C119.117 1.78082 119.249 1.91143 119.345 2.08203C119.444 2.25263 119.493 2.45121 119.493 2.67779C119.493 2.90436 119.443 3.10428 119.341 3.27755C119.243 3.44814 119.108 3.58009 118.937 3.67339C118.767 3.76668 118.578 3.81333 118.37 3.81333ZM118.37 3.49346C118.5 3.49346 118.623 3.4628 118.738 3.4015C118.852 3.34019 118.944 3.24822 119.013 3.12561C119.085 3.00299 119.121 2.85372 119.121 2.67779C119.121 2.50186 119.087 2.35259 119.017 2.22997C118.948 2.10735 118.857 2.01672 118.746 1.95808C118.634 1.89677 118.512 1.86612 118.382 1.86612C118.248 1.86612 118.126 1.89677 118.014 1.95808C117.905 2.01672 117.817 2.10735 117.75 2.22997C117.683 2.35259 117.65 2.50186 117.65 2.67779C117.65 2.85638 117.682 3.00699 117.746 3.12961C117.813 3.25222 117.901 3.34419 118.01 3.40549C118.119 3.46414 118.239 3.49346 118.37 3.49346ZM121.039 1.54624C121.306 1.54624 121.522 1.62755 121.687 1.79015C121.852 1.95008 121.935 2.18199 121.935 2.48587V3.77734H121.575V2.53784C121.575 2.31927 121.52 2.15267 121.411 2.03805C121.302 1.92076 121.152 1.86212 120.963 1.86212C120.771 1.86212 120.618 1.92209 120.503 2.04204C120.391 2.162 120.335 2.33659 120.335 2.56583V3.77734H119.972V1.58623H120.335V1.8981C120.407 1.78615 120.505 1.69952 120.627 1.63821C120.753 1.5769 120.89 1.54624 121.039 1.54624ZM124.416 1.58623L123.097 4.80893H122.721L123.153 3.75335L122.269 1.58623H122.673L123.361 3.36151L124.041 1.58623H124.416ZM127.417 1.54624C127.588 1.54624 127.74 1.58223 127.873 1.6542C128.006 1.72351 128.112 1.8288 128.189 1.97007C128.266 2.11135 128.305 2.28328 128.305 2.48587V3.77734H127.945V2.53784C127.945 2.31927 127.89 2.15267 127.781 2.03805C127.674 1.92076 127.529 1.86212 127.345 1.86212C127.156 1.86212 127.005 1.92343 126.893 2.04604C126.781 2.16599 126.725 2.34059 126.725 2.56983V3.77734H126.366V2.53784C126.366 2.31927 126.311 2.15267 126.202 2.03805C126.095 1.92076 125.95 1.86212 125.766 1.86212C125.577 1.86212 125.426 1.92343 125.314 2.04604C125.202 2.16599 125.146 2.34059 125.146 2.56983V3.77734H124.782V1.58623H125.146V1.9021C125.218 1.78748 125.314 1.69952 125.434 1.63821C125.557 1.5769 125.691 1.54624 125.838 1.54624C126.022 1.54624 126.184 1.58756 126.326 1.67019C126.467 1.75283 126.572 1.87411 126.641 2.03405C126.703 1.87944 126.804 1.75949 126.945 1.67419C127.087 1.58889 127.244 1.54624 127.417 1.54624ZM129.857 3.81333C129.652 3.81333 129.465 3.76668 129.297 3.67339C129.132 3.58009 129.002 3.44814 128.906 3.27755C128.812 3.10428 128.766 2.90436 128.766 2.67779C128.766 2.45388 128.814 2.25662 128.91 2.08603C129.008 1.91276 129.142 1.78082 129.309 1.69019C129.477 1.59689 129.665 1.55024 129.873 1.55024C130.081 1.55024 130.269 1.59689 130.437 1.69019C130.605 1.78082 130.737 1.91143 130.833 2.08203C130.931 2.25263 130.981 2.45121 130.981 2.67779C130.981 2.90436 130.93 3.10428 130.829 3.27755C130.73 3.44814 130.596 3.58009 130.425 3.67339C130.254 3.76668 130.065 3.81333 129.857 3.81333ZM129.857 3.49346C129.988 3.49346 130.11 3.4628 130.225 3.4015C130.34 3.34019 130.432 3.24822 130.501 3.12561C130.573 3.00299 130.609 2.85372 130.609 2.67779C130.609 2.50186 130.574 2.35259 130.505 2.22997C130.436 2.10735 130.345 2.01672 130.233 1.95808C130.121 1.89677 130 1.86612 129.869 1.86612C129.736 1.86612 129.613 1.89677 129.501 1.95808C129.392 2.01672 129.304 2.10735 129.237 2.22997C129.171 2.35259 129.138 2.50186 129.138 2.67779C129.138 2.85638 129.17 3.00699 129.233 3.12961C129.3 3.25222 129.388 3.34419 129.497 3.40549C129.607 3.46414 129.727 3.49346 129.857 3.49346ZM133.402 1.58623V3.77734H133.039V3.45347C132.969 3.56543 132.872 3.65339 132.747 3.71737C132.624 3.77868 132.488 3.80933 132.339 3.80933C132.168 3.80933 132.015 3.77468 131.879 3.70537C131.743 3.6334 131.635 3.52678 131.555 3.3855C131.478 3.24423 131.439 3.0723 131.439 2.86971V1.58623H131.799V2.82173C131.799 3.03764 131.854 3.20424 131.963 3.32153C132.072 3.43615 132.222 3.49346 132.411 3.49346C132.605 3.49346 132.759 3.43348 132.871 3.31353C132.983 3.19358 133.039 3.01898 133.039 2.78974V1.58623H133.402ZM134.792 3.81333C134.624 3.81333 134.474 3.78534 134.341 3.72936C134.207 3.67072 134.102 3.59075 134.025 3.48946C133.947 3.3855 133.905 3.26688 133.897 3.1336H134.273C134.283 3.24289 134.334 3.33219 134.425 3.4015C134.518 3.4708 134.639 3.50545 134.788 3.50545C134.927 3.50545 135.036 3.4748 135.116 3.41349C135.196 3.35218 135.236 3.27488 135.236 3.18158C135.236 3.08562 135.194 3.01499 135.108 2.96967C135.023 2.92169 134.891 2.87504 134.712 2.82973C134.55 2.78708 134.417 2.74443 134.313 2.70178C134.211 2.65646 134.123 2.59116 134.049 2.50586C133.977 2.41789 133.941 2.30327 133.941 2.162C133.941 2.05004 133.974 1.94742 134.041 1.85412C134.107 1.76082 134.202 1.68752 134.325 1.63421C134.447 1.57823 134.587 1.55024 134.744 1.55024C134.987 1.55024 135.183 1.61155 135.332 1.73417C135.481 1.85679 135.561 2.02472 135.572 2.23797H135.208C135.2 2.12335 135.154 2.03138 135.068 1.96208C134.986 1.89277 134.874 1.85812 134.732 1.85812C134.602 1.85812 134.498 1.88611 134.421 1.94208C134.343 1.99806 134.305 2.07137 134.305 2.162C134.305 2.23397 134.327 2.29394 134.373 2.34192C134.421 2.38724 134.479 2.42456 134.549 2.45388C134.62 2.48053 134.719 2.51119 134.844 2.54584C135.002 2.58849 135.13 2.63114 135.228 2.67379C135.327 2.71377 135.411 2.77508 135.48 2.85772C135.552 2.94035 135.589 3.0483 135.592 3.18158C135.592 3.30154 135.559 3.40949 135.492 3.50545C135.426 3.60141 135.331 3.67738 135.208 3.73336C135.088 3.78667 134.95 3.81333 134.792 3.81333ZM2.11977 9.81333C1.91452 9.81333 1.72793 9.76668 1.55999 9.67339C1.39473 9.58009 1.26411 9.44814 1.16815 9.27755C1.07486 9.10428 1.02821 8.90436 1.02821 8.67779C1.02821 8.45388 1.07619 8.25662 1.17215 8.08603C1.27078 7.91276 1.40406 7.78082 1.57199 7.69019C1.73992 7.59689 1.92784 7.55024 2.13576 7.55024C2.34368 7.55024 2.5316 7.59689 2.69953 7.69019C2.86747 7.78082 2.99941 7.91143 3.09537 8.08203C3.194 8.25263 3.24331 8.45121 3.24331 8.67779C3.24331 8.90436 3.19267 9.10428 3.09137 9.27755C2.99275 9.44814 2.85814 9.58009 2.68754 9.67339C2.51694 9.76668 2.32768 9.81333 2.11977 9.81333ZM2.11977 9.49346C2.25038 9.49346 2.373 9.4628 2.48762 9.4015C2.60224 9.34019 2.6942 9.24822 2.76351 9.12561C2.83548 9.00299 2.87146 8.85372 2.87146 8.67779C2.87146 8.50186 2.83681 8.35259 2.76751 8.22997C2.6982 8.10735 2.60757 8.01672 2.49562 7.95808C2.38366 7.89677 2.26238 7.86612 2.13176 7.86612C1.99848 7.86612 1.87587 7.89677 1.76391 7.95808C1.65462 8.01672 1.56666 8.10735 1.50002 8.22997C1.43338 8.35259 1.40006 8.50186 1.40006 8.67779C1.40006 8.85638 1.43204 9.00699 1.49602 9.12961C1.56266 9.25222 1.65062 9.34419 1.75991 9.40549C1.8692 9.46414 1.98915 9.49346 2.11977 9.49346ZM4.08557 7.94208C4.14954 7.8168 4.24017 7.71951 4.35746 7.6502C4.47741 7.5809 4.62268 7.54624 4.79328 7.54624V7.92209H4.69732C4.28948 7.92209 4.08557 8.14334 4.08557 8.58583V9.77734H3.72171V7.58623H4.08557V7.94208ZM55.676 7.88611V9.17759C55.676 9.28421 55.6986 9.36018 55.744 9.40549C55.7893 9.44814 55.8679 9.46947 55.9799 9.46947H56.2477V9.77734H55.9199C55.7173 9.77734 55.5654 9.7307 55.4641 9.6374C55.3628 9.5441 55.3121 9.39083 55.3121 9.17759V7.88611H55.0282V7.58623H55.3121V7.03445H55.676V7.58623H56.2477V7.88611H55.676ZM57.6442 9.81333C57.439 9.81333 57.2524 9.76668 57.0844 9.67339C56.9192 9.58009 56.7886 9.44814 56.6926 9.27755C56.5993 9.10428 56.5527 8.90436 56.5527 8.67779C56.5527 8.45388 56.6006 8.25662 56.6966 8.08603C56.7952 7.91276 56.9285 7.78082 57.0964 7.69019C57.2644 7.59689 57.4523 7.55024 57.6602 7.55024C57.8681 7.55024 58.056 7.59689 58.224 7.69019C58.3919 7.78082 58.5239 7.91143 58.6198 8.08203C58.7184 8.25263 58.7678 8.45121 58.7678 8.67779C58.7678 8.90436 58.7171 9.10428 58.6158 9.27755C58.5172 9.44814 58.3826 9.58009 58.212 9.67339C58.0414 9.76668 57.8521 9.81333 57.6442 9.81333ZM57.6442 9.49346C57.7748 9.49346 57.8974 9.4628 58.0121 9.4015C58.1267 9.34019 58.2187 9.24822 58.288 9.12561C58.3599 9.00299 58.3959 8.85372 58.3959 8.67779C58.3959 8.50186 58.3613 8.35259 58.292 8.22997C58.2226 8.10735 58.132 8.01672 58.0201 7.95808C57.9081 7.89677 57.7868 7.86612 57.6562 7.86612C57.5229 7.86612 57.4003 7.89677 57.2884 7.95808C57.1791 8.01672 57.0911 8.10735 57.0245 8.22997C56.9578 8.35259 56.9245 8.50186 56.9245 8.67779C56.9245 8.85638 56.9565 9.00699 57.0205 9.12961C57.0871 9.25222 57.1751 9.34419 57.2844 9.40549C57.3937 9.46414 57.5136 9.49346 57.6442 9.49346ZM60.5001 7.23037C60.4308 7.23037 60.3721 7.20638 60.3241 7.1584C60.2762 7.11042 60.2522 7.05178 60.2522 6.98247C60.2522 6.91317 60.2762 6.85452 60.3241 6.80654C60.3721 6.75856 60.4308 6.73457 60.5001 6.73457C60.5667 6.73457 60.6227 6.75856 60.668 6.80654C60.716 6.85452 60.74 6.91317 60.74 6.98247C60.74 7.05178 60.716 7.11042 60.668 7.1584C60.6227 7.20638 60.5667 7.23037 60.5001 7.23037ZM60.676 7.58623V9.77734H60.3121V7.58623H60.676ZM62.3637 7.54624C62.6302 7.54624 62.8462 7.62755 63.0114 7.79015C63.1767 7.95008 63.2593 8.18199 63.2593 8.48587V9.77734H62.8995V8.53784C62.8995 8.31927 62.8448 8.15267 62.7355 8.03805C62.6262 7.92076 62.477 7.86212 62.2877 7.86212C62.0958 7.86212 61.9425 7.92209 61.8279 8.04204C61.7159 8.162 61.66 8.33659 61.66 8.56583V9.77734H61.2961V7.58623H61.66V7.8981C61.7319 7.78615 61.8292 7.69952 61.9519 7.63821C62.0771 7.5769 62.2144 7.54624 62.3637 7.54624ZM64.0416 7.23037C63.9723 7.23037 63.9137 7.20638 63.8657 7.1584C63.8177 7.11042 63.7937 7.05178 63.7937 6.98247C63.7937 6.91317 63.8177 6.85452 63.8657 6.80654C63.9137 6.75856 63.9723 6.73457 64.0416 6.73457C64.1082 6.73457 64.1642 6.75856 64.2095 6.80654C64.2575 6.85452 64.2815 6.91317 64.2815 6.98247C64.2815 7.05178 64.2575 7.11042 64.2095 7.1584C64.1642 7.20638 64.1082 7.23037 64.0416 7.23037ZM64.2175 7.58623V9.77734H63.8537V7.58623H64.2175ZM65.2815 7.88611V9.17759C65.2815 9.28421 65.3041 9.36018 65.3494 9.40549C65.3948 9.44814 65.4734 9.46947 65.5854 9.46947H65.8532V9.77734H65.5254C65.3228 9.77734 65.1709 9.7307 65.0696 9.6374C64.9683 9.5441 64.9176 9.39083 64.9176 9.17759V7.88611H64.6337V7.58623H64.9176V7.03445H65.2815V7.58623H65.8532V7.88611H65.2815ZM66.482 7.23037C66.4127 7.23037 66.3541 7.20638 66.3061 7.1584C66.2581 7.11042 66.2341 7.05178 66.2341 6.98247C66.2341 6.91317 66.2581 6.85452 66.3061 6.80654C66.3541 6.75856 66.4127 6.73457 66.482 6.73457C66.5487 6.73457 66.6046 6.75856 66.65 6.80654C66.6979 6.85452 66.7219 6.91317 66.7219 6.98247C66.7219 7.05178 66.6979 7.11042 66.65 7.1584C66.6046 7.20638 66.5487 7.23037 66.482 7.23037ZM66.658 7.58623V9.77734H66.2941V7.58623H66.658ZM67.1421 8.67379C67.1421 8.44988 67.1874 8.25396 67.2781 8.08603C67.3687 7.91543 67.4927 7.78348 67.6499 7.69019C67.8099 7.59689 67.9871 7.55024 68.1817 7.55024C68.3736 7.55024 68.5402 7.59156 68.6815 7.67419C68.8228 7.75683 68.9281 7.86078 68.9974 7.98607V7.58623H69.3652V9.77734H68.9974V9.36951C68.9254 9.49746 68.8175 9.60408 68.6735 9.68938C68.5322 9.77201 68.367 9.81333 68.1777 9.81333C67.9831 9.81333 67.8072 9.76535 67.6499 9.66939C67.4927 9.57343 67.3687 9.43881 67.2781 9.26555C67.1874 9.09229 67.1421 8.89503 67.1421 8.67379ZM68.9974 8.67779C68.9974 8.51252 68.9641 8.36858 68.8974 8.24596C68.8308 8.12335 68.7402 8.03005 68.6255 7.96608C68.5136 7.89944 68.3896 7.86612 68.2537 7.86612C68.1177 7.86612 67.9938 7.8981 67.8818 7.96208C67.7699 8.02605 67.6806 8.11935 67.6139 8.24196C67.5473 8.36458 67.514 8.50852 67.514 8.67379C67.514 8.84172 67.5473 8.98833 67.6139 9.11361C67.6806 9.23623 67.7699 9.33086 67.8818 9.3975C67.9938 9.46147 68.1177 9.49346 68.2537 9.49346C68.3896 9.49346 68.5136 9.46147 68.6255 9.3975C68.7402 9.33086 68.8308 9.23623 68.8974 9.11361C68.9641 8.98833 68.9974 8.84305 68.9974 8.67779ZM70.4239 7.88611V9.17759C70.4239 9.28421 70.4466 9.36018 70.4919 9.40549C70.5372 9.44814 70.6159 9.46947 70.7278 9.46947H70.9957V9.77734H70.6678C70.4652 9.77734 70.3133 9.7307 70.212 9.6374C70.1107 9.5441 70.0601 9.39083 70.0601 9.17759V7.88611H69.7762V7.58623H70.0601V7.03445H70.4239V7.58623H70.9957V7.88611H70.4239ZM73.4357 8.59782C73.4357 8.66713 73.4317 8.74043 73.4237 8.81773H71.6725C71.6858 9.03364 71.7591 9.20291 71.8924 9.32553C72.0283 9.44548 72.1922 9.50545 72.3842 9.50545C72.5414 9.50545 72.672 9.46947 72.776 9.3975C72.8826 9.32286 72.9573 9.22423 72.9999 9.10162H73.3918C73.3331 9.3122 73.2158 9.48413 73.0399 9.61741C72.864 9.74802 72.6454 9.81333 72.3842 9.81333C72.1762 9.81333 71.9897 9.76668 71.8244 9.67339C71.6618 9.58009 71.5338 9.44814 71.4405 9.27755C71.3472 9.10428 71.3006 8.90436 71.3006 8.67779C71.3006 8.45121 71.3459 8.25263 71.4365 8.08203C71.5272 7.91143 71.6538 7.78082 71.8164 7.69019C71.9817 7.59689 72.1709 7.55024 72.3842 7.55024C72.5921 7.55024 72.776 7.59556 72.9359 7.68619C73.0959 7.77682 73.2185 7.9021 73.3038 8.06204C73.3918 8.21931 73.4357 8.3979 73.4357 8.59782ZM73.0599 8.52185C73.0599 8.38324 73.0292 8.26462 72.9679 8.16599C72.9066 8.0647 72.8227 7.98873 72.716 7.93809C72.6121 7.88477 72.4961 7.85812 72.3682 7.85812C72.1842 7.85812 72.027 7.91676 71.8964 8.03405C71.7684 8.15133 71.6951 8.31393 71.6764 8.52185H73.0599ZM76.8692 7.58623L75.5498 10.8089H75.1739L75.6057 9.75335L74.7221 7.58623H75.1259L75.8137 9.36151L76.4934 7.58623H76.8692ZM78.1906 9.81333C77.9853 9.81333 77.7988 9.76668 77.6308 9.67339C77.4656 9.58009 77.3349 9.44814 77.239 9.27755C77.1457 9.10428 77.099 8.90436 77.099 8.67779C77.099 8.45388 77.147 8.25662 77.243 8.08603C77.3416 7.91276 77.4749 7.78082 77.6428 7.69019C77.8108 7.59689 77.9987 7.55024 78.2066 7.55024C78.4145 7.55024 78.6024 7.59689 78.7704 7.69019C78.9383 7.78082 79.0702 7.91143 79.1662 8.08203C79.2648 8.25263 79.3141 8.45121 79.3141 8.67779C79.3141 8.90436 79.2635 9.10428 79.1622 9.27755C79.0636 9.44814 78.929 9.58009 78.7584 9.67339C78.5878 9.76668 78.3985 9.81333 78.1906 9.81333ZM78.1906 9.49346C78.3212 9.49346 78.4438 9.4628 78.5584 9.4015C78.6731 9.34019 78.765 9.24822 78.8343 9.12561C78.9063 9.00299 78.9423 8.85372 78.9423 8.67779C78.9423 8.50186 78.9076 8.35259 78.8383 8.22997C78.769 8.10735 78.6784 8.01672 78.5664 7.95808C78.4545 7.89677 78.3332 7.86612 78.2026 7.86612C78.0693 7.86612 77.9467 7.89677 77.8347 7.95808C77.7255 8.01672 77.6375 8.10735 77.5708 8.22997C77.5042 8.35259 77.4709 8.50186 77.4709 8.67779C77.4709 8.85638 77.5029 9.00699 77.5669 9.12961C77.6335 9.25222 77.7215 9.34419 77.8307 9.40549C77.94 9.46414 78.06 9.49346 78.1906 9.49346ZM81.7358 7.58623V9.77734H81.3719V9.45347C81.3026 9.56543 81.2053 9.65339 81.08 9.71737C80.9574 9.77868 80.8215 9.80933 80.6722 9.80933C80.5016 9.80933 80.3483 9.77468 80.2124 9.70537C80.0764 9.6334 79.9685 9.52678 79.8885 9.3855C79.8112 9.24423 79.7726 9.0723 79.7726 8.86971V7.58623H80.1324V8.82173C80.1324 9.03764 80.1871 9.20424 80.2963 9.32153C80.4056 9.43615 80.5549 9.49346 80.7442 9.49346C80.9388 9.49346 81.092 9.43348 81.204 9.31353C81.3159 9.19358 81.3719 9.01898 81.3719 8.78974V7.58623H81.7358ZM82.714 7.94208C82.7779 7.8168 82.8686 7.71951 82.9859 7.6502C83.1058 7.5809 83.2511 7.54624 83.4217 7.54624V7.92209H83.3257C82.9179 7.92209 82.714 8.14334 82.714 8.58583V9.77734H82.3501V7.58623H82.714V7.94208ZM84.7717 8.67779C84.7717 8.45121 84.817 8.25396 84.9077 8.08603C84.9983 7.91543 85.1236 7.78348 85.2835 7.69019C85.4461 7.59689 85.6314 7.55024 85.8393 7.55024C86.1085 7.55024 86.3298 7.61555 86.503 7.74616C86.679 7.87678 86.7949 8.05804 86.8509 8.28994H86.459C86.4217 8.15666 86.3484 8.05137 86.2391 7.97407C86.1325 7.89677 85.9992 7.85812 85.8393 7.85812C85.6314 7.85812 85.4634 7.93009 85.3355 8.07403C85.2075 8.21531 85.1436 8.41656 85.1436 8.67779C85.1436 8.94168 85.2075 9.1456 85.3355 9.28954C85.4634 9.43348 85.6314 9.50545 85.8393 9.50545C85.9992 9.50545 86.1325 9.46814 86.2391 9.3935C86.3458 9.31886 86.4191 9.21224 86.459 9.07363H86.8509C86.7922 9.29754 86.675 9.47746 86.499 9.61341C86.3231 9.74669 86.1032 9.81333 85.8393 9.81333C85.6314 9.81333 85.4461 9.76668 85.2835 9.67339C85.1236 9.58009 84.9983 9.44814 84.9077 9.27755C84.817 9.10695 84.7717 8.90703 84.7717 8.67779ZM88.4239 7.54624C88.5892 7.54624 88.7385 7.58223 88.8718 7.6542C89.005 7.72351 89.109 7.8288 89.1836 7.97007C89.2609 8.11135 89.2996 8.28328 89.2996 8.48587V9.77734H88.9397V8.53784C88.9397 8.31927 88.8851 8.15267 88.7758 8.03805C88.6665 7.92076 88.5172 7.86212 88.328 7.86212C88.1361 7.86212 87.9828 7.92209 87.8682 8.04204C87.7562 8.162 87.7002 8.33659 87.7002 8.56583V9.77734H87.3364V6.81854H87.7002V7.8981C87.7722 7.78615 87.8708 7.69952 87.9961 7.63821C88.1241 7.5769 88.2667 7.54624 88.4239 7.54624ZM89.758 8.67379C89.758 8.44988 89.8033 8.25396 89.8939 8.08603C89.9846 7.91543 90.1085 7.78348 90.2658 7.69019C90.4257 7.59689 90.603 7.55024 90.7976 7.55024C90.9895 7.55024 91.1561 7.59156 91.2974 7.67419C91.4386 7.75683 91.5439 7.86078 91.6132 7.98607V7.58623H91.9811V9.77734H91.6132V9.36951C91.5413 9.49746 91.4333 9.60408 91.2894 9.68938C91.1481 9.77201 90.9828 9.81333 90.7936 9.81333C90.599 9.81333 90.4231 9.76535 90.2658 9.66939C90.1085 9.57343 89.9846 9.43881 89.8939 9.26555C89.8033 9.09229 89.758 8.89503 89.758 8.67379ZM91.6132 8.67779C91.6132 8.51252 91.5799 8.36858 91.5133 8.24596C91.4466 8.12335 91.356 8.03005 91.2414 7.96608C91.1294 7.89944 91.0055 7.86612 90.8695 7.86612C90.7336 7.86612 90.6096 7.8981 90.4977 7.96208C90.3857 8.02605 90.2964 8.11935 90.2298 8.24196C90.1632 8.36458 90.1298 8.50852 90.1298 8.67379C90.1298 8.84172 90.1632 8.98833 90.2298 9.11361C90.2964 9.23623 90.3857 9.33086 90.4977 9.3975C90.6096 9.46147 90.7336 9.49346 90.8695 9.49346C91.0055 9.49346 91.1294 9.46147 91.2414 9.3975C91.356 9.33086 91.4466 9.23623 91.5133 9.11361C91.5799 8.98833 91.6132 8.84305 91.6132 8.67779ZM93.0398 7.88611V9.17759C93.0398 9.28421 93.0624 9.36018 93.1078 9.40549C93.1531 9.44814 93.2317 9.46947 93.3437 9.46947H93.6116V9.77734H93.2837C93.0811 9.77734 92.9292 9.7307 92.8279 9.6374C92.7266 9.5441 92.6759 9.39083 92.6759 9.17759V7.88611H92.3921V7.58623H92.6759V7.03445H93.0398V7.58623H93.6116V7.88611H93.0398ZM94.1684 9.80133C94.0991 9.80133 94.0404 9.77734 93.9924 9.72936C93.9445 9.68138 93.9205 9.62274 93.9205 9.55343C93.9205 9.48413 93.9445 9.42549 93.9924 9.37751C94.0404 9.32952 94.0991 9.30553 94.1684 9.30553C94.235 9.30553 94.291 9.32952 94.3363 9.37751C94.3843 9.42549 94.4083 9.48413 94.4083 9.55343C94.4083 9.62274 94.3843 9.68138 94.3363 9.72936C94.291 9.77734 94.235 9.80133 94.1684 9.80133ZM95.0679 6.59463L95.0239 7.39031H94.772L94.724 6.59463H95.0679ZM95.6076 6.59463L95.5636 7.39031H95.3118L95.2638 6.59463H95.6076Z" fill="black"/>
<path d="M48.7347 1.01046V3.77734H48.3708V1.71418L47.4512 3.77734H47.1953L46.2717 1.71018V3.77734H45.9078V1.01046H46.2996L47.3232 3.29754L48.3468 1.01046H48.7347ZM50.3073 3.81333C50.1021 3.81333 49.9155 3.76668 49.7476 3.67339C49.5823 3.58009 49.4517 3.44814 49.3557 3.27755C49.2624 3.10428 49.2158 2.90436 49.2158 2.67779C49.2158 2.45388 49.2638 2.25662 49.3597 2.08603C49.4583 1.91276 49.5916 1.78082 49.7596 1.69019C49.9275 1.59689 50.1154 1.55024 50.3233 1.55024C50.5312 1.55024 50.7192 1.59689 50.8871 1.69019C51.055 1.78082 51.187 1.91143 51.2829 2.08203C51.3816 2.25263 51.4309 2.45121 51.4309 2.67779C51.4309 2.90436 51.3802 3.10428 51.2789 3.27755C51.1803 3.44814 51.0457 3.58009 50.8751 3.67339C50.7045 3.76668 50.5152 3.81333 50.3073 3.81333ZM50.3073 3.49346C50.4379 3.49346 50.5606 3.4628 50.6752 3.4015C50.7898 3.34019 50.8818 3.24822 50.9511 3.12561C51.023 3.00299 51.059 2.85372 51.059 2.67779C51.059 2.50186 51.0244 2.35259 50.9551 2.22997C50.8858 2.10735 50.7951 2.01672 50.6832 1.95808C50.5712 1.89677 50.4499 1.86612 50.3193 1.86612C50.186 1.86612 50.0634 1.89677 49.9515 1.95808C49.8422 2.01672 49.7542 2.10735 49.6876 2.22997C49.6209 2.35259 49.5876 2.50186 49.5876 2.67779C49.5876 2.85638 49.6196 3.00699 49.6836 3.12961C49.7502 3.25222 49.8382 3.34419 49.9475 3.40549C50.0568 3.46414 50.1767 3.49346 50.3073 3.49346ZM52.725 3.44148L53.4047 1.58623H53.7925L52.9329 3.77734H52.509L51.6494 1.58623H52.0412L52.725 3.44148ZM56.1498 2.59782C56.1498 2.66713 56.1458 2.74043 56.1378 2.81773H54.3865C54.3998 3.03364 54.4731 3.20291 54.6064 3.32553C54.7423 3.44548 54.9063 3.50545 55.0982 3.50545C55.2554 3.50545 55.3861 3.46947 55.49 3.3975C55.5966 3.32286 55.6713 3.22423 55.7139 3.10162H56.1058C56.0471 3.3122 55.9298 3.48413 55.7539 3.61741C55.578 3.74802 55.3594 3.81333 55.0982 3.81333C54.8903 3.81333 54.7037 3.76668 54.5384 3.67339C54.3758 3.58009 54.2479 3.44814 54.1546 3.27755C54.0613 3.10428 54.0146 2.90436 54.0146 2.67779C54.0146 2.45121 54.0599 2.25263 54.1506 2.08203C54.2412 1.91143 54.3678 1.78082 54.5304 1.69019C54.6957 1.59689 54.8849 1.55024 55.0982 1.55024C55.3061 1.55024 55.49 1.59556 55.65 1.68619C55.8099 1.77682 55.9325 1.9021 56.0178 2.06204C56.1058 2.21931 56.1498 2.3979 56.1498 2.59782ZM55.7739 2.52185C55.7739 2.38324 55.7433 2.26462 55.6819 2.16599C55.6206 2.0647 55.5367 1.98873 55.43 1.93809C55.3261 1.88477 55.2101 1.85812 55.0822 1.85812C54.8983 1.85812 54.741 1.91676 54.6104 2.03405C54.4824 2.15133 54.4091 2.31393 54.3905 2.52185H55.7739ZM58.1398 1.88611V3.17759C58.1398 3.28421 58.1625 3.36018 58.2078 3.40549C58.2531 3.44814 58.3317 3.46947 58.4437 3.46947H58.7116V3.77734H58.3837C58.1811 3.77734 58.0292 3.7307 57.9279 3.6374C57.8266 3.5441 57.776 3.39083 57.776 3.17759V1.88611H57.4921V1.58623H57.776V1.03445H58.1398V1.58623H58.7116V1.88611H58.1398ZM60.1081 3.81333C59.9028 3.81333 59.7162 3.76668 59.5483 3.67339C59.383 3.58009 59.2524 3.44814 59.1564 3.27755C59.0632 3.10428 59.0165 2.90436 59.0165 2.67779C59.0165 2.45388 59.0645 2.25662 59.1604 2.08603C59.2591 1.91276 59.3924 1.78082 59.5603 1.69019C59.7282 1.59689 59.9161 1.55024 60.1241 1.55024C60.332 1.55024 60.5199 1.59689 60.6878 1.69019C60.8558 1.78082 60.9877 1.91143 61.0837 2.08203C61.1823 2.25263 61.2316 2.45121 61.2316 2.67779C61.2316 2.90436 61.181 3.10428 61.0797 3.27755C60.981 3.44814 60.8464 3.58009 60.6758 3.67339C60.5052 3.76668 60.316 3.81333 60.1081 3.81333ZM60.1081 3.49346C60.2387 3.49346 60.3613 3.4628 60.4759 3.4015C60.5905 3.34019 60.6825 3.24822 60.7518 3.12561C60.8238 3.00299 60.8598 2.85372 60.8598 2.67779C60.8598 2.50186 60.8251 2.35259 60.7558 2.22997C60.6865 2.10735 60.5959 2.01672 60.4839 1.95808C60.372 1.89677 60.2507 1.86612 60.1201 1.86612C59.9868 1.86612 59.8642 1.89677 59.7522 1.95808C59.6429 2.01672 59.555 2.10735 59.4883 2.22997C59.4217 2.35259 59.3884 2.50186 59.3884 2.67779C59.3884 2.85638 59.4203 3.00699 59.4843 3.12961C59.551 3.25222 59.6389 3.34419 59.7482 3.40549C59.8575 3.46414 59.9774 3.49346 60.1081 3.49346ZM63.1398 0.990469V3.77734H62.776V0.990469H63.1398ZM64.8275 1.54624C65.0941 1.54624 65.31 1.62755 65.4753 1.79015C65.6405 1.95008 65.7232 2.18199 65.7232 2.48587V3.77734H65.3633V2.53784C65.3633 2.31927 65.3087 2.15267 65.1994 2.03805C65.0901 1.92076 64.9408 1.86212 64.7516 1.86212C64.5596 1.86212 64.4064 1.92209 64.2917 2.04204C64.1798 2.162 64.1238 2.33659 64.1238 2.56583V3.77734H63.76V1.58623H64.1238V1.8981C64.1958 1.78615 64.2931 1.69952 64.4157 1.63821C64.541 1.5769 64.6783 1.54624 64.8275 1.54624ZM66.6814 1.99406C66.756 1.86345 66.8653 1.75683 67.0092 1.67419C67.1532 1.59156 67.3171 1.55024 67.501 1.55024C67.6983 1.55024 67.8756 1.59689 68.0328 1.69019C68.1901 1.78348 68.314 1.91543 68.4047 2.08603C68.4953 2.25396 68.5406 2.44988 68.5406 2.67379C68.5406 2.89503 68.4953 3.09229 68.4047 3.26555C68.314 3.43881 68.1888 3.57343 68.0288 3.66939C67.8716 3.76535 67.6956 3.81333 67.501 3.81333C67.3118 3.81333 67.1452 3.77201 67.0012 3.68938C66.86 3.60675 66.7533 3.50146 66.6814 3.37351V3.77734H66.3175V0.818539H66.6814V1.99406ZM68.1688 2.67379C68.1688 2.50852 68.1355 2.36458 68.0688 2.24196C68.0022 2.11935 67.9115 2.02605 67.7969 1.96208C67.685 1.8981 67.561 1.86612 67.4251 1.86612C67.2918 1.86612 67.1678 1.89944 67.0532 1.96608C66.9413 2.03005 66.8506 2.12468 66.7813 2.24996C66.7147 2.37258 66.6814 2.51519 66.6814 2.67779C66.6814 2.84305 66.7147 2.98833 66.7813 3.11361C66.8506 3.23623 66.9413 3.33086 67.0532 3.3975C67.1678 3.46147 67.2918 3.49346 67.4251 3.49346C67.561 3.49346 67.685 3.46147 67.7969 3.3975C67.9115 3.33086 68.0022 3.23623 68.0688 3.11361C68.1355 2.98833 68.1688 2.84172 68.1688 2.67379ZM69.9752 3.81333C69.7699 3.81333 69.5833 3.76668 69.4154 3.67339C69.2501 3.58009 69.1195 3.44814 69.0236 3.27755C68.9303 3.10428 68.8836 2.90436 68.8836 2.67779C68.8836 2.45388 68.9316 2.25662 69.0275 2.08603C69.1262 1.91276 69.2595 1.78082 69.4274 1.69019C69.5953 1.59689 69.7832 1.55024 69.9912 1.55024C70.1991 1.55024 70.387 1.59689 70.5549 1.69019C70.7229 1.78082 70.8548 1.91143 70.9508 2.08203C71.0494 2.25263 71.0987 2.45121 71.0987 2.67779C71.0987 2.90436 71.0481 3.10428 70.9468 3.27755C70.8481 3.44814 70.7135 3.58009 70.5429 3.67339C70.3723 3.76668 70.1831 3.81333 69.9752 3.81333ZM69.9752 3.49346C70.1058 3.49346 70.2284 3.4628 70.343 3.4015C70.4576 3.34019 70.5496 3.24822 70.6189 3.12561C70.6909 3.00299 70.7269 2.85372 70.7269 2.67779C70.7269 2.50186 70.6922 2.35259 70.6229 2.22997C70.5536 2.10735 70.463 2.01672 70.351 1.95808C70.2391 1.89677 70.1178 1.86612 69.9872 1.86612C69.8539 1.86612 69.7313 1.89677 69.6193 1.95808C69.51 2.01672 69.4221 2.10735 69.3554 2.22997C69.2888 2.35259 69.2555 2.50186 69.2555 2.67779C69.2555 2.85638 69.2874 3.00699 69.3514 3.12961C69.4181 3.25222 69.506 3.34419 69.6153 3.40549C69.7246 3.46414 69.8446 3.49346 69.9752 3.49346ZM72.7207 3.77734L72.2009 2.96167L71.7011 3.77734H71.3212L72.0289 2.68978L71.3212 1.58623H71.7331L72.2528 2.3979L72.7486 1.58623H73.1285L72.4248 2.66979L73.1325 3.77734H72.7207Z" fill="#008EFF"/>
<path d="M7.05496 9.81333C6.88703 9.81333 6.73642 9.78534 6.60314 9.72936C6.46986 9.67072 6.36457 9.59075 6.28727 9.48946C6.20997 9.3855 6.16732 9.26688 6.15932 9.1336H6.53517C6.54583 9.24289 6.59648 9.33219 6.68711 9.4015C6.78041 9.4708 6.90169 9.50545 7.05096 9.50545C7.18957 9.50545 7.29886 9.4748 7.37883 9.41349C7.4588 9.35218 7.49878 9.27488 7.49878 9.18158C7.49878 9.08562 7.45613 9.01499 7.37083 8.96967C7.28553 8.92169 7.15359 8.87504 6.97499 8.82973C6.81239 8.78708 6.67911 8.74443 6.57515 8.70178C6.47386 8.65646 6.3859 8.59116 6.31126 8.50586C6.23929 8.41789 6.20331 8.30327 6.20331 8.162C6.20331 8.05004 6.23663 7.94742 6.30326 7.85412C6.3699 7.76082 6.46453 7.68752 6.58715 7.63421C6.70977 7.57823 6.84971 7.55024 7.00698 7.55024C7.24955 7.55024 7.44547 7.61155 7.59474 7.73417C7.74402 7.85679 7.82398 8.02472 7.83465 8.23797H7.47079C7.4628 8.12335 7.41615 8.03138 7.33085 7.96208C7.24822 7.89277 7.13626 7.85812 6.99499 7.85812C6.86437 7.85812 6.76041 7.88611 6.68311 7.94208C6.60581 7.99806 6.56716 8.07137 6.56716 8.162C6.56716 8.23397 6.58982 8.29394 6.63513 8.34192C6.68311 8.38724 6.74175 8.42456 6.81106 8.45388C6.88303 8.48053 6.98166 8.51119 7.10694 8.54584C7.26421 8.58849 7.39216 8.63114 7.49079 8.67379C7.58941 8.71377 7.67338 8.77508 7.74268 8.85772C7.81465 8.94035 7.85197 9.0483 7.85464 9.18158C7.85464 9.30154 7.82132 9.40949 7.75468 9.50545C7.68804 9.60141 7.59341 9.67738 7.47079 9.73336C7.35084 9.78667 7.21223 9.81333 7.05496 9.81333ZM10.3675 8.59782C10.3675 8.66713 10.3635 8.74043 10.3555 8.81773H8.60418C8.61751 9.03364 8.69081 9.20291 8.82409 9.32553C8.96004 9.44548 9.12397 9.50545 9.31589 9.50545C9.47316 9.50545 9.60378 9.46947 9.70773 9.3975C9.81436 9.32286 9.88899 9.22423 9.93164 9.10162H10.3235C10.2648 9.3122 10.1476 9.48413 9.97163 9.61741C9.7957 9.74802 9.57712 9.81333 9.31589 9.81333C9.10798 9.81333 8.92138 9.76668 8.75612 9.67339C8.59352 9.58009 8.46557 9.44814 8.37227 9.27755C8.27898 9.10428 8.23233 8.90436 8.23233 8.67779C8.23233 8.45121 8.27764 8.25263 8.36827 8.08203C8.4589 7.91143 8.58552 7.78082 8.74812 7.69019C8.91339 7.59689 9.10264 7.55024 9.31589 7.55024C9.52381 7.55024 9.70773 7.59556 9.86767 7.68619C10.0276 7.77682 10.1502 7.9021 10.2355 8.06204C10.3235 8.21931 10.3675 8.3979 10.3675 8.59782ZM9.99162 8.52185C9.99162 8.38324 9.96096 8.26462 9.89966 8.16599C9.83835 8.0647 9.75438 7.98873 9.64776 7.93809C9.5438 7.88477 9.42785 7.85812 9.2999 7.85812C9.11597 7.85812 8.9587 7.91676 8.82809 8.03405C8.70014 8.15133 8.62684 8.31393 8.60818 8.52185H9.99162ZM11.9153 7.54624C12.1819 7.54624 12.3978 7.62755 12.563 7.79015C12.7283 7.95008 12.8109 8.18199 12.8109 8.48587V9.77734H12.4511V8.53784C12.4511 8.31927 12.3964 8.15267 12.2872 8.03805C12.1779 7.92076 12.0286 7.86212 11.8393 7.86212C11.6474 7.86212 11.4941 7.92209 11.3795 8.04204C11.2676 8.162 11.2116 8.33659 11.2116 8.56583V9.77734H10.8477V7.58623H11.2116V7.8981C11.2836 7.78615 11.3809 7.69952 11.5035 7.63821C11.6288 7.5769 11.766 7.54624 11.9153 7.54624ZM13.2694 8.67379C13.2694 8.44988 13.3147 8.25396 13.4053 8.08603C13.4959 7.91543 13.6199 7.78348 13.7772 7.69019C13.9371 7.59689 14.1157 7.55024 14.3129 7.55024C14.4835 7.55024 14.6421 7.59023 14.7887 7.67019C14.9354 7.7475 15.0473 7.85012 15.1246 7.97807V6.81854H15.4925V9.77734H15.1246V9.36551C15.0526 9.49612 14.946 9.60408 14.8047 9.68938C14.6635 9.77201 14.4982 9.81333 14.3089 9.81333C14.1143 9.81333 13.9371 9.76535 13.7772 9.66939C13.6199 9.57343 13.4959 9.43881 13.4053 9.26555C13.3147 9.09229 13.2694 8.89503 13.2694 8.67379ZM15.1246 8.67779C15.1246 8.51252 15.0913 8.36858 15.0246 8.24596C14.958 8.12335 14.8674 8.03005 14.7528 7.96608C14.6408 7.89944 14.5169 7.86612 14.3809 7.86612C14.245 7.86612 14.121 7.8981 14.0091 7.96208C13.8971 8.02605 13.8078 8.11935 13.7412 8.24196C13.6745 8.36458 13.6412 8.50852 13.6412 8.67379C13.6412 8.84172 13.6745 8.98833 13.7412 9.11361C13.8078 9.23623 13.8971 9.33086 14.0091 9.3975C14.121 9.46147 14.245 9.49346 14.3809 9.49346C14.5169 9.49346 14.6408 9.46147 14.7528 9.3975C14.8674 9.33086 14.958 9.23623 15.0246 9.11361C15.0913 8.98833 15.1246 8.84305 15.1246 8.67779ZM17.0374 8.67379C17.0374 8.44988 17.0827 8.25396 17.1733 8.08603C17.2639 7.91543 17.3879 7.78348 17.5452 7.69019C17.7051 7.59689 17.8824 7.55024 18.0769 7.55024C18.2689 7.55024 18.4355 7.59156 18.5767 7.67419C18.718 7.75683 18.8233 7.86078 18.8926 7.98607V7.58623H19.2605V9.77734H18.8926V9.36951C18.8206 9.49746 18.7127 9.60408 18.5687 9.68938C18.4275 9.77201 18.2622 9.81333 18.0729 9.81333C17.8784 9.81333 17.7024 9.76535 17.5452 9.66939C17.3879 9.57343 17.2639 9.43881 17.1733 9.26555C17.0827 9.09229 17.0374 8.89503 17.0374 8.67379ZM18.8926 8.67779C18.8926 8.51252 18.8593 8.36858 18.7927 8.24596C18.726 8.12335 18.6354 8.03005 18.5208 7.96608C18.4088 7.89944 18.2849 7.86612 18.1489 7.86612C18.013 7.86612 17.889 7.8981 17.7771 7.96208C17.6651 8.02605 17.5758 8.11935 17.5092 8.24196C17.4425 8.36458 17.4092 8.50852 17.4092 8.67379C17.4092 8.84172 17.4425 8.98833 17.5092 9.11361C17.5758 9.23623 17.6651 9.33086 17.7771 9.3975C17.889 9.46147 18.013 9.49346 18.1489 9.49346C18.2849 9.49346 18.4088 9.46147 18.5208 9.3975C18.6354 9.33086 18.726 9.23623 18.7927 9.11361C18.8593 8.98833 18.8926 8.84305 18.8926 8.67779ZM21.3052 7.99007C21.3771 7.86478 21.4838 7.76082 21.625 7.67819C21.769 7.59289 21.9356 7.55024 22.1248 7.55024C22.3194 7.55024 22.4954 7.59689 22.6526 7.69019C22.8126 7.78348 22.9378 7.91543 23.0285 8.08603C23.1191 8.25396 23.1644 8.44988 23.1644 8.67379C23.1644 8.89503 23.1191 9.09229 23.0285 9.26555C22.9378 9.43881 22.8126 9.57343 22.6526 9.66939C22.4954 9.76535 22.3194 9.81333 22.1248 9.81333C21.9383 9.81333 21.773 9.77201 21.629 9.68938C21.4878 9.60408 21.3798 9.49879 21.3052 9.37351V10.8169H20.9413V7.58623H21.3052V7.99007ZM22.7926 8.67379C22.7926 8.50852 22.7593 8.36458 22.6926 8.24196C22.626 8.11935 22.5353 8.02605 22.4207 7.96208C22.3088 7.8981 22.1848 7.86612 22.0489 7.86612C21.9156 7.86612 21.7916 7.89944 21.677 7.96608C21.5651 8.03005 21.4744 8.12468 21.4051 8.24996C21.3385 8.37258 21.3052 8.51519 21.3052 8.67779C21.3052 8.84305 21.3385 8.98833 21.4051 9.11361C21.4744 9.23623 21.5651 9.33086 21.677 9.3975C21.7916 9.46147 21.9156 9.49346 22.0489 9.49346C22.1848 9.49346 22.3088 9.46147 22.4207 9.3975C22.5353 9.33086 22.626 9.23623 22.6926 9.11361C22.7593 8.98833 22.7926 8.84172 22.7926 8.67379ZM24.0072 7.94208C24.0712 7.8168 24.1618 7.71951 24.2791 7.6502C24.399 7.5809 24.5443 7.54624 24.7149 7.54624V7.92209H24.619C24.2111 7.92209 24.0072 8.14334 24.0072 8.58583V9.77734H23.6434V7.58623H24.0072V7.94208ZM26.0906 9.81333C25.8853 9.81333 25.6987 9.76668 25.5308 9.67339C25.3655 9.58009 25.2349 9.44814 25.1389 9.27755C25.0456 9.10428 24.999 8.90436 24.999 8.67779C24.999 8.45388 25.047 8.25662 25.1429 8.08603C25.2416 7.91276 25.3748 7.78082 25.5428 7.69019C25.7107 7.59689 25.8986 7.55024 26.1065 7.55024C26.3145 7.55024 26.5024 7.59689 26.6703 7.69019C26.8383 7.78082 26.9702 7.91143 27.0662 8.08203C27.1648 8.25263 27.2141 8.45121 27.2141 8.67779C27.2141 8.90436 27.1635 9.10428 27.0622 9.27755C26.9635 9.44814 26.8289 9.58009 26.6583 9.67339C26.4877 9.76668 26.2985 9.81333 26.0906 9.81333ZM26.0906 9.49346C26.2212 9.49346 26.3438 9.4628 26.4584 9.4015C26.573 9.34019 26.665 9.24822 26.7343 9.12561C26.8063 9.00299 26.8423 8.85372 26.8423 8.67779C26.8423 8.50186 26.8076 8.35259 26.7383 8.22997C26.669 8.10735 26.5784 8.01672 26.4664 7.95808C26.3544 7.89677 26.2332 7.86612 26.1025 7.86612C25.9693 7.86612 25.8467 7.89677 25.7347 7.95808C25.6254 8.01672 25.5374 8.10735 25.4708 8.22997C25.4042 8.35259 25.3708 8.50186 25.3708 8.67779C25.3708 8.85638 25.4028 9.00699 25.4668 9.12961C25.5334 9.25222 25.6214 9.34419 25.7307 9.40549C25.84 9.46414 25.9599 9.49346 26.0906 9.49346ZM28.0564 7.99007C28.1283 7.86478 28.2349 7.76082 28.3762 7.67819C28.5202 7.59289 28.6868 7.55024 28.876 7.55024C29.0706 7.55024 29.2465 7.59689 29.4038 7.69019C29.5637 7.78348 29.689 7.91543 29.7797 8.08603C29.8703 8.25396 29.9156 8.44988 29.9156 8.67379C29.9156 8.89503 29.8703 9.09229 29.7797 9.26555C29.689 9.43881 29.5637 9.57343 29.4038 9.66939C29.2465 9.76535 29.0706 9.81333 28.876 9.81333C28.6894 9.81333 28.5242 9.77201 28.3802 9.68938C28.2389 9.60408 28.131 9.49879 28.0564 9.37351V10.8169H27.6925V7.58623H28.0564V7.99007ZM29.5438 8.67379C29.5438 8.50852 29.5104 8.36458 29.4438 8.24196C29.3772 8.11935 29.2865 8.02605 29.1719 7.96208C29.0599 7.8981 28.936 7.86612 28.8001 7.86612C28.6668 7.86612 28.5428 7.89944 28.4282 7.96608C28.3162 8.03005 28.2256 8.12468 28.1563 8.24996C28.0897 8.37258 28.0564 8.51519 28.0564 8.67779C28.0564 8.84305 28.0897 8.98833 28.1563 9.11361C28.2256 9.23623 28.3162 9.33086 28.4282 9.3975C28.5428 9.46147 28.6668 9.49346 28.8001 9.49346C28.936 9.49346 29.0599 9.46147 29.1719 9.3975C29.2865 9.33086 29.3772 9.23623 29.4438 9.11361C29.5104 8.98833 29.5438 8.84172 29.5438 8.67379ZM32.3937 8.59782C32.3937 8.66713 32.3897 8.74043 32.3817 8.81773H30.6304C30.6438 9.03364 30.7171 9.20291 30.8504 9.32553C30.9863 9.44548 31.1502 9.50545 31.3422 9.50545C31.4994 9.50545 31.63 9.46947 31.734 9.3975C31.8406 9.32286 31.9153 9.22423 31.9579 9.10162H32.3497C32.2911 9.3122 32.1738 9.48413 31.9979 9.61741C31.822 9.74802 31.6034 9.81333 31.3422 9.81333C31.1342 9.81333 30.9476 9.76668 30.7824 9.67339C30.6198 9.58009 30.4918 9.44814 30.3985 9.27755C30.3052 9.10428 30.2586 8.90436 30.2586 8.67779C30.2586 8.45121 30.3039 8.25263 30.3945 8.08203C30.4852 7.91143 30.6118 7.78082 30.7744 7.69019C30.9396 7.59689 31.1289 7.55024 31.3422 7.55024C31.5501 7.55024 31.734 7.59556 31.8939 7.68619C32.0539 7.77682 32.1765 7.9021 32.2618 8.06204C32.3497 8.21931 32.3937 8.3979 32.3937 8.59782ZM32.0179 8.52185C32.0179 8.38324 31.9872 8.26462 31.9259 8.16599C31.8646 8.0647 31.7806 7.98873 31.674 7.93809C31.5701 7.88477 31.4541 7.85812 31.3262 7.85812C31.1422 7.85812 30.985 7.91676 30.8543 8.03405C30.7264 8.15133 30.6531 8.31393 30.6344 8.52185H32.0179ZM33.2379 7.94208C33.3018 7.8168 33.3925 7.71951 33.5097 7.6502C33.6297 7.5809 33.775 7.54624 33.9456 7.54624V7.92209H33.8496C33.4418 7.92209 33.2379 8.14334 33.2379 8.58583V9.77734H32.874V7.58623H33.2379V7.94208ZM34.8094 7.88611V9.17759C34.8094 9.28421 34.8321 9.36018 34.8774 9.40549C34.9227 9.44814 35.0013 9.46947 35.1133 9.46947H35.3812V9.77734H35.0533C34.8507 9.77734 34.6988 9.7307 34.5975 9.6374C34.4962 9.5441 34.4456 9.39083 34.4456 9.17759V7.88611H34.1617V7.58623H34.4456V7.03445H34.8094V7.58623H35.3812V7.88611H34.8094ZM37.7093 7.58623L36.3898 10.8089H36.014L36.4458 9.75335L35.5621 7.58623H35.966L36.6537 9.36151L37.3334 7.58623H37.7093ZM41.1402 8.59782C41.1402 8.66713 41.1362 8.74043 41.1282 8.81773H39.3769C39.3902 9.03364 39.4635 9.20291 39.5968 9.32553C39.7328 9.44548 39.8967 9.50545 40.0886 9.50545C40.2459 9.50545 40.3765 9.46947 40.4805 9.3975C40.5871 9.32286 40.6617 9.22423 40.7044 9.10162H41.0962C41.0376 9.3122 40.9203 9.48413 40.7444 9.61741C40.5684 9.74802 40.3498 9.81333 40.0886 9.81333C39.8807 9.81333 39.6941 9.76668 39.5288 9.67339C39.3662 9.58009 39.2383 9.44814 39.145 9.27755C39.0517 9.10428 39.0051 8.90436 39.0051 8.67779C39.0051 8.45121 39.0504 8.25263 39.141 8.08203C39.2316 7.91143 39.3582 7.78082 39.5208 7.69019C39.6861 7.59689 39.8754 7.55024 40.0886 7.55024C40.2965 7.55024 40.4805 7.59556 40.6404 7.68619C40.8003 7.77682 40.9229 7.9021 41.0082 8.06204C41.0962 8.21931 41.1402 8.3979 41.1402 8.59782ZM40.7643 8.52185C40.7643 8.38324 40.7337 8.26462 40.6724 8.16599C40.6111 8.0647 40.5271 7.98873 40.4205 7.93809C40.3165 7.88477 40.2006 7.85812 40.0726 7.85812C39.8887 7.85812 39.7314 7.91676 39.6008 8.03405C39.4729 8.15133 39.3996 8.31393 39.3809 8.52185H40.7643ZM42.688 7.54624C42.9546 7.54624 43.1705 7.62755 43.3358 7.79015C43.501 7.95008 43.5837 8.18199 43.5837 8.48587V9.77734H43.2238V8.53784C43.2238 8.31927 43.1692 8.15267 43.0599 8.03805C42.9506 7.92076 42.8013 7.86212 42.6121 7.86212C42.4201 7.86212 42.2669 7.92209 42.1523 8.04204C42.0403 8.162 41.9843 8.33659 41.9843 8.56583V9.77734H41.6205V7.58623H41.9843V7.8981C42.0563 7.78615 42.1536 7.69952 42.2762 7.63821C42.4015 7.5769 42.5388 7.54624 42.688 7.54624ZM44.0421 8.67379C44.0421 8.44988 44.0874 8.25396 44.178 8.08603C44.2687 7.91543 44.3926 7.78348 44.5499 7.69019C44.7098 7.59689 44.8884 7.55024 45.0857 7.55024C45.2749 7.55024 45.4402 7.59289 45.5815 7.67819C45.7254 7.76082 45.8307 7.86345 45.8973 7.98607V7.58623H46.2652V10.8169H45.8973V9.37351C45.828 9.49612 45.7214 9.60008 45.5775 9.68538C45.4335 9.77068 45.2656 9.81333 45.0737 9.81333C44.8817 9.81333 44.7071 9.76535 44.5499 9.66939C44.3926 9.57343 44.2687 9.43881 44.178 9.26555C44.0874 9.09229 44.0421 8.89503 44.0421 8.67379ZM45.8973 8.67779C45.8973 8.51252 45.864 8.36858 45.7974 8.24596C45.7307 8.12335 45.6401 8.03005 45.5255 7.96608C45.4135 7.89944 45.2896 7.86612 45.1536 7.86612C45.0177 7.86612 44.8937 7.8981 44.7818 7.96208C44.6698 8.02605 44.5805 8.11935 44.5139 8.24196C44.4473 8.36458 44.4139 8.50852 44.4139 8.67379C44.4139 8.84172 44.4473 8.98833 44.5139 9.11361C44.5805 9.23623 44.6698 9.33086 44.7818 9.3975C44.8937 9.46147 45.0177 9.49346 45.1536 9.49346C45.2896 9.49346 45.4135 9.46147 45.5255 9.3975C45.6401 9.33086 45.7307 9.23623 45.7974 9.11361C45.864 8.98833 45.8973 8.84305 45.8973 8.67779ZM48.8233 7.58623V9.77734H48.4594V9.45347C48.3901 9.56543 48.2928 9.65339 48.1675 9.71737C48.0449 9.77868 47.909 9.80933 47.7597 9.80933C47.5891 9.80933 47.4358 9.77468 47.2999 9.70537C47.1639 9.6334 47.056 9.52678 46.976 9.3855C46.8987 9.24423 46.8601 9.0723 46.8601 8.86971V7.58623H47.2199V8.82173C47.2199 9.03764 47.2746 9.20424 47.3839 9.32153C47.4931 9.43615 47.6424 9.49346 47.8317 9.49346C48.0263 9.49346 48.1795 9.43348 48.2915 9.31353C48.4034 9.19358 48.4594 9.01898 48.4594 8.78974V7.58623H48.8233ZM49.6255 7.23037C49.5562 7.23037 49.4976 7.20638 49.4496 7.1584C49.4016 7.11042 49.3776 7.05178 49.3776 6.98247C49.3776 6.91317 49.4016 6.85452 49.4496 6.80654C49.4976 6.75856 49.5562 6.73457 49.6255 6.73457C49.6922 6.73457 49.7482 6.75856 49.7935 6.80654C49.8415 6.85452 49.8654 6.91317 49.8654 6.98247C49.8654 7.05178 49.8415 7.11042 49.7935 7.1584C49.7482 7.20638 49.6922 7.23037 49.6255 7.23037ZM49.8015 7.58623V9.77734H49.4376V7.58623H49.8015ZM50.7855 7.94208C50.8494 7.8168 50.9401 7.71951 51.0573 7.6502C51.1773 7.5809 51.3226 7.54624 51.4932 7.54624V7.92209H51.3972C50.9894 7.92209 50.7855 8.14334 50.7855 8.58583V9.77734H50.4216V7.58623H50.7855V7.94208ZM53.8004 7.58623L52.481 10.8089H52.1051L52.5369 9.75335L51.6533 7.58623H52.0571L52.7448 9.36151L53.4246 7.58623H53.8004Z" fill="#ED6823"/>
</svg>
