<svg width="89" height="101" viewBox="0 0 89 101" fill="none" xmlns="http://www.w3.org/2000/svg">
<ellipse cx="44.2253" cy="50.0002" rx="41.6667" ry="41.6667" fill="white"/>
<path d="M45.642 84.6385C41.8913 81.9035 38.8951 78.2623 36.9336 74.0552C39.6305 74.9438 42.432 75.4761 45.2669 75.6385C46.3919 75.6385 47.517 75.6385 48.5586 75.6385C51.5267 75.573 54.4658 75.0386 57.2669 74.0552C54.1117 78.3005 50.164 81.8945 45.642 84.6385V84.6385Z" fill="white"/>
<path d="M36.9336 74.0552C38.8951 78.2623 41.8913 81.9035 45.642 84.6385C50.164 81.8945 54.1117 78.3005 57.2669 74.0552M36.9753 74.0552C39.6722 74.9438 42.4737 75.4761 45.3086 75.6385M36.9753 74.0552L43.2669 78.6385L45.2253 75.8052M57.2669 74.0552C54.4681 75.0528 51.5289 75.6012 48.5586 75.6802M57.2669 74.0552L50.1836 78.6385L48.5169 75.8468M45.2253 75.8468C46.3503 75.8468 47.4753 75.8468 48.5169 75.8468" stroke="#EDE8FF" stroke-width="2" stroke-linejoin="round"/>
<path d="M54.4743 77.7218H60.6409C65.2369 75.7468 69.9895 74.1579 74.8493 72.9718L70.9742 78.6385C68.5873 81.0297 65.9467 83.1534 63.0992 84.9718C61.7457 85.6604 60.3546 86.2724 58.9326 86.8052L53.7242 84.9718L54.8076 89.6385L37.2659 89.0968L38.8076 84.2635C37.373 85.5531 35.6167 86.4313 33.7243 86.8052C28.8416 82.5291 24.2742 77.906 20.0576 72.9718L23.7659 71.3052L26.3076 68.0552L29.3909 74.3885L34.0993 80.2635L36.4326 78.6385L38.2242 77.2218L41.2242 81.3885L45.6409 85.8052L53.0993 79.4302L54.4743 77.7218Z" fill="#CA872C"/>
<path d="M59.1409 80.5552C59.2835 79.461 59.8161 78.4549 60.6409 77.7218M60.6409 77.7218H54.4743L53.0576 79.4302M60.6409 77.7218C65.2369 75.7468 69.9895 74.1579 74.8493 72.9718L70.9742 78.6385C68.5873 81.0297 65.9467 83.1534 63.0992 84.9718C61.7457 85.6604 60.3546 86.2724 58.9326 86.8052L53.7242 84.9718M53.7242 84.9718L53.0993 79.4302M53.9743 84.9718L55.0576 89.6385L37.5159 89.0968L39.0576 84.2635M53.0993 79.4302L45.7242 85.8468L41.3076 81.4302M39.0576 84.2635L39.516 82.8468L41.3076 81.4302M39.0576 84.2635C37.623 85.5531 35.8667 86.4313 33.9743 86.8052C29.0916 82.5291 24.5242 77.906 20.3076 72.9718L24.0159 71.3052L26.5576 68.0552L29.6409 74.3885L35.3076 81.4302L33.9743 80.5552L36.4326 78.6385L38.2242 77.2218L41.2242 81.3885" stroke="#3E2916" stroke-width="0.05" stroke-linejoin="round"/>
<path d="M45.225 78.3049C44.6675 77.6421 44.1919 76.9146 43.8083 76.1382H48.9333C48.5896 76.9271 48.1257 77.658 47.5583 78.3049M45.0583 78.3049L43.6416 83.1382L45.7249 86.5549C46.6416 85.5965 48.9333 82.5965 48.9333 82.5965L47.5583 78.4299M45.0583 78.4299C45.9333 79.3882 46.7249 79.3882 47.5583 78.4299" stroke="white" stroke-width="2" stroke-linejoin="round"/>
<path d="M28.0996 72.18C28.8765 70.4565 29.9802 68.9 31.3496 67.5967C37.6829 74.805 42.4329 78.0967 47.4329 88.43C44.7349 85.8785 41.6206 83.807 38.2246 82.305C38.8458 82.1228 39.407 81.7775 39.8496 81.305C36.7729 77.3134 32.7287 74.1727 28.0996 72.18Z" fill="#CA872C" stroke="#3E2713" stroke-width="0.05" stroke-linejoin="round"/>
<path d="M66.016 73.0555C65.3907 71.2864 64.4442 69.6478 63.2242 68.2222C56.2659 74.8055 51.1826 77.6805 45.3076 87.5138C48.2266 85.2218 51.5078 83.4333 55.016 82.2222C54.4151 82.0049 53.8928 81.6132 53.516 81.0972C56.9304 77.3965 61.2328 74.6286 66.016 73.0555V73.0555Z" fill="#CA872C" stroke="#3E2713" stroke-width="0.05" stroke-linejoin="round"/>
<path d="M81.1579 73.4761C85.891 66.3663 88.4086 58.0122 88.3919 49.471C88.3695 38.0371 83.8117 27.0792 75.7188 19.0021C67.6259 10.925 56.6591 6.38865 45.2252 6.38867C36.684 6.38869 28.3349 8.92251 21.2343 13.6695C14.1338 18.4164 8.60104 25.1631 5.33635 33.0557C2.07166 40.9483 1.22181 49.632 2.89425 58.0078C4.56669 66.3836 8.68627 74.075 14.7317 80.1086C20.7771 86.1422 28.4765 90.2468 36.8556 91.9028C45.2346 93.5589 53.9167 92.692 61.8029 89.4119C69.689 86.1318 76.4249 80.5859 81.1579 73.4761ZM19.0538 66.9606C15.5876 61.7859 13.7333 55.6997 13.7252 49.4714C13.7198 45.3313 14.5306 41.2307 16.1112 37.4042C17.6918 33.5777 20.0113 30.1004 22.9368 27.171C25.8624 24.2416 29.3368 21.9176 33.1612 20.3321C36.9856 18.7465 41.0851 17.9303 45.2252 17.9303C51.4536 17.9303 57.5421 19.7768 62.7214 23.2362C67.9006 26.6957 71.9381 31.6129 74.3235 37.3664C76.7088 43.1198 77.335 49.4513 76.1229 55.5606C74.9108 61.6699 71.9148 67.2827 67.5135 71.6897C63.1123 76.0967 57.5033 79.1 51.3956 80.3201C45.2879 81.5401 38.9557 80.9222 33.1991 78.5443C27.4425 76.1664 22.52 72.1354 19.0538 66.9606Z" fill="#AB6F29" stroke="white"/>
<path d="M72.3919 47.1388C72.3919 63.2222 61.3502 75.9722 48.0586 75.9722C34.7669 75.9722 23.9336 63.2222 23.9336 47.1388C23.9336 31.0555 34.9336 18.3472 48.2669 18.3472C61.6002 18.3472 72.3919 31.0972 72.3919 47.1388Z" fill="#F6BE81" stroke="#964927" stroke-width="0.25" stroke-miterlimit="10"/>
<path d="M79.131 48.3336C80.1043 44.6159 78.9081 41.0824 76.4593 40.4414C74.0105 39.8003 71.2364 42.2945 70.2632 46.0122C69.2899 49.7299 70.4861 53.2633 72.9349 53.9044C75.3837 54.5454 78.1578 52.0513 79.131 48.3336Z" fill="#964927"/>
<path d="M78.122 48.0699C78.868 45.2204 77.9388 42.5088 76.0465 42.0135C74.1543 41.5181 72.0156 43.4266 71.2696 46.2761C70.5237 49.1256 71.4529 51.8371 73.3452 52.3325C75.2374 52.8278 77.3761 50.9194 78.122 48.0699Z" fill="#F6BE81"/>
<path opacity="0.2" d="M76.2251 43.7217C72.6834 43.7217 72.0584 47.8883 72.0584 49.43M72.0584 49.43C71.7251 50.7633 73.475 51.0133 74.1 50.3467C75.225 49.055 72.7668 47.5967 72.0584 49.4717V49.43Z" stroke="black" stroke-width="0.25" stroke-miterlimit="10"/>
<path d="M22.3275 53.023C24.7763 52.3819 25.9724 48.8484 24.9992 45.1307C24.0259 41.413 21.2519 38.9189 18.8031 39.56C16.3543 40.201 15.1581 43.7345 16.1313 47.4522C17.1046 51.1699 19.8787 53.664 22.3275 53.023Z" fill="#964927"/>
<path d="M21.9147 51.4508C23.8069 50.9554 24.7361 48.2439 23.9902 45.3944C23.2442 42.5449 21.1056 40.6365 19.2133 41.1319C17.3211 41.6272 16.3918 44.3388 17.1378 47.1883C17.8837 50.0378 20.0224 51.9462 21.9147 51.4508Z" fill="#F6BE81"/>
<g opacity="0.2">
<path d="M19.0586 42.8465C22.1003 42.1382 24.1419 46.0548 23.2253 48.5965C22.5586 46.1798 21.7253 43.7632 19.0586 42.8465Z" fill="black"/>
<path d="M23.1827 48.5961C23.7661 50.1795 20.9327 50.9295 20.4327 49.1795C20.4038 48.8356 20.5014 48.4929 20.7072 48.2159C20.913 47.9389 21.2128 47.7465 21.5504 47.6749C21.888 47.6033 22.2401 47.6574 22.5407 47.827C22.8412 47.9966 23.0696 48.2701 23.1827 48.5961V48.5961ZM23.1827 48.5961C22.7661 47.3878 21.1827 47.9711 21.4327 48.8878C21.6827 49.8045 23.5161 49.9295 23.1827 48.5961Z" fill="black"/>
</g>
<path d="M35.5155 42.7637C30.9738 42.3887 26.5155 48.0553 24.8489 51.097C23.8022 48.1449 23.571 44.9652 24.1796 41.8927C24.7882 38.8203 26.2142 35.9688 28.3072 33.6387H35.5155C37.3905 36.722 40.0155 43.097 35.5155 42.7637Z" fill="#5D3A1C"/>
<path d="M60.3509 41.9718C64.8925 42.2635 69.7258 49.9718 70.9758 53.0552C73.3508 39.1385 70.9758 37.6385 68.8092 33.8468L61.7259 32.8052C59.3925 35.7218 55.8509 41.6385 60.3509 41.9718Z" fill="#5D3A1C"/>
<path d="M39.3917 64.0132C45.5358 64.0132 50.5166 59.0324 50.5166 52.8882C50.5166 46.744 45.5358 41.7632 39.3917 41.7632C33.2475 41.7632 28.2666 46.744 28.2666 52.8882C28.2666 59.0324 33.2475 64.0132 39.3917 64.0132Z" fill="#FCDEBD"/>
<path d="M46.3503 52.8885C46.3503 51.5123 45.9422 50.167 45.1776 49.0227C44.413 47.8784 43.3262 46.9865 42.0548 46.4599C40.7833 45.9332 39.3842 45.7954 38.0345 46.0639C36.6847 46.3324 35.4448 46.9951 34.4717 47.9682C33.4985 48.9414 32.8358 50.1812 32.5673 51.531C32.2988 52.8808 32.4366 54.2799 32.9633 55.5514C33.4899 56.8228 34.3818 57.9096 35.5261 58.6742C36.6704 59.4387 38.0158 59.8468 39.392 59.8468" fill="#FCFCFC"/>
<path d="M46.3503 52.8885C46.3503 51.5123 45.9422 50.167 45.1776 49.0227C44.413 47.8784 43.3262 46.9865 42.0548 46.4599C40.7833 45.9332 39.3842 45.7954 38.0345 46.0639C36.6847 46.3324 35.4448 46.9951 34.4717 47.9682C33.4985 48.9414 32.8358 50.1812 32.5673 51.531C32.2988 52.8808 32.4366 54.2799 32.9633 55.5514C33.4899 56.8228 34.3818 57.9096 35.5261 58.6742C36.6704 59.4387 38.0158 59.8468 39.392 59.8468" stroke="black" stroke-width="0.15"/>
<path d="M40.4739 55.3468C41.8316 55.3468 42.9323 54.2462 42.9323 52.8885C42.9323 51.5308 41.8316 50.4302 40.4739 50.4302C39.1162 50.4302 38.0156 51.5308 38.0156 52.8885C38.0156 54.2462 39.1162 55.3468 40.4739 55.3468Z" fill="#ABC7E5"/>
<path d="M39.7653 52.889C40.3406 52.889 40.807 52.4226 40.807 51.8473C40.807 51.272 40.3406 50.8057 39.7653 50.8057C39.19 50.8057 38.7236 51.272 38.7236 51.8473C38.7236 52.4226 39.19 52.889 39.7653 52.889Z" fill="#8E908F"/>
<path d="M40.0999 55.0138C40.4911 55.0138 40.8083 54.6967 40.8083 54.3055C40.8083 53.9143 40.4911 53.5972 40.0999 53.5972C39.7087 53.5972 39.3916 53.9143 39.3916 54.3055C39.3916 54.6967 39.7087 55.0138 40.0999 55.0138Z" fill="white"/>
<path d="M41.8923 53.055C42.1914 53.055 42.434 52.8125 42.434 52.5133C42.434 52.2142 42.1914 51.9717 41.8923 51.9717C41.5931 51.9717 41.3506 52.2142 41.3506 52.5133C41.3506 52.8125 41.5931 53.055 41.8923 53.055Z" fill="white"/>
<path d="M48.0586 66.1386C50.6419 67.0969 57.1419 66.8052 62.6003 58.2219M65.0586 56.6386C64.8503 55.4719 63.7253 53.8886 60.8919 56.6386M55.4336 52.4719C56.546 51.8665 57.7922 51.5494 59.0586 51.5494C60.325 51.5494 61.5713 51.8665 62.6836 52.4719M55.4336 50.8886C55.8086 50.1802 56.892 48.9302 58.1836 49.3886" stroke="#8C8C8C" stroke-width="0.15" stroke-miterlimit="10"/>
<path d="M47.3499 48.6385C45.8082 53.3468 48.6833 46.9718 38.5166 41.9718C41.6503 41.6824 44.7839 42.525 47.3499 44.3468C50.1832 47.4718 47.8499 47.0552 47.3499 48.6385Z" fill="white"/>
<path d="M50.6712 52.0116C51.5341 51.5764 51.7718 50.3075 51.2019 49.1774C50.632 48.0473 49.4705 47.4839 48.6075 47.9191C47.7445 48.3543 47.5069 49.6232 48.0768 50.7533C48.6466 51.8834 49.8082 52.4467 50.6712 52.0116Z" fill="#D9D9D9"/>
<path d="M29.641 61.6801C29.8168 61.8658 29.9148 62.1118 29.9148 62.3676C29.9148 62.6233 29.8168 62.8693 29.641 63.0551L28.141 64.5551C27.9552 64.7309 27.7092 64.8289 27.4535 64.8289C27.1977 64.8289 26.9517 64.7309 26.766 64.5551C26.5901 64.3693 26.4922 64.1233 26.4922 63.8676C26.4922 63.6118 26.5901 63.3658 26.766 63.1801L28.266 61.6801C28.4517 61.5042 28.6977 61.4062 28.9535 61.4062C29.2092 61.4063 29.4552 61.5042 29.641 61.6801V61.6801Z" fill="#696969"/>
<path d="M26.2148 62.9986L17.759 71.4544C17.5475 71.6659 17.5475 72.0089 17.759 72.2204L19.1143 73.5757C19.3258 73.7872 19.6688 73.7872 19.8803 73.5757L28.3361 65.1199C28.5477 64.9084 28.5477 64.5654 28.3361 64.3538L26.9809 62.9986C26.7693 62.787 26.4263 62.787 26.2148 62.9986Z" fill="#D9D9D9"/>
<path d="M21.6824 63.8045C22.5574 63.2629 23.849 64.0129 24.599 64.4712L23.7657 65.4712L24.099 66.5962C24.8423 66.3454 25.6474 66.3454 26.3907 66.5962C28.8907 69.0962 24.6407 74.6379 20.224 73.3045L23.0157 70.1379H22.7657C22.5698 70.0384 22.3989 69.896 22.2657 69.7212C22.2657 71.3462 21.1824 71.3462 20.599 71.1795C21.0574 71.5129 20.599 73.4712 18.9324 72.3462C17.2657 71.2212 16.4324 70.2212 16.5991 68.7629C16.7657 67.3045 17.3907 67.4296 18.0574 67.5962C17.8074 65.3879 19.474 65.5545 20.5157 65.9712C20.3073 64.4712 21.0157 64.2212 21.6824 63.8045Z" fill="#FBD393"/>
<path d="M21.558 68.4718V68.1801C19.8497 64.6801 20.8914 64.3885 21.8497 64.0135C22.808 63.6385 24.0163 64.2218 24.7663 64.6801L23.933 65.6801L24.2664 66.8051M21.7247 68.6801C22.8914 71.0135 24.183 70.3051 24.8913 69.6801C24.6722 69.9045 24.4035 70.0742 24.1067 70.1755C23.81 70.2768 23.4936 70.307 23.183 70.2635M21.7247 68.6801C22.014 69.3601 22.5291 69.9194 23.183 70.2635M21.7247 68.6801C22.3987 67.8492 23.2735 67.2039 24.2664 66.8051M23.183 70.2635L20.3913 73.4301C24.808 74.7635 29.058 69.2635 26.558 66.7218C25.8147 66.471 25.0097 66.471 24.2664 66.7218M18.2247 67.5135C17.9747 65.3051 19.6414 65.4718 20.683 65.8885C20.9629 67.2463 21.5628 68.5176 22.433 69.5968C22.433 71.4301 21.1414 71.2635 20.6414 71.0551M18.2247 67.5135C18.6475 68.9142 19.4913 70.1507 20.6414 71.0551M18.2247 67.5135C18.6321 68.9215 19.4789 70.1624 20.6414 71.0551M18.2247 67.5135C17.558 67.5135 16.8913 67.5135 16.7663 68.6801C16.6413 69.8468 17.2663 71.0135 19.0997 72.2635C20.933 73.5135 21.2664 71.0135 20.6414 71.0551" stroke="#974C28" stroke-width="0.05" stroke-linejoin="round"/>
<path d="M73.1818 71.7632C72.3068 74.4715 69.5984 71.5549 69.3067 71.4299C69.0151 71.3049 68.0567 71.7632 67.5567 72.2215C67.4395 71.8769 67.3918 71.5125 67.4165 71.1493C67.4412 70.7861 67.5377 70.4315 67.7005 70.1059C67.8633 69.7803 68.0891 69.4903 68.3648 69.2527C68.6405 69.015 68.9607 68.8345 69.3067 68.7215C69.4365 68.1406 69.7762 67.6279 70.2606 67.2819C70.745 66.9359 71.3401 66.7809 71.9317 66.8465C71.9317 66.3049 72.6817 65.3882 74.4317 65.7215C75.2234 66.3049 76.8484 67.7215 76.5984 68.7632C76.5931 68.9419 76.5468 69.1171 76.463 69.2751C76.3793 69.4331 76.2603 69.5697 76.1153 69.6744C75.9704 69.7791 75.8032 69.8491 75.6269 69.879C75.4506 69.9088 75.2697 69.8977 75.0984 69.8465C75.2419 70.1934 75.2419 70.583 75.0984 70.9299C75.0345 71.1158 74.9326 71.2863 74.7992 71.4307C74.6658 71.5751 74.5038 71.6901 74.3236 71.7685C74.1433 71.8469 73.9486 71.8869 73.7521 71.886C73.5555 71.8851 73.3613 71.8432 73.1818 71.7632V71.7632Z" fill="#F7C183"/>
<path d="M69.3067 68.7215C70.166 68.8345 70.9791 69.1765 71.6608 69.7116C72.3426 70.2468 72.8679 70.9553 73.1818 71.7632M69.3067 68.7215C69.4365 68.1406 69.7762 67.6279 70.2606 67.2819C70.745 66.9359 71.3401 66.7809 71.9317 66.8465M69.3067 68.7215C68.9607 68.8345 68.6405 69.015 68.3648 69.2527C68.0891 69.4903 67.8633 69.7803 67.7005 70.1059C67.5377 70.4315 67.4412 70.7861 67.4165 71.1493C67.3918 71.5125 67.4395 71.8769 67.5567 72.2215C68.0567 71.7632 69.0567 71.2632 69.3067 71.4299C69.5567 71.5965 72.3068 74.4715 73.1818 71.7632M73.1818 71.7632C73.3613 71.8432 73.5555 71.8851 73.7521 71.886C73.9486 71.8869 74.1433 71.8469 74.3236 71.7685C74.5038 71.6901 74.6658 71.5751 74.7992 71.4307C74.9326 71.2863 75.0345 71.1158 75.0984 70.9299C75.2419 70.583 75.2419 70.1934 75.0984 69.8465M71.9317 66.8465C71.9317 66.3049 72.6817 65.3882 74.4317 65.7215C75.2234 66.3049 76.8484 67.7215 76.5984 68.7632C76.5931 68.9419 76.5468 69.1171 76.463 69.2751C76.3793 69.4331 76.2603 69.5697 76.1153 69.6744C75.9704 69.7791 75.8032 69.8491 75.6269 69.879C75.4506 69.9088 75.2697 69.8977 75.0984 69.8465M71.9317 66.8465C73.2501 67.5265 74.3482 68.5669 75.0984 69.8465" stroke="#974C28" stroke-width="0.05" stroke-linejoin="round"/>
<path d="M50.7666 22.5973C53.4912 20.3887 56.8844 19.1696 60.3916 19.1389C68.0999 19.1389 74.6415 25.3473 76.6415 34.5973C76.817 35.4008 76.83 36.2313 76.6798 37.0399C76.5295 37.8484 76.219 38.6188 75.7666 39.3056C75.3978 39.9276 74.8735 40.4429 74.2452 40.8009C73.6169 41.1588 72.9063 41.3472 72.1832 41.3473C63.3082 22.5973 12.9749 65.7223 12.9749 33.4306C23.2666 33.4306 33.1833 37.5973 41.0166 30.9723L50.7666 22.5973ZM27.3499 20.8056L30.0582 5.26395C30.2054 4.42271 30.5213 3.61993 30.9867 2.90388C31.4521 2.18783 32.0575 1.57332 32.7666 1.09728C33.4799 0.616014 34.2829 0.28316 35.1275 0.118524C35.9722 -0.0461119 36.8413 -0.039166 37.6833 0.138949L56.7249 4.30562C58.0421 4.5646 59.2419 5.23809 60.149 6.22764C61.056 7.2172 61.6229 8.47093 61.7666 9.80562L65.5999 20.8056C64.9332 20.8056 59.8083 22.5973 59.0999 22.5973C54.9333 22.5973 47.7249 33.1389 45.4333 29.3056C45.4333 29.3056 47.9749 28.5139 40.9332 34.5973C33.8916 40.6806 27.3499 38.1806 17.6832 38.1806C17.056 38.1861 16.4338 38.0673 15.8527 37.8311C15.2716 37.5948 14.743 37.2458 14.2975 36.8042C13.852 36.3626 13.4984 35.8371 13.2571 35.258C13.0158 34.679 12.8916 34.0579 12.8916 33.4306C13.3313 29.9182 15.0479 26.6904 17.7142 24.3621C20.3806 22.0339 23.8103 20.768 27.3499 20.8056V20.8056Z" fill="#5E5E5E"/>
<path d="M37.308 18.6382L38.3497 10.3048L34.9746 5.26318L42.058 8.17985L57.2663 7.80485L40.9746 10.3048L36.808 20.1798L37.308 18.6382Z" fill="#D9D9D9"/>
<path opacity="0.2" d="M27.5999 20.8882C27.2666 26.8882 34.3499 35.3465 65.0999 20.8882" stroke="#EDE8FF" stroke-width="0.25" stroke-linejoin="round"/>
<path opacity="0.4" d="M39.5999 66.4723C47.1018 66.4723 53.1833 60.3909 53.1833 52.889C53.1833 45.3871 47.1018 39.3057 39.5999 39.3057C32.098 39.3057 26.0166 45.3871 26.0166 52.889C26.0166 60.3909 32.098 66.4723 39.5999 66.4723Z" fill="#D9D9D9" stroke="black" stroke-width="0.25"/>
<path d="M39.3916 59.8475C40.3054 59.8475 41.2102 59.6675 42.0544 59.3178C42.8986 58.9681 43.6657 58.4556 44.3119 57.8094C44.958 57.1633 45.4706 56.3962 45.8203 55.552C46.1699 54.7078 46.3499 53.8029 46.3499 52.8892" fill="#FCFCFC"/>
<path d="M39.3916 59.8475C40.3054 59.8475 41.2102 59.6675 42.0544 59.3178C42.8986 58.9681 43.6657 58.4556 44.3119 57.8094C44.958 57.1633 45.4706 56.3962 45.8203 55.552C46.1699 54.7078 46.3499 53.8029 46.3499 52.8892" stroke="black" stroke-width="0.15" stroke-miterlimit="10"/>
<path d="M45.642 84.6385C41.8913 81.9035 38.8951 78.2623 36.9336 74.0552C39.6305 74.9438 42.432 75.4761 45.2669 75.6385C46.3919 75.6385 47.517 75.6385 48.5586 75.6385C51.5267 75.573 54.4658 75.0386 57.2669 74.0552C54.1117 78.3005 50.164 81.8945 45.642 84.6385V84.6385Z" fill="white"/>
<path d="M36.9336 74.0552C38.8951 78.2623 41.8913 81.9035 45.642 84.6385C50.164 81.8945 54.1117 78.3005 57.2669 74.0552M36.9753 74.0552C39.6722 74.9438 42.4737 75.4761 45.3086 75.6385ZM36.9753 74.0552L43.2669 78.6385L45.2253 75.8052M57.2669 74.0552C54.4681 75.0528 51.5289 75.6012 48.5586 75.6802ZM57.2669 74.0552L50.1836 78.6385L48.5169 75.8468M45.2253 75.8468C46.3503 75.8468 47.4753 75.8468 48.5169 75.8468Z" fill="#D9D9D9"/>
<path d="M36.9336 74.0552C38.8951 78.2623 41.8913 81.9035 45.642 84.6385C50.164 81.8945 54.1117 78.3005 57.2669 74.0552M57.2669 74.0552C54.4681 75.0528 51.5289 75.6012 48.5586 75.6802M57.2669 74.0552L50.1836 78.6385L48.5169 75.8468C47.4753 75.8468 46.3503 75.8468 45.2253 75.8468M45.3086 75.6385C42.4737 75.4761 39.6722 74.9438 36.9753 74.0552L43.2669 78.6385L45.2253 75.8052" stroke="#EDE8FF" stroke-linejoin="round"/>
<path d="M54.4747 77.7219H60.6413C60.5031 77.7219 64.3248 72.9167 68.4915 70.8333L72.6581 72.9167C70.2712 75.3078 65.9471 83.1534 63.0996 84.9719C61.7461 85.6604 60.355 86.2725 58.933 86.8052L53.7246 84.9719L54.808 89.6386L37.2663 89.0969L38.808 84.2636C37.3734 85.5532 35.6171 86.4313 33.7247 86.8052C28.842 82.5292 24.7908 77.8508 20.5742 72.9167L23.7664 71.3052L26.8248 68.75L28.9076 72.9167L34.0997 80.2636L36.433 78.6386L38.2246 77.2219L41.2246 81.3886L45.6414 85.8052L53.0997 79.4302L54.4747 77.7219Z" fill="#CA872C"/>
<path d="M59.1409 80.5552C59.2835 79.461 59.8161 78.4549 60.6409 77.7218M60.6409 77.7218H54.4743L53.0576 79.4302M60.6409 77.7218C60.6409 77.7218 64.3241 72.9166 68.4908 70.8333L72.6575 72.9166C70.2706 75.3078 65.9467 83.1534 63.0992 84.9718C61.7457 85.6604 60.3546 86.2724 58.9326 86.8052L53.7242 84.9718L53.0993 79.4302L45.7242 85.8468L41.3076 81.4302L39.516 82.8468L39.0576 84.2635M53.9743 84.9718L55.0576 89.6385L37.5159 89.0968L39.0576 84.2635M39.0576 84.2635C37.623 85.5531 35.8667 86.4313 33.9743 86.8052C29.0916 82.5291 24.5242 77.906 20.3076 72.9718L24.0159 71.3052L26.5576 68.0552L29.6409 74.3885L35.3076 81.4302L33.9743 80.5552L36.4326 78.6385L38.2242 77.2218L41.2242 81.3885" stroke="#3E2916" stroke-width="0.05" stroke-linejoin="round"/>
<path d="M45.225 78.3049C44.6675 77.6421 44.1919 76.9146 43.8083 76.1382H48.9333C48.5896 76.9271 48.1257 77.658 47.5583 78.3049L48.9333 82.4715C48.9333 82.4715 46.6416 85.4715 45.7249 86.4299L43.6416 83.0132L45.225 78.3049Z" fill="#FF0202"/>
<path d="M45.225 78.3049C44.6675 77.6421 44.1919 76.9146 43.8083 76.1382H48.9333C48.5896 76.9271 48.1257 77.658 47.5583 78.3049M45.0583 78.3049L43.6416 83.1382L45.7249 86.5549C46.6416 85.5965 48.9333 82.5965 48.9333 82.5965L47.5583 78.4299M45.0583 78.4299C45.9333 79.3882 46.7249 79.3882 47.5583 78.4299" stroke="white" stroke-width="2" stroke-linejoin="round"/>
<path d="M45.225 78.3049C44.6675 77.6421 44.1919 76.9146 43.8083 76.1382H48.9333C48.5896 76.9271 48.1257 77.658 47.5583 78.3049L48.9333 82.4715C48.9333 82.4715 46.6416 85.4715 45.7249 86.4299L43.6416 83.0132L45.225 78.3049Z" fill="#FF0202"/>
<path d="M28.0996 72.18C28.8765 70.4565 29.9802 68.9 31.3496 67.5967C37.6829 74.805 42.4329 78.0967 47.4329 88.43C44.7349 85.8785 41.6206 83.807 38.2246 82.305C38.8458 82.1228 39.407 81.7775 39.8496 81.305C36.7729 77.3134 32.7287 74.1727 28.0996 72.18Z" fill="#CA872C" stroke="#3E2713" stroke-width="0.05" stroke-linejoin="round"/>
<path d="M66.016 73.0555C65.3907 71.2864 64.4442 69.6478 63.2242 68.2222C56.2659 74.8055 51.1826 77.6805 45.3076 87.5138C48.2266 85.2218 51.5078 83.4333 55.016 82.2222C54.4151 82.0049 53.8928 81.6132 53.516 81.0972C56.9304 77.3965 61.2328 74.6286 66.016 73.0555V73.0555Z" fill="#CA872C" stroke="#3E2713" stroke-width="0.05" stroke-linejoin="round"/>
<path d="M48.0589 75.9723C61.4978 75.9723 72.3923 63.0632 72.3923 47.139C72.3923 31.2148 61.4978 18.3057 48.0589 18.3057C34.62 18.3057 23.7256 31.2148 23.7256 47.139C23.7256 63.0632 34.62 75.9723 48.0589 75.9723Z" fill="#F6BE81"/>
<path d="M72.391 47.1383C72.7243 60.93 62.8909 76.305 48.0576 76.305C15.2243 74.9717 15.2243 19.5133 48.0576 17.9717C62.8909 17.9717 72.7243 33.305 72.391 47.1383V47.1383ZM72.391 47.1383C72.391 33.5133 62.6826 18.5133 48.0576 18.5967C16.5576 19.9717 16.5576 74.3467 48.0576 75.7217C62.6826 75.7217 72.5577 60.7633 72.391 47.1383V47.1383Z" fill="#964927"/>
<path d="M79.131 48.3336C80.1043 44.6159 78.9081 41.0824 76.4593 40.4414C74.0105 39.8003 71.2364 42.2945 70.2632 46.0122C69.2899 49.7299 70.4861 53.2633 72.9349 53.9044C75.3837 54.5454 78.1578 52.0513 79.131 48.3336Z" fill="#964927"/>
<path d="M78.122 48.0699C78.868 45.2204 77.9388 42.5088 76.0465 42.0135C74.1543 41.5181 72.0156 43.4266 71.2696 46.2761C70.5237 49.1256 71.4529 51.8371 73.3452 52.3325C75.2374 52.8278 77.3761 50.9194 78.122 48.0699Z" fill="#F6BE81"/>
<g opacity="0.2">
<path d="M76.5586 44.2638C73.1003 44.7638 73.1836 48.2222 72.8503 51.0138C70.6003 48.7638 73.4753 43.4305 76.5586 44.2638Z" fill="black"/>
<path d="M72.6826 50.0141C72.3493 51.2641 74.4326 51.3057 74.516 50.3474C74.5993 49.3891 73.1409 49.1391 72.6826 50.0141ZM72.6826 50.0141C72.6826 49.4724 73.2243 48.5141 74.1826 48.6391C74.3982 48.6648 74.6053 48.7383 74.7889 48.8543C74.9725 48.9702 75.1278 49.1257 75.2436 49.3094C75.3594 49.4931 75.4327 49.7003 75.4582 49.9159C75.4837 50.1315 75.4608 50.3501 75.391 50.5557C74.891 52.2224 72.1409 51.6391 72.6826 50.0141Z" fill="black"/>
</g>
<path d="M22.3275 53.023C24.7763 52.3819 25.9724 48.8484 24.9992 45.1307C24.0259 41.413 21.2519 38.9189 18.8031 39.56C16.3543 40.201 15.1581 43.7345 16.1313 47.4522C17.1046 51.1699 19.8787 53.664 22.3275 53.023Z" fill="#964927"/>
<path d="M21.9147 51.4508C23.8069 50.9554 24.7361 48.2439 23.9902 45.3944C23.2442 42.5449 21.1056 40.6365 19.2133 41.1319C17.3211 41.6272 16.3918 44.3388 17.1378 47.1883C17.8837 50.0378 20.0224 51.9462 21.9147 51.4508Z" fill="#F6BE81"/>
<path opacity="0.2" d="M18.1836 42.9717C21.7253 43.18 22.3503 47.1383 22.3503 48.7217M22.3503 48.7217C22.7253 50.055 20.9753 50.305 20.3503 49.5967C19.7253 48.8883 21.6003 46.8467 22.3086 48.7217H22.3503Z" stroke="black" stroke-width="0.25" stroke-miterlimit="10"/>
<path d="M35.3085 43.9717C30.8085 43.6383 26.3501 49.305 24.6835 52.305C23.5932 49.3416 23.3353 46.1361 23.9376 43.0365C24.5399 39.9368 25.9795 37.0612 28.1001 34.7217H35.2668C37.2252 37.93 39.8501 44.305 35.3085 43.9717Z" fill="#5D3A1C"/>
<path d="M60.9749 43.2223C65.5165 43.5557 70.3499 51.2223 71.5999 54.3473C73.9749 40.389 71.5999 38.9307 69.4332 35.139L62.3499 34.0557C60.0165 36.9723 56.4749 42.9307 60.9749 43.2223Z" fill="#5D3A1C"/>
<path d="M39.3917 64.0132C45.5358 64.0132 50.5166 59.0324 50.5166 52.8882C50.5166 46.744 45.5358 41.7632 39.3917 41.7632C33.2475 41.7632 28.2666 46.744 28.2666 52.8882C28.2666 59.0324 33.2475 64.0132 39.3917 64.0132Z" fill="#FCDEBD"/>
<path d="M39.3916 59.8471C38.4669 59.8581 37.549 59.6868 36.6904 59.3431C35.8319 58.9993 35.0495 58.4898 34.3878 57.8437C33.7262 57.1975 33.1983 56.4274 32.8344 55.5772C32.4704 54.727 32.2775 53.8135 32.2666 52.8887C32.348 51.0695 33.1073 49.3465 34.395 48.0588C35.6827 46.7711 37.4057 46.0118 39.2249 45.9304C40.155 45.8834 41.0846 46.0306 41.9546 46.3626C42.8246 46.6945 43.6161 47.204 44.2784 47.8586C44.9408 48.5131 45.4597 49.2984 45.802 50.1644C46.1443 51.0304 46.3025 51.9582 46.2666 52.8887C46.2056 54.7006 45.4642 56.4229 44.19 57.7125C42.9159 59.0021 41.2026 59.7643 39.3916 59.8471V59.8471Z" fill="#FCFCFC"/>
<path d="M39.3912 59.8468C38.4125 59.9218 37.4289 59.7938 36.502 59.4708C35.5751 59.1478 34.725 58.6368 34.0049 57.9698C33.2848 57.3028 32.7103 56.4941 32.3174 55.5947C31.9245 54.6952 31.7217 53.7242 31.7217 52.7427C31.7217 51.7611 31.9245 50.7902 32.3174 49.8907C32.7103 48.9912 33.2848 48.1826 34.0049 47.5156C34.725 46.8486 35.5751 46.3375 36.502 46.0145C37.4289 45.6915 38.4125 45.5635 39.3912 45.6385C41.1814 45.7757 42.8537 46.5837 44.0738 47.9009C45.2939 49.218 45.9717 50.9473 45.9717 52.7427C45.9717 54.5381 45.2939 56.2673 44.0738 57.5845C42.8537 58.9017 41.1814 59.7096 39.3912 59.8468V59.8468ZM39.3912 59.8468C48.2662 59.5552 48.6412 46.1802 39.3912 46.2218C37.6764 46.3561 36.0753 47.132 34.9075 48.3948C33.7396 49.6576 33.091 51.3143 33.091 53.0343C33.091 54.7544 33.7396 56.4111 34.9075 57.6739C36.0753 58.9367 37.6764 59.7126 39.3912 59.8468Z" fill="#666666"/>
<path d="M40.4739 55.3468C41.8316 55.3468 42.9323 54.2462 42.9323 52.8885C42.9323 51.5308 41.8316 50.4302 40.4739 50.4302C39.1162 50.4302 38.0156 51.5308 38.0156 52.8885C38.0156 54.2462 39.1162 55.3468 40.4739 55.3468Z" fill="#ABC7E5"/>
<path d="M39.7653 52.889C40.3406 52.889 40.807 52.4226 40.807 51.8473C40.807 51.272 40.3406 50.8057 39.7653 50.8057C39.19 50.8057 38.7236 51.272 38.7236 51.8473C38.7236 52.4226 39.19 52.889 39.7653 52.889Z" fill="#8E908F"/>
<path d="M40.0999 55.0138C40.4911 55.0138 40.8083 54.6967 40.8083 54.3055C40.8083 53.9143 40.4911 53.5972 40.0999 53.5972C39.7087 53.5972 39.3916 53.9143 39.3916 54.3055C39.3916 54.6967 39.7087 55.0138 40.0999 55.0138Z" fill="white"/>
<path d="M41.8923 53.055C42.1914 53.055 42.434 52.8125 42.434 52.5133C42.434 52.2142 42.1914 51.9717 41.8923 51.9717C41.5931 51.9717 41.3506 52.2142 41.3506 52.5133C41.3506 52.8125 41.5931 53.055 41.8923 53.055Z" fill="white"/>
<path d="M44.0586 68.4715C47.8646 69.3673 51.8676 68.8193 55.2928 66.9335C58.718 65.0477 61.3218 61.9583 62.6002 58.2632C62.2482 60.2631 61.4522 62.1587 60.2708 63.8103C59.0894 65.462 57.5527 66.8278 55.7738 67.8072C53.9949 68.7866 52.0191 69.3547 49.9917 69.4696C47.9642 69.5846 45.9368 69.2435 44.0586 68.4715V68.4715Z" fill="#8C8C8C"/>
<path d="M55.3496 52.7223C56.3486 51.8349 57.6384 51.3447 58.9747 51.3447C60.3109 51.3447 61.6006 51.8349 62.5996 52.7223C60.2047 52.2641 57.7446 52.2641 55.3496 52.7223Z" fill="#8C8C8C"/>
<path d="M55.3496 51.1383C55.3496 49.7633 57.0996 48.4716 58.0996 49.6383C56.808 50.0966 56.5996 50.5966 55.3496 51.1383Z" fill="#8C8C8C"/>
<path d="M29.641 61.6801C29.8168 61.8658 29.9148 62.1118 29.9148 62.3676C29.9148 62.6233 29.8168 62.8693 29.641 63.0551L28.141 64.5551C27.9552 64.7309 27.7092 64.8289 27.4535 64.8289C27.1977 64.8289 26.9517 64.7309 26.766 64.5551C26.5901 64.3693 26.4922 64.1233 26.4922 63.8676C26.4922 63.6118 26.5901 63.3658 26.766 63.1801L28.266 61.6801C28.4517 61.5042 28.6977 61.4062 28.9535 61.4062C29.2092 61.4063 29.4552 61.5042 29.641 61.6801V61.6801Z" fill="#696969"/>
<path d="M26.2148 62.9986L17.759 71.4544C17.5475 71.6659 17.5475 72.0089 17.759 72.2204L19.1143 73.5757C19.3258 73.7872 19.6688 73.7872 19.8803 73.5757L28.3361 65.1199C28.5477 64.9084 28.5477 64.5654 28.3361 64.3538L26.9809 62.9986C26.7693 62.787 26.4263 62.787 26.2148 62.9986Z" fill="#D9D9D9"/>
<path d="M21.6824 63.8045C22.5574 63.2629 23.849 64.0129 24.599 64.4712L23.7657 65.4712L24.099 66.5962C24.8423 66.3454 25.6474 66.3454 26.3907 66.5962C28.8907 69.0962 24.6407 74.6379 20.224 73.3045L23.0157 70.1379H22.7657C22.5698 70.0384 22.3989 69.896 22.2657 69.7212C22.2657 71.3462 21.1824 71.3462 20.599 71.1795C21.0574 71.5129 20.599 73.4712 18.9324 72.3462C17.2657 71.2212 16.4324 70.2212 16.5991 68.7629C16.7657 67.3045 17.3907 67.4296 18.0574 67.5962C17.8074 65.3879 19.474 65.5545 20.5157 65.9712C20.3073 64.4712 21.0157 64.2212 21.6824 63.8045Z" fill="#FBD393"/>
<path d="M21.558 68.4718V68.1801C19.8497 64.6801 20.8914 64.3885 21.8497 64.0135C22.808 63.6385 24.0163 64.2218 24.7663 64.6801L23.933 65.6801L24.2664 66.8051M21.7247 68.6801C22.8914 71.0135 24.183 70.3051 24.8913 69.6801C24.6722 69.9045 24.4035 70.0742 24.1067 70.1755C23.81 70.2768 23.4936 70.307 23.183 70.2635M21.7247 68.6801C22.014 69.3601 22.5291 69.9194 23.183 70.2635M21.7247 68.6801C22.3987 67.8492 23.2735 67.2039 24.2664 66.8051M23.183 70.2635L20.3913 73.4301C24.808 74.7635 29.058 69.2635 26.558 66.7218C25.8147 66.471 25.0097 66.471 24.2664 66.7218M18.2247 67.5135C17.9747 65.3051 19.6414 65.4718 20.683 65.8885C20.9629 67.2463 21.5628 68.5176 22.433 69.5968C22.433 71.4301 21.1414 71.2635 20.6414 71.0551M18.2247 67.5135C18.6475 68.9142 19.4913 70.1507 20.6414 71.0551M18.2247 67.5135C18.6321 68.9215 19.4789 70.1624 20.6414 71.0551M18.2247 67.5135C17.558 67.5135 16.8913 67.5135 16.7663 68.6801C16.6413 69.8468 17.2663 71.0135 19.0997 72.2635C20.933 73.5135 21.2664 71.0135 20.6414 71.0551" stroke="#974C28" stroke-width="0.05" stroke-linejoin="round"/>
<path d="M73.1818 71.7632C72.3068 74.4715 69.5984 71.5549 69.3067 71.4299C69.0151 71.3049 68.0567 71.7632 67.5567 72.2215C67.4395 71.8769 67.3918 71.5125 67.4165 71.1493C67.4412 70.7861 67.5377 70.4315 67.7005 70.1059C67.8633 69.7803 68.0891 69.4903 68.3648 69.2527C68.6405 69.015 68.9607 68.8345 69.3067 68.7215C69.4365 68.1406 69.7762 67.6279 70.2606 67.2819C70.745 66.9359 71.3401 66.7809 71.9317 66.8465C71.9317 66.3049 72.6817 65.3882 74.4317 65.7215C75.2234 66.3049 76.8484 67.7215 76.5984 68.7632C76.5931 68.9419 76.5468 69.1171 76.463 69.2751C76.3793 69.4331 76.2603 69.5697 76.1153 69.6744C75.9704 69.7791 75.8032 69.8491 75.6269 69.879C75.4506 69.9088 75.2697 69.8977 75.0984 69.8465C75.2419 70.1934 75.2419 70.583 75.0984 70.9299C75.0345 71.1158 74.9326 71.2863 74.7992 71.4307C74.6658 71.5751 74.5038 71.6901 74.3236 71.7685C74.1433 71.8469 73.9486 71.8869 73.7521 71.886C73.5555 71.8851 73.3613 71.8432 73.1818 71.7632V71.7632Z" fill="#F7C183"/>
<path d="M69.3067 68.7215C70.166 68.8345 70.9791 69.1765 71.6608 69.7116C72.3426 70.2468 72.8679 70.9553 73.1818 71.7632M69.3067 68.7215C69.4365 68.1406 69.7762 67.6279 70.2606 67.2819C70.745 66.9359 71.3401 66.7809 71.9317 66.8465M69.3067 68.7215C68.9607 68.8345 68.6405 69.015 68.3648 69.2527C68.0891 69.4903 67.8633 69.7803 67.7005 70.1059C67.5377 70.4315 67.4412 70.7861 67.4165 71.1493C67.3918 71.5125 67.4395 71.8769 67.5567 72.2215C68.0567 71.7632 69.0567 71.2632 69.3067 71.4299C69.5567 71.5965 72.3068 74.4715 73.1818 71.7632M73.1818 71.7632C73.3613 71.8432 73.5555 71.8851 73.7521 71.886C73.9486 71.8869 74.1433 71.8469 74.3236 71.7685C74.5038 71.6901 74.6658 71.5751 74.7992 71.4307C74.9326 71.2863 75.0345 71.1158 75.0984 70.9299C75.2419 70.583 75.2419 70.1934 75.0984 69.8465M71.9317 66.8465C71.9317 66.3049 72.6817 65.3882 74.4317 65.7215C75.2234 66.3049 76.8484 67.7215 76.5984 68.7632C76.5931 68.9419 76.5468 69.1171 76.463 69.2751C76.3793 69.4331 76.2603 69.5697 76.1153 69.6744C75.9704 69.7791 75.8032 69.8491 75.6269 69.879C75.4506 69.9088 75.2697 69.8977 75.0984 69.8465M71.9317 66.8465C73.2501 67.5265 74.3482 68.5669 75.0984 69.8465" stroke="#974C28" stroke-width="0.05" stroke-linejoin="round"/>
<path d="M50.7666 22.5973C53.4912 20.3887 56.8844 19.1696 60.3916 19.1389C68.0999 19.1389 74.6415 25.3473 76.6415 34.5973C76.817 35.4008 76.83 36.2313 76.6798 37.0399C76.5295 37.8484 76.219 38.6188 75.7666 39.3056C75.3978 39.9276 74.8735 40.4429 74.2452 40.8009C73.6169 41.1588 72.9063 41.3472 72.1832 41.3473C63.3082 22.5973 12.9749 65.7223 12.9749 33.4306C23.2666 33.4306 33.1833 37.5973 41.0166 30.9723L50.7666 22.5973ZM27.3499 20.8056L30.0582 5.26395C30.2054 4.42271 30.5213 3.61993 30.9867 2.90388C31.4521 2.18783 32.0575 1.57332 32.7666 1.09728C33.4799 0.616014 34.2829 0.28316 35.1275 0.118524C35.9722 -0.0461119 36.8413 -0.039166 37.6833 0.138949L56.7249 4.30562C58.0421 4.5646 59.2419 5.23809 60.149 6.22764C61.056 7.2172 61.6229 8.47093 61.7666 9.80562L65.5999 20.8056C64.9332 20.8056 59.8083 22.5973 59.0999 22.5973C54.9333 22.5973 47.7249 33.1389 45.4333 29.3056C45.4333 29.3056 47.9749 28.5139 40.9332 34.5973C33.8916 40.6806 27.3499 38.1806 17.6832 38.1806C17.056 38.1861 16.4338 38.0673 15.8527 37.8311C15.2716 37.5948 14.743 37.2458 14.2975 36.8042C13.852 36.3626 13.4984 35.8371 13.2571 35.258C13.0158 34.679 12.8916 34.0579 12.8916 33.4306C13.3313 29.9182 15.0479 26.6904 17.7142 24.3621C20.3806 22.0339 23.8103 20.768 27.3499 20.8056V20.8056Z" fill="#5E5E5E"/>
<path opacity="0.2" d="M38.3497 10.1383L34.9746 5.09668L39.5996 8.01335L57.2663 7.80501L40.5996 9.59668L36.6413 24.4717L38.3497 10.1383Z" fill="#D9D9D9"/>
<g opacity="0.2">
<path d="M27.6006 20.8882C29.7256 36.2632 56.4756 24.0549 65.1006 20.8882L60.2672 23.3048C52.1422 27.1382 28.3089 35.8048 27.4756 20.8882H27.6006Z" fill="#EDE8FF"/>
</g>
<path d="M64.1413 57.8053C62.8079 55.8053 61.5996 57.2637 59.9746 57.8053C60.5996 55.6803 64.5579 54.722 64.1413 57.8053Z" fill="#8C8C8C"/>
<circle cx="8.33333" cy="8.33333" r="8.83333" transform="matrix(-1 0 0 1 26.8242 83.3335)" fill="#AB6F29" stroke="white"/>
<circle cx="4.16667" cy="4.16667" r="4.66667" transform="matrix(-1 0 0 1 10.1572 91.6665)" fill="#AB6F29" stroke="white"/>
<circle cx="39.3242" cy="54.1665" r="12.25" fill="#D9D9D9" fill-opacity="0.7" stroke="#696969" stroke-width="0.5"/>
</svg>
