<svg width="55" height="55" viewBox="0 0 55 55" fill="none" xmlns="http://www.w3.org/2000/svg">
<circle opacity="0.1" cx="27.5" cy="27.5" r="27.5" fill="#FB7401"/>
<path d="M24.6489 11.7082C26.0508 10.6896 27.9492 10.6896 29.3511 11.7082L40.8168 20.0385C42.2188 21.0571 42.8054 22.8626 42.2699 24.5106L37.8904 37.9894C37.3549 39.6374 35.8191 40.7533 34.0862 40.7533H19.9138C18.1809 40.7533 16.6451 39.6374 16.1096 37.9894L11.7301 24.5106C11.1946 22.8626 11.7812 21.0571 13.1832 20.0385L24.6489 11.7082Z" fill="#F765A3"/>
<path fill-rule="evenodd" clip-rule="evenodd" d="M22.6346 25.2692C22.3337 25.2692 22.0897 25.5132 22.0897 25.8141V31.2628C22.0897 31.5637 22.3337 31.8077 22.6346 31.8077H31.3526C31.6535 31.8077 31.8974 31.5637 31.8974 31.2628V25.8141C31.8974 25.5132 31.6535 25.2692 31.3526 25.2692H22.6346ZM21 25.8141C21 24.9113 21.7318 24.1795 22.6346 24.1795H31.3526C32.2553 24.1795 32.9872 24.9113 32.9872 25.8141V31.2628C32.9872 32.1656 32.2553 32.8974 31.3526 32.8974H22.6346C21.7318 32.8974 21 32.1656 21 31.2628V25.8141Z" fill="white"/>
<path fill-rule="evenodd" clip-rule="evenodd" d="M24.748 22.4788C25.0545 22.1722 25.4703 22 25.9038 22H28.0833C28.5169 22 28.9326 22.1722 29.2392 22.4788C29.5457 22.7853 29.7179 23.2011 29.7179 23.6346V32.3526C29.7179 32.6535 29.474 32.8974 29.1731 32.8974C28.8722 32.8974 28.6282 32.6535 28.6282 32.3526V23.6346C28.6282 23.4901 28.5708 23.3515 28.4686 23.2493C28.3664 23.1471 28.2278 23.0897 28.0833 23.0897H25.9038C25.7593 23.0897 25.6207 23.1471 25.5186 23.2493C25.4164 23.3515 25.359 23.4901 25.359 23.6346V32.3526C25.359 32.6535 25.115 32.8974 24.8141 32.8974C24.5132 32.8974 24.2692 32.6535 24.2692 32.3526V23.6346C24.2692 23.2011 24.4414 22.7853 24.748 22.4788Z" fill="white"/>
</svg>
