<svg width="62" height="56" viewBox="0 0 62 56" fill="none" xmlns="http://www.w3.org/2000/svg">
<circle opacity="0.1" cx="27.5" cy="27.5" r="27.5" fill="#FF7000"/>
<path d="M24.1716 12.8284C25.7337 11.2663 28.2663 11.2663 29.8284 12.8284L41.1716 24.1716C42.7337 25.7337 42.7337 28.2663 41.1716 29.8284L29.8284 41.1716C28.2663 42.7337 25.7337 42.7337 24.1716 41.1716L12.8284 29.8284C11.2663 28.2663 11.2663 25.7337 12.8284 24.1716L24.1716 12.8284Z" fill="#FF7000"/>
<path fill-rule="evenodd" clip-rule="evenodd" d="M22.8136 28.9153C23.3345 28.3292 24.0411 28 24.7778 28H29.2222C29.9589 28 30.6655 28.3292 31.1864 28.9153C31.7073 29.5013 32 30.2962 32 31.125V32.375C32 32.7202 31.7513 33 31.4444 33C31.1376 33 30.8889 32.7202 30.8889 32.375V31.125C30.8889 30.6277 30.7133 30.1508 30.4007 29.7992C30.0882 29.4475 29.6642 29.25 29.2222 29.25H24.7778C24.3358 29.25 23.9118 29.4475 23.5993 29.7992C23.2867 30.1508 23.1111 30.6277 23.1111 31.125V32.375C23.1111 32.7202 22.8624 33 22.5556 33C22.2487 33 22 32.7202 22 32.375V31.125C22 30.2962 22.2927 29.5013 22.8136 28.9153Z" fill="white"/>
<path fill-rule="evenodd" clip-rule="evenodd" d="M27 22.2C26.0059 22.2 25.2 23.0059 25.2 24C25.2 24.9941 26.0059 25.8 27 25.8C27.9941 25.8 28.8 24.9941 28.8 24C28.8 23.0059 27.9941 22.2 27 22.2ZM24 24C24 22.3431 25.3431 21 27 21C28.6569 21 30 22.3431 30 24C30 25.6569 28.6569 27 27 27C25.3431 27 24 25.6569 24 24Z" fill="white"/>
<path d="M61.5474 50.8026L53.8774 38.0826C53.5673 37.5974 53.14 37.1981 52.6349 36.9216C52.1298 36.645 51.5632 36.5 50.9874 36.5C50.4116 36.5 49.845 36.645 49.3399 36.9216C48.8349 37.1981 48.4075 37.5974 48.0974 38.0826L40.4274 50.8026C40.1565 51.2543 40.0092 51.7693 40.0004 52.2959C39.9916 52.8225 40.1217 53.3422 40.3774 53.8026C40.6731 54.3209 41.1011 54.7514 41.6176 55.05C42.1341 55.3487 42.7207 55.5049 43.3174 55.5026H58.6574C59.2502 55.5089 59.8341 55.3588 60.3503 55.0674C60.8665 54.7759 61.2966 54.3534 61.5974 53.8426C61.8607 53.3774 61.9948 52.8503 61.986 52.3158C61.9773 51.7814 61.8258 51.2589 61.5474 50.8026ZM50.9874 51.5026C50.7896 51.5026 50.5963 51.444 50.4318 51.3341C50.2674 51.2242 50.1392 51.068 50.0635 50.8853C49.9878 50.7026 49.968 50.5015 50.0066 50.3075C50.0452 50.1136 50.1404 49.9354 50.2803 49.7955C50.4202 49.6557 50.5983 49.5604 50.7923 49.5218C50.9863 49.4833 51.1874 49.5031 51.3701 49.5787C51.5528 49.6544 51.709 49.7826 51.8189 49.9471C51.9288 50.1115 51.9874 50.3048 51.9874 50.5026C51.9874 50.7678 51.882 51.0222 51.6945 51.2097C51.507 51.3973 51.2526 51.5026 50.9874 51.5026ZM51.9874 47.5026C51.9874 47.7678 51.882 48.0222 51.6945 48.2097C51.507 48.3973 51.2526 48.5026 50.9874 48.5026C50.7222 48.5026 50.4678 48.3973 50.2803 48.2097C50.0928 48.0222 49.9874 47.7678 49.9874 47.5026V43.5026C49.9874 43.2374 50.0928 42.9831 50.2803 42.7955C50.4678 42.608 50.7222 42.5026 50.9874 42.5026C51.2526 42.5026 51.507 42.608 51.6945 42.7955C51.882 42.9831 51.9874 43.2374 51.9874 43.5026V47.5026Z" fill="#FF7000"/>
</svg>
