<svg width="55" height="59" viewBox="0 0 55 59" fill="none" xmlns="http://www.w3.org/2000/svg">
<circle opacity="0.1" cx="27.5" cy="27.5" r="27.5" fill="#4CAF50"/>
<path d="M24.1716 12.8284C25.7337 11.2663 28.2663 11.2663 29.8284 12.8284L41.1716 24.1716C42.7337 25.7337 42.7337 28.2663 41.1716 29.8284L29.8284 41.1716C28.2663 42.7337 25.7337 42.7337 24.1716 41.1716L12.8284 29.8284C11.2663 28.2663 11.2663 25.7337 12.8284 24.1716L24.1716 12.8284Z" fill="#FF7000"/>
<path fill-rule="evenodd" clip-rule="evenodd" d="M22.6346 25.2692C22.3337 25.2692 22.0897 25.5132 22.0897 25.8141V31.2628C22.0897 31.5637 22.3337 31.8077 22.6346 31.8077H31.3526C31.6535 31.8077 31.8974 31.5637 31.8974 31.2628V25.8141C31.8974 25.5132 31.6535 25.2692 31.3526 25.2692H22.6346ZM21 25.8141C21 24.9113 21.7318 24.1795 22.6346 24.1795H31.3526C32.2553 24.1795 32.9872 24.9113 32.9872 25.8141V31.2628C32.9872 32.1656 32.2553 32.8974 31.3526 32.8974H22.6346C21.7318 32.8974 21 32.1656 21 31.2628V25.8141Z" fill="white"/>
<path fill-rule="evenodd" clip-rule="evenodd" d="M24.748 22.4788C25.0545 22.1722 25.4703 22 25.9038 22H28.0833C28.5169 22 28.9326 22.1722 29.2392 22.4788C29.5457 22.7853 29.7179 23.2011 29.7179 23.6346V32.3526C29.7179 32.6535 29.474 32.8974 29.1731 32.8974C28.8722 32.8974 28.6282 32.6535 28.6282 32.3526V23.6346C28.6282 23.4901 28.5708 23.3515 28.4686 23.2493C28.3664 23.1471 28.2278 23.0897 28.0833 23.0897H25.9038C25.7593 23.0897 25.6207 23.1471 25.5186 23.2493C25.4164 23.3515 25.359 23.4901 25.359 23.6346V32.3526C25.359 32.6535 25.115 32.8974 24.8141 32.8974C24.5132 32.8974 24.2692 32.6535 24.2692 32.3526V23.6346C24.2692 23.2011 24.4414 22.7853 24.748 22.4788Z" fill="white"/>
<path d="M24.1716 12.8284C25.7337 11.2663 28.2663 11.2663 29.8284 12.8284L41.1716 24.1716C42.7337 25.7337 42.7337 28.2663 41.1716 29.8284L29.8284 41.1716C28.2663 42.7337 25.7337 42.7337 24.1716 41.1716L12.8284 29.8284C11.2663 28.2663 11.2663 25.7337 12.8284 24.1716L24.1716 12.8284Z" fill="#4CAF50"/>
<path fill-rule="evenodd" clip-rule="evenodd" d="M22.8136 28.9153C23.3345 28.3292 24.0411 28 24.7778 28H29.2222C29.9589 28 30.6655 28.3292 31.1864 28.9153C31.7073 29.5013 32 30.2962 32 31.125V32.375C32 32.7202 31.7513 33 31.4444 33C31.1376 33 30.8889 32.7202 30.8889 32.375V31.125C30.8889 30.6277 30.7133 30.1508 30.4007 29.7992C30.0882 29.4475 29.6642 29.25 29.2222 29.25H24.7778C24.3358 29.25 23.9118 29.4475 23.5993 29.7992C23.2867 30.1508 23.1111 30.6277 23.1111 31.125V32.375C23.1111 32.7202 22.8624 33 22.5556 33C22.2487 33 22 32.7202 22 32.375V31.125C22 30.2962 22.2927 29.5013 22.8136 28.9153Z" fill="white"/>
<path fill-rule="evenodd" clip-rule="evenodd" d="M27 22.2C26.0059 22.2 25.2 23.0059 25.2 24C25.2 24.9941 26.0059 25.8 27 25.8C27.9941 25.8 28.8 24.9941 28.8 24C28.8 23.0059 27.9941 22.2 27 22.2ZM24 24C24 22.3431 25.3431 21 27 21C28.6569 21 30 22.3431 30 24C30 25.6569 28.6569 27 27 27C25.3431 27 24 25.6569 24 24Z" fill="white"/>
<path d="M45.5 59C50.7467 59 55 54.7467 55 49.5C55 44.2533 50.7467 40 45.5 40C40.2533 40 36 44.2533 36 49.5C36 54.7467 40.2533 59 45.5 59Z" fill="#4CAF50"/>
<path d="M50.2952 45.2476L44.1428 51.3999L41.6094 48.8666L40.3428 50.1333L44.1428 53.9333L51.5618 46.5142L50.2952 45.2476Z" fill="#CCFF90"/>
</svg>
