<svg width="55" height="56" viewBox="0 0 55 56" fill="none" xmlns="http://www.w3.org/2000/svg">
<circle opacity="0.1" cx="27.5" cy="28" r="27.5" fill="#1565D8"/>
<path d="M24.6489 12.2082C26.0508 11.1896 27.9492 11.1896 29.3511 12.2082L40.8168 20.5385C42.2188 21.5571 42.8054 23.3626 42.2699 25.0106L37.8904 38.4894C37.3549 40.1374 35.8191 41.2533 34.0862 41.2533H19.9138C18.1809 41.2533 16.6451 40.1374 16.1096 38.4894L11.7301 25.0106C11.1946 23.3626 11.7812 21.5571 13.1832 20.5385L24.6489 12.2082Z" fill="#1565D8"/>
<path fill-rule="evenodd" clip-rule="evenodd" d="M22.8136 29.4153C23.3345 28.8292 24.0411 28.5 24.7778 28.5H29.2222C29.9589 28.5 30.6655 28.8292 31.1864 29.4153C31.7073 30.0013 32 30.7962 32 31.625V32.875C32 33.2202 31.7513 33.5 31.4444 33.5C31.1376 33.5 30.8889 33.2202 30.8889 32.875V31.625C30.8889 31.1277 30.7133 30.6508 30.4007 30.2992C30.0882 29.9475 29.6642 29.75 29.2222 29.75H24.7778C24.3358 29.75 23.9118 29.9475 23.5993 30.2992C23.2867 30.6508 23.1111 31.1277 23.1111 31.625V32.875C23.1111 33.2202 22.8624 33.5 22.5556 33.5C22.2487 33.5 22 33.2202 22 32.875V31.625C22 30.7962 22.2927 30.0013 22.8136 29.4153Z" fill="white"/>
<path fill-rule="evenodd" clip-rule="evenodd" d="M27 22.7C26.0059 22.7 25.2 23.5059 25.2 24.5C25.2 25.4941 26.0059 26.3 27 26.3C27.9941 26.3 28.8 25.4941 28.8 24.5C28.8 23.5059 27.9941 22.7 27 22.7ZM24 24.5C24 22.8431 25.3431 21.5 27 21.5C28.6569 21.5 30 22.8431 30 24.5C30 26.1569 28.6569 27.5 27 27.5C25.3431 27.5 24 26.1569 24 24.5Z" fill="white"/>
</svg>
