<svg width="40" height="40" viewBox="0 0 40 40" fill="none" xmlns="http://www.w3.org/2000/svg">
<path d="M8.75 0C9.08152 0 9.39946 0.131696 9.63388 0.366117C9.8683 0.600537 10 0.918479 10 1.25V2.5H30V1.25C30 0.918479 30.1317 0.600537 30.3661 0.366117C30.6005 0.131696 30.9185 0 31.25 0C31.5815 0 31.8995 0.131696 32.1339 0.366117C32.3683 0.600537 32.5 0.918479 32.5 1.25V2.5H35C36.3261 2.5 37.5979 3.02678 38.5355 3.96447C39.4732 4.90215 40 6.17392 40 7.5V35C40 36.3261 39.4732 37.5979 38.5355 38.5355C37.5979 39.4732 36.3261 40 35 40H5C3.67392 40 2.40215 39.4732 1.46447 38.5355C0.526784 37.5979 0 36.3261 0 35V7.5C0 6.17392 0.526784 4.90215 1.46447 3.96447C2.40215 3.02678 3.67392 2.5 5 2.5H7.5V1.25C7.5 0.918479 7.6317 0.600537 7.86612 0.366117C8.10054 0.131696 8.41848 0 8.75 0ZM33.635 7.5H6.3625C5.6125 7.5 5 8.06 5 8.75V11.25C5 11.94 5.61 12.5 6.3625 12.5H33.6375C34.3875 12.5 35 11.94 35 11.25V8.75C35 8.06 34.39 7.5 33.635 7.5Z" fill="#42526E"/>
</svg>
