<svg width="31" height="31" viewBox="0 0 31 31" fill="none" xmlns="http://www.w3.org/2000/svg">
<path d="M17.8403 1.7082C16.4383 0.689626 14.54 0.689628 13.138 1.7082L3.10903 8.99468C1.70708 10.0133 1.12045 11.8187 1.65595 13.4668L5.48668 25.2566C6.02218 26.9047 7.558 28.0205 9.2909 28.0205H21.6874C23.4203 28.0205 24.9561 26.9047 25.4916 25.2566L29.3224 13.4668C29.8579 11.8187 29.2712 10.0133 27.8693 8.99468L17.8403 1.7082Z" fill="#1565D8"/>
<path fill-rule="evenodd" clip-rule="evenodd" d="M19.4608 13.5031C19.735 13.5031 19.9573 13.7254 19.9573 13.9996V18.9641C19.9573 19.2383 19.735 19.4606 19.4608 19.4606H11.5176C11.2434 19.4606 11.0211 19.2383 11.0211 18.9641V13.9996C11.0211 13.7254 11.2434 13.5031 11.5176 13.5031H19.4608ZM20.9502 13.9996C20.9502 13.177 20.2834 12.5102 19.4608 12.5102H11.5176C10.695 12.5102 10.0282 13.177 10.0282 13.9996V18.9641C10.0282 19.7867 10.695 20.4535 11.5176 20.4535H19.4608C20.2834 20.4535 20.9502 19.7867 20.9502 18.9641V13.9996Z" fill="white"/>
<path fill-rule="evenodd" clip-rule="evenodd" d="M17.5352 10.9606C17.2559 10.6813 16.8771 10.5244 16.4821 10.5244H14.4963C14.1013 10.5244 13.7225 10.6813 13.4432 10.9606C13.1638 11.2399 13.0069 11.6188 13.0069 12.0138V19.957C13.0069 20.2312 13.2292 20.4535 13.5034 20.4535C13.7776 20.4535 13.9998 20.2312 13.9998 19.957V12.0138C13.9998 11.8821 14.0521 11.7558 14.1452 11.6627C14.2384 11.5696 14.3646 11.5173 14.4963 11.5173H16.4821C16.6138 11.5173 16.7401 11.5696 16.8332 11.6627C16.9263 11.7558 16.9786 11.8821 16.9786 12.0138V19.957C16.9786 20.2312 17.2008 20.4535 17.475 20.4535C17.7492 20.4535 17.9715 20.2312 17.9715 19.957V12.0138C17.9715 11.6188 17.8146 11.2399 17.5352 10.9606Z" fill="white"/>
</svg>
