<svg width="16" height="20" viewBox="0 0 16 20" fill="none" xmlns="http://www.w3.org/2000/svg">
<path fill-rule="evenodd" clip-rule="evenodd" d="M8 19.775H7.75C7.66667 19.775 7.59167 19.7583 7.525 19.725C5.34167 19.0417 3.54167 17.6873 2.125 15.662C0.708333 13.6373 0 11.4 0 8.95V4.225C0 3.80833 0.121 3.43333 0.363 3.1C0.604333 2.76667 0.916667 2.525 1.3 2.375L7.3 0.125C7.53333 0.0416667 7.76667 0 8 0C8.23333 0 8.46667 0.0416667 8.7 0.125L14.7 2.375C15.0833 2.525 15.396 2.76667 15.638 3.1C15.8793 3.43333 16 3.80833 16 4.225V8.95C16 11.4 15.2917 13.6373 13.875 15.662C12.4583 17.6873 10.6583 19.0417 8.475 19.725C8.39167 19.7583 8.23333 19.775 8 19.775ZM9.59006 6.68686C9.97287 6.30752 10.5907 6.31033 10.9701 6.69315C11.3494 7.07596 11.3466 7.69381 10.9638 8.07315L9.45809 9.56519L10.9638 11.0572C11.3466 11.4366 11.3494 12.0544 10.9701 12.4372C10.5907 12.82 9.97287 12.8229 9.59006 12.4435L8.07174 10.939L6.55346 12.4435C6.17064 12.8228 5.55279 12.82 5.17345 12.4372C4.79411 12.0544 4.79692 11.4365 5.17974 11.0572L6.6854 9.56519L5.17974 8.07318C4.79692 7.69383 4.79411 7.07598 5.17345 6.69317C5.55279 6.31036 6.17064 6.30754 6.55346 6.68689L8.07174 8.19141L9.59006 6.68686Z" fill="#FF5A4F"/>
</svg>
