<svg width="28" height="28" viewBox="0 0 28 28" fill="none" xmlns="http://www.w3.org/2000/svg">
<circle opacity="0.2" cx="14" cy="14" r="14" fill="#D9D9D9"/>
<path d="M14.5 9C14.5 8.73478 14.3946 8.48043 14.2071 8.29289C14.0196 8.10536 13.7652 8 13.5 8C13.2348 8 12.9804 8.10536 12.7929 8.29289C12.6054 8.48043 12.5 8.73478 12.5 9H14.5ZM11.5 9C11.5 8.46957 11.7107 7.96086 12.0858 7.58579C12.4609 7.21071 12.9696 7 13.5 7C14.0304 7 14.5391 7.21071 14.9142 7.58579C15.2893 7.96086 15.5 8.46957 15.5 9H19.5C19.6326 9 19.7598 9.05268 19.8536 9.14645C19.9473 9.24021 20 9.36739 20 9.5C20 9.63261 19.9473 9.75979 19.8536 9.85355C19.7598 9.94732 19.6326 10 19.5 10H18.936L18.703 11.71C17.4735 11.0149 16.0237 10.8194 14.654 11.164C13.2843 11.5087 12.0997 12.367 11.3456 13.5613C10.5915 14.7555 10.3257 16.1941 10.6034 17.579C10.881 18.9638 11.6808 20.1887 12.837 21H11.746C11.1415 21 10.5575 20.781 10.1021 20.3835C9.64669 19.986 9.35073 19.4369 9.269 18.838L8.064 10H7.5C7.36739 10 7.24021 9.94732 7.14645 9.85355C7.05268 9.75979 7 9.63261 7 9.5C7 9.36739 7.05268 9.24021 7.14645 9.14645C7.24021 9.05268 7.36739 9 7.5 9H11.5ZM16 21C16.5909 21 17.1761 20.8836 17.7221 20.6575C18.268 20.4313 18.7641 20.0998 19.182 19.682C19.5998 19.2641 19.9313 18.768 20.1575 18.2221C20.3836 17.6761 20.5 17.0909 20.5 16.5C20.5 15.9091 20.3836 15.3239 20.1575 14.7779C19.9313 14.232 19.5998 13.7359 19.182 13.318C18.7641 12.9002 18.268 12.5687 17.7221 12.3425C17.1761 12.1164 16.5909 12 16 12C14.8065 12 13.6619 12.4741 12.818 13.318C11.9741 14.1619 11.5 15.3065 11.5 16.5C11.5 17.6935 11.9741 18.8381 12.818 19.682C13.6619 20.5259 14.8065 21 16 21ZM15.104 14.604L14.207 15.5H15.75C16.1111 15.5 16.4687 15.5711 16.8024 15.7093C17.136 15.8475 17.4392 16.0501 17.6945 16.3055C17.9499 16.5608 18.1525 16.864 18.2907 17.1976C18.4289 17.5313 18.5 17.8889 18.5 18.25V18.5C18.5 18.6326 18.4473 18.7598 18.3536 18.8536C18.2598 18.9473 18.1326 19 18 19C17.8674 19 17.7402 18.9473 17.6464 18.8536C17.5527 18.7598 17.5 18.6326 17.5 18.5V18.25C17.5 17.7859 17.3156 17.3408 16.9874 17.0126C16.6592 16.6844 16.2141 16.5 15.75 16.5H14.207L15.104 17.396C15.1979 17.4899 15.2506 17.6172 15.2506 17.75C15.2506 17.8828 15.1979 18.0101 15.104 18.104C15.0101 18.1979 14.8828 18.2506 14.75 18.2506C14.6172 18.2506 14.4899 18.1979 14.396 18.104L12.644 16.35C12.5978 16.3036 12.5612 16.2486 12.5362 16.188C12.5113 16.1274 12.4986 16.0626 12.4988 15.9971C12.499 15.9316 12.5121 15.8668 12.5373 15.8064C12.5626 15.746 12.5995 15.6911 12.646 15.645L14.396 13.895C14.4425 13.8485 14.4977 13.8116 14.5584 13.7865C14.6192 13.7613 14.6843 13.7484 14.75 13.7484C14.8157 13.7484 14.8808 13.7613 14.9416 13.7865C15.0023 13.8116 15.0575 13.8485 15.104 13.895C15.1505 13.9415 15.1874 13.9967 15.2125 14.0574C15.2377 14.1182 15.2506 14.1833 15.2506 14.249C15.2506 14.3147 15.2377 14.3798 15.2125 14.4406C15.1874 14.5013 15.1505 14.5565 15.104 14.603V14.604Z" fill="white"/>
</svg>
