<svg width="28" height="28" viewBox="0 0 28 28" fill="none" xmlns="http://www.w3.org/2000/svg">
<circle opacity="0.2" cx="14" cy="14" r="14" fill="#D9D9D9"/>
<path d="M15.8936 14.5879C15.7705 14.6654 15.652 14.7451 15.5381 14.8271C15.4242 14.9092 15.3125 15.0049 15.2031 15.1143C14.7975 14.7497 14.3418 14.474 13.8359 14.2871C13.3301 14.1003 12.8014 14.0046 12.25 14C11.6393 14 11.0674 14.1117 10.5342 14.335C10.001 14.5583 9.53841 14.8682 9.14648 15.2646C8.75456 15.6611 8.44466 16.126 8.2168 16.6592C7.98893 17.1924 7.875 17.7643 7.875 18.375H7C7 17.8281 7.07975 17.2995 7.23926 16.7891C7.39876 16.2786 7.62663 15.8092 7.92285 15.3809C8.21908 14.9525 8.57454 14.5719 8.98926 14.2393C9.40397 13.9066 9.87337 13.6468 10.3975 13.46C10.1468 13.3005 9.92122 13.1136 9.7207 12.8994C9.52018 12.6852 9.34701 12.4482 9.20117 12.1885C9.05534 11.9287 8.94368 11.6598 8.86621 11.3818C8.78874 11.1038 8.75 10.8099 8.75 10.5C8.75 10.0169 8.84115 9.56348 9.02344 9.13965C9.20573 8.71582 9.45638 8.34668 9.77539 8.03223C10.0944 7.71777 10.4658 7.46712 10.8896 7.28027C11.3135 7.09342 11.7669 7 12.25 7C12.7331 7 13.1865 7.09115 13.6104 7.27344C14.0342 7.45573 14.4033 7.70638 14.7178 8.02539C15.0322 8.3444 15.2829 8.71582 15.4697 9.13965C15.6566 9.56348 15.75 10.0169 15.75 10.5C15.75 10.8008 15.7113 11.0924 15.6338 11.375C15.5563 11.6576 15.4469 11.9287 15.3057 12.1885C15.1644 12.4482 14.9912 12.6829 14.7861 12.8926C14.5811 13.1022 14.3532 13.2913 14.1025 13.46C14.4398 13.5785 14.7565 13.7334 15.0527 13.9248C15.349 14.1162 15.6292 14.3372 15.8936 14.5879ZM9.625 10.5C9.625 10.86 9.69336 11.1995 9.83008 11.5186C9.9668 11.8376 10.1559 12.1156 10.3975 12.3525C10.639 12.5895 10.917 12.7764 11.2314 12.9131C11.5459 13.0498 11.8854 13.1204 12.25 13.125C12.61 13.125 12.9495 13.0566 13.2686 12.9199C13.5876 12.7832 13.8656 12.5941 14.1025 12.3525C14.3395 12.111 14.5264 11.833 14.6631 11.5186C14.7998 11.2041 14.8704 10.8646 14.875 10.5C14.875 10.14 14.8066 9.80046 14.6699 9.48145C14.5332 9.16243 14.3441 8.88444 14.1025 8.64746C13.861 8.41048 13.583 8.22363 13.2686 8.08691C12.9541 7.9502 12.6146 7.87956 12.25 7.875C11.89 7.875 11.5505 7.94336 11.2314 8.08008C10.9124 8.2168 10.6344 8.40592 10.3975 8.64746C10.1605 8.889 9.97363 9.16699 9.83691 9.48145C9.7002 9.7959 9.62956 10.1354 9.625 10.5ZM17.9375 14.875C18.3613 14.875 18.7578 14.9548 19.127 15.1143C19.4961 15.2738 19.8197 15.4925 20.0977 15.7705C20.3757 16.0485 20.5944 16.3721 20.7539 16.7412C20.9134 17.1104 20.9954 17.5091 21 17.9375C21 18.3613 20.9202 18.7578 20.7607 19.127C20.6012 19.4961 20.3825 19.8197 20.1045 20.0977C19.8265 20.3757 19.5029 20.5944 19.1338 20.7539C18.7646 20.9134 18.3659 20.9954 17.9375 21C17.5137 21 17.1172 20.9202 16.748 20.7607C16.3789 20.6012 16.0553 20.3825 15.7773 20.1045C15.4993 19.8265 15.2806 19.5029 15.1211 19.1338C14.9616 18.7646 14.8796 18.3659 14.875 17.9375C14.875 17.5137 14.9548 17.1172 15.1143 16.748C15.2738 16.3789 15.4925 16.0553 15.7705 15.7773C16.0485 15.4993 16.3721 15.2806 16.7412 15.1211C17.1104 14.9616 17.5091 14.8796 17.9375 14.875ZM17.9375 20.125C18.1517 20.125 18.3613 20.0954 18.5664 20.0361C18.7715 19.9769 18.9629 19.8857 19.1406 19.7627L16.1123 16.7344C15.9938 16.9121 15.9049 17.1035 15.8457 17.3086C15.7865 17.5137 15.7546 17.7233 15.75 17.9375C15.75 18.2383 15.807 18.5208 15.9209 18.7852C16.0348 19.0495 16.1921 19.2796 16.3926 19.4756C16.5931 19.6715 16.8255 19.8288 17.0898 19.9473C17.3542 20.0658 17.6367 20.125 17.9375 20.125ZM19.7627 19.1406C19.8812 18.9629 19.9701 18.7715 20.0293 18.5664C20.0885 18.3613 20.1204 18.1517 20.125 17.9375C20.125 17.6367 20.068 17.3542 19.9541 17.0898C19.8402 16.8255 19.6829 16.5954 19.4824 16.3994C19.2819 16.2035 19.0495 16.0462 18.7852 15.9277C18.5208 15.8092 18.2383 15.75 17.9375 15.75C17.7233 15.75 17.5137 15.7796 17.3086 15.8389C17.1035 15.8981 16.9121 15.9893 16.7344 16.1123L19.7627 19.1406Z" fill="#E5E5E5"/>
</svg>
