<svg width="35" height="35" viewBox="0 0 35 35" fill="none" xmlns="http://www.w3.org/2000/svg">
<path d="M17.5 0C14.0388 0 10.6554 1.02636 7.77753 2.94928C4.89967 4.87221 2.65665 7.60533 1.33212 10.803C0.00758245 14.0007 -0.338976 17.5194 0.336265 20.9141C1.01151 24.3087 2.67822 27.4269 5.12564 29.8744C7.57306 32.3218 10.6913 33.9885 14.0859 34.6637C17.4806 35.339 20.9993 34.9924 24.197 33.6679C27.3947 32.3433 30.1278 30.1003 32.0507 27.2225C33.9736 24.3446 35 20.9612 35 17.5C35 12.8587 33.1563 8.40752 29.8744 5.12563C26.5925 1.84374 22.1413 0 17.5 0ZM11.875 17.5C11.2569 17.5 10.6528 17.3167 10.1388 16.9733C9.62495 16.63 9.22441 16.1419 8.98788 15.5709C8.75136 14.9999 8.68947 14.3715 8.81005 13.7653C8.93063 13.1591 9.22826 12.6023 9.6653 12.1653C10.1023 11.7282 10.6592 11.4306 11.2653 11.31C11.8715 11.1895 12.4999 11.2514 13.0709 11.4879C13.6419 11.7244 14.13 12.1249 14.4733 12.6388C14.8167 13.1527 15 13.7569 15 14.375C15.0033 14.7863 14.9248 15.1942 14.7689 15.5748C14.613 15.9555 14.383 16.3013 14.0921 16.5921C13.8013 16.883 13.4555 17.113 13.0748 17.2689C12.6942 17.4248 12.2863 17.5033 11.875 17.5ZM23.125 17.5C22.5069 17.5 21.9028 17.3167 21.3888 16.9733C20.8749 16.63 20.4744 16.1419 20.2379 15.5709C20.0014 14.9999 19.9395 14.3715 20.06 13.7653C20.1806 13.1591 20.4783 12.6023 20.9153 12.1653C21.3523 11.7282 21.9092 11.4306 22.5153 11.31C23.1215 11.1895 23.7499 11.2514 24.3209 11.4879C24.8919 11.7244 25.38 12.1249 25.7233 12.6388C26.0667 13.1527 26.25 13.7569 26.25 14.375C26.2533 14.7863 26.1748 15.1942 26.0189 15.5748C25.863 15.9555 25.633 16.3013 25.3421 16.5921C25.0513 16.883 24.7055 17.113 24.3248 17.2689C23.9442 17.4248 23.5363 17.5033 23.125 17.5Z" fill="#FC8019"/>
</svg>
