<svg width="35" height="35" viewBox="0 0 35 35" fill="none" xmlns="http://www.w3.org/2000/svg">
<path d="M17.7448 0.00162592C7.90318 -0.131294 -0.131301 7.9028 0.001626 17.7439C0.13287 27.1821 7.81821 34.8671 17.2568 34.9983C27.1001 35.1329 35.1329 27.0988 34.9983 17.2577C34.8688 7.81784 27.1834 0.132864 17.7448 0.00162592ZM16.3322 16.1935L20.6692 11.23C20.9041 10.9612 21.2363 10.7966 21.5925 10.7727C21.9488 10.7487 22.3 10.8672 22.5689 11.1021C22.8377 11.3371 23.0022 11.6692 23.0262 12.0255C23.0502 12.3817 22.9317 12.7329 22.6967 13.0017L18.3598 17.9652C18.2435 18.0983 18.102 18.2072 17.9436 18.2857C17.7852 18.3642 17.6128 18.4107 17.4364 18.4226C17.26 18.4344 17.083 18.4114 16.9155 18.3549C16.748 18.2984 16.5933 18.2094 16.4601 18.0931C16.327 17.9767 16.2181 17.8353 16.1396 17.6769C16.0611 17.5185 16.0146 17.3462 16.0027 17.1698C15.9909 16.9934 16.0139 16.8164 16.0704 16.6489C16.1269 16.4813 16.2159 16.3266 16.3322 16.1935ZM13.0629 23.8364C12.8105 24.0886 12.4683 24.2303 12.1114 24.2303C11.7546 24.2303 11.4123 24.0886 11.1599 23.8364L7.12582 19.7983C7.00086 19.6733 6.90176 19.5248 6.83418 19.3615C6.7666 19.1981 6.73185 19.023 6.73193 18.8463C6.73201 18.6695 6.76691 18.4944 6.83464 18.3311C6.90236 18.1678 7.00159 18.0195 7.12666 17.8945C7.25172 17.7696 7.40018 17.6705 7.56354 17.6029C7.72691 17.5353 7.90198 17.5006 8.07877 17.5007C8.25556 17.5007 8.43061 17.5356 8.59391 17.6034C8.75722 17.6711 8.90558 17.7703 9.03054 17.8954L13.0688 21.9335C13.3203 22.1866 13.4609 22.5293 13.4598 22.8861C13.4587 23.243 13.316 23.5848 13.0629 23.8364ZM27.9372 13.0017L18.5247 23.7699C18.4034 23.9089 18.2549 24.0214 18.0883 24.1006C17.9217 24.1798 17.7407 24.2238 17.5563 24.2301H17.5109C17.334 24.2301 17.1589 24.1953 16.9955 24.1276C16.8321 24.0599 16.6836 23.9607 16.5586 23.8356L12.5253 19.7975C12.273 19.5449 12.1313 19.2024 12.1314 18.8454C12.1316 18.4884 12.2736 18.146 12.5262 17.8937C12.7788 17.6413 13.1212 17.4997 13.4783 17.4998C13.8353 17.5 14.1777 17.642 14.43 17.8945L16.9371 20.404C17.0023 20.4692 17.0802 20.5203 17.1659 20.5542C17.2517 20.588 17.3435 20.6039 17.4356 20.6008C17.5277 20.5978 17.6182 20.5758 17.7015 20.5363C17.7848 20.4968 17.8591 20.4406 17.9198 20.3712L25.9122 11.23C26.1472 10.9612 26.4793 10.7966 26.8356 10.7727C27.1918 10.7487 27.543 10.8672 27.8119 11.1021C28.0808 11.3371 28.2453 11.6692 28.2693 12.0255C28.2932 12.3817 28.1747 12.7329 27.9398 13.0017H27.9372Z" fill="#0CA324"/>
</svg>
