<svg width="35" height="35" viewBox="0 0 35 35" fill="none" xmlns="http://www.w3.org/2000/svg">
<path d="M26.6667 15V18.3333H24.2333L32.0333 26.1333C33.9679 23.3559 35.0035 20.0515 35 16.6667C35 7.46667 27.5333 0 18.3333 0C14.8167 0 11.55 1.1 8.86666 2.96667L20.9 15H26.6667ZM2.11667 0.45L0 2.56667L4.63333 7.2C2.69871 9.97748 1.66319 13.2818 1.66667 16.6667C1.66667 25.8667 9.13333 33.3333 18.3333 33.3333C21.85 33.3333 25.1167 32.2333 27.8 30.3667L32.4333 35L34.55 32.8833L16.6667 15L2.11667 0.45ZM10 18.3333V15H12.4333L15.7667 18.3333H10Z" fill="#FC1919"/>
</svg>
