<svg width="148" height="32" viewBox="0 0 148 32" fill="none" xmlns="http://www.w3.org/2000/svg">
<path d="M22.7142 2.03906C21.3193 2.04361 19.9539 2.44145 18.7738 3.18712C17.5937 3.93279 16.6467 4.99622 16.0408 6.25591C15.4349 7.5156 15.1947 8.92076 15.3475 10.3109C15.5003 11.7009 16.0401 13.0199 16.9051 14.117C17.0483 14.3042 17.2035 14.4817 17.3698 14.6485C17.5692 14.8665 17.7853 15.0685 18.0161 15.2528C18.2671 15.4648 18.5342 15.6571 18.8148 15.8279L19.1489 16.0245C19.3438 16.1355 19.5451 16.2352 19.7516 16.323C19.9839 16.4249 20.2308 16.5195 20.4777 16.5996C20.7246 16.6797 20.7899 16.6942 20.9497 16.7306C21.1094 16.767 21.3708 16.8253 21.5887 16.8617C21.9659 16.9203 22.347 16.9495 22.7287 16.9491C22.9416 16.9601 23.1549 16.9601 23.3677 16.9491C23.5089 16.9393 23.6495 16.9222 23.7889 16.8981C24.0335 16.8667 24.276 16.8206 24.515 16.7598C24.6748 16.7598 24.8345 16.6797 24.987 16.6287C25.1395 16.5778 25.3501 16.505 25.5244 16.4322C25.8501 16.3004 26.1656 16.1447 26.4683 15.9662C26.7056 15.8311 26.9336 15.6803 27.1509 15.5148C27.1945 15.4784 27.2453 15.4493 27.2889 15.4056C27.4787 15.2604 27.6605 15.1048 27.8335 14.9397C28.096 14.6948 28.3388 14.4295 28.5596 14.1462C29.6097 12.8177 30.1713 11.1671 30.1499 9.47222C30.1441 7.49882 29.3582 5.60822 27.9643 4.21485C26.5705 2.82149 24.6825 2.03905 22.7142 2.03906V2.03906ZM24.9725 13.5564C24.82 13.6438 24.6603 13.7166 24.5005 13.7894C24.2648 13.8856 24.022 13.9635 23.7744 14.0224C23.6331 14.0568 23.4901 14.0835 23.3459 14.1025C23.1391 14.132 22.9304 14.1466 22.7215 14.1462C22.3368 14.1462 21.9538 14.0973 21.5814 14.0005C21.3627 13.9489 21.1489 13.8783 20.9424 13.7894C20.7796 13.7235 20.6218 13.6457 20.4704 13.5564C20.2113 13.4152 19.9679 13.2468 19.7443 13.0541C19.4698 12.8214 19.2258 12.5548 19.0182 12.2606C18.8256 12.0108 18.6623 11.7396 18.5316 11.4525C18.2359 10.8344 18.082 10.1577 18.0814 9.47222C18.0776 9.41647 18.0776 9.36052 18.0814 9.30477C18.0893 9.06039 18.116 8.81699 18.1613 8.57674C18.3836 7.44284 19.0189 6.43248 19.9435 5.74243C20.8681 5.05238 22.0157 4.73204 23.1629 4.84379C24.3101 4.95554 25.3748 5.49138 26.1496 6.34696C26.9243 7.20254 27.3538 8.31661 27.3542 9.47222C27.3617 9.60801 27.3617 9.74412 27.3542 9.87991C27.3391 10.1263 27.2977 10.3704 27.2308 10.6079C27.1594 10.9727 27.0372 11.3257 26.8677 11.6563C26.8098 11.7806 26.7418 11.8999 26.6644 12.013C26.4414 12.3756 26.1647 12.702 25.8439 12.9813C25.7511 13.0764 25.6489 13.1618 25.5389 13.2361C25.3611 13.3614 25.1714 13.4687 24.9725 13.5564Z" fill="#FC8019"/>
<path d="M20.4632 8.59863V16.6069C20.2163 16.5268 19.9695 16.4322 19.7371 16.3303C19.5306 16.2425 19.3294 16.1429 19.1344 16.0318L18.8004 15.8352C18.5197 15.6644 18.2527 15.4721 18.0016 15.2601C17.7708 15.0758 17.5548 14.8738 17.3554 14.6558C17.1891 14.489 17.0338 14.3115 16.8906 14.1244V9.32666L17.6168 8.59863H20.4632Z" fill="#AF510B"/>
<path d="M19.7371 9.32617V16.3225C19.5306 16.2348 19.3294 16.1351 19.1344 16.024L18.8004 15.8275C18.5197 15.6567 18.2527 15.4644 18.0016 15.2523C17.7708 15.0681 17.5548 14.866 17.3554 14.648C17.1891 14.4812 17.0338 14.3037 16.8906 14.1166V9.32617H19.7371Z" fill="#FC8019"/>
<path d="M24.5009 6.26172V16.7526C24.2619 16.8134 24.0194 16.8596 23.7748 16.8909C23.6353 16.9151 23.4948 16.9321 23.3536 16.9419C23.1407 16.9529 22.9274 16.9529 22.7146 16.9419C22.3329 16.9423 21.9517 16.9131 21.5745 16.8545C21.3567 16.8545 21.1461 16.7744 20.9355 16.7235V6.98975L21.6617 6.26172H24.5009Z" fill="#AF510B"/>
<path d="M23.7748 6.98926V16.8686C23.6353 16.8927 23.4948 16.9097 23.3536 16.9195C23.1407 16.9306 22.9274 16.9306 22.7146 16.9195C22.3329 16.92 21.9517 16.8908 21.5745 16.8322C21.3567 16.8322 21.1461 16.7521 20.9355 16.7011V6.98926H23.7748Z" fill="#FC8019"/>
<path d="M28.5444 9.90137V14.1166C28.3236 14.4 28.0808 14.6653 27.8183 14.9102C27.6453 15.0753 27.4635 15.2308 27.2737 15.3761C27.2701 15.4064 27.2555 15.4342 27.2328 15.4544C27.21 15.4745 27.1806 15.4855 27.1502 15.4853C26.9329 15.6508 26.7049 15.8016 26.4677 15.9367C26.1649 16.1152 25.8494 16.2709 25.5237 16.4026C25.3494 16.4755 25.1679 16.541 24.9863 16.5992V10.6294L25.7125 9.90137H28.5444Z" fill="#AF510B"/>
<path d="M27.8183 10.6299V14.9107C27.6453 15.0758 27.4635 15.2313 27.2737 15.3766C27.2701 15.4069 27.2555 15.4347 27.2328 15.4549C27.21 15.475 27.1806 15.486 27.1502 15.4858C26.9329 15.6513 26.7049 15.8021 26.4677 15.9372C26.1649 16.1157 25.8494 16.2714 25.5237 16.4031C25.3494 16.4759 25.1679 16.5415 24.9863 16.5997V10.6299H27.8183Z" fill="#FC8019"/>
<path d="M19.7371 9.32666L20.4632 8.59863H17.6168L16.8906 9.32666H19.7371Z" fill="#934612"/>
<path d="M23.7748 6.98975L24.5009 6.26172H21.6617L20.9355 6.98975H23.7748Z" fill="#934612"/>
<path d="M27.8177 10.6294L28.5439 9.90137H25.7047L24.9785 10.6294H27.8177Z" fill="#934612"/>
<path opacity="0.43" d="M17.8696 11.3936H17.4993C17.4231 11.3936 17.3613 11.4555 17.3613 11.5319V12.1216C17.3613 12.198 17.4231 12.2599 17.4993 12.2599H17.8696C17.9458 12.2599 18.0076 12.198 18.0076 12.1216V11.5319C18.0076 11.4555 17.9458 11.3936 17.8696 11.3936Z" fill="white"/>
<path opacity="0.43" d="M18.9966 11.3936H18.6262C18.5501 11.3936 18.4883 11.4555 18.4883 11.5319V12.1216C18.4883 12.198 18.5501 12.2599 18.6262 12.2599H18.9966C19.0728 12.2599 19.1345 12.198 19.1345 12.1216V11.5319C19.1345 11.4555 19.0728 11.3936 18.9966 11.3936Z" fill="white"/>
<path opacity="0.43" d="M17.8696 10.127H17.4993C17.4231 10.127 17.3613 10.1889 17.3613 10.2653V10.855C17.3613 10.9314 17.4231 10.9933 17.4993 10.9933H17.8696C17.9458 10.9933 18.0076 10.9314 18.0076 10.855V10.2653C18.0076 10.1889 17.9458 10.127 17.8696 10.127Z" fill="white"/>
<path opacity="0.43" d="M18.9966 10.127H18.6262C18.5501 10.127 18.4883 10.1889 18.4883 10.2653V10.855C18.4883 10.9314 18.5501 10.9933 18.6262 10.9933H18.9966C19.0728 10.9933 19.1345 10.9314 19.1345 10.855V10.2653C19.1345 10.1889 19.0728 10.127 18.9966 10.127Z" fill="white"/>
<path opacity="0.43" d="M22.0884 7.5498H21.718C21.6418 7.5498 21.5801 7.61174 21.5801 7.68813V8.27783C21.5801 8.35423 21.6418 8.41616 21.718 8.41616H22.0884C22.1646 8.41616 22.2263 8.35423 22.2263 8.27783V7.68813C22.2263 7.61174 22.1646 7.5498 22.0884 7.5498Z" fill="white"/>
<path opacity="0.43" d="M23.2153 7.5498H22.845C22.7688 7.5498 22.707 7.61174 22.707 7.68813V8.27783C22.707 8.35423 22.7688 8.41616 22.845 8.41616H23.2153C23.2915 8.41616 23.3533 8.35423 23.3533 8.27783V7.68813C23.3533 7.61174 23.2915 7.5498 23.2153 7.5498Z" fill="white"/>
<path opacity="0.43" d="M18.9951 12.7119H17.5066C17.4263 12.7119 17.3613 12.7771 17.3613 12.8575V13.6292C17.3613 13.7096 17.4263 13.7748 17.5066 13.7748H18.9951C19.0753 13.7748 19.1404 13.7096 19.1404 13.6292V12.8575C19.1404 12.7771 19.0753 12.7119 18.9951 12.7119Z" fill="white"/>
<path opacity="0.43" d="M22.0884 8.70801H21.718C21.6418 8.70801 21.5801 8.76994 21.5801 8.84633V9.43603C21.5801 9.51243 21.6418 9.57436 21.718 9.57436H22.0884C22.1646 9.57436 22.2263 9.51243 22.2263 9.43603V8.84633C22.2263 8.76994 22.1646 8.70801 22.0884 8.70801Z" fill="white"/>
<path opacity="0.43" d="M23.2153 8.70801H22.845C22.7688 8.70801 22.707 8.76994 22.707 8.84633V9.43603C22.707 9.51243 22.7688 9.57436 22.845 9.57436H23.2153C23.2915 9.57436 23.3533 9.51243 23.3533 9.43603V8.84633C23.3533 8.76994 23.2915 8.70801 23.2153 8.70801Z" fill="white"/>
<path opacity="0.43" d="M23.2139 10.0254H21.7253C21.6451 10.0254 21.5801 10.0906 21.5801 10.171V10.9427C21.5801 11.0231 21.6451 11.0883 21.7253 11.0883H23.2139C23.2941 11.0883 23.3591 11.0231 23.3591 10.9427V10.171C23.3591 10.0906 23.2941 10.0254 23.2139 10.0254Z" fill="white"/>
<path opacity="0.43" d="M26.0181 11.6201H25.6477C25.5715 11.6201 25.5098 11.682 25.5098 11.7584V12.3481C25.5098 12.4245 25.5715 12.4865 25.6477 12.4865H26.0181C26.0943 12.4865 26.156 12.4245 26.156 12.3481V11.7584C26.156 11.682 26.0943 11.6201 26.0181 11.6201Z" fill="white"/>
<path opacity="0.43" d="M27.1431 11.6201H26.7727C26.6965 11.6201 26.6348 11.682 26.6348 11.7584V12.3481C26.6348 12.4245 26.6965 12.4865 26.7727 12.4865H27.1431C27.2193 12.4865 27.281 12.4245 27.281 12.3481V11.7584C27.281 11.682 27.2193 11.6201 27.1431 11.6201Z" fill="white"/>
<path opacity="0.43" d="M27.1436 12.9375H25.655C25.5748 12.9375 25.5098 13.0027 25.5098 13.0831V13.8548C25.5098 13.9352 25.5748 14.0004 25.655 14.0004H27.1436C27.2238 14.0004 27.2888 13.9352 27.2888 13.8548V13.0831C27.2888 13.0027 27.2238 12.9375 27.1436 12.9375Z" fill="white"/>
<path opacity="0.43" d="M26.0181 14.6191H25.6477C25.5715 14.6191 25.5098 14.6811 25.5098 14.7575V15.3472C25.5098 15.4236 25.5715 15.4855 25.6477 15.4855H26.0181C26.0943 15.4855 26.156 15.4236 26.156 15.3472V14.7575C26.156 14.6811 26.0943 14.6191 26.0181 14.6191Z" fill="white"/>
<path opacity="0.43" d="M26.4539 15.9365C26.1512 16.115 25.8356 16.2707 25.5099 16.4025V16.0894C25.509 16.0697 25.512 16.05 25.5188 16.0315C25.5257 16.0129 25.5362 15.996 25.5498 15.9817C25.5634 15.9674 25.5798 15.956 25.5979 15.9483C25.616 15.9405 25.6355 15.9365 25.6552 15.9365H26.4539Z" fill="white"/>
<path opacity="0.43" d="M22.0884 11.8232H21.718C21.6418 11.8232 21.5801 11.8852 21.5801 11.9616V12.5513C21.5801 12.6277 21.6418 12.6896 21.718 12.6896H22.0884C22.1646 12.6896 22.2263 12.6277 22.2263 12.5513V11.9616C22.2263 11.8852 22.1646 11.8232 22.0884 11.8232Z" fill="white"/>
<path opacity="0.43" d="M23.2153 11.8232H22.845C22.7688 11.8232 22.707 11.8852 22.707 11.9616V12.5513C22.707 12.6277 22.7688 12.6896 22.845 12.6896H23.2153C23.2915 12.6896 23.3533 12.6277 23.3533 12.5513V11.9616C23.3533 11.8852 23.2915 11.8232 23.2153 11.8232Z" fill="white"/>
<path opacity="0.43" d="M23.2139 13.1484H21.7253C21.6451 13.1484 21.5801 13.2136 21.5801 13.294V14.0658C21.5801 14.1462 21.6451 14.2114 21.7253 14.2114H23.2139C23.2941 14.2114 23.3591 14.1462 23.3591 14.0658V13.294C23.3591 13.2136 23.2941 13.1484 23.2139 13.1484Z" fill="white"/>
<path opacity="0.43" d="M22.0884 14.9834H21.718C21.6418 14.9834 21.5801 15.0453 21.5801 15.1217V15.7114C21.5801 15.7878 21.6418 15.8498 21.718 15.8498H22.0884C22.1646 15.8498 22.2263 15.7878 22.2263 15.7114V15.1217C22.2263 15.0453 22.1646 14.9834 22.0884 14.9834Z" fill="white"/>
<path opacity="0.43" d="M23.2153 14.9834H22.845C22.7688 14.9834 22.707 15.0453 22.707 15.1217V15.7114C22.707 15.7878 22.7688 15.8498 22.845 15.8498H23.2153C23.2915 15.8498 23.3533 15.7878 23.3533 15.7114V15.1217C23.3533 15.0453 23.2915 14.9834 23.2153 14.9834Z" fill="white"/>
<path opacity="0.43" d="M23.3533 16.4538V16.9198C23.1404 16.9308 22.9271 16.9308 22.7143 16.9198C22.3326 16.9202 21.9514 16.891 21.5742 16.8324V16.4247C21.5742 16.3842 21.5903 16.3453 21.6189 16.3166C21.6475 16.2879 21.6863 16.2718 21.7267 16.2718H23.179C23.2038 16.2657 23.2297 16.2662 23.2542 16.2733C23.2787 16.2804 23.3009 16.2939 23.3186 16.3123C23.3362 16.3308 23.3487 16.3536 23.3548 16.3784C23.3609 16.4033 23.3604 16.4293 23.3533 16.4538Z" fill="white"/>
<path opacity="0.43" d="M18.0076 14.6481V15.2524C17.7768 15.0681 17.5607 14.8661 17.3613 14.6481C17.3613 14.6299 17.3649 14.6119 17.3718 14.5952C17.3788 14.5784 17.3889 14.5631 17.4017 14.5503C17.4145 14.5374 17.4298 14.5272 17.4465 14.5203C17.4632 14.5133 17.4812 14.5098 17.4993 14.5098H17.8769C17.9122 14.5116 17.9455 14.527 17.9698 14.5528C17.9941 14.5785 18.0076 14.6126 18.0076 14.6481V14.6481Z" fill="white"/>
<path opacity="0.43" d="M18.9966 14.5098H18.6262C18.5501 14.5098 18.4883 14.5717 18.4883 14.6481V15.2378C18.4883 15.3142 18.5501 15.3761 18.6262 15.3761H18.9966C19.0728 15.3761 19.1345 15.3142 19.1345 15.2378V14.6481C19.1345 14.5717 19.0728 14.5098 18.9966 14.5098Z" fill="white"/>
<path opacity="0.43" d="M19.1329 15.981V16.0247L18.7988 15.8281H18.9876C19.0073 15.8281 19.0268 15.8321 19.0449 15.8399C19.063 15.8476 19.0794 15.859 19.093 15.8733C19.1066 15.8876 19.1171 15.9045 19.124 15.9231C19.1308 15.9416 19.1338 15.9613 19.1329 15.981V15.981Z" fill="white"/>
<path opacity="0.15" d="M27.9415 11.9327L28.0649 11.7871H28.1375V12.304L28.0214 12.4278C28.0174 12.4338 28.012 12.4387 28.0057 12.4421C27.9993 12.4455 27.9922 12.4473 27.9851 12.4473C27.9779 12.4473 27.9708 12.4455 27.9645 12.4421C27.9581 12.4387 27.9527 12.4338 27.9487 12.4278V11.9327C27.9487 11.9327 27.9342 11.94 27.9415 11.9327Z" fill="white"/>
<path opacity="0.15" d="M28.261 11.6993L28.3845 11.5537C28.3885 11.5477 28.3939 11.5428 28.4002 11.5394C28.4065 11.536 28.4136 11.5342 28.4208 11.5342C28.428 11.5342 28.4351 11.536 28.4414 11.5394C28.4477 11.5428 28.4531 11.5477 28.4571 11.5537V12.0779L28.3337 12.1944H28.261V11.6993C28.2538 11.7066 28.261 11.6993 28.261 11.6993Z" fill="white"/>
<path opacity="0.15" d="M23.8613 15.296L23.9848 15.1504C23.9887 15.1444 23.9941 15.1395 24.0005 15.1361C24.0068 15.1326 24.0139 15.1309 24.0211 15.1309C24.0283 15.1309 24.0353 15.1326 24.0417 15.1361C24.048 15.1395 24.0534 15.1444 24.0574 15.1504V15.6673L23.9339 15.7911C23.93 15.7971 23.9246 15.802 23.9182 15.8054C23.9119 15.8088 23.9048 15.8106 23.8976 15.8106C23.8904 15.8106 23.8834 15.8088 23.877 15.8054C23.8707 15.802 23.8653 15.7971 23.8613 15.7911V15.296Z" fill="white"/>
<path opacity="0.15" d="M24.1797 15.0558L24.3031 14.9102C24.3071 14.9042 24.3125 14.8992 24.3188 14.8958C24.3252 14.8924 24.3322 14.8906 24.3394 14.8906C24.3466 14.8906 24.3537 14.8924 24.36 14.8958C24.3664 14.8992 24.3718 14.9042 24.3757 14.9102V15.4343L24.2596 15.5508C24.2556 15.5568 24.2502 15.5618 24.2439 15.5652C24.2375 15.5686 24.2304 15.5704 24.2233 15.5704C24.2161 15.5704 24.209 15.5686 24.2027 15.5652C24.1963 15.5618 24.1909 15.5568 24.187 15.5508V15.0776L24.1797 15.0558Z" fill="white"/>
<path opacity="0.15" d="M23.9188 12.0489L24.0423 11.9033H24.1149V12.4202L23.9624 12.6022C23.9584 12.6082 23.953 12.6132 23.9467 12.6166C23.9404 12.62 23.9333 12.6218 23.9261 12.6218C23.9189 12.6218 23.9118 12.62 23.9055 12.6166C23.8992 12.6132 23.8938 12.6082 23.8898 12.6022V12.1072C23.8875 12.1015 23.8865 12.0953 23.8868 12.0892C23.887 12.083 23.8886 12.077 23.8913 12.0715C23.8941 12.066 23.8979 12.0612 23.9027 12.0573C23.9074 12.0534 23.9129 12.0505 23.9188 12.0489V12.0489Z" fill="white"/>
<path opacity="0.15" d="M24.2383 11.8165L24.3617 11.6709C24.3657 11.6649 24.3711 11.66 24.3774 11.6566C24.3838 11.6532 24.3908 11.6514 24.398 11.6514C24.4052 11.6514 24.4123 11.6532 24.4186 11.6566C24.425 11.66 24.4304 11.6649 24.4343 11.6709V12.1878L24.3109 12.3116C24.3079 12.3177 24.3033 12.3229 24.2975 12.3265C24.2917 12.3302 24.285 12.3321 24.2782 12.3321C24.2714 12.3321 24.2647 12.3302 24.2589 12.3265C24.2532 12.3229 24.2485 12.3177 24.2455 12.3116V11.8092L24.2383 11.8165Z" fill="white"/>
<path opacity="0.15" d="M23.9188 8.99131L24.0423 8.8457H24.1149V9.3626L23.9624 9.54461C23.9584 9.55062 23.953 9.55554 23.9467 9.55895C23.9404 9.56236 23.9333 9.56414 23.9261 9.56414C23.9189 9.56414 23.9118 9.56236 23.9055 9.55895C23.8992 9.55554 23.8938 9.55062 23.8898 9.54461V9.04955C23.8875 9.04384 23.8865 9.03771 23.8868 9.03157C23.887 9.02543 23.8886 9.01941 23.8913 9.01392C23.8941 9.00842 23.8979 9.00357 23.9027 8.99967C23.9074 8.99577 23.9129 8.99292 23.9188 8.99131V8.99131Z" fill="white"/>
<path opacity="0.15" d="M24.2383 8.74424L24.3617 8.59864C24.3657 8.59263 24.3711 8.5877 24.3774 8.58429C24.3838 8.58088 24.3908 8.5791 24.398 8.5791C24.4052 8.5791 24.4123 8.58088 24.4186 8.58429C24.425 8.5877 24.4304 8.59263 24.4343 8.59864V9.11554L24.3109 9.2393C24.3079 9.24545 24.3033 9.25064 24.2975 9.25428C24.2917 9.25791 24.285 9.25983 24.2782 9.25983C24.2714 9.25983 24.2647 9.25791 24.2589 9.25428C24.2532 9.25064 24.2485 9.24545 24.2455 9.2393V8.73696L24.2383 8.74424Z" fill="white"/>
<path opacity="0.15" d="M19.8302 10.295L19.9536 10.1494C19.9576 10.1434 19.963 10.1385 19.9693 10.1351C19.9756 10.1317 19.9827 10.1299 19.9899 10.1299C19.9971 10.1299 20.0042 10.1317 20.0105 10.1351C20.0168 10.1385 20.0222 10.1434 20.0262 10.1494V10.6663L19.9028 10.7901C19.8998 10.7962 19.8952 10.8014 19.8894 10.8051C19.8836 10.8087 19.8769 10.8106 19.8701 10.8106C19.8633 10.8106 19.8566 10.8087 19.8508 10.8051C19.845 10.8014 19.8404 10.7962 19.8374 10.7901V10.295C19.8374 10.295 19.8229 10.3023 19.8302 10.295Z" fill="white"/>
<path opacity="0.15" d="M20.1498 10.0546L20.266 9.91628C20.266 9.90663 20.2698 9.89737 20.2767 9.89054C20.2835 9.88372 20.2927 9.87988 20.3023 9.87988C20.312 9.87988 20.3212 9.88372 20.328 9.89054C20.3348 9.89737 20.3386 9.90663 20.3386 9.91628V10.4405L20.2152 10.5569C20.2112 10.563 20.2058 10.5679 20.1995 10.5713C20.1932 10.5747 20.1861 10.5765 20.1789 10.5765C20.1717 10.5765 20.1646 10.5747 20.1583 10.5713C20.1519 10.5679 20.1466 10.563 20.1426 10.5569V10.0619C20.1448 10.0593 20.1472 10.0568 20.1498 10.0546V10.0546Z" fill="white"/>
<path opacity="0.15" d="M19.8302 14.6114L19.9536 14.4658H20.0262V14.9827L19.9028 15.1065H19.8374V14.6405C19.8374 14.6405 19.8229 14.6187 19.8302 14.6114Z" fill="white"/>
<path opacity="0.15" d="M20.1498 14.379L20.266 14.2334H20.3386V14.7576L20.2152 14.8741C20.2112 14.8801 20.2058 14.885 20.1995 14.8884C20.1932 14.8918 20.1861 14.8936 20.1789 14.8936C20.1717 14.8936 20.1646 14.8918 20.1583 14.8884C20.1519 14.885 20.1466 14.8801 20.1426 14.8741V14.379H20.1498Z" fill="white"/>
<path d="M14.4425 0.109375V14.1894L12.5763 16.2061V14.1894H10.5359V8.53993H5.77242V10.5566H3.90624V14.1894H1.87305V0.109375H5.77242V5.40213H10.5359V0.109375H14.4425Z" fill="#AF510B"/>
<path d="M5.77243 10.5566V14.1895L3.90625 16.2061V10.5566H5.77243Z" fill="#934612"/>
<path d="M8.67011 2.12598V7.41873H3.90663V2.12598H0V16.206H3.90663V10.5565H8.67011V16.206H12.5695V2.12598H8.67011Z" fill="#FC8019"/>
<path d="M3.90663 2.12601L5.77281 0.109375H1.87344L0 2.12601" fill="#934612"/>
<path d="M12.5693 2.12601L14.4427 0.109375H10.5361L8.66992 2.12601" fill="#934612"/>
<path d="M8.66973 7.42581V5.40918H5.77243L3.90625 7.42581" fill="#934612"/>
<path d="M51.4765 4.95848C52.421 6.03922 52.9058 7.44781 52.8271 8.88254V15.7406C52.8271 15.8641 52.7782 15.9826 52.691 16.07C52.6038 16.1574 52.4856 16.2065 52.3624 16.2065H48.9205C48.7966 16.2065 48.6776 16.1577 48.5893 16.0705C48.501 15.9833 48.4504 15.8648 48.4485 15.7406V9.47225C48.4713 9.18835 48.4367 8.90278 48.3469 8.63258C48.257 8.36239 48.1138 8.11313 47.9257 7.89971C47.5025 7.53768 46.9644 7.3388 46.408 7.3388C45.8517 7.3388 45.3136 7.53768 44.8904 7.89971C44.6879 8.10615 44.5304 8.35254 44.4279 8.62325C44.3254 8.89396 44.2801 9.18307 44.295 9.47225V15.7478C44.2931 15.8721 44.2425 15.9906 44.1542 16.0778C44.0659 16.1649 43.9469 16.2138 43.823 16.2138H40.3811C40.2572 16.2138 40.1382 16.1649 40.0499 16.0778C39.9616 15.9906 39.911 15.8721 39.9091 15.7478V9.47225C39.9398 8.89901 39.7441 8.33671 39.3645 7.90699C39.1654 7.71353 38.9282 7.56378 38.6682 7.46726C38.4081 7.37075 38.1309 7.32959 37.8541 7.34641C37.5729 7.32905 37.2911 7.36986 37.0263 7.46629C36.7615 7.56273 36.5193 7.71273 36.3147 7.90699C36.1196 8.11564 35.9693 8.36222 35.8732 8.63146C35.777 8.9007 35.737 9.18687 35.7556 9.47225V15.7478C35.7537 15.8721 35.7031 15.9906 35.6148 16.0778C35.5265 16.1649 35.4075 16.2138 35.2836 16.2138H31.8417C31.7807 16.2138 31.7202 16.2017 31.6638 16.1783C31.6075 16.1549 31.5562 16.1206 31.5131 16.0773C31.4699 16.034 31.4357 15.9827 31.4123 15.9261C31.389 15.8696 31.377 15.809 31.377 15.7478V4.09941C31.3825 3.97897 31.4337 3.8652 31.52 3.78132C31.6064 3.69743 31.7214 3.64976 31.8417 3.64803H35.2836C35.4088 3.64803 35.5288 3.69789 35.6173 3.78663C35.7058 3.87538 35.7556 3.99574 35.7556 4.12125V4.12125C35.7564 4.21113 35.7828 4.29891 35.8315 4.37432C35.8803 4.44974 35.9495 4.50966 36.031 4.54708C36.1125 4.58451 36.203 4.59788 36.2918 4.58565C36.3806 4.57341 36.4641 4.53606 36.5325 4.47798C36.7595 4.29816 37.0026 4.13975 37.2587 4.00476C37.9212 3.6741 38.6537 3.50923 39.3935 3.52427C40.2545 3.51059 41.1046 3.71864 41.8624 4.12853C42.3935 4.42653 42.8581 4.83038 43.2276 5.31521C43.2718 5.36867 43.3273 5.41169 43.3901 5.44122C43.4528 5.47075 43.5213 5.48606 43.5906 5.48606C43.6599 5.48606 43.7284 5.47075 43.7912 5.44122C43.8539 5.41169 43.9094 5.36867 43.9537 5.31521C44.3405 4.85422 44.805 4.46488 45.3261 4.16493C46.0611 3.73991 46.8957 3.51878 47.7441 3.52427C48.432 3.48562 49.1202 3.59344 49.7635 3.84064C50.4068 4.08784 50.9906 4.46881 51.4765 4.95848V4.95848Z" fill="#FC8019"/>
<path d="M66.4638 10.6518H59.7397C59.6183 10.6502 59.4985 10.6791 59.3911 10.7359C59.2837 10.7927 59.1922 10.8756 59.1251 10.9769C59.0579 11.0783 59.0171 11.195 59.0066 11.3163C58.996 11.4375 59.0159 11.5595 59.0644 11.6711C59.1495 11.8625 59.2675 12.0374 59.413 12.188C59.5818 12.355 59.7829 12.4857 60.0039 12.5721C60.2249 12.6584 60.4612 12.6987 60.6982 12.6903C60.964 12.7038 61.2289 12.6503 61.4687 12.5345C61.7085 12.4188 61.9155 12.2445 62.0707 12.0278C62.1373 11.929 62.2271 11.8481 62.3321 11.7923C62.4372 11.7364 62.5544 11.7073 62.6733 11.7075H65.9337C66.0533 11.7069 66.1711 11.7359 66.2768 11.7919C66.3825 11.8479 66.4727 11.9292 66.5395 12.0286C66.6063 12.128 66.6476 12.2424 66.6598 12.3616C66.6719 12.4809 66.6545 12.6013 66.609 12.7121C66.4053 13.1859 66.1338 13.6274 65.803 14.0226C65.2327 14.7143 64.5091 15.2627 63.6899 15.6243C62.8069 16.022 61.8477 16.2208 60.8798 16.2067C59.7328 16.2317 58.5983 15.9636 57.5831 15.4277C56.6293 14.9157 55.8447 14.1366 55.3248 13.1854C54.7585 12.1334 54.4757 10.9515 54.5043 9.75635C54.4734 8.56742 54.7512 7.39084 55.3103 6.3419C55.8271 5.39515 56.6064 4.61882 57.5541 4.10686C58.5825 3.60157 59.7127 3.33887 60.858 3.33887C62.0033 3.33887 63.1335 3.60157 64.1619 4.10686C65.1016 4.60388 65.8782 5.36226 66.3984 6.29094C66.9541 7.31757 67.232 8.47216 67.2045 9.63987C67.2045 9.75635 67.2045 9.87284 67.2045 9.98932C67.1879 10.1734 67.1022 10.3442 66.9647 10.4673C66.8271 10.5903 66.6481 10.6563 66.4638 10.6518ZM61.7221 8.52599C61.8688 8.52844 62.0128 8.4863 62.1351 8.4051C62.2574 8.32391 62.3523 8.20747 62.4074 8.07113C62.4624 7.93479 62.4749 7.78493 62.4433 7.6413C62.4118 7.49767 62.3375 7.367 62.2304 7.2665V7.2665C61.8537 6.95386 61.3757 6.79066 60.887 6.80784C60.4106 6.789 59.9436 6.94422 59.5727 7.24466V7.24466C59.4634 7.34421 59.387 7.47481 59.3536 7.61904C59.3203 7.76326 59.3316 7.91425 59.386 8.05188C59.4404 8.18951 59.5354 8.30722 59.6583 8.38933C59.7812 8.47143 59.9261 8.51403 60.0738 8.51143L61.7221 8.52599Z" fill="#FC8019"/>
<path d="M72.4899 14.8958C71.5568 14.2152 70.92 13.2014 70.7108 12.0637C70.6885 11.9544 70.6904 11.8415 70.7163 11.7329C70.7421 11.6244 70.7914 11.5228 70.8606 11.4354C70.9298 11.3479 71.0173 11.2768 71.1169 11.2268C71.2164 11.1769 71.3257 11.1495 71.437 11.1464H74.5957C74.7604 11.1506 74.9195 11.2072 75.05 11.308C75.1805 11.4087 75.2757 11.5485 75.3218 11.707C75.3884 11.956 75.5244 12.1808 75.7139 12.355C76.0152 12.6165 76.4051 12.752 76.8032 12.7335C77.1586 12.7473 77.5085 12.6423 77.798 12.435C77.9265 12.3365 78.0293 12.2082 78.0976 12.0611C78.1658 11.914 78.1976 11.7526 78.1901 11.5905C78.1916 11.3697 78.132 11.1527 78.018 10.9638C77.9039 10.7748 77.7397 10.6213 77.5438 10.5203C76.8973 10.172 76.2188 9.8868 75.5179 9.66854C74.6641 9.39206 73.8296 9.05885 73.02 8.67114C72.3616 8.34638 71.7874 7.87288 71.3426 7.28789C70.837 6.58113 70.5815 5.7253 70.6165 4.85628C70.5831 3.93075 70.8368 3.01761 71.3426 2.24266C71.8726 1.50304 72.6036 0.93188 73.4484 0.597323C74.4269 0.194262 75.4767 -0.00632248 76.5345 0.00762093C78.0899 -0.0654358 79.6245 0.388463 80.8913 1.29623C81.7489 1.95917 82.3331 2.91546 82.5324 3.98265C82.5558 4.0929 82.5548 4.20694 82.5296 4.31678C82.5043 4.42661 82.4553 4.52955 82.3861 4.61838C82.3169 4.7072 82.2291 4.77974 82.1289 4.83091C82.0288 4.88207 81.9186 4.91061 81.8063 4.91452H78.5459C78.3825 4.91355 78.2237 4.85996 78.093 4.76165C77.9622 4.66334 77.8664 4.52552 77.8198 4.3685C77.7547 4.16253 77.634 3.9786 77.4712 3.83704C77.1722 3.59396 76.7958 3.46728 76.411 3.48031C76.1147 3.46784 75.8253 3.5724 75.605 3.77152C75.4972 3.87972 75.4136 4.00969 75.3598 4.15279C75.3059 4.29589 75.2831 4.44884 75.2928 4.60147C75.2923 4.74764 75.3232 4.8922 75.3833 5.02535C75.4434 5.1585 75.5314 5.27713 75.6413 5.37318C75.8925 5.60833 76.1824 5.798 76.4982 5.93376C76.8395 6.09393 77.3478 6.29049 78.0158 6.53074C78.8642 6.81132 79.6917 7.15192 80.4919 7.54998C81.1458 7.89146 81.7161 8.37378 82.1621 8.96235C82.6564 9.62216 82.9124 10.4308 82.8882 11.2556C82.8953 12.1527 82.6431 13.0327 82.1621 13.7892C81.6681 14.5626 80.9622 15.1768 80.1289 15.5583C79.1468 16.0132 78.0734 16.2349 76.992 16.2062C75.3891 16.2712 73.8088 15.8112 72.4899 14.8958V14.8958Z" fill="#F8D319"/>
<path d="M85.0086 6.34885C85.5253 5.40016 86.3045 4.62145 87.2524 4.10653C88.2682 3.57241 89.4023 3.30444 90.5491 3.32754C92.0015 3.28003 93.4247 3.74365 94.5719 4.63799C95.4256 5.32444 96.0614 6.24526 96.4018 7.288C96.4409 7.40389 96.452 7.52744 96.4341 7.64846C96.4163 7.76949 96.37 7.88453 96.2991 7.98409C96.2281 8.08364 96.1346 8.16486 96.0262 8.22105C95.9178 8.27724 95.7976 8.30678 95.6756 8.30724H92.5387C92.4024 8.3123 92.2675 8.27879 92.1494 8.21055C92.0312 8.14231 91.9346 8.0421 91.8706 7.92139C91.7486 7.65582 91.5497 7.43323 91.2997 7.2826C91.0498 7.13197 90.7604 7.06029 90.4692 7.07688C90.2119 7.06936 89.957 7.12756 89.7284 7.246C89.4997 7.36444 89.3049 7.53923 89.1621 7.75394C88.8045 8.36016 88.6375 9.06043 88.6829 9.7633C88.6382 10.4684 88.8052 11.1708 89.1621 11.7799C89.3016 11.9988 89.4954 12.1776 89.7245 12.2989C89.9537 12.4201 90.2102 12.4796 90.4692 12.4716C90.7572 12.4906 91.0443 12.4233 91.2939 12.278C91.5435 12.1328 91.7443 11.9163 91.8706 11.6562C91.9336 11.5341 92.0298 11.4324 92.148 11.3628C92.2662 11.2933 92.4017 11.2587 92.5387 11.263H95.6611C95.7831 11.2635 95.9033 11.293 96.0117 11.3492C96.1201 11.4054 96.2136 11.4866 96.2845 11.5862C96.3555 11.6857 96.4018 11.8008 96.4196 11.9218C96.4375 12.0428 96.4264 12.1664 96.3872 12.2823C96.0427 13.317 95.4103 14.2314 94.5646 14.9177C93.4199 15.8174 91.9956 16.284 90.5418 16.2355C89.395 16.2586 88.261 15.9906 87.2451 15.4565C86.2972 14.9415 85.518 14.1628 85.0014 13.2141C84.4509 12.1475 84.1857 10.9561 84.2317 9.75602C84.1954 8.57233 84.463 7.39915 85.0086 6.34885V6.34885Z" fill="#F8D319"/>
<path d="M125.528 3.52441V16.0974H121.128V14.3065C120.74 14.8891 120.21 15.3627 119.588 15.6825C118.89 16.0412 118.115 16.2213 117.33 16.2066C116.682 16.2372 116.036 16.1223 115.438 15.8704C114.84 15.6185 114.305 15.2359 113.874 14.7506C112.982 13.6419 112.532 12.2413 112.61 10.8192V3.53897H116.967V10.2732C116.934 10.8893 117.14 11.4943 117.541 11.9622C117.947 12.3559 118.49 12.576 119.055 12.576C119.62 12.576 120.163 12.3559 120.569 11.9622C120.962 11.4907 121.162 10.8869 121.128 10.2732V3.52441H125.528Z" fill="#F8D319"/>
<path d="M135.433 13.243V15.427C135.433 15.6317 135.351 15.828 135.207 15.9727C135.063 16.1174 134.867 16.1987 134.663 16.1987H133.53C130.325 16.1987 128.723 14.6092 128.723 11.4302V8.06668C128.724 7.96473 128.705 7.86359 128.667 7.76912C128.628 7.67465 128.572 7.58872 128.5 7.51629C128.429 7.44386 128.343 7.38636 128.25 7.34712C128.156 7.30789 128.055 7.28769 127.953 7.28769V7.28769C127.749 7.28769 127.553 7.20639 127.409 7.06166C127.265 6.91694 127.184 6.72065 127.184 6.51598V4.41199C127.186 4.20858 127.267 4.01416 127.412 3.871C127.556 3.72785 127.75 3.64755 127.953 3.64756V3.64756C128.055 3.64756 128.156 3.62736 128.25 3.58813C128.343 3.54889 128.429 3.49139 128.5 3.41896C128.572 3.34653 128.628 3.26059 128.667 3.16612C128.705 3.07165 128.724 2.97052 128.723 2.86857V1.36155C128.725 1.15622 128.808 0.959942 128.953 0.815424C129.099 0.670906 129.295 0.589835 129.5 0.589844H132.361C132.565 0.591742 132.759 0.673657 132.903 0.817971C133.047 0.962284 133.129 1.15747 133.131 1.36155V2.86129C133.129 2.96385 133.147 3.06577 133.185 3.16108C133.223 3.2564 133.279 3.3432 133.351 3.41641C133.423 3.48961 133.508 3.54776 133.602 3.58745C133.697 3.62714 133.798 3.64757 133.9 3.64756H134.627C134.728 3.64756 134.828 3.66752 134.921 3.7063C135.014 3.74508 135.099 3.80193 135.171 3.87358C135.242 3.94524 135.299 4.03032 135.338 4.12395C135.376 4.21757 135.396 4.31792 135.396 4.41927V6.51598C135.396 6.71815 135.317 6.91227 135.176 7.05658C135.035 7.20089 134.843 7.28388 134.641 7.28769H133.915C133.813 7.28769 133.713 7.30789 133.619 7.34712C133.525 7.38636 133.44 7.44386 133.368 7.51629C133.297 7.58872 133.24 7.67465 133.202 7.76912C133.163 7.86359 133.144 7.96473 133.145 8.06668V11.503C133.126 11.7667 133.209 12.0277 133.378 12.231C133.606 12.3979 133.888 12.4756 134.169 12.4494H134.677C134.882 12.4551 135.076 12.5417 135.218 12.6903C135.359 12.839 135.436 13.0376 135.433 13.243V13.243Z" fill="#F8D319"/>
<path d="M139.753 15.6383C138.928 15.3069 138.205 14.7648 137.654 14.0657C137.367 13.698 137.144 13.2845 136.993 12.8426C136.955 12.7264 136.944 12.6025 136.961 12.4812C136.979 12.3598 137.026 12.2444 137.096 12.1444C137.167 12.0444 137.26 11.9625 137.369 11.9054C137.477 11.8484 137.597 11.8178 137.72 11.8161H140.472C140.615 11.8161 140.756 11.8564 140.878 11.9323C141 12.0082 141.098 12.1167 141.161 12.2457C141.256 12.4508 141.404 12.6268 141.59 12.7553C141.934 12.9904 142.343 13.1102 142.759 13.0975C143.056 13.1105 143.35 13.0317 143.601 12.8718C143.697 12.8071 143.776 12.7205 143.831 12.6192C143.887 12.518 143.917 12.4049 143.921 12.2893C143.928 12.1278 143.881 11.9686 143.787 11.8368C143.694 11.705 143.56 11.6081 143.405 11.5613C142.854 11.3511 142.285 11.1879 141.706 11.0735C140.947 10.9273 140.199 10.7253 139.47 10.4693C138.869 10.2368 138.335 9.85914 137.916 9.36996C137.452 8.78692 137.217 8.05421 137.255 7.30964C137.248 6.58725 137.458 5.87946 137.858 5.27845C138.304 4.63671 138.92 4.13248 139.637 3.82239C140.532 3.44502 141.498 3.26382 142.469 3.29093C143.86 3.20991 145.233 3.6395 146.332 4.49946C147.017 5.07066 147.522 5.82957 147.784 6.68354C147.82 6.79896 147.829 6.92123 147.81 7.04066C147.79 7.16009 147.744 7.27339 147.673 7.37158C147.603 7.46978 147.51 7.55018 147.404 7.6064C147.297 7.66262 147.178 7.69313 147.058 7.6955H144.596C144.445 7.70799 144.293 7.67256 144.163 7.5942C144.033 7.51584 143.93 7.39849 143.87 7.25868C143.779 7.06757 143.648 6.89863 143.485 6.76362C143.163 6.53064 142.771 6.41505 142.374 6.43601C142.089 6.4187 141.805 6.48987 141.561 6.63986C141.471 6.70202 141.397 6.78594 141.348 6.88389C141.298 6.98184 141.274 7.09069 141.278 7.20044C141.28 7.35453 141.332 7.50382 141.424 7.6268C141.517 7.74978 141.646 7.84011 141.793 7.88478C142.327 8.10268 142.882 8.26373 143.449 8.36528C144.219 8.52331 144.977 8.73992 145.714 9.01323C146.336 9.27043 146.885 9.67813 147.312 10.1999C147.797 10.8201 148.04 11.5969 147.994 12.384C148.003 13.0942 147.779 13.7875 147.355 14.3569C146.889 14.9718 146.264 15.4475 145.547 15.7329C144.671 16.0851 143.732 16.2559 142.788 16.2353C141.746 16.2436 140.714 16.0406 139.753 15.6383V15.6383Z" fill="#F8D319"/>
<path d="M104.717 14.8883C104.063 14.4104 103.541 13.7742 103.199 13.0391C103.669 13.1943 104.157 13.2873 104.651 13.3157C104.848 13.3157 105.044 13.3157 105.225 13.3157C105.742 13.3043 106.255 13.2109 106.743 13.0391C106.193 13.7808 105.505 14.4088 104.717 14.8883V14.8883Z" fill="white"/>
<path d="M103.199 13.0391C103.541 13.7742 104.063 14.4104 104.717 14.8883C105.505 14.4088 106.193 13.7808 106.743 13.0391M103.206 13.0391C103.676 13.1943 104.165 13.2873 104.659 13.3157M103.206 13.0391L104.303 13.8399L104.644 13.3448M106.743 13.0391C106.255 13.2134 105.743 13.3092 105.225 13.323M106.743 13.0391L105.508 13.8399L105.218 13.3521M104.644 13.3521C104.84 13.3521 105.036 13.3521 105.218 13.3521" stroke="#EDE8FF" stroke-width="2" stroke-linejoin="round"/>
<path d="M106.256 13.6802H107.33C108.131 13.3351 108.96 13.0575 109.807 12.8503L109.131 13.8404C108.715 14.2582 108.255 14.6293 107.759 14.947C107.523 15.0673 107.281 15.1742 107.033 15.2673L106.125 14.947L106.314 15.7624L103.257 15.6677L103.525 14.8232C103.275 15.0486 102.969 15.202 102.64 15.2673C101.789 14.5202 100.993 13.7124 100.258 12.8503L100.904 12.5591L101.347 11.9912L101.884 13.0978L102.705 14.1243L103.112 13.8404L103.424 13.5929L103.947 14.3209L104.716 15.0926L106.016 13.9787L106.256 13.6802Z" fill="#CA872C"/>
<path d="M107.068 14.1753C107.093 13.9841 107.186 13.8083 107.33 13.6802M107.33 13.6802H106.255L106.008 13.9787M107.33 13.6802C108.131 13.3351 108.959 13.0575 109.806 12.8503L109.131 13.8404C108.715 14.2582 108.254 14.6293 107.758 14.947C107.522 15.0673 107.28 15.1742 107.032 15.2673L106.124 14.947M106.124 14.947L106.016 13.9787M106.168 14.947L106.357 15.7624L103.3 15.6677L103.568 14.8232M106.016 13.9787L104.73 15.0999L103.961 14.3282M103.568 14.8232L103.648 14.5757L103.961 14.3282M103.568 14.8232C103.318 15.0486 103.012 15.202 102.683 15.2673C101.832 14.5202 101.036 13.7124 100.301 12.8503L100.947 12.5591L101.39 11.9912L101.927 13.0978L102.915 14.3282L102.683 14.1753L103.111 13.8404L103.423 13.5929L103.946 14.3209" stroke="#3E2916" stroke-width="0.05" stroke-linejoin="round"/>
<path d="M104.643 13.7819C104.546 13.6661 104.463 13.539 104.396 13.4033H105.289C105.229 13.5412 105.149 13.6689 105.05 13.7819M104.614 13.7819L104.367 14.6264L104.73 15.2234C104.89 15.0559 105.289 14.5318 105.289 14.5318L105.05 13.8037M104.614 13.8037C104.767 13.9712 104.905 13.9712 105.05 13.8037" stroke="white" stroke-width="2" stroke-linejoin="round"/>
<path d="M101.66 12.712C101.796 12.4108 101.988 12.1389 102.227 11.9111C103.33 13.1706 104.158 13.7458 105.029 15.5513C104.559 15.1055 104.017 14.7435 103.425 14.4811C103.533 14.4492 103.631 14.3889 103.708 14.3063C103.172 13.6089 102.467 13.0601 101.66 12.712Z" fill="#CA872C" stroke="#3E2713" stroke-width="0.05" stroke-linejoin="round"/>
<path d="M108.267 12.865C108.158 12.5559 107.993 12.2696 107.781 12.0205C106.568 13.1708 105.682 13.6731 104.658 15.3913C105.167 14.9908 105.739 14.6783 106.35 14.4667C106.245 14.4287 106.154 14.3603 106.089 14.2701C106.684 13.6235 107.434 13.1399 108.267 12.865V12.865Z" fill="#CA872C" stroke="#3E2713" stroke-width="0.05" stroke-linejoin="round"/>
<path d="M112.08 8.74415C112.083 10.2192 111.65 11.662 110.834 12.8899C110.019 14.1178 108.859 15.0756 107.5 15.642C106.142 16.2085 104.646 16.3582 103.203 16.0722C101.76 15.7862 100.433 15.0774 99.392 14.0353C98.3506 12.9933 97.641 11.665 97.3529 10.2185C97.0648 8.77194 97.2112 7.27225 97.7736 5.90918C98.336 4.54611 99.289 3.38093 100.512 2.56112C101.735 1.74131 103.173 1.30371 104.645 1.30371C106.614 1.30371 108.503 2.08714 109.897 3.48208C111.291 4.87701 112.076 6.76948 112.08 8.74415V8.74415ZM99.0679 8.74415C99.0693 9.84968 99.3976 10.93 100.011 11.8485C100.625 12.767 101.496 13.4825 102.516 13.9046C103.535 14.3267 104.656 14.4364 105.737 14.2198C106.818 14.0032 107.811 13.4701 108.591 12.6879C109.37 11.9057 109.9 10.9094 110.115 9.82499C110.329 8.74059 110.218 7.61675 109.796 6.59551C109.374 5.57427 108.659 4.70146 107.742 4.08741C106.825 3.47336 105.747 3.14562 104.645 3.14562C103.912 3.14562 103.186 3.29048 102.509 3.57192C101.832 3.85336 101.217 4.26586 100.699 4.78583C100.181 5.3058 99.7701 5.92303 99.4903 6.60223C99.2105 7.28144 99.0669 8.00928 99.0679 8.74415V8.74415Z" fill="#AB6F29"/>
<path d="M109.379 8.33633C109.379 11.1465 107.454 13.3743 105.138 13.3743C102.822 13.3743 100.934 11.1465 100.934 8.33633C100.934 5.52615 102.851 3.30566 105.174 3.30566C107.498 3.30566 109.379 5.53343 109.379 8.33633Z" fill="#F6BE81" stroke="#964927" stroke-width="0.25" stroke-miterlimit="10"/>
<path d="M110.554 8.54488C110.723 7.8953 110.515 7.2779 110.088 7.16589C109.661 7.05388 109.178 7.48968 109.008 8.13926C108.839 8.78884 109.047 9.40623 109.474 9.51824C109.901 9.63025 110.384 9.19446 110.554 8.54488Z" fill="#964927"/>
<path d="M110.377 8.49885C110.507 8.00097 110.345 7.52718 110.015 7.44063C109.685 7.35408 109.313 7.68754 109.183 8.18542C109.053 8.6833 109.215 9.15708 109.544 9.24363C109.874 9.33018 110.247 8.99674 110.377 8.49885Z" fill="#F6BE81"/>
<path opacity="0.2" d="M110.046 7.73926C109.429 7.73926 109.32 8.46728 109.32 8.73665M109.32 8.73665C109.262 8.96962 109.567 9.01331 109.676 8.89682C109.872 8.67113 109.443 8.41632 109.32 8.74394V8.73665Z" stroke="black" stroke-width="0.25" stroke-miterlimit="10"/>
<path d="M100.653 9.36437C101.079 9.25236 101.288 8.63497 101.118 7.98539C100.949 7.33581 100.465 6.90002 100.038 7.01203C99.6116 7.12404 99.4031 7.74143 99.5727 8.39101C99.7423 9.04059 100.226 9.47638 100.653 9.36437Z" fill="#964927"/>
<path d="M100.582 9.08963C100.911 9.00308 101.073 8.5293 100.943 8.03142C100.813 7.53354 100.441 7.20009 100.111 7.28664C99.781 7.37319 99.6191 7.84697 99.7491 8.34486C99.8791 8.84274 100.252 9.17619 100.582 9.08963Z" fill="#F6BE81"/>
<g opacity="0.2">
<path d="M100.084 7.58602C100.614 7.46225 100.97 8.1466 100.81 8.59069C100.694 8.16844 100.549 7.74618 100.084 7.58602Z" fill="black"/>
<path d="M100.802 8.59116C100.904 8.86781 100.41 8.99885 100.323 8.69308C100.318 8.63299 100.335 8.57313 100.371 8.52472C100.407 8.47632 100.459 8.44271 100.518 8.43019C100.577 8.41768 100.638 8.42713 100.69 8.45677C100.743 8.48641 100.783 8.53419 100.802 8.59116V8.59116ZM100.802 8.59116C100.73 8.38003 100.454 8.48195 100.497 8.64212C100.541 8.80228 100.86 8.82413 100.802 8.59116Z" fill="black"/>
</g>
<path d="M102.951 7.57192C102.16 7.5064 101.383 8.49651 101.092 9.02797C100.91 8.51216 100.87 7.95658 100.976 7.41974C101.082 6.88291 101.33 6.38468 101.695 5.97754H102.951C103.278 6.51628 103.736 7.63016 102.951 7.57192Z" fill="#5D3A1C"/>
<path d="M107.28 7.43369C108.071 7.48465 108.914 8.8315 109.132 9.37024C109.545 6.93863 109.132 6.67654 108.754 6.01404L107.519 5.83203C107.113 6.34165 106.496 7.37545 107.28 7.43369Z" fill="#5D3A1C"/>
<path d="M103.628 11.2851C104.699 11.2851 105.567 10.4148 105.567 9.34129C105.567 8.26774 104.699 7.39746 103.628 7.39746C102.557 7.39746 101.689 8.26774 101.689 9.34129C101.689 10.4148 102.557 11.2851 103.628 11.2851Z" fill="#FCDEBD"/>
<path d="M104.839 9.34081C104.839 9.10034 104.768 8.86528 104.635 8.66534C104.502 8.4654 104.312 8.30957 104.091 8.21755C103.869 8.12553 103.625 8.10145 103.39 8.14836C103.155 8.19527 102.939 8.31107 102.769 8.4811C102.6 8.65113 102.484 8.86777 102.437 9.10361C102.391 9.33946 102.415 9.58391 102.506 9.80607C102.598 10.0282 102.754 10.2181 102.953 10.3517C103.152 10.4853 103.387 10.5566 103.627 10.5566" fill="#FCFCFC"/>
<path d="M104.839 9.34081C104.839 9.10034 104.768 8.86528 104.635 8.66534C104.502 8.4654 104.312 8.30957 104.091 8.21755C103.869 8.12553 103.625 8.10145 103.39 8.14836C103.155 8.19527 102.939 8.31107 102.769 8.4811C102.6 8.65113 102.484 8.86777 102.437 9.10361C102.391 9.33946 102.415 9.58391 102.506 9.80607C102.598 10.0282 102.754 10.2181 102.953 10.3517C103.152 10.4853 103.387 10.5566 103.627 10.5566" stroke="black" stroke-width="0.15"/>
<path d="M103.817 9.77021C104.054 9.77021 104.246 9.5779 104.246 9.34067C104.246 9.10344 104.054 8.91113 103.817 8.91113C103.58 8.91113 103.389 9.10344 103.389 9.34067C103.389 9.5779 103.58 9.77021 103.817 9.77021Z" fill="#ABC7E5"/>
<path d="M103.693 9.34058C103.794 9.34058 103.875 9.25909 103.875 9.15857C103.875 9.05805 103.794 8.97656 103.693 8.97656C103.593 8.97656 103.512 9.05805 103.512 9.15857C103.512 9.25909 103.593 9.34058 103.693 9.34058Z" fill="#8E908F"/>
<path d="M103.75 9.71237C103.819 9.71237 103.874 9.65696 103.874 9.58861C103.874 9.52026 103.819 9.46484 103.75 9.46484C103.682 9.46484 103.627 9.52026 103.627 9.58861C103.627 9.65696 103.682 9.71237 103.75 9.71237Z" fill="white"/>
<path d="M104.063 9.36995C104.115 9.36995 104.158 9.32758 104.158 9.27531C104.158 9.22304 104.115 9.18066 104.063 9.18066C104.011 9.18066 103.969 9.22304 103.969 9.27531C103.969 9.32758 104.011 9.36995 104.063 9.36995Z" fill="white"/>
<path d="M105.139 11.6558C105.589 11.8232 106.722 11.7723 107.673 10.2725M108.101 9.9959C108.065 9.79205 107.869 9.5154 107.375 9.9959M106.424 9.26787C106.618 9.1621 106.835 9.10668 107.056 9.10668C107.276 9.10668 107.494 9.1621 107.687 9.26787M106.424 8.99122C106.489 8.86746 106.678 8.64905 106.903 8.72913" stroke="#8C8C8C" stroke-width="0.15" stroke-miterlimit="10"/>
<path d="M105.014 8.59842C104.745 9.42109 105.246 8.30721 103.475 7.43358C104.021 7.38301 104.567 7.53023 105.014 7.84856C105.508 8.39458 105.101 8.32177 105.014 8.59842Z" fill="white"/>
<path d="M105.593 9.18774C105.743 9.1117 105.785 8.88999 105.685 8.69253C105.586 8.49508 105.384 8.39664 105.233 8.47268C105.083 8.54871 105.041 8.77042 105.141 8.96788C105.24 9.16534 105.443 9.26377 105.593 9.18774Z" fill="#D9D9D9"/>
<path d="M101.928 10.8769C101.958 10.9094 101.975 10.9524 101.975 10.9971C101.975 11.0418 101.958 11.0847 101.928 11.1172L101.666 11.3793C101.634 11.41 101.591 11.4271 101.546 11.4271C101.502 11.4271 101.459 11.41 101.427 11.3793C101.396 11.3468 101.379 11.3038 101.379 11.2592C101.379 11.2145 101.396 11.1715 101.427 11.139L101.688 10.8769C101.72 10.8462 101.763 10.8291 101.808 10.8291C101.852 10.8291 101.895 10.8462 101.928 10.8769V10.8769Z" fill="#696969"/>
<path d="M101.331 11.107L99.8578 12.5844C99.8209 12.6214 99.8209 12.6813 99.8578 12.7183L100.094 12.9551C100.131 12.9921 100.191 12.9921 100.227 12.9551L101.701 11.4776C101.738 11.4407 101.738 11.3808 101.701 11.3438L101.465 11.107C101.428 11.07 101.368 11.07 101.331 11.107Z" fill="#D9D9D9"/>
<path d="M100.542 11.2488C100.694 11.1542 100.919 11.2852 101.05 11.3653L100.905 11.54L100.963 11.7366C101.093 11.6928 101.233 11.6928 101.362 11.7366C101.798 12.1734 101.057 13.1417 100.288 12.9087L100.774 12.3554H100.731C100.697 12.338 100.667 12.3132 100.644 12.2826C100.644 12.5665 100.455 12.5665 100.353 12.5374C100.433 12.5957 100.353 12.9378 100.063 12.7413C99.7722 12.5447 99.6269 12.37 99.656 12.1152C99.685 11.8604 99.794 11.8822 99.9101 11.9113C99.8666 11.5255 100.157 11.5546 100.339 11.6274C100.302 11.3653 100.426 11.3216 100.542 11.2488Z" fill="#FBD393"/>
<path d="M100.519 12.0636V12.0127C100.222 11.4011 100.403 11.3501 100.57 11.2846C100.737 11.2191 100.948 11.321 101.079 11.4011L100.933 11.5758L100.991 11.7724M100.548 12.1C100.752 12.5077 100.977 12.3839 101.1 12.2747C101.062 12.3139 101.015 12.3436 100.964 12.3613C100.912 12.379 100.857 12.3843 100.803 12.3767M100.548 12.1C100.599 12.2188 100.689 12.3165 100.803 12.3767M100.548 12.1C100.666 11.9548 100.818 11.8421 100.991 11.7724M100.803 12.3767L100.316 12.93C101.086 13.1629 101.826 12.2019 101.391 11.7578C101.261 11.714 101.121 11.714 100.991 11.7578M99.9385 11.8962C99.8949 11.5103 100.185 11.5394 100.367 11.6122C100.416 11.8495 100.52 12.0716 100.672 12.2602C100.672 12.5805 100.447 12.5514 100.36 12.515M99.9385 11.8962C100.012 12.1409 100.159 12.357 100.36 12.515M99.9385 11.8962C100.009 12.1422 100.157 12.359 100.36 12.515M99.9385 11.8962C99.8223 11.8962 99.7061 11.8962 99.6843 12.1C99.6625 12.3039 99.7715 12.5077 100.091 12.7261C100.41 12.9445 100.469 12.5077 100.36 12.515" stroke="#974C28" stroke-width="0.05" stroke-linejoin="round"/>
<path d="M109.516 12.6394C109.363 13.1126 108.891 12.603 108.84 12.5811C108.789 12.5593 108.622 12.6394 108.535 12.7194C108.515 12.6592 108.507 12.5955 108.511 12.5321C108.515 12.4686 108.532 12.4067 108.56 12.3498C108.589 12.2929 108.628 12.2422 108.676 12.2007C108.724 12.1592 108.78 12.1276 108.84 12.1079C108.863 12.0064 108.922 11.9168 109.007 11.8564C109.091 11.7959 109.195 11.7688 109.298 11.7803C109.298 11.6856 109.428 11.5255 109.733 11.5837C109.871 11.6856 110.155 11.9332 110.111 12.1152C110.11 12.1464 110.102 12.177 110.087 12.2046C110.073 12.2322 110.052 12.2561 110.027 12.2744C110.002 12.2927 109.972 12.3049 109.942 12.3101C109.911 12.3153 109.879 12.3134 109.85 12.3045C109.875 12.3651 109.875 12.4331 109.85 12.4938C109.838 12.5262 109.821 12.556 109.797 12.5813C109.774 12.6065 109.746 12.6266 109.715 12.6403C109.683 12.654 109.649 12.661 109.615 12.6608C109.581 12.6607 109.547 12.6533 109.516 12.6394V12.6394Z" fill="#F7C183"/>
<path d="M108.84 12.1079C108.99 12.1276 109.132 12.1874 109.251 12.2809C109.369 12.3744 109.461 12.4982 109.516 12.6394M108.84 12.1079C108.863 12.0064 108.922 11.9168 109.007 11.8564C109.091 11.7959 109.195 11.7688 109.298 11.7803M108.84 12.1079C108.78 12.1276 108.724 12.1592 108.676 12.2007C108.628 12.2422 108.589 12.2929 108.56 12.3498C108.532 12.4067 108.515 12.4686 108.511 12.5321C108.507 12.5955 108.515 12.6592 108.535 12.7194C108.622 12.6394 108.797 12.552 108.84 12.5811C108.884 12.6102 109.363 13.1126 109.516 12.6394M109.516 12.6394C109.547 12.6533 109.581 12.6607 109.615 12.6608C109.649 12.661 109.683 12.654 109.715 12.6403C109.746 12.6266 109.774 12.6065 109.797 12.5813C109.821 12.556 109.838 12.5262 109.85 12.4938C109.875 12.4331 109.875 12.3651 109.85 12.3045M109.298 11.7803C109.298 11.6856 109.428 11.5255 109.733 11.5837C109.871 11.6856 110.155 11.9332 110.111 12.1152C110.11 12.1464 110.102 12.177 110.087 12.2046C110.073 12.2322 110.052 12.2561 110.027 12.2744C110.002 12.2927 109.972 12.3049 109.942 12.3101C109.911 12.3153 109.879 12.3134 109.85 12.3045M109.298 11.7803C109.528 11.8991 109.719 12.0809 109.85 12.3045" stroke="#974C28" stroke-width="0.05" stroke-linejoin="round"/>
<path d="M105.61 4.04795C106.085 3.66206 106.677 3.44904 107.288 3.44369C108.631 3.44369 109.771 4.52845 110.12 6.14467C110.15 6.28506 110.153 6.43017 110.126 6.57145C110.1 6.71274 110.046 6.84734 109.967 6.96734C109.903 7.07602 109.812 7.16606 109.702 7.2286C109.593 7.29115 109.469 7.32405 109.343 7.32407C107.796 4.04795 99.0243 11.583 99.0243 5.94082C100.818 5.94082 102.546 6.66885 103.911 5.51129L105.61 4.04795ZM101.529 3.7349L102.001 1.01936C102.027 0.872374 102.082 0.732107 102.163 0.606994C102.244 0.481882 102.35 0.374509 102.473 0.291334C102.598 0.207243 102.738 0.149085 102.885 0.120319C103.032 0.0915524 103.184 0.092766 103.33 0.123887L106.649 0.851914C106.878 0.897167 107.087 1.01484 107.245 1.18774C107.404 1.36064 107.502 1.57971 107.527 1.81291L108.195 3.7349C108.079 3.7349 107.186 4.04795 107.063 4.04795C106.337 4.04795 105.08 5.88986 104.681 5.22008C104.681 5.22008 105.124 5.08175 103.897 6.14467C102.67 7.20759 101.529 6.77077 99.8448 6.77077C99.7355 6.77173 99.6271 6.75098 99.5258 6.7097C99.4245 6.66842 99.3324 6.60744 99.2548 6.53028C99.1771 6.45311 99.1155 6.36129 99.0735 6.26012C99.0314 6.15895 99.0098 6.05043 99.0098 5.94082C99.0864 5.32712 99.3855 4.76313 99.8502 4.35632C100.315 3.94951 100.913 3.72832 101.529 3.7349V3.7349Z" fill="#5E5E5E"/>
<path d="M103.264 3.3565L103.446 1.90044L102.857 1.01953L104.092 1.52915L106.742 1.46363L103.903 1.90044L103.177 3.62587L103.264 3.3565Z" fill="#D9D9D9"/>
<path opacity="0.2" d="M101.572 3.75C101.514 4.79836 102.749 6.27625 108.107 3.75" stroke="#EDE8FF" stroke-width="0.25" stroke-linejoin="round"/>
<path opacity="0.4" d="M103.664 11.7145C104.971 11.7145 106.031 10.6519 106.031 9.34114C106.031 8.03037 104.971 6.96777 103.664 6.96777C102.357 6.96777 101.297 8.03037 101.297 9.34114C101.297 10.6519 102.357 11.7145 103.664 11.7145Z" fill="#D9D9D9" stroke="black" stroke-width="0.25"/>
<path d="M103.627 10.5566C103.786 10.5566 103.944 10.5252 104.091 10.4641C104.238 10.403 104.372 10.3134 104.484 10.2005C104.597 10.0876 104.686 9.9536 104.747 9.80609C104.808 9.65858 104.84 9.50048 104.84 9.34082" fill="#FCFCFC"/>
<path d="M103.627 10.5566C103.786 10.5566 103.944 10.5252 104.091 10.4641C104.238 10.403 104.372 10.3134 104.484 10.2005C104.597 10.0876 104.686 9.9536 104.747 9.80609C104.808 9.65858 104.84 9.50048 104.84 9.34082" stroke="black" stroke-width="0.15" stroke-miterlimit="10"/>
<path d="M104.717 14.8883C104.063 14.4104 103.541 13.7742 103.199 13.0391C103.669 13.1943 104.157 13.2873 104.651 13.3157C104.848 13.3157 105.044 13.3157 105.225 13.3157C105.742 13.3043 106.255 13.2109 106.743 13.0391C106.193 13.7808 105.505 14.4088 104.717 14.8883V14.8883Z" fill="white"/>
<path d="M103.199 13.0391C103.541 13.7742 104.063 14.4104 104.717 14.8883C105.505 14.4088 106.193 13.7808 106.743 13.0391M103.206 13.0391C103.676 13.1943 104.165 13.2873 104.659 13.3157M103.206 13.0391L104.303 13.8399L104.644 13.3448M106.743 13.0391C106.255 13.2134 105.743 13.3092 105.225 13.323M106.743 13.0391L105.508 13.8399L105.218 13.3521M104.644 13.3521C104.84 13.3521 105.036 13.3521 105.218 13.3521" stroke="#EDE8FF" stroke-width="2" stroke-linejoin="round"/>
<path d="M106.256 13.6802H107.33C108.131 13.3351 108.96 13.0575 109.807 12.8503L109.131 13.8404C108.715 14.2582 108.255 14.6293 107.759 14.947C107.523 15.0673 107.281 15.1742 107.033 15.2673L106.125 14.947L106.314 15.7624L103.257 15.6677L103.525 14.8232C103.275 15.0486 102.969 15.202 102.64 15.2673C101.789 14.5202 100.993 13.7124 100.258 12.8503L100.904 12.5591L101.347 11.9912L101.884 13.0978L102.705 14.1243L103.112 13.8404L103.424 13.5929L103.947 14.3209L104.716 15.0926L106.016 13.9787L106.256 13.6802Z" fill="#CA872C"/>
<path d="M107.068 14.1753C107.093 13.9841 107.186 13.8083 107.33 13.6802M107.33 13.6802H106.255L106.008 13.9787M107.33 13.6802C108.131 13.3351 108.959 13.0575 109.806 12.8503L109.131 13.8404C108.715 14.2582 108.254 14.6293 107.758 14.947C107.522 15.0673 107.28 15.1742 107.032 15.2673L106.124 14.947M106.124 14.947L106.016 13.9787M106.168 14.947L106.357 15.7624L103.3 15.6677L103.568 14.8232M106.016 13.9787L104.73 15.0999L103.961 14.3282M103.568 14.8232L103.648 14.5757L103.961 14.3282M103.568 14.8232C103.318 15.0486 103.012 15.202 102.683 15.2673C101.832 14.5202 101.036 13.7124 100.301 12.8503L100.947 12.5591L101.39 11.9912L101.927 13.0978L102.915 14.3282L102.683 14.1753L103.111 13.8404L103.423 13.5929L103.946 14.3209" stroke="#3E2916" stroke-width="0.05" stroke-linejoin="round"/>
<path d="M104.643 13.7819C104.546 13.6661 104.463 13.539 104.396 13.4033H105.289C105.229 13.5412 105.149 13.6689 105.05 13.7819L105.289 14.5099C105.289 14.5099 104.89 15.0341 104.73 15.2015L104.367 14.6046L104.643 13.7819Z" fill="#FF0202"/>
<path d="M104.643 13.7819C104.546 13.6661 104.463 13.539 104.396 13.4033H105.289C105.229 13.5412 105.149 13.6689 105.05 13.7819M104.614 13.7819L104.367 14.6264L104.73 15.2234C104.89 15.0559 105.289 14.5318 105.289 14.5318L105.05 13.8037M104.614 13.8037C104.767 13.9712 104.905 13.9712 105.05 13.8037" stroke="white" stroke-width="2" stroke-linejoin="round"/>
<path d="M104.643 13.7819C104.546 13.6661 104.463 13.539 104.396 13.4033H105.289C105.229 13.5412 105.149 13.6689 105.05 13.7819L105.289 14.5099C105.289 14.5099 104.89 15.0341 104.73 15.2015L104.367 14.6046L104.643 13.7819Z" fill="#FF0202"/>
<path d="M101.66 12.712C101.796 12.4108 101.988 12.1389 102.227 11.9111C103.33 13.1706 104.158 13.7458 105.029 15.5513C104.559 15.1055 104.017 14.7435 103.425 14.4811C103.533 14.4492 103.631 14.3889 103.708 14.3063C103.172 13.6089 102.467 13.0601 101.66 12.712Z" fill="#CA872C" stroke="#3E2713" stroke-width="0.05" stroke-linejoin="round"/>
<path d="M108.267 12.865C108.158 12.5559 107.993 12.2696 107.781 12.0205C106.568 13.1708 105.682 13.6731 104.658 15.3913C105.167 14.9908 105.739 14.6783 106.35 14.4667C106.245 14.4287 106.154 14.3603 106.089 14.2701C106.684 13.6235 107.434 13.1399 108.267 12.865V12.865Z" fill="#CA872C" stroke="#3E2713" stroke-width="0.05" stroke-linejoin="round"/>
<path d="M105.137 13.3737C107.479 13.3737 109.378 11.1182 109.378 8.3358C109.378 5.55342 107.479 3.29785 105.137 3.29785C102.795 3.29785 100.896 5.55342 100.896 8.3358C100.896 11.1182 102.795 13.3737 105.137 13.3737Z" fill="#F6BE81"/>
<path d="M109.378 8.33642C109.436 10.7462 107.722 13.4326 105.137 13.4326C99.4152 13.1996 99.4152 3.5096 105.137 3.24023C107.722 3.24023 109.436 5.91937 109.378 8.33642V8.33642ZM109.378 8.33642C109.378 5.95577 107.686 3.33488 105.137 3.34944C99.6476 3.58969 99.6476 13.0904 105.137 13.3307C107.686 13.3307 109.407 10.7171 109.378 8.33642V8.33642Z" fill="#964927"/>
<path d="M110.554 8.54488C110.723 7.8953 110.515 7.2779 110.088 7.16589C109.661 7.05388 109.178 7.48968 109.008 8.13926C108.839 8.78884 109.047 9.40623 109.474 9.51824C109.901 9.63025 110.384 9.19446 110.554 8.54488Z" fill="#964927"/>
<path d="M110.377 8.49885C110.507 8.00097 110.345 7.52718 110.015 7.44063C109.685 7.35408 109.313 7.68754 109.183 8.18542C109.053 8.6833 109.215 9.15708 109.544 9.24363C109.874 9.33018 110.247 8.99674 110.377 8.49885Z" fill="#F6BE81"/>
<g opacity="0.2">
<path d="M110.105 7.83366C109.502 7.92102 109.516 8.52528 109.458 9.01306C109.066 8.61993 109.567 7.68805 110.105 7.83366Z" fill="black"/>
<path d="M109.43 8.8379C109.372 9.0563 109.735 9.06358 109.75 8.89614C109.764 8.72869 109.51 8.68501 109.43 8.8379ZM109.43 8.8379C109.43 8.74325 109.525 8.57581 109.692 8.59765C109.729 8.60214 109.765 8.61499 109.797 8.63525C109.829 8.65551 109.856 8.68268 109.877 8.71477C109.897 8.74687 109.909 8.78307 109.914 8.82074C109.918 8.85842 109.914 8.89661 109.902 8.93254C109.815 9.22375 109.336 9.12183 109.43 8.8379Z" fill="black"/>
</g>
<path d="M100.653 9.36437C101.079 9.25236 101.288 8.63497 101.118 7.98539C100.949 7.33581 100.465 6.90002 100.038 7.01203C99.6116 7.12404 99.4031 7.74143 99.5727 8.39101C99.7423 9.04059 100.226 9.47638 100.653 9.36437Z" fill="#964927"/>
<path d="M100.582 9.08963C100.911 9.00308 101.073 8.5293 100.943 8.03142C100.813 7.53354 100.441 7.20009 100.111 7.28664C99.781 7.37319 99.6191 7.84697 99.7491 8.34486C99.8791 8.84274 100.252 9.17619 100.582 9.08963Z" fill="#F6BE81"/>
<path opacity="0.2" d="M99.9316 7.6084C100.549 7.6448 100.658 8.33643 100.658 8.61308M100.658 8.61308C100.723 8.84604 100.418 8.88973 100.309 8.76596C100.2 8.6422 100.527 8.28546 100.651 8.61308H100.658Z" stroke="black" stroke-width="0.25" stroke-miterlimit="10"/>
<path d="M102.916 7.78321C102.132 7.72497 101.355 8.71509 101.064 9.23927C100.874 8.72147 100.829 8.1614 100.934 7.6198C101.039 7.07821 101.29 6.57577 101.66 6.16699H102.909C103.25 6.72757 103.707 7.84145 102.916 7.78321Z" fill="#5D3A1C"/>
<path d="M107.389 7.65146C108.181 7.70971 109.023 9.04928 109.241 9.5953C109.655 7.15641 109.241 6.9016 108.863 6.23909L107.629 6.0498C107.222 6.55942 106.605 7.6005 107.389 7.65146Z" fill="#5D3A1C"/>
<path d="M103.628 11.2851C104.699 11.2851 105.567 10.4148 105.567 9.34129C105.567 8.26774 104.699 7.39746 103.628 7.39746C102.557 7.39746 101.689 8.26774 101.689 9.34129C101.689 10.4148 102.557 11.2851 103.628 11.2851Z" fill="#FCDEBD"/>
<path d="M103.627 7.39746C106.532 7.23002 106.358 11.4235 103.627 11.4599C100.897 11.4963 100.723 7.2373 103.627 7.39746ZM103.627 7.39746C103.153 7.46106 102.717 7.69139 102.396 8.0474C102.076 8.4034 101.892 8.86194 101.877 9.34129C101.906 9.78804 102.103 10.2071 102.429 10.5133C102.755 10.8195 103.184 10.9899 103.631 10.9899C104.077 10.9899 104.507 10.8195 104.833 10.5133C105.159 10.2071 105.356 9.78804 105.384 9.34129C105.368 8.8613 105.183 8.40265 104.861 8.04679C104.539 7.69093 104.102 7.46087 103.627 7.39746V7.39746Z" fill="#EDE8FF"/>
<path d="M103.626 10.5571C103.465 10.559 103.305 10.5291 103.156 10.4691C103.006 10.409 102.87 10.32 102.754 10.2071C102.639 10.0942 102.547 9.95961 102.484 9.81107C102.42 9.66252 102.387 9.5029 102.385 9.34132C102.399 9.02344 102.531 8.7224 102.756 8.4974C102.98 8.2724 103.28 8.13974 103.597 8.12552C103.759 8.11731 103.922 8.14303 104.073 8.20103C104.225 8.25903 104.363 8.34805 104.478 8.46241C104.594 8.57678 104.684 8.71399 104.744 8.8653C104.803 9.01662 104.831 9.17873 104.825 9.34132C104.814 9.6579 104.685 9.95884 104.463 10.1842C104.241 10.4095 103.942 10.5427 103.626 10.5571V10.5571Z" fill="#FCFCFC"/>
<path d="M103.628 10.5565C103.457 10.5696 103.286 10.5473 103.124 10.4908C102.963 10.4344 102.814 10.3451 102.689 10.2285C102.563 10.112 102.463 9.97072 102.395 9.81356C102.326 9.65639 102.291 9.48674 102.291 9.31524C102.291 9.14374 102.326 8.97408 102.395 8.81692C102.463 8.65976 102.563 8.51847 102.689 8.40193C102.814 8.28538 102.963 8.19609 103.124 8.13965C103.286 8.08321 103.457 8.06085 103.628 8.07395C103.94 8.09792 104.231 8.2391 104.444 8.46925C104.656 8.69939 104.774 9.00153 104.774 9.31524C104.774 9.62895 104.656 9.93109 104.444 10.1612C104.231 10.3914 103.94 10.5326 103.628 10.5565V10.5565ZM103.628 10.5565C105.174 10.5056 105.24 8.1686 103.628 8.17588C103.329 8.19933 103.05 8.3349 102.846 8.55555C102.643 8.77619 102.53 9.06567 102.53 9.3662C102.53 9.66673 102.643 9.95621 102.846 10.1769C103.05 10.3975 103.329 10.5331 103.628 10.5565Z" fill="#666666"/>
<path d="M103.817 9.77021C104.054 9.77021 104.246 9.5779 104.246 9.34067C104.246 9.10344 104.054 8.91113 103.817 8.91113C103.58 8.91113 103.389 9.10344 103.389 9.34067C103.389 9.5779 103.58 9.77021 103.817 9.77021Z" fill="#ABC7E5"/>
<path d="M103.693 9.34058C103.794 9.34058 103.875 9.25909 103.875 9.15857C103.875 9.05805 103.794 8.97656 103.693 8.97656C103.593 8.97656 103.512 9.05805 103.512 9.15857C103.512 9.25909 103.593 9.34058 103.693 9.34058Z" fill="#8E908F"/>
<path d="M103.75 9.71237C103.819 9.71237 103.874 9.65696 103.874 9.58861C103.874 9.52026 103.819 9.46484 103.75 9.46484C103.682 9.46484 103.627 9.52026 103.627 9.58861C103.627 9.65696 103.682 9.71237 103.75 9.71237Z" fill="white"/>
<path d="M104.063 9.36995C104.115 9.36995 104.158 9.32758 104.158 9.27531C104.158 9.22304 104.115 9.18066 104.063 9.18066C104.011 9.18066 103.969 9.22304 103.969 9.27531C103.969 9.32758 104.011 9.36995 104.063 9.36995Z" fill="white"/>
<path d="M104.441 12.0639C105.105 12.2205 105.802 12.1247 106.399 11.7952C106.996 11.4657 107.45 10.9259 107.673 10.2803C107.611 10.6297 107.473 10.9609 107.267 11.2495C107.061 11.5381 106.793 11.7767 106.483 11.9479C106.173 12.119 105.829 12.2183 105.475 12.2383C105.122 12.2584 104.769 12.1988 104.441 12.0639V12.0639Z" fill="#8C8C8C"/>
<path d="M106.408 9.31198C106.582 9.15693 106.807 9.07129 107.04 9.07129C107.273 9.07129 107.498 9.15693 107.672 9.31198C107.254 9.23193 106.826 9.23193 106.408 9.31198Z" fill="#8C8C8C"/>
<path d="M106.408 9.0348C106.408 8.79456 106.713 8.56887 106.887 8.77272C106.662 8.8528 106.626 8.94016 106.408 9.0348Z" fill="#8C8C8C"/>
<path d="M101.928 10.8769C101.958 10.9094 101.975 10.9524 101.975 10.9971C101.975 11.0418 101.958 11.0847 101.928 11.1172L101.666 11.3793C101.634 11.41 101.591 11.4271 101.546 11.4271C101.502 11.4271 101.459 11.41 101.427 11.3793C101.396 11.3468 101.379 11.3038 101.379 11.2592C101.379 11.2145 101.396 11.1715 101.427 11.139L101.688 10.8769C101.72 10.8462 101.763 10.8291 101.808 10.8291C101.852 10.8291 101.895 10.8462 101.928 10.8769V10.8769Z" fill="#696969"/>
<path d="M101.331 11.107L99.8578 12.5844C99.8209 12.6214 99.8209 12.6813 99.8578 12.7183L100.094 12.9551C100.131 12.9921 100.191 12.9921 100.227 12.9551L101.701 11.4776C101.738 11.4407 101.738 11.3808 101.701 11.3438L101.465 11.107C101.428 11.07 101.368 11.07 101.331 11.107Z" fill="#D9D9D9"/>
<path d="M100.542 11.2488C100.694 11.1542 100.919 11.2852 101.05 11.3653L100.905 11.54L100.963 11.7366C101.093 11.6928 101.233 11.6928 101.362 11.7366C101.798 12.1734 101.057 13.1417 100.288 12.9087L100.774 12.3554H100.731C100.697 12.338 100.667 12.3132 100.644 12.2826C100.644 12.5665 100.455 12.5665 100.353 12.5374C100.433 12.5957 100.353 12.9378 100.063 12.7413C99.7722 12.5447 99.6269 12.37 99.656 12.1152C99.685 11.8604 99.794 11.8822 99.9101 11.9113C99.8666 11.5255 100.157 11.5546 100.339 11.6274C100.302 11.3653 100.426 11.3216 100.542 11.2488Z" fill="#FBD393"/>
<path d="M100.519 12.0636V12.0127C100.222 11.4011 100.403 11.3501 100.57 11.2846C100.737 11.2191 100.948 11.321 101.079 11.4011L100.933 11.5758L100.991 11.7724M100.548 12.1C100.752 12.5077 100.977 12.3839 101.1 12.2747C101.062 12.3139 101.015 12.3436 100.964 12.3613C100.912 12.379 100.857 12.3843 100.803 12.3767M100.548 12.1C100.599 12.2188 100.689 12.3165 100.803 12.3767M100.548 12.1C100.666 11.9548 100.818 11.8421 100.991 11.7724M100.803 12.3767L100.316 12.93C101.086 13.1629 101.826 12.2019 101.391 11.7578C101.261 11.714 101.121 11.714 100.991 11.7578M99.9385 11.8962C99.8949 11.5103 100.185 11.5394 100.367 11.6122C100.416 11.8495 100.52 12.0716 100.672 12.2602C100.672 12.5805 100.447 12.5514 100.36 12.515M99.9385 11.8962C100.012 12.1409 100.159 12.357 100.36 12.515M99.9385 11.8962C100.009 12.1422 100.157 12.359 100.36 12.515M99.9385 11.8962C99.8223 11.8962 99.7061 11.8962 99.6843 12.1C99.6625 12.3039 99.7715 12.5077 100.091 12.7261C100.41 12.9445 100.469 12.5077 100.36 12.515" stroke="#974C28" stroke-width="0.05" stroke-linejoin="round"/>
<path d="M109.516 12.6394C109.363 13.1126 108.891 12.603 108.84 12.5811C108.789 12.5593 108.622 12.6394 108.535 12.7194C108.515 12.6592 108.507 12.5955 108.511 12.5321C108.515 12.4686 108.532 12.4067 108.56 12.3498C108.589 12.2929 108.628 12.2422 108.676 12.2007C108.724 12.1592 108.78 12.1276 108.84 12.1079C108.863 12.0064 108.922 11.9168 109.007 11.8564C109.091 11.7959 109.195 11.7688 109.298 11.7803C109.298 11.6856 109.428 11.5255 109.733 11.5837C109.871 11.6856 110.155 11.9332 110.111 12.1152C110.11 12.1464 110.102 12.177 110.087 12.2046C110.073 12.2322 110.052 12.2561 110.027 12.2744C110.002 12.2927 109.972 12.3049 109.942 12.3101C109.911 12.3153 109.879 12.3134 109.85 12.3045C109.875 12.3651 109.875 12.4331 109.85 12.4938C109.838 12.5262 109.821 12.556 109.797 12.5813C109.774 12.6065 109.746 12.6266 109.715 12.6403C109.683 12.654 109.649 12.661 109.615 12.6608C109.581 12.6607 109.547 12.6533 109.516 12.6394V12.6394Z" fill="#F7C183"/>
<path d="M108.84 12.1079C108.99 12.1276 109.132 12.1874 109.251 12.2809C109.369 12.3744 109.461 12.4982 109.516 12.6394M108.84 12.1079C108.863 12.0064 108.922 11.9168 109.007 11.8564C109.091 11.7959 109.195 11.7688 109.298 11.7803M108.84 12.1079C108.78 12.1276 108.724 12.1592 108.676 12.2007C108.628 12.2422 108.589 12.2929 108.56 12.3498C108.532 12.4067 108.515 12.4686 108.511 12.5321C108.507 12.5955 108.515 12.6592 108.535 12.7194C108.622 12.6394 108.797 12.552 108.84 12.5811C108.884 12.6102 109.363 13.1126 109.516 12.6394M109.516 12.6394C109.547 12.6533 109.581 12.6607 109.615 12.6608C109.649 12.661 109.683 12.654 109.715 12.6403C109.746 12.6266 109.774 12.6065 109.797 12.5813C109.821 12.556 109.838 12.5262 109.85 12.4938C109.875 12.4331 109.875 12.3651 109.85 12.3045M109.298 11.7803C109.298 11.6856 109.428 11.5255 109.733 11.5837C109.871 11.6856 110.155 11.9332 110.111 12.1152C110.11 12.1464 110.102 12.177 110.087 12.2046C110.073 12.2322 110.052 12.2561 110.027 12.2744C110.002 12.2927 109.972 12.3049 109.942 12.3101C109.911 12.3153 109.879 12.3134 109.85 12.3045M109.298 11.7803C109.528 11.8991 109.719 12.0809 109.85 12.3045" stroke="#974C28" stroke-width="0.05" stroke-linejoin="round"/>
<path d="M105.61 4.04795C106.085 3.66206 106.677 3.44904 107.288 3.44369C108.631 3.44369 109.771 4.52845 110.12 6.14467C110.15 6.28506 110.153 6.43017 110.126 6.57145C110.1 6.71274 110.046 6.84734 109.967 6.96734C109.903 7.07602 109.812 7.16606 109.702 7.2286C109.593 7.29115 109.469 7.32405 109.343 7.32407C107.796 4.04795 99.0243 11.583 99.0243 5.94082C100.818 5.94082 102.546 6.66885 103.911 5.51129L105.61 4.04795ZM101.529 3.7349L102.001 1.01936C102.027 0.872374 102.082 0.732107 102.163 0.606994C102.244 0.481882 102.35 0.374509 102.473 0.291334C102.598 0.207243 102.738 0.149085 102.885 0.120319C103.032 0.0915524 103.184 0.092766 103.33 0.123887L106.649 0.851914C106.878 0.897167 107.087 1.01484 107.245 1.18774C107.404 1.36064 107.502 1.57971 107.527 1.81291L108.195 3.7349C108.079 3.7349 107.186 4.04795 107.063 4.04795C106.337 4.04795 105.08 5.88986 104.681 5.22008C104.681 5.22008 105.124 5.08175 103.897 6.14467C102.67 7.20759 101.529 6.77077 99.8448 6.77077C99.7355 6.77173 99.6271 6.75098 99.5258 6.7097C99.4245 6.66842 99.3324 6.60744 99.2548 6.53028C99.1771 6.45311 99.1155 6.36129 99.0735 6.26012C99.0314 6.15895 99.0098 6.05043 99.0098 5.94082C99.0864 5.32712 99.3855 4.76313 99.8502 4.35632C100.315 3.94951 100.913 3.72832 101.529 3.7349V3.7349Z" fill="#5E5E5E"/>
<path opacity="0.2" d="M103.446 1.87115L102.857 0.990234L103.663 1.49985L106.742 1.46345L103.838 1.7765L103.148 4.37556L103.446 1.87115Z" fill="#D9D9D9"/>
<g opacity="0.2">
<path d="M101.573 3.75C101.943 6.43642 106.605 4.3033 108.108 3.75L107.266 4.17226C105.85 4.84204 101.696 6.35634 101.551 3.75H101.573Z" fill="#EDE8FF"/>
</g>
<path d="M26.3806 14.7288C26.3114 14.7966 26.2565 14.8776 26.219 14.967C26.1814 15.0564 26.1621 15.1524 26.1621 15.2493C26.1621 15.3463 26.1814 15.4423 26.219 15.5317C26.2565 15.6211 26.3114 15.7021 26.3806 15.7699L27.5134 16.9129C27.5811 16.9834 27.6623 17.0394 27.7521 17.0777C27.842 17.116 27.9386 17.1357 28.0362 17.1357C28.1338 17.1357 28.2304 17.116 28.3202 17.0777C28.4101 17.0394 28.4913 16.9834 28.559 16.9129C28.6282 16.8451 28.6831 16.7641 28.7206 16.6747C28.7582 16.5853 28.7775 16.4893 28.7775 16.3924C28.7775 16.2954 28.7582 16.1994 28.7206 16.11C28.6831 16.0206 28.6282 15.9396 28.559 15.8718L27.419 14.7288C27.3513 14.6595 27.2706 14.6044 27.1814 14.5668C27.0923 14.5291 26.9965 14.5098 26.8998 14.5098C26.803 14.5098 26.7073 14.5291 26.6181 14.5668C26.529 14.6044 26.4482 14.6595 26.3806 14.7288V14.7288Z" fill="#F8D319" stroke="white" stroke-miterlimit="10"/>
<path d="M99.4807 13.7093C99.551 13.7772 99.6069 13.8586 99.6451 13.9487C99.6833 14.0387 99.7029 14.1356 99.7029 14.2335C99.7029 14.3313 99.6833 14.4282 99.6451 14.5182C99.6069 14.6083 99.551 14.6897 99.4807 14.7576L98.3479 15.9006C98.2802 15.9711 98.199 16.0271 98.1092 16.0654C98.0193 16.1037 97.9227 16.1234 97.8251 16.1234C97.7275 16.1234 97.6309 16.1037 97.5411 16.0654C97.4512 16.0271 97.37 15.9711 97.3023 15.9006C97.232 15.8327 97.1761 15.7513 97.1379 15.6612C97.0998 15.5712 97.0801 15.4743 97.0801 15.3765C97.0801 15.2786 97.0998 15.1817 97.1379 15.0917C97.1761 15.0016 97.232 14.9202 97.3023 14.8523L98.4423 13.7093C98.51 13.6399 98.5907 13.5848 98.6799 13.5472C98.769 13.5096 98.8648 13.4902 98.9615 13.4902C99.0583 13.4902 99.154 13.5096 99.2432 13.5472C99.3323 13.5848 99.4131 13.6399 99.4807 13.7093Z" fill="#FC8019" stroke="white" stroke-miterlimit="10"/>
<path d="M28.5589 16.9121C42.8421 28.8226 63.0433 33.1544 80.4634 26.0561C86.2564 23.7729 91.6491 20.578 96.4384 16.5918C92.1893 21.3543 86.9956 25.1754 81.1895 27.8107C63.6677 36.1976 41.2518 31.7056 28.5371 16.8903L28.5589 16.9121Z" fill="#F8D319"/>
<path d="M107.941 10.1996C107.709 9.85012 107.498 10.1049 107.215 10.1996C107.324 9.82828 108.014 9.66083 107.941 10.1996Z" fill="#8C8C8C"/>
</svg>
