<svg width="250" height="82" viewBox="0 0 250 82" fill="none" xmlns="http://www.w3.org/2000/svg">
<rect x="1" y="1" width="248" height="80" rx="11" fill="white" stroke="#FC8019" stroke-width="2"/>
<path d="M54.2799 24.8005C52.359 24.8068 50.4785 25.3532 48.8534 26.3775C47.2283 27.4017 45.924 28.8624 45.0896 30.5927C44.2553 32.323 43.9244 34.2531 44.1349 36.1625C44.3454 38.0719 45.0887 39.8835 46.2799 41.3905C46.4771 41.6476 46.6909 41.8914 46.9199 42.1205C47.1945 42.42 47.4921 42.6975 47.8099 42.9505C48.1557 43.2418 48.5234 43.506 48.9099 43.7405L49.3699 44.0105C49.6384 44.1631 49.9156 44.3 50.1999 44.4205C50.5199 44.5605 50.8599 44.6905 51.1999 44.8005C51.5399 44.9105 51.6299 44.9305 51.8499 44.9805C52.0699 45.0305 52.4299 45.1105 52.7299 45.1605C53.2494 45.241 53.7743 45.2811 54.2999 45.2805C54.5931 45.2957 54.8868 45.2957 55.1799 45.2805C55.3743 45.2671 55.5679 45.2437 55.7599 45.2105C56.0968 45.1675 56.4307 45.104 56.7599 45.0205C56.9799 45.0205 57.1999 44.9105 57.4099 44.8405C57.6199 44.7705 57.9099 44.6705 58.1499 44.5705C58.5985 44.3896 59.033 44.1757 59.4499 43.9305C59.7766 43.7449 60.0907 43.5378 60.3899 43.3105C60.4499 43.2605 60.5199 43.2205 60.5799 43.1605C60.8414 42.961 61.0917 42.7473 61.3299 42.5205C61.6915 42.1842 62.0259 41.8197 62.3299 41.4305C63.776 39.6058 64.5494 37.3386 64.5199 35.0105C64.512 32.2999 63.4296 29.703 61.5101 27.7891C59.5906 25.8753 56.9905 24.8005 54.2799 24.8005V24.8005ZM57.3899 40.6205C57.1799 40.7405 56.9599 40.8405 56.7399 40.9405C56.4153 41.0726 56.0809 41.1796 55.7399 41.2605C55.5454 41.3077 55.3484 41.3445 55.1499 41.3705C54.8651 41.4111 54.5777 41.4312 54.2899 41.4305C53.7602 41.4307 53.2327 41.3635 52.7199 41.2305C52.4187 41.1596 52.1243 41.0626 51.8399 40.9405C51.6157 40.8501 51.3984 40.7431 51.1899 40.6205C50.8331 40.4266 50.4979 40.1953 50.1899 39.9305C49.8119 39.6109 49.4759 39.2447 49.1899 38.8405C48.9247 38.4975 48.6999 38.125 48.5199 37.7305C48.1126 36.8816 47.9007 35.9521 47.8999 35.0105C47.8947 34.934 47.8947 34.8571 47.8999 34.7805C47.9107 34.4449 47.9475 34.1105 48.0099 33.7805C48.3161 32.223 49.191 30.8352 50.4643 29.8874C51.7375 28.9396 53.318 28.4995 54.8978 28.653C56.4777 28.8065 57.9439 29.5426 59.0109 30.7178C60.0779 31.893 60.6693 33.4232 60.6699 35.0105C60.6801 35.1971 60.6801 35.384 60.6699 35.5705C60.6491 35.909 60.5921 36.2442 60.4999 36.5705C60.4017 37.0716 60.2333 37.5564 59.9999 38.0105C59.9202 38.1813 59.8266 38.3452 59.7199 38.5005C59.4127 38.9985 59.0317 39.447 58.5899 39.8305C58.4622 39.9612 58.3214 40.0784 58.1699 40.1805C57.9251 40.3527 57.6638 40.5001 57.3899 40.6205Z" fill="#FC8019"/>
<path d="M51.1798 33.8105V44.8105C50.8398 44.7005 50.4998 44.5705 50.1798 44.4305C49.8954 44.31 49.6183 44.1731 49.3498 44.0205L48.8898 43.7505C48.5033 43.516 48.1355 43.2518 47.7898 42.9605C47.4719 42.7075 47.1744 42.43 46.8998 42.1305C46.6707 41.9014 46.457 41.6576 46.2598 41.4005V34.8105L47.2598 33.8105H51.1798Z" fill="#AF510B"/>
<path d="M50.1798 34.8105V44.4205C49.8954 44.3 49.6183 44.1631 49.3498 44.0105L48.8898 43.7405C48.5033 43.506 48.1355 43.2418 47.7898 42.9505C47.4719 42.6975 47.1744 42.42 46.8998 42.1205C46.6707 41.8914 46.457 41.6476 46.2598 41.3905V34.8105H50.1798Z" fill="#FC8019"/>
<path d="M56.7401 30.6006V45.0106C56.4109 45.0941 56.0769 45.1575 55.7401 45.2006C55.5481 45.2338 55.3545 45.2571 55.1601 45.2706C54.8669 45.2858 54.5732 45.2858 54.2801 45.2706C53.7544 45.2712 53.2295 45.2311 52.7101 45.1506C52.4101 45.1506 52.1201 45.0406 51.8301 44.9706V31.6006L52.8301 30.6006H56.7401Z" fill="#AF510B"/>
<path d="M55.7401 31.6006V45.1706C55.5481 45.2038 55.3545 45.2271 55.1601 45.2406C54.8669 45.2558 54.5732 45.2558 54.2801 45.2406C53.7544 45.2412 53.2295 45.2011 52.7101 45.1206C52.4101 45.1206 52.1201 45.0106 51.8301 44.9406V31.6006H55.7401Z" fill="#FC8019"/>
<path d="M62.3102 35.6006V41.3906C62.0061 41.7797 61.6717 42.1442 61.3102 42.4806C61.072 42.7074 60.8216 42.921 60.5602 43.1206C60.5552 43.1621 60.5352 43.2004 60.5038 43.2281C60.4724 43.2557 60.432 43.2709 60.3902 43.2706C60.0909 43.4979 59.7769 43.705 59.4502 43.8906C59.0332 44.1357 58.5987 44.3496 58.1502 44.5306C57.9102 44.6306 57.6602 44.7206 57.4102 44.8006V36.6006L58.4102 35.6006H62.3102Z" fill="#AF510B"/>
<path d="M61.3102 36.6006V42.4806C61.072 42.7074 60.8216 42.921 60.5602 43.1206C60.5552 43.1621 60.5352 43.2004 60.5038 43.2281C60.4724 43.2557 60.432 43.2709 60.3902 43.2706C60.0909 43.4979 59.7769 43.705 59.4502 43.8906C59.0332 44.1357 58.5987 44.3496 58.1502 44.5306C57.9102 44.6306 57.6602 44.7206 57.4102 44.8006V36.6006H61.3102Z" fill="#FC8019"/>
<path d="M50.1798 34.8105L51.1798 33.8105H47.2598L46.2598 34.8105H50.1798Z" fill="#934612"/>
<path d="M55.7401 31.6006L56.7401 30.6006H52.8301L51.8301 31.6006H55.7401Z" fill="#934612"/>
<path d="M61.3099 36.6006L62.3099 35.6006H58.3999L57.3999 36.6006H61.3099Z" fill="#934612"/>
<path opacity="0.43" d="M47.6102 37.6504H47.1002C46.9952 37.6504 46.9102 37.7355 46.9102 37.8404V38.6504C46.9102 38.7553 46.9952 38.8404 47.1002 38.8404H47.6102C47.7151 38.8404 47.8002 38.7553 47.8002 38.6504V37.8404C47.8002 37.7355 47.7151 37.6504 47.6102 37.6504Z" fill="white"/>
<path opacity="0.43" d="M49.16 37.6504H48.65C48.545 37.6504 48.46 37.7355 48.46 37.8404V38.6504C48.46 38.7553 48.545 38.8404 48.65 38.8404H49.16C49.2649 38.8404 49.35 38.7553 49.35 38.6504V37.8404C49.35 37.7355 49.2649 37.6504 49.16 37.6504Z" fill="white"/>
<path opacity="0.43" d="M47.6102 35.9104H47.1002C46.9952 35.9104 46.9102 35.9955 46.9102 36.1004V36.9104C46.9102 37.0153 46.9952 37.1004 47.1002 37.1004H47.6102C47.7151 37.1004 47.8002 37.0153 47.8002 36.9104V36.1004C47.8002 35.9955 47.7151 35.9104 47.6102 35.9104Z" fill="white"/>
<path opacity="0.43" d="M49.16 35.9104H48.65C48.545 35.9104 48.46 35.9955 48.46 36.1004V36.9104C48.46 37.0153 48.545 37.1004 48.65 37.1004H49.16C49.2649 37.1004 49.35 37.0153 49.35 36.9104V36.1004C49.35 35.9955 49.2649 35.9104 49.16 35.9104Z" fill="white"/>
<path opacity="0.43" d="M53.4202 32.3704H52.9102C52.8053 32.3704 52.7202 32.4554 52.7202 32.5604V33.3704C52.7202 33.4753 52.8053 33.5604 52.9102 33.5604H53.4202C53.5251 33.5604 53.6102 33.4753 53.6102 33.3704V32.5604C53.6102 32.4554 53.5251 32.3704 53.4202 32.3704Z" fill="white"/>
<path opacity="0.43" d="M54.97 32.3704H54.46C54.3551 32.3704 54.27 32.4554 54.27 32.5604V33.3704C54.27 33.4753 54.3551 33.5604 54.46 33.5604H54.97C55.075 33.5604 55.16 33.4753 55.16 33.3704V32.5604C55.16 32.4554 55.075 32.3704 54.97 32.3704Z" fill="white"/>
<path opacity="0.43" d="M49.1602 39.4604H47.1102C46.9997 39.4604 46.9102 39.55 46.9102 39.6604V40.7204C46.9102 40.8309 46.9997 40.9204 47.1102 40.9204H49.1602C49.2706 40.9204 49.3602 40.8309 49.3602 40.7204V39.6604C49.3602 39.55 49.2706 39.4604 49.1602 39.4604Z" fill="white"/>
<path opacity="0.43" d="M53.4202 33.9604H52.9102C52.8053 33.9604 52.7202 34.0455 52.7202 34.1504V34.9604C52.7202 35.0654 52.8053 35.1504 52.9102 35.1504H53.4202C53.5251 35.1504 53.6102 35.0654 53.6102 34.9604V34.1504C53.6102 34.0455 53.5251 33.9604 53.4202 33.9604Z" fill="white"/>
<path opacity="0.43" d="M54.97 33.9604H54.46C54.3551 33.9604 54.27 34.0455 54.27 34.1504V34.9604C54.27 35.0654 54.3551 35.1504 54.46 35.1504H54.97C55.075 35.1504 55.16 35.0654 55.16 34.9604V34.1504C55.16 34.0455 55.075 33.9604 54.97 33.9604Z" fill="white"/>
<path opacity="0.43" d="M54.9702 35.7705H52.9202C52.8098 35.7705 52.7202 35.8601 52.7202 35.9705V37.0305C52.7202 37.141 52.8098 37.2305 52.9202 37.2305H54.9702C55.0807 37.2305 55.1702 37.141 55.1702 37.0305V35.9705C55.1702 35.8601 55.0807 35.7705 54.9702 35.7705Z" fill="white"/>
<path opacity="0.43" d="M58.8299 37.9604H58.3199C58.2149 37.9604 58.1299 38.0455 58.1299 38.1504V38.9605C58.1299 39.0654 58.2149 39.1504 58.3199 39.1504H58.8299C58.9348 39.1504 59.0199 39.0654 59.0199 38.9605V38.1504C59.0199 38.0455 58.9348 37.9604 58.8299 37.9604Z" fill="white"/>
<path opacity="0.43" d="M60.3802 37.9604H59.8702C59.7652 37.9604 59.6802 38.0455 59.6802 38.1504V38.9605C59.6802 39.0654 59.7652 39.1504 59.8702 39.1504H60.3802C60.4851 39.1504 60.5702 39.0654 60.5702 38.9605V38.1504C60.5702 38.0455 60.4851 37.9604 60.3802 37.9604Z" fill="white"/>
<path opacity="0.43" d="M60.3799 39.7705H58.3299C58.2194 39.7705 58.1299 39.86 58.1299 39.9705V41.0305C58.1299 41.141 58.2194 41.2305 58.3299 41.2305H60.3799C60.4903 41.2305 60.5799 41.141 60.5799 41.0305V39.9705C60.5799 39.86 60.4903 39.7705 60.3799 39.7705Z" fill="white"/>
<path opacity="0.43" d="M58.8299 42.0806H58.3199C58.2149 42.0806 58.1299 42.1656 58.1299 42.2706V43.0806C58.1299 43.1855 58.2149 43.2706 58.3199 43.2706H58.8299C58.9348 43.2706 59.0199 43.1855 59.0199 43.0806V42.2706C59.0199 42.1656 58.9348 42.0806 58.8299 42.0806Z" fill="white"/>
<path opacity="0.43" d="M59.4301 43.8904C59.0132 44.1355 58.5787 44.3494 58.1301 44.5304V44.1004C58.1288 44.0733 58.1329 44.0462 58.1424 44.0208C58.1518 43.9953 58.1663 43.9721 58.1851 43.9524C58.2038 43.9328 58.2263 43.9172 58.2512 43.9065C58.2762 43.8958 58.303 43.8903 58.3301 43.8904H59.4301Z" fill="white"/>
<path opacity="0.43" d="M53.4202 38.2405H52.9102C52.8053 38.2405 52.7202 38.3255 52.7202 38.4305V39.2405C52.7202 39.3454 52.8053 39.4305 52.9102 39.4305H53.4202C53.5251 39.4305 53.6102 39.3454 53.6102 39.2405V38.4305C53.6102 38.3255 53.5251 38.2405 53.4202 38.2405Z" fill="white"/>
<path opacity="0.43" d="M54.97 38.2405H54.46C54.3551 38.2405 54.27 38.3255 54.27 38.4305V39.2405C54.27 39.3454 54.3551 39.4305 54.46 39.4305H54.97C55.075 39.4305 55.16 39.3454 55.16 39.2405V38.4305C55.16 38.3255 55.075 38.2405 54.97 38.2405Z" fill="white"/>
<path opacity="0.43" d="M54.9702 40.0605H52.9202C52.8098 40.0605 52.7202 40.1501 52.7202 40.2605V41.3205C52.7202 41.431 52.8098 41.5205 52.9202 41.5205H54.9702C55.0807 41.5205 55.1702 41.431 55.1702 41.3205V40.2605C55.1702 40.1501 55.0807 40.0605 54.9702 40.0605Z" fill="white"/>
<path opacity="0.43" d="M53.4202 42.5806H52.9102C52.8053 42.5806 52.7202 42.6656 52.7202 42.7706V43.5806C52.7202 43.6855 52.8053 43.7706 52.9102 43.7706H53.4202C53.5251 43.7706 53.6102 43.6855 53.6102 43.5806V42.7706C53.6102 42.6656 53.5251 42.5806 53.4202 42.5806Z" fill="white"/>
<path opacity="0.43" d="M54.97 42.5806H54.46C54.3551 42.5806 54.27 42.6656 54.27 42.7706V43.5806C54.27 43.6855 54.3551 43.7706 54.46 43.7706H54.97C55.075 43.7706 55.16 43.6855 55.16 43.5806V42.7706C55.16 42.6656 55.075 42.5806 54.97 42.5806Z" fill="white"/>
<path opacity="0.43" d="M55.16 44.6006V45.2406C54.8668 45.2557 54.5731 45.2557 54.28 45.2406C53.7543 45.2412 53.2294 45.201 52.71 45.1206V44.5606C52.71 44.5049 52.7321 44.4515 52.7715 44.4121C52.8109 44.3727 52.8643 44.3506 52.92 44.3506H54.92C54.9541 44.3421 54.9898 44.3428 55.0235 44.3526C55.0573 44.3624 55.0879 44.3809 55.1122 44.4062C55.1365 44.4316 55.1537 44.4629 55.1621 44.497C55.1705 44.5311 55.1698 44.5668 55.16 44.6006Z" fill="white"/>
<path opacity="0.43" d="M47.8002 42.1204V42.9504C47.4823 42.6974 47.1848 42.4198 46.9102 42.1204C46.9102 42.0955 46.9151 42.0708 46.9246 42.0477C46.9342 42.0247 46.9482 42.0037 46.9658 41.9861C46.9835 41.9684 47.0044 41.9544 47.0274 41.9449C47.0505 41.9353 47.0752 41.9304 47.1002 41.9304H47.6202C47.6688 41.933 47.7146 41.9541 47.7481 41.9895C47.7816 42.0248 47.8002 42.0717 47.8002 42.1204V42.1204Z" fill="white"/>
<path opacity="0.43" d="M49.16 41.9304H48.65C48.545 41.9304 48.46 42.0155 48.46 42.1204V42.9304C48.46 43.0354 48.545 43.1204 48.65 43.1204H49.16C49.2649 43.1204 49.35 43.0354 49.35 42.9304V42.1204C49.35 42.0155 49.2649 41.9304 49.16 41.9304Z" fill="white"/>
<path opacity="0.43" d="M49.3501 43.9505V44.0105L48.8901 43.7405H49.1501C49.1773 43.7404 49.2041 43.7459 49.2291 43.7566C49.254 43.7673 49.2765 43.7829 49.2952 43.8025C49.3139 43.8222 49.3284 43.8454 49.3379 43.8709C49.3473 43.8963 49.3515 43.9234 49.3501 43.9505V43.9505Z" fill="white"/>
<path opacity="0.15" d="M61.4799 38.3904L61.6499 38.1904H61.7499V38.9004L61.5899 39.0704C61.5844 39.0787 61.5769 39.0854 61.5682 39.0901C61.5595 39.0948 61.5498 39.0973 61.5399 39.0973C61.53 39.0973 61.5202 39.0948 61.5115 39.0901C61.5028 39.0854 61.4953 39.0787 61.4899 39.0704V38.3904C61.4899 38.3904 61.4699 38.4004 61.4799 38.3904Z" fill="white"/>
<path opacity="0.15" d="M61.92 38.0706L62.09 37.8706C62.0954 37.8623 62.1029 37.8556 62.1116 37.8509C62.1203 37.8462 62.1301 37.8438 62.14 37.8438C62.1499 37.8438 62.1596 37.8462 62.1683 37.8509C62.1771 37.8556 62.1845 37.8623 62.19 37.8706V38.5906L62.02 38.7506H61.92V38.0706C61.91 38.0806 61.92 38.0706 61.92 38.0706Z" fill="white"/>
<path opacity="0.15" d="M55.8599 43.0105L56.0299 42.8105C56.0353 42.8023 56.0428 42.7955 56.0515 42.7908C56.0602 42.7861 56.07 42.7837 56.0799 42.7837C56.0898 42.7837 56.0995 42.7861 56.1082 42.7908C56.117 42.7955 56.1244 42.8023 56.1299 42.8105V43.5205L55.9599 43.6905C55.9544 43.6988 55.947 43.7055 55.9382 43.7102C55.9295 43.7149 55.9198 43.7174 55.9099 43.7174C55.9 43.7174 55.8902 43.7149 55.8815 43.7102C55.8728 43.7055 55.8653 43.6988 55.8599 43.6905V43.0105Z" fill="white"/>
<path opacity="0.15" d="M56.2998 42.6804L56.4698 42.4804C56.4753 42.4722 56.4827 42.4654 56.4914 42.4607C56.5002 42.4561 56.5099 42.4536 56.5198 42.4536C56.5297 42.4536 56.5395 42.4561 56.5482 42.4607C56.5569 42.4654 56.5643 42.4722 56.5698 42.4804V43.2004L56.4098 43.3604C56.4043 43.3687 56.3969 43.3755 56.3882 43.3801C56.3795 43.3848 56.3697 43.3873 56.3598 43.3873C56.3499 43.3873 56.3402 43.3848 56.3314 43.3801C56.3227 43.3755 56.3153 43.3687 56.3098 43.3604V42.7104L56.2998 42.6804Z" fill="white"/>
<path opacity="0.15" d="M55.9402 38.5506L56.1102 38.3506H56.2102V39.0606L56.0002 39.3106C55.9947 39.3188 55.9873 39.3256 55.9786 39.3303C55.9699 39.335 55.9601 39.3374 55.9502 39.3374C55.9403 39.3374 55.9306 39.335 55.9218 39.3303C55.9131 39.3256 55.9057 39.3188 55.9002 39.3106V38.6306C55.8971 38.6227 55.8957 38.6143 55.8961 38.6059C55.8964 38.5975 55.8986 38.5892 55.9023 38.5816C55.9061 38.5741 55.9114 38.5674 55.918 38.5621C55.9245 38.5567 55.9321 38.5528 55.9402 38.5506V38.5506Z" fill="white"/>
<path opacity="0.15" d="M56.3799 38.2305L56.5499 38.0305C56.5554 38.0222 56.5628 38.0155 56.5715 38.0108C56.5802 38.0061 56.59 38.0037 56.5999 38.0037C56.6098 38.0037 56.6195 38.0061 56.6283 38.0108C56.637 38.0155 56.6444 38.0222 56.6499 38.0305V38.7405L56.4799 38.9105C56.4758 38.9189 56.4694 38.9261 56.4614 38.9311C56.4535 38.9361 56.4443 38.9387 56.4349 38.9387C56.4255 38.9387 56.4163 38.9361 56.4083 38.9311C56.4004 38.9261 56.394 38.9189 56.3899 38.9105V38.2205L56.3799 38.2305Z" fill="white"/>
<path opacity="0.15" d="M55.9402 34.3504L56.1102 34.1504H56.2102V34.8604L56.0002 35.1104C55.9947 35.1186 55.9873 35.1254 55.9786 35.1301C55.9699 35.1348 55.9601 35.1372 55.9502 35.1372C55.9403 35.1372 55.9306 35.1348 55.9218 35.1301C55.9131 35.1254 55.9057 35.1186 55.9002 35.1104V34.4304C55.8971 34.4225 55.8957 34.4141 55.8961 34.4057C55.8964 34.3973 55.8986 34.389 55.9023 34.3814C55.9061 34.3739 55.9114 34.3672 55.918 34.3619C55.9245 34.3565 55.9321 34.3526 55.9402 34.3504V34.3504Z" fill="white"/>
<path opacity="0.15" d="M56.3799 34.0105L56.5499 33.8105C56.5554 33.8023 56.5628 33.7955 56.5715 33.7908C56.5802 33.7861 56.59 33.7837 56.5999 33.7837C56.6098 33.7837 56.6195 33.7861 56.6283 33.7908C56.637 33.7955 56.6444 33.8023 56.6499 33.8105V34.5205L56.4799 34.6905C56.4758 34.699 56.4694 34.7061 56.4614 34.7111C56.4535 34.7161 56.4443 34.7187 56.4349 34.7187C56.4255 34.7187 56.4163 34.7161 56.4083 34.7111C56.4004 34.7061 56.394 34.699 56.3899 34.6905V34.0005L56.3799 34.0105Z" fill="white"/>
<path opacity="0.15" d="M50.3099 36.1404L50.4799 35.9404C50.4854 35.9322 50.4928 35.9254 50.5016 35.9207C50.5103 35.916 50.52 35.9136 50.5299 35.9136C50.5398 35.9136 50.5496 35.916 50.5583 35.9207C50.567 35.9254 50.5745 35.9322 50.5799 35.9404V36.6504L50.4099 36.8204C50.4058 36.8289 50.3994 36.836 50.3915 36.841C50.3835 36.846 50.3743 36.8486 50.3649 36.8486C50.3555 36.8486 50.3463 36.846 50.3384 36.841C50.3304 36.836 50.324 36.8289 50.3199 36.8204V36.1404C50.3199 36.1404 50.2999 36.1504 50.3099 36.1404Z" fill="white"/>
<path opacity="0.15" d="M50.7502 35.8106L50.9102 35.6206C50.9102 35.6073 50.9155 35.5946 50.9249 35.5852C50.9343 35.5758 50.947 35.5706 50.9602 35.5706C50.9735 35.5706 50.9862 35.5758 50.9956 35.5852C51.005 35.5946 51.0102 35.6073 51.0102 35.6206V36.3406L50.8402 36.5006C50.8348 36.5088 50.8273 36.5156 50.8186 36.5203C50.8099 36.5249 50.8001 36.5274 50.7902 36.5274C50.7803 36.5274 50.7706 36.5249 50.7619 36.5203C50.7531 36.5156 50.7457 36.5088 50.7402 36.5006V35.8206C50.7433 35.8169 50.7466 35.8136 50.7502 35.8106V35.8106Z" fill="white"/>
<path opacity="0.15" d="M50.3099 42.0704L50.4799 41.8704H50.5799V42.5804L50.4099 42.7504H50.3199V42.1104C50.3199 42.1104 50.2999 42.0804 50.3099 42.0704Z" fill="white"/>
<path opacity="0.15" d="M50.7502 41.7505L50.9102 41.5505H51.0102V42.2705L50.8402 42.4305C50.8348 42.4388 50.8273 42.4456 50.8186 42.4502C50.8099 42.4549 50.8001 42.4574 50.7902 42.4574C50.7803 42.4574 50.7706 42.4549 50.7619 42.4502C50.7531 42.4456 50.7457 42.4388 50.7402 42.4305V41.7505H50.7502Z" fill="white"/>
<path d="M42.8901 22.1504V41.4904L40.3201 44.2604V41.4904H37.5101V33.7304H30.9501V36.5004H28.3801V41.4904H25.5801V22.1504H30.9501V29.4204H37.5101V22.1504H42.8901Z" fill="#AF510B"/>
<path d="M30.9499 36.5005V41.4905L28.3799 44.2605V36.5005H30.9499Z" fill="#934612"/>
<path d="M34.94 24.9204V32.1904H28.38V24.9204H23V44.2604H28.38V36.5004H34.94V44.2604H40.31V24.9204H34.94Z" fill="#FC8019"/>
<path d="M28.38 24.9204L30.95 22.1504H25.58L23 24.9204" fill="#934612"/>
<path d="M40.3099 24.9204L42.8899 22.1504H37.5099L34.9399 24.9204" fill="#934612"/>
<path d="M34.9399 32.2004V29.4304H30.9499L28.3799 32.2004" fill="#934612"/>
<path d="M93.89 28.8104C95.1906 30.2948 95.8583 32.2296 95.75 34.2004V43.6204C95.75 43.7901 95.6825 43.9529 95.5625 44.0729C95.4425 44.1929 95.2797 44.2604 95.11 44.2604H90.37C90.1993 44.2604 90.0355 44.1933 89.9138 44.0735C89.7922 43.9538 89.7226 43.791 89.72 43.6204V35.0104C89.7513 34.6204 89.7037 34.2282 89.58 33.857C89.4563 33.4859 89.259 33.1435 89 32.8504C88.4171 32.3531 87.6761 32.0799 86.91 32.0799C86.1438 32.0799 85.4028 32.3531 84.82 32.8504C84.5411 33.1339 84.3242 33.4724 84.183 33.8442C84.0418 34.216 83.9795 34.6132 84 35.0104V43.6304C83.9973 43.801 83.9277 43.9638 83.8061 44.0835C83.6845 44.2033 83.5206 44.2704 83.35 44.2704H78.61C78.4393 44.2704 78.2755 44.2033 78.1538 44.0835C78.0322 43.9638 77.9626 43.801 77.96 43.6304V35.0104C78.0022 34.223 77.7328 33.4506 77.21 32.8604C76.9357 32.5946 76.6091 32.3889 76.251 32.2564C75.8929 32.1238 75.5111 32.0673 75.13 32.0904C74.7427 32.0665 74.3546 32.1226 73.9899 32.255C73.6252 32.3875 73.2917 32.5935 73.01 32.8604C72.7413 33.147 72.5344 33.4857 72.4019 33.8555C72.2695 34.2253 72.2143 34.6184 72.24 35.0104V43.6304C72.2373 43.801 72.1677 43.9638 72.0461 44.0835C71.9245 44.2033 71.7606 44.2704 71.59 44.2704H66.85C66.7659 44.2704 66.6827 44.2538 66.605 44.2216C66.5274 44.1895 66.4568 44.1423 66.3974 44.0829C66.338 44.0235 66.2908 43.9529 66.2587 43.8753C66.2265 43.7976 66.21 43.7144 66.21 43.6304V27.6304C66.2176 27.4649 66.2881 27.3087 66.407 27.1934C66.5259 27.0782 66.6844 27.0127 66.85 27.0104H71.59C71.7624 27.0104 71.9277 27.0788 72.0496 27.2007C72.1715 27.3226 72.24 27.488 72.24 27.6604V27.6604C72.2411 27.7838 72.2774 27.9044 72.3446 28.008C72.4118 28.1116 72.507 28.1939 72.6193 28.2453C72.7315 28.2967 72.8561 28.3151 72.9784 28.2982C73.1007 28.2814 73.2157 28.2301 73.31 28.1504C73.6226 27.9034 73.9573 27.6858 74.31 27.5004C75.2223 27.0462 76.231 26.8197 77.25 26.8404C78.4356 26.8216 79.6063 27.1074 80.65 27.6704C81.3813 28.0797 82.0211 28.6344 82.53 29.3004C82.591 29.3738 82.6674 29.4329 82.7538 29.4734C82.8402 29.514 82.9345 29.535 83.03 29.535C83.1254 29.535 83.2197 29.514 83.3061 29.4734C83.3925 29.4329 83.469 29.3738 83.53 29.3004C84.0626 28.6672 84.7024 28.1324 85.42 27.7204C86.4321 27.1366 87.5815 26.8328 88.75 26.8404C89.6972 26.7873 90.645 26.9354 91.5309 27.2749C92.4168 27.6145 93.2208 28.1378 93.89 28.8104V28.8104Z" fill="#FC8019"/>
<path d="M114.53 36.6303H105.27C105.103 36.6281 104.938 36.6678 104.79 36.7458C104.642 36.8238 104.516 36.9377 104.423 37.0769C104.331 37.2162 104.275 37.3764 104.26 37.543C104.246 37.7096 104.273 37.8771 104.34 38.0303C104.457 38.2933 104.62 38.5336 104.82 38.7403C105.052 38.9698 105.329 39.1493 105.634 39.2679C105.938 39.3866 106.263 39.4418 106.59 39.4303C106.956 39.4489 107.321 39.3753 107.651 39.2164C107.981 39.0574 108.266 38.8181 108.48 38.5203C108.572 38.3846 108.695 38.2735 108.84 38.1968C108.985 38.1201 109.146 38.0801 109.31 38.0803H113.8C113.964 38.0795 114.127 38.1194 114.272 38.1963C114.418 38.2733 114.542 38.385 114.634 38.5215C114.726 38.658 114.783 38.8151 114.8 38.9789C114.816 39.1427 114.792 39.3081 114.73 39.4603C114.449 40.1111 114.075 40.7175 113.62 41.2603C112.834 42.2104 111.838 42.9638 110.71 43.4604C109.494 44.0067 108.173 44.2797 106.84 44.2603C105.26 44.2947 103.698 43.9265 102.3 43.1903C100.986 42.4871 99.9058 41.4169 99.1898 40.1103C98.4099 38.6653 98.0204 37.0419 98.0598 35.4003C98.0173 33.7673 98.3998 32.1511 99.1698 30.7103C99.8815 29.4099 100.955 28.3436 102.26 27.6403C103.676 26.9463 105.233 26.5854 106.81 26.5854C108.387 26.5854 109.943 26.9463 111.36 27.6403C112.654 28.323 113.723 29.3647 114.44 30.6403C115.205 32.0505 115.588 33.6364 115.55 35.2403C115.55 35.4003 115.55 35.5603 115.55 35.7203C115.527 35.9732 115.409 36.2078 115.22 36.3768C115.03 36.5458 114.784 36.6364 114.53 36.6303ZM108 33.7103C108.202 33.7137 108.4 33.6558 108.569 33.5443C108.737 33.4328 108.868 33.2728 108.944 33.0856C109.019 32.8983 109.037 32.6925 108.993 32.4952C108.95 32.2979 108.847 32.1184 108.7 31.9803V31.9803C108.181 31.5509 107.523 31.3268 106.85 31.3503C106.194 31.3245 105.551 31.5377 105.04 31.9503V31.9503C104.889 32.0871 104.784 32.2665 104.738 32.4646C104.692 32.6627 104.708 32.8701 104.783 33.0591C104.858 33.2482 104.988 33.4099 105.158 33.5226C105.327 33.6354 105.527 33.6939 105.73 33.6903L108 33.7103Z" fill="#FC8019"/>
<path d="M122.83 42.4605C121.545 41.5257 120.668 40.1332 120.38 38.5705C120.349 38.4203 120.352 38.2652 120.387 38.116C120.423 37.9669 120.491 37.8274 120.586 37.7073C120.682 37.5872 120.802 37.4895 120.939 37.4209C121.076 37.3524 121.227 37.3147 121.38 37.3105H125.73C125.957 37.3162 126.176 37.3939 126.356 37.5323C126.535 37.6707 126.666 37.8627 126.73 38.0805C126.822 38.4225 127.009 38.7312 127.27 38.9705C127.685 39.3297 128.222 39.5159 128.77 39.4905C129.259 39.5094 129.741 39.3652 130.14 39.0805C130.317 38.9451 130.458 38.7688 130.553 38.5668C130.647 38.3648 130.69 38.1431 130.68 37.9205C130.682 37.6171 130.6 37.3191 130.443 37.0596C130.286 36.8 130.06 36.5892 129.79 36.4505C128.9 35.9721 127.965 35.5803 127 35.2805C125.824 34.9007 124.675 34.443 123.56 33.9105C122.653 33.4644 121.863 32.814 121.25 32.0105C120.554 31.0397 120.202 29.8641 120.25 28.6705C120.204 27.3992 120.553 26.1449 121.25 25.0805C121.98 24.0645 122.987 23.28 124.15 22.8205C125.498 22.2668 126.943 21.9913 128.4 22.0105C130.542 21.9101 132.655 22.5336 134.4 23.7805C135.581 24.6911 136.386 26.0046 136.66 27.4705C136.692 27.6219 136.691 27.7786 136.656 27.9294C136.621 28.0803 136.554 28.2217 136.458 28.3437C136.363 28.4657 136.242 28.5653 136.104 28.6356C135.966 28.7059 135.815 28.7451 135.66 28.7505H131.17C130.945 28.7491 130.726 28.6755 130.546 28.5405C130.366 28.4055 130.234 28.2161 130.17 28.0005C130.08 27.7175 129.914 27.4649 129.69 27.2705C129.278 26.9366 128.76 26.7626 128.23 26.7805C127.822 26.7633 127.423 26.907 127.12 27.1805C126.971 27.3291 126.856 27.5076 126.782 27.7042C126.708 27.9007 126.677 28.1108 126.69 28.3205C126.689 28.5212 126.732 28.7198 126.815 28.9027C126.897 29.0856 127.019 29.2485 127.17 29.3805C127.516 29.7035 127.915 29.964 128.35 30.1505C128.82 30.3705 129.52 30.6405 130.44 30.9705C131.608 31.3559 132.748 31.8237 133.85 32.3705C134.75 32.8395 135.536 33.502 136.15 34.3105C136.831 35.2168 137.183 36.3275 137.15 37.4605C137.16 38.6927 136.812 39.9014 136.15 40.9405C135.47 42.0028 134.498 42.8465 133.35 43.3705C131.998 43.9953 130.519 44.2998 129.03 44.2605C126.823 44.3498 124.646 43.7179 122.83 42.4605V42.4605Z" fill="#F8D319"/>
<path d="M140.07 30.7205C140.782 29.4174 141.855 28.3478 143.16 27.6405C144.559 26.9068 146.121 26.5388 147.7 26.5705C149.7 26.5052 151.66 27.142 153.24 28.3705C154.416 29.3134 155.291 30.5782 155.76 32.0105C155.814 32.1696 155.829 32.3394 155.805 32.5056C155.78 32.6718 155.716 32.8298 155.619 32.9666C155.521 33.1033 155.392 33.2149 155.243 33.2921C155.094 33.3693 154.928 33.4098 154.76 33.4105H150.44C150.253 33.4174 150.067 33.3714 149.904 33.2777C149.741 33.1839 149.608 33.0463 149.52 32.8805C149.352 32.5157 149.078 32.21 148.734 32.0031C148.39 31.7962 147.991 31.6977 147.59 31.7205C147.236 31.7102 146.885 31.7901 146.57 31.9528C146.255 32.1155 145.987 32.3556 145.79 32.6505C145.298 33.4832 145.068 34.445 145.13 35.4105C145.069 36.379 145.299 37.3437 145.79 38.1805C145.982 38.4811 146.249 38.7268 146.565 38.8933C146.88 39.0598 147.234 39.1416 147.59 39.1305C147.987 39.1567 148.382 39.0641 148.726 38.8647C149.07 38.6652 149.346 38.3678 149.52 38.0105C149.607 37.8428 149.739 37.7031 149.902 37.6076C150.065 37.512 150.252 37.4645 150.44 37.4705H154.74C154.908 37.4711 155.074 37.5117 155.223 37.5889C155.372 37.666 155.501 37.7776 155.599 37.9144C155.696 38.0511 155.76 38.2091 155.785 38.3754C155.809 38.5416 155.794 38.7113 155.74 38.8705C155.266 40.2917 154.395 41.5477 153.23 42.4905C151.654 43.7263 149.692 44.3672 147.69 44.3005C146.111 44.3322 144.549 43.9641 143.15 43.2305C141.845 42.5232 140.772 41.4536 140.06 40.1505C139.302 38.6854 138.937 37.0488 139 35.4005C138.95 33.7746 139.319 32.1631 140.07 30.7205V30.7205Z" fill="#F8D319"/>
<path d="M195.87 26.8406V44.1106H189.81V41.6506C189.276 42.4508 188.546 43.1014 187.69 43.5406C186.728 44.0334 185.66 44.2807 184.58 44.2606C183.688 44.3026 182.797 44.1448 181.974 43.7988C181.15 43.4528 180.414 42.9272 179.82 42.2606C178.592 40.7377 177.972 38.8138 178.08 36.8606V26.8606H184.08V36.1106C184.035 36.9568 184.318 37.7878 184.87 38.4306C185.429 38.9713 186.177 39.2735 186.955 39.2735C187.733 39.2735 188.48 38.9713 189.04 38.4306C189.581 37.7828 189.857 36.9536 189.81 36.1106V26.8406H195.87Z" fill="#F8D319"/>
<path d="M209.51 40.1905V43.1905C209.51 43.4717 209.398 43.7413 209.199 43.9401C209.001 44.1389 208.731 44.2505 208.45 44.2505H206.89C202.477 44.2505 200.27 42.0672 200.27 37.7005V33.0805C200.271 32.9405 200.245 32.8016 200.192 32.6718C200.139 32.5421 200.062 32.424 199.963 32.3245C199.864 32.225 199.747 32.1461 199.618 32.0922C199.489 32.0383 199.35 32.0105 199.21 32.0105V32.0105C198.929 32.0105 198.659 31.8989 198.46 31.7001C198.262 31.5013 198.15 31.2317 198.15 30.9505V28.0605C198.153 27.7812 198.265 27.5141 198.464 27.3175C198.662 27.1208 198.931 27.0105 199.21 27.0105V27.0105C199.35 27.0106 199.489 26.9828 199.618 26.9289C199.747 26.875 199.864 26.796 199.963 26.6966C200.062 26.5971 200.139 26.479 200.192 26.3493C200.245 26.2195 200.271 26.0806 200.27 25.9405V23.8705C200.273 23.5885 200.386 23.3189 200.587 23.1204C200.787 22.9219 201.058 22.8105 201.34 22.8105H205.28C205.56 22.8132 205.828 22.9257 206.027 23.1239C206.225 23.3221 206.337 23.5902 206.34 23.8705V25.9305C206.337 26.0714 206.363 26.2114 206.415 26.3423C206.467 26.4733 206.545 26.5925 206.643 26.693C206.742 26.7936 206.86 26.8735 206.99 26.928C207.12 26.9825 207.259 27.0106 207.4 27.0105H208.4C208.539 27.0105 208.677 27.038 208.806 27.0912C208.934 27.1445 209.051 27.2226 209.149 27.321C209.248 27.4194 209.326 27.5363 209.379 27.6649C209.432 27.7935 209.46 27.9313 209.46 28.0705V30.9505C209.46 31.2282 209.351 31.4949 209.157 31.6931C208.962 31.8913 208.698 32.0053 208.42 32.0105H207.42C207.28 32.0105 207.141 32.0383 207.012 32.0922C206.883 32.1461 206.765 32.225 206.667 32.3245C206.568 32.424 206.49 32.5421 206.438 32.6718C206.385 32.8016 206.359 32.9405 206.36 33.0805V37.8005C206.333 38.1628 206.448 38.5213 206.68 38.8005C206.995 39.0299 207.382 39.1365 207.77 39.1005H208.47C208.752 39.1084 209.019 39.2274 209.214 39.4315C209.409 39.6356 209.515 39.9084 209.51 40.1905V40.1905Z" fill="#F8D319"/>
<path d="M215.46 43.4804C214.324 43.0253 213.328 42.2805 212.57 41.3204C212.175 40.8153 211.867 40.2474 211.66 39.6404C211.606 39.4806 211.591 39.3105 211.616 39.1439C211.641 38.9772 211.704 38.8187 211.802 38.6813C211.899 38.5439 212.028 38.4314 212.177 38.3531C212.326 38.2747 212.492 38.2327 212.66 38.2304H216.45C216.648 38.2304 216.841 38.2857 217.009 38.3899C217.177 38.4942 217.312 38.6433 217.4 38.8204C217.531 39.1022 217.734 39.3439 217.99 39.5204C218.463 39.8434 219.027 40.0079 219.6 39.9904C220.009 40.0083 220.414 39.9001 220.76 39.6804C220.892 39.5915 221 39.4726 221.077 39.3335C221.153 39.1944 221.195 39.0391 221.2 38.8804C221.209 38.6585 221.145 38.4398 221.016 38.2588C220.888 38.0777 220.703 37.9446 220.49 37.8804C219.73 37.5916 218.947 37.3675 218.15 37.2104C217.104 37.0095 216.075 36.7321 215.07 36.3804C214.243 36.061 213.508 35.5423 212.93 34.8704C212.292 34.0695 211.968 33.0631 212.02 32.0404C212.01 31.0481 212.299 30.0759 212.85 29.2504C213.465 28.3689 214.313 27.6763 215.3 27.2504C216.533 26.732 217.863 26.4831 219.2 26.5204C221.116 26.4091 223.007 26.9992 224.52 28.1804C225.464 28.965 226.159 30.0074 226.52 31.1804C226.57 31.3389 226.582 31.5069 226.555 31.6709C226.529 31.835 226.465 31.9906 226.368 32.1255C226.271 32.2603 226.143 32.3708 225.996 32.448C225.849 32.5252 225.686 32.5671 225.52 32.5704H222.13C221.921 32.5875 221.713 32.5389 221.533 32.4312C221.354 32.3236 221.213 32.1624 221.13 31.9704C221.005 31.7079 220.824 31.4758 220.6 31.2904C220.156 30.9704 219.616 30.8116 219.07 30.8404C218.677 30.8166 218.286 30.9144 217.95 31.1204C217.826 31.2058 217.725 31.321 217.657 31.4556C217.589 31.5901 217.555 31.7396 217.56 31.8904C217.564 32.102 217.634 32.3071 217.762 32.476C217.889 32.6449 218.067 32.769 218.27 32.8304C219.005 33.1297 219.769 33.3509 220.55 33.4904C221.611 33.7074 222.654 34.005 223.67 34.3804C224.527 34.7337 225.283 35.2937 225.87 36.0104C226.539 36.8623 226.873 37.9292 226.81 39.0104C226.822 39.9859 226.513 40.9383 225.93 41.7204C225.287 42.5649 224.426 43.2184 223.44 43.6104C222.233 44.0941 220.94 44.3288 219.64 44.3004C218.206 44.3119 216.784 44.0329 215.46 43.4804V43.4804Z" fill="#F8D319"/>
<path d="M167.21 42.4504C166.31 41.794 165.591 40.9201 165.12 39.9104C165.767 40.1237 166.44 40.2514 167.12 40.2904C167.39 40.2904 167.66 40.2904 167.91 40.2904C168.622 40.2747 169.328 40.1464 170 39.9104C169.243 40.9293 168.295 41.7918 167.21 42.4504V42.4504Z" fill="white"/>
<path d="M165.12 39.9104C165.591 40.9201 166.31 41.794 167.21 42.4504C168.295 41.7918 169.243 40.9293 170 39.9104M165.13 39.9104C165.777 40.1237 166.45 40.2514 167.13 40.2904M165.13 39.9104L166.64 41.0104L167.11 40.3304M170 39.9104C169.328 40.1498 168.623 40.2815 167.91 40.3004M170 39.9104L168.3 41.0104L167.9 40.3404M167.11 40.3404C167.38 40.3404 167.65 40.3404 167.9 40.3404" stroke="#EDE8FF" stroke-width="2" stroke-linejoin="round"/>
<path d="M169.33 40.7905H170.81C171.913 40.3164 173.053 39.9351 174.22 39.6505L173.29 41.0105C172.717 41.5843 172.083 42.094 171.4 42.5305C171.075 42.6957 170.741 42.8426 170.4 42.9705L169.15 42.5305L169.41 43.6505L165.2 43.5205L165.57 42.3605C165.226 42.67 164.804 42.8807 164.35 42.9705C163.178 41.9442 162.082 40.8347 161.07 39.6505L161.96 39.2505L162.57 38.4705L163.31 39.9905L164.44 41.4005L165 41.0105L165.43 40.6705L166.15 41.6705L167.21 42.7305L169 41.2005L169.33 40.7905Z" fill="#CA872C"/>
<path d="M170.45 41.4705C170.484 41.2078 170.612 40.9664 170.81 40.7905M170.81 40.7905H169.33L168.99 41.2005M170.81 40.7905C171.913 40.3164 173.054 39.9351 174.22 39.6505L173.29 41.0105C172.717 41.5843 172.083 42.094 171.4 42.5305C171.075 42.6957 170.741 42.8426 170.4 42.9705L169.15 42.5305M169.15 42.5305L169 41.2005M169.21 42.5305L169.47 43.6505L165.26 43.5205L165.63 42.3605M169 41.2005L167.23 42.7405L166.17 41.6805M165.63 42.3605L165.74 42.0205L166.17 41.6805M165.63 42.3605C165.286 42.67 164.864 42.8807 164.41 42.9705C163.238 41.9442 162.142 40.8347 161.13 39.6505L162.02 39.2505L162.63 38.4705L163.37 39.9905L164.73 41.6805L164.41 41.4705L165 41.0105L165.43 40.6705L166.15 41.6705" stroke="#3E2916" stroke-width="0.05" stroke-linejoin="round"/>
<path d="M167.11 40.9304C166.976 40.7713 166.862 40.5967 166.77 40.4104H168C167.917 40.5997 167.806 40.7751 167.67 40.9304M167.07 40.9304L166.73 42.0904L167.23 42.9104C167.45 42.6804 168 41.9604 168 41.9604L167.67 40.9604M167.07 40.9604C167.28 41.1904 167.47 41.1904 167.67 40.9604" stroke="white" stroke-width="2" stroke-linejoin="round"/>
<path d="M163 39.4604C163.186 39.0467 163.451 38.6732 163.78 38.3604C165.3 40.0904 166.44 40.8804 167.64 43.3604C166.992 42.748 166.245 42.2508 165.43 41.8904C165.579 41.8466 165.714 41.7637 165.82 41.6504C165.082 40.6924 164.111 39.9386 163 39.4604Z" fill="#CA872C" stroke="#3E2713" stroke-width="0.05" stroke-linejoin="round"/>
<path d="M172.1 39.6705C171.95 39.2459 171.723 38.8527 171.43 38.5105C169.76 40.0905 168.54 40.7805 167.13 43.1405C167.83 42.5904 168.618 42.1612 169.46 41.8705C169.316 41.8184 169.19 41.7243 169.1 41.6005C169.919 40.7123 170.952 40.048 172.1 39.6705V39.6705Z" fill="#CA872C" stroke="#3E2713" stroke-width="0.05" stroke-linejoin="round"/>
<path d="M177.35 34.0105C177.354 36.0367 176.757 38.0184 175.634 39.705C174.511 41.3916 172.913 42.7072 171.043 43.4853C169.172 44.2634 167.112 44.4691 165.125 44.0762C163.137 43.6833 161.311 42.7097 159.876 41.2784C158.442 39.8471 157.465 38.0225 157.068 36.0356C156.672 34.0487 156.873 31.9888 157.648 30.1165C158.422 28.2442 159.735 26.6437 161.419 25.5177C163.103 24.3916 165.084 23.7905 167.11 23.7905C169.822 23.7905 172.424 24.8666 174.344 26.7827C176.264 28.6987 177.345 31.2982 177.35 34.0105V34.0105ZM159.43 34.0105C159.432 35.5291 159.884 37.0129 160.729 38.2746C161.574 39.5362 162.775 40.519 164.178 41.0988C165.582 41.6785 167.125 41.8292 168.615 41.5317C170.104 41.2343 171.471 40.502 172.544 39.4276C173.617 38.3531 174.348 36.9846 174.643 35.4951C174.939 34.0056 174.786 32.462 174.205 31.0592C173.623 29.6565 172.639 28.4576 171.376 27.6141C170.113 26.7707 168.629 26.3205 167.11 26.3205C166.101 26.3205 165.101 26.5195 164.169 26.9061C163.236 27.2927 162.389 27.8593 161.676 28.5735C160.963 29.2877 160.397 30.1355 160.012 31.0684C159.626 32.0014 159.429 33.0011 159.43 34.0105V34.0105Z" fill="#AB6F29"/>
<path d="M173.63 33.4505C173.63 37.3105 170.98 40.3705 167.79 40.3705C164.6 40.3705 162 37.3105 162 33.4505C162 29.5905 164.64 26.5405 167.84 26.5405C171.04 26.5405 173.63 29.6005 173.63 33.4505Z" fill="#F6BE81" stroke="#964927" stroke-width="0.25" stroke-miterlimit="10"/>
<path d="M175.247 33.7373C175.481 32.845 175.194 31.997 174.606 31.8431C174.019 31.6892 173.353 32.2878 173.119 33.1801C172.886 34.0723 173.173 34.9204 173.76 35.0742C174.348 35.2281 175.014 34.6295 175.247 33.7373Z" fill="#964927"/>
<path d="M175.005 33.6739C175.184 32.9901 174.961 32.3393 174.507 32.2204C174.053 32.1015 173.54 32.5595 173.361 33.2434C173.182 33.9273 173.405 34.5781 173.859 34.697C174.313 34.8158 174.826 34.3578 175.005 33.6739Z" fill="#F6BE81"/>
<path opacity="0.2" d="M174.55 32.6304C173.7 32.6304 173.55 33.6304 173.55 34.0004M173.55 34.0004C173.47 34.3204 173.89 34.3804 174.04 34.2204C174.31 33.9104 173.72 33.5604 173.55 34.0104V34.0004Z" stroke="black" stroke-width="0.25" stroke-miterlimit="10"/>
<path d="M161.615 34.8627C162.202 34.7088 162.489 33.8608 162.256 32.9686C162.022 32.0763 161.356 31.4777 160.769 31.6316C160.181 31.7854 159.894 32.6335 160.128 33.5257C160.361 34.418 161.027 35.0165 161.615 34.8627Z" fill="#964927"/>
<path d="M161.516 34.4854C161.97 34.3665 162.193 33.7157 162.014 33.0319C161.835 32.348 161.321 31.89 160.867 32.0089C160.413 32.1277 160.19 32.7785 160.369 33.4624C160.548 34.1463 161.061 34.6043 161.516 34.4854Z" fill="#F6BE81"/>
<g opacity="0.2">
<path d="M160.83 32.4204C161.56 32.2504 162.05 33.1904 161.83 33.8004C161.67 33.2204 161.47 32.6404 160.83 32.4204Z" fill="black"/>
<path d="M161.82 33.8003C161.96 34.1803 161.28 34.3603 161.16 33.9403C161.153 33.8577 161.176 33.7755 161.226 33.709C161.275 33.6425 161.347 33.5964 161.428 33.5792C161.509 33.562 161.594 33.575 161.666 33.6157C161.738 33.6564 161.793 33.722 161.82 33.8003V33.8003ZM161.82 33.8003C161.72 33.5103 161.34 33.6503 161.4 33.8703C161.46 34.0903 161.9 34.1203 161.82 33.8003Z" fill="black"/>
</g>
<path d="M164.78 32.4004C163.69 32.3104 162.62 33.6704 162.22 34.4004C161.969 33.6919 161.913 32.9288 162.059 32.1914C162.205 31.454 162.547 30.7697 163.05 30.2104H164.78C165.23 30.9504 165.86 32.4804 164.78 32.4004Z" fill="#5D3A1C"/>
<path d="M170.74 32.2105C171.83 32.2805 172.99 34.1305 173.29 34.8705C173.86 31.5305 173.29 31.1705 172.77 30.2605L171.07 30.0105C170.51 30.7105 169.66 32.1305 170.74 32.2105Z" fill="#5D3A1C"/>
<path d="M165.71 37.5004C167.185 37.5004 168.38 36.305 168.38 34.8304C168.38 33.3558 167.185 32.1604 165.71 32.1604C164.235 32.1604 163.04 33.3558 163.04 34.8304C163.04 36.305 164.235 37.5004 165.71 37.5004Z" fill="#FCDEBD"/>
<path d="M167.38 34.8304C167.38 34.5001 167.282 34.1772 167.099 33.9026C166.915 33.628 166.654 33.4139 166.349 33.2875C166.044 33.1611 165.708 33.1281 165.384 33.1925C165.06 33.2569 164.763 33.416 164.529 33.6495C164.296 33.8831 164.137 34.1807 164.072 34.5046C164.008 34.8285 164.041 35.1643 164.167 35.4695C164.294 35.7746 164.508 36.0355 164.782 36.219C165.057 36.4025 165.38 36.5004 165.71 36.5004" fill="#FCFCFC"/>
<path d="M167.38 34.8304C167.38 34.5001 167.282 34.1772 167.099 33.9026C166.915 33.628 166.654 33.4139 166.349 33.2875C166.044 33.1611 165.708 33.1281 165.384 33.1925C165.06 33.2569 164.763 33.416 164.529 33.6495C164.296 33.8831 164.137 34.1807 164.072 34.5046C164.008 34.8285 164.041 35.1643 164.167 35.4695C164.294 35.7746 164.508 36.0355 164.782 36.219C165.057 36.4025 165.38 36.5004 165.71 36.5004" stroke="black" stroke-width="0.15"/>
<path d="M165.97 35.4205C166.296 35.4205 166.56 35.1563 166.56 34.8305C166.56 34.5046 166.296 34.2405 165.97 34.2405C165.644 34.2405 165.38 34.5046 165.38 34.8305C165.38 35.1563 165.644 35.4205 165.97 35.4205Z" fill="#ABC7E5"/>
<path d="M165.8 34.8306C165.938 34.8306 166.05 34.7186 166.05 34.5806C166.05 34.4425 165.938 34.3306 165.8 34.3306C165.662 34.3306 165.55 34.4425 165.55 34.5806C165.55 34.7186 165.662 34.8306 165.8 34.8306Z" fill="#8E908F"/>
<path d="M165.88 35.3405C165.974 35.3405 166.05 35.2644 166.05 35.1705C166.05 35.0766 165.974 35.0005 165.88 35.0005C165.786 35.0005 165.71 35.0766 165.71 35.1705C165.71 35.2644 165.786 35.3405 165.88 35.3405Z" fill="white"/>
<path d="M166.31 34.8704C166.382 34.8704 166.44 34.8121 166.44 34.7404C166.44 34.6686 166.382 34.6104 166.31 34.6104C166.238 34.6104 166.18 34.6686 166.18 34.7404C166.18 34.8121 166.238 34.8704 166.31 34.8704Z" fill="white"/>
<path d="M167.79 38.0104C168.41 38.2404 169.97 38.1704 171.28 36.1104M171.87 35.7304C171.82 35.4504 171.55 35.0704 170.87 35.7304M169.56 34.7304C169.827 34.5852 170.126 34.509 170.43 34.509C170.734 34.509 171.033 34.5852 171.3 34.7304M169.56 34.3504C169.65 34.1804 169.91 33.8804 170.22 33.9904" stroke="#8C8C8C" stroke-width="0.15" stroke-miterlimit="10"/>
<path d="M167.62 33.8104C167.25 34.9404 167.94 33.4104 165.5 32.2104C166.252 32.141 167.004 32.3432 167.62 32.7804C168.3 33.5304 167.74 33.4304 167.62 33.8104Z" fill="white"/>
<path d="M168.417 34.62C168.624 34.5155 168.681 34.211 168.545 33.9398C168.408 33.6686 168.129 33.5334 167.922 33.6378C167.715 33.7422 167.658 34.0468 167.795 34.318C167.931 34.5892 168.21 34.7244 168.417 34.62Z" fill="#D9D9D9"/>
<path d="M163.37 36.9405C163.412 36.985 163.436 37.0441 163.436 37.1055C163.436 37.1669 163.412 37.2259 163.37 37.2705L163.01 37.6305C162.965 37.6727 162.906 37.6962 162.845 37.6962C162.784 37.6962 162.725 37.6727 162.68 37.6305C162.638 37.5859 162.614 37.5269 162.614 37.4655C162.614 37.4041 162.638 37.345 162.68 37.3005L163.04 36.9405C163.085 36.8983 163.144 36.8748 163.205 36.8748C163.266 36.8748 163.325 36.8983 163.37 36.9405V36.9405Z" fill="#696969"/>
<path d="M162.548 37.2569L160.518 39.2862C160.467 39.337 160.467 39.4193 160.518 39.4701L160.843 39.7954C160.894 39.8461 160.977 39.8461 161.027 39.7954L163.057 37.766C163.107 37.7152 163.107 37.6329 163.057 37.5821L162.731 37.2569C162.681 37.2061 162.598 37.2061 162.548 37.2569Z" fill="#D9D9D9"/>
<path d="M161.46 37.4503C161.67 37.3203 161.98 37.5003 162.16 37.6103L161.96 37.8503L162.04 38.1203C162.218 38.0601 162.411 38.0601 162.59 38.1203C163.19 38.7203 162.17 40.0503 161.11 39.7303L161.78 38.9703H161.72C161.673 38.9465 161.632 38.9123 161.6 38.8703C161.6 39.2603 161.34 39.2603 161.2 39.2203C161.31 39.3003 161.2 39.7703 160.8 39.5003C160.4 39.2303 160.2 38.9903 160.24 38.6403C160.28 38.2903 160.43 38.3203 160.59 38.3603C160.53 37.8303 160.93 37.8703 161.18 37.9703C161.13 37.6103 161.3 37.5503 161.46 37.4503Z" fill="#FBD393"/>
<path d="M161.43 38.5705V38.5005C161.02 37.6605 161.27 37.5905 161.5 37.5005C161.73 37.4105 162.02 37.5505 162.2 37.6605L162 37.9005L162.08 38.1705M161.47 38.6205C161.75 39.1805 162.06 39.0105 162.23 38.8605C162.177 38.9143 162.113 38.955 162.042 38.9793C161.971 39.0037 161.895 39.0109 161.82 39.0005M161.47 38.6205C161.539 38.7837 161.663 38.9179 161.82 39.0005M161.47 38.6205C161.632 38.421 161.842 38.2662 162.08 38.1705M161.82 39.0005L161.15 39.7605C162.21 40.0805 163.23 38.7605 162.63 38.1505C162.452 38.0903 162.258 38.0903 162.08 38.1505M160.63 38.3405C160.57 37.8105 160.97 37.8505 161.22 37.9505C161.287 38.2763 161.431 38.5815 161.64 38.8405C161.64 39.2805 161.33 39.2405 161.21 39.1905M160.63 38.3405C160.732 38.6766 160.934 38.9734 161.21 39.1905M160.63 38.3405C160.728 38.6784 160.931 38.9762 161.21 39.1905M160.63 38.3405C160.47 38.3405 160.31 38.3405 160.28 38.6205C160.25 38.9005 160.4 39.1805 160.84 39.4805C161.28 39.7805 161.36 39.1805 161.21 39.1905" stroke="#974C28" stroke-width="0.05" stroke-linejoin="round"/>
<path d="M173.82 39.3604C173.61 40.0104 172.96 39.3104 172.89 39.2804C172.82 39.2504 172.59 39.3604 172.47 39.4704C172.442 39.3877 172.43 39.3002 172.436 39.213C172.442 39.1259 172.465 39.0408 172.504 38.9626C172.543 38.8845 172.598 38.8149 172.664 38.7579C172.73 38.7008 172.807 38.6575 172.89 38.6304C172.921 38.491 173.002 38.3679 173.119 38.2849C173.235 38.2018 173.378 38.1646 173.52 38.1804C173.52 38.0504 173.7 37.8304 174.12 37.9104C174.31 38.0504 174.7 38.3904 174.64 38.6404C174.638 38.6833 174.627 38.7253 174.607 38.7632C174.587 38.8012 174.559 38.834 174.524 38.8591C174.489 38.8842 174.449 38.901 174.407 38.9082C174.364 38.9153 174.321 38.9127 174.28 38.9004C174.314 38.9836 174.314 39.0771 174.28 39.1604C174.264 39.205 174.24 39.2459 174.208 39.2806C174.176 39.3152 174.137 39.3428 174.094 39.3617C174.051 39.3805 174.004 39.3901 173.957 39.3899C173.909 39.3896 173.863 39.3796 173.82 39.3604V39.3604Z" fill="#F7C183"/>
<path d="M172.89 38.6304C173.096 38.6575 173.291 38.7396 173.455 38.868C173.618 38.9964 173.744 39.1665 173.82 39.3604M172.89 38.6304C172.921 38.491 173.002 38.3679 173.119 38.2849C173.235 38.2018 173.378 38.1646 173.52 38.1804M172.89 38.6304C172.807 38.6575 172.73 38.7008 172.664 38.7579C172.598 38.8149 172.543 38.8845 172.504 38.9626C172.465 39.0408 172.442 39.1259 172.436 39.213C172.43 39.3002 172.442 39.3877 172.47 39.4704C172.59 39.3604 172.83 39.2404 172.89 39.2804C172.95 39.3204 173.61 40.0104 173.82 39.3604M173.82 39.3604C173.863 39.3796 173.909 39.3896 173.957 39.3899C174.004 39.3901 174.051 39.3805 174.094 39.3617C174.137 39.3428 174.176 39.3152 174.208 39.2806C174.24 39.2459 174.264 39.205 174.28 39.1604C174.314 39.0771 174.314 38.9836 174.28 38.9004M173.52 38.1804C173.52 38.0504 173.7 37.8304 174.12 37.9104C174.31 38.0504 174.7 38.3904 174.64 38.6404C174.638 38.6833 174.627 38.7253 174.607 38.7632C174.587 38.8012 174.559 38.834 174.524 38.8591C174.489 38.8842 174.449 38.901 174.407 38.9082C174.364 38.9153 174.321 38.9127 174.28 38.9004M173.52 38.1804C173.836 38.3436 174.1 38.5933 174.28 38.9004" stroke="#974C28" stroke-width="0.05" stroke-linejoin="round"/>
<path d="M168.44 27.5606C169.094 27.0305 169.908 26.7379 170.75 26.7306C172.6 26.7306 174.17 28.2206 174.65 30.4406C174.692 30.6334 174.695 30.8327 174.659 31.0268C174.623 31.2208 174.549 31.4057 174.44 31.5706C174.352 31.7198 174.226 31.8435 174.075 31.9294C173.924 32.0153 173.754 32.0605 173.58 32.0606C171.45 27.5606 159.37 37.9106 159.37 30.1606C161.84 30.1606 164.22 31.1606 166.1 29.5706L168.44 27.5606ZM162.82 27.1306L163.47 23.4006C163.505 23.1987 163.581 23.006 163.693 22.8341C163.805 22.6623 163.95 22.5148 164.12 22.4006C164.291 22.2851 164.484 22.2052 164.687 22.1657C164.889 22.1261 165.098 22.1278 165.3 22.1706L169.87 23.1706C170.186 23.2327 170.474 23.3943 170.692 23.6318C170.91 23.8693 171.046 24.1702 171.08 24.4906L172 27.1306C171.84 27.1306 170.61 27.5606 170.44 27.5606C169.44 27.5606 167.71 30.0906 167.16 29.1706C167.16 29.1706 167.77 28.9806 166.08 30.4406C164.39 31.9006 162.82 31.3006 160.5 31.3006C160.35 31.3019 160.2 31.2734 160.061 31.2167C159.921 31.16 159.794 31.0762 159.688 30.9702C159.581 30.8642 159.496 30.7381 159.438 30.5991C159.38 30.4602 159.35 30.3111 159.35 30.1606C159.456 29.3176 159.868 28.5429 160.508 27.9841C161.147 27.4253 161.971 27.1215 162.82 27.1306V27.1306Z" fill="#5E5E5E"/>
<path d="M165.21 26.6104L165.46 24.6104L164.65 23.4004L166.35 24.1004L170 24.0104L166.09 24.6104L165.09 26.9804L165.21 26.6104Z" fill="#D9D9D9"/>
<path opacity="0.2" d="M162.88 27.1504C162.8 28.5904 164.5 30.6204 171.88 27.1504" stroke="#EDE8FF" stroke-width="0.25" stroke-linejoin="round"/>
<path opacity="0.4" d="M165.76 38.0906C167.56 38.0906 169.02 36.631 169.02 34.8306C169.02 33.0301 167.56 31.5706 165.76 31.5706C163.96 31.5706 162.5 33.0301 162.5 34.8306C162.5 36.631 163.96 38.0906 165.76 38.0906Z" fill="#D9D9D9" stroke="black" stroke-width="0.25"/>
<path d="M165.71 36.5006C165.929 36.5006 166.146 36.4574 166.349 36.3734C166.552 36.2895 166.736 36.1665 166.891 36.0114C167.046 35.8564 167.169 35.6723 167.253 35.4696C167.337 35.267 167.38 35.0499 167.38 34.8306" fill="#FCFCFC"/>
<path d="M165.71 36.5006C165.929 36.5006 166.146 36.4574 166.349 36.3734C166.552 36.2895 166.736 36.1665 166.891 36.0114C167.046 35.8564 167.169 35.6723 167.253 35.4696C167.337 35.267 167.38 35.0499 167.38 34.8306" stroke="black" stroke-width="0.15" stroke-miterlimit="10"/>
<path d="M167.21 42.4504C166.31 41.794 165.591 40.9201 165.12 39.9104C165.767 40.1237 166.44 40.2514 167.12 40.2904C167.39 40.2904 167.66 40.2904 167.91 40.2904C168.622 40.2747 169.328 40.1464 170 39.9104C169.243 40.9293 168.295 41.7918 167.21 42.4504V42.4504Z" fill="white"/>
<path d="M165.12 39.9104C165.591 40.9201 166.31 41.794 167.21 42.4504C168.295 41.7918 169.243 40.9293 170 39.9104M165.13 39.9104C165.777 40.1237 166.45 40.2514 167.13 40.2904M165.13 39.9104L166.64 41.0104L167.11 40.3304M170 39.9104C169.328 40.1498 168.623 40.2815 167.91 40.3004M170 39.9104L168.3 41.0104L167.9 40.3404M167.11 40.3404C167.38 40.3404 167.65 40.3404 167.9 40.3404" stroke="#EDE8FF" stroke-width="2" stroke-linejoin="round"/>
<path d="M169.33 40.7905H170.81C171.913 40.3164 173.053 39.9351 174.22 39.6505L173.29 41.0105C172.717 41.5843 172.083 42.094 171.4 42.5305C171.075 42.6957 170.741 42.8426 170.4 42.9705L169.15 42.5305L169.41 43.6505L165.2 43.5205L165.57 42.3605C165.226 42.67 164.804 42.8807 164.35 42.9705C163.178 41.9442 162.082 40.8347 161.07 39.6505L161.96 39.2505L162.57 38.4705L163.31 39.9905L164.44 41.4005L165 41.0105L165.43 40.6705L166.15 41.6705L167.21 42.7305L169 41.2005L169.33 40.7905Z" fill="#CA872C"/>
<path d="M170.45 41.4705C170.484 41.2078 170.612 40.9664 170.81 40.7905M170.81 40.7905H169.33L168.99 41.2005M170.81 40.7905C171.913 40.3164 173.054 39.9351 174.22 39.6505L173.29 41.0105C172.717 41.5843 172.083 42.094 171.4 42.5305C171.075 42.6957 170.741 42.8426 170.4 42.9705L169.15 42.5305M169.15 42.5305L169 41.2005M169.21 42.5305L169.47 43.6505L165.26 43.5205L165.63 42.3605M169 41.2005L167.23 42.7405L166.17 41.6805M165.63 42.3605L165.74 42.0205L166.17 41.6805M165.63 42.3605C165.286 42.67 164.864 42.8807 164.41 42.9705C163.238 41.9442 162.142 40.8347 161.13 39.6505L162.02 39.2505L162.63 38.4705L163.37 39.9905L164.73 41.6805L164.41 41.4705L165 41.0105L165.43 40.6705L166.15 41.6705" stroke="#3E2916" stroke-width="0.05" stroke-linejoin="round"/>
<path d="M167.11 40.9304C166.976 40.7713 166.862 40.5967 166.77 40.4104H168C167.917 40.5997 167.806 40.7751 167.67 40.9304L168 41.9304C168 41.9304 167.45 42.6504 167.23 42.8804L166.73 42.0604L167.11 40.9304Z" fill="#FF0202"/>
<path d="M167.11 40.9304C166.976 40.7713 166.862 40.5967 166.77 40.4104H168C167.917 40.5997 167.806 40.7751 167.67 40.9304M167.07 40.9304L166.73 42.0904L167.23 42.9104C167.45 42.6804 168 41.9604 168 41.9604L167.67 40.9604M167.07 40.9604C167.28 41.1904 167.47 41.1904 167.67 40.9604" stroke="white" stroke-width="2" stroke-linejoin="round"/>
<path d="M167.11 40.9304C166.976 40.7713 166.862 40.5967 166.77 40.4104H168C167.917 40.5997 167.806 40.7751 167.67 40.9304L168 41.9304C168 41.9304 167.45 42.6504 167.23 42.8804L166.73 42.0604L167.11 40.9304Z" fill="#FF0202"/>
<path d="M163 39.4604C163.186 39.0467 163.451 38.6732 163.78 38.3604C165.3 40.0904 166.44 40.8804 167.64 43.3604C166.992 42.748 166.245 42.2508 165.43 41.8904C165.579 41.8466 165.714 41.7637 165.82 41.6504C165.082 40.6924 164.111 39.9386 163 39.4604Z" fill="#CA872C" stroke="#3E2713" stroke-width="0.05" stroke-linejoin="round"/>
<path d="M172.1 39.6705C171.95 39.2459 171.723 38.8527 171.43 38.5105C169.76 40.0905 168.54 40.7805 167.13 43.1405C167.83 42.5904 168.618 42.1612 169.46 41.8705C169.316 41.8184 169.19 41.7243 169.1 41.6005C169.919 40.7123 170.952 40.048 172.1 39.6705V39.6705Z" fill="#CA872C" stroke="#3E2713" stroke-width="0.05" stroke-linejoin="round"/>
<path d="M167.79 40.3705C171.016 40.3705 173.63 37.2723 173.63 33.4505C173.63 29.6287 171.016 26.5305 167.79 26.5305C164.565 26.5305 161.95 29.6287 161.95 33.4505C161.95 37.2723 164.565 40.3705 167.79 40.3705Z" fill="#F6BE81"/>
<path d="M173.63 33.4504C173.71 36.7604 171.35 40.4504 167.79 40.4504C159.91 40.1304 159.91 26.8204 167.79 26.4504C171.35 26.4504 173.71 30.1304 173.63 33.4504V33.4504ZM173.63 33.4504C173.63 30.1804 171.3 26.5804 167.79 26.6004C160.23 26.9304 160.23 39.9804 167.79 40.3104C171.3 40.3104 173.67 36.7204 173.63 33.4504V33.4504Z" fill="#964927"/>
<path d="M175.247 33.7373C175.481 32.845 175.194 31.997 174.606 31.8431C174.019 31.6892 173.353 32.2878 173.119 33.1801C172.886 34.0723 173.173 34.9204 173.76 35.0742C174.348 35.2281 175.014 34.6295 175.247 33.7373Z" fill="#964927"/>
<path d="M175.005 33.6739C175.184 32.9901 174.961 32.3393 174.507 32.2204C174.053 32.1015 173.54 32.5595 173.361 33.2434C173.182 33.9273 173.405 34.5781 173.859 34.697C174.313 34.8158 174.826 34.3578 175.005 33.6739Z" fill="#F6BE81"/>
<g opacity="0.2">
<path d="M174.63 32.7605C173.8 32.8805 173.82 33.7105 173.74 34.3805C173.2 33.8405 173.89 32.5605 174.63 32.7605Z" fill="black"/>
<path d="M173.7 34.1405C173.62 34.4405 174.12 34.4505 174.14 34.2205C174.16 33.9905 173.81 33.9305 173.7 34.1405ZM173.7 34.1405C173.7 34.0105 173.83 33.7805 174.06 33.8105C174.112 33.8167 174.161 33.8343 174.205 33.8622C174.25 33.89 174.287 33.9273 174.315 33.9714C174.342 34.0155 174.36 34.0652 174.366 34.117C174.372 34.1687 174.367 34.2212 174.35 34.2705C174.23 34.6705 173.57 34.5305 173.7 34.1405Z" fill="black"/>
</g>
<path d="M161.615 34.8627C162.202 34.7088 162.489 33.8608 162.256 32.9686C162.022 32.0763 161.356 31.4777 160.769 31.6316C160.181 31.7854 159.894 32.6335 160.128 33.5257C160.361 34.418 161.027 35.0165 161.615 34.8627Z" fill="#964927"/>
<path d="M161.516 34.4854C161.97 34.3665 162.193 33.7157 162.014 33.0319C161.835 32.348 161.321 31.89 160.867 32.0089C160.413 32.1277 160.19 32.7785 160.369 33.4624C160.548 34.1463 161.061 34.6043 161.516 34.4854Z" fill="#F6BE81"/>
<path opacity="0.2" d="M160.62 32.4504C161.47 32.5004 161.62 33.4504 161.62 33.8304M161.62 33.8304C161.71 34.1504 161.29 34.2104 161.14 34.0404C160.99 33.8704 161.44 33.3804 161.61 33.8304H161.62Z" stroke="black" stroke-width="0.25" stroke-miterlimit="10"/>
<path d="M164.73 32.6905C163.65 32.6105 162.58 33.9705 162.18 34.6905C161.918 33.9792 161.856 33.2099 162.001 32.466C162.146 31.7221 162.491 31.0319 163 30.4705H164.72C165.19 31.2405 165.82 32.7705 164.73 32.6905Z" fill="#5D3A1C"/>
<path d="M170.89 32.5105C171.98 32.5905 173.14 34.4305 173.44 35.1805C174.01 31.8305 173.44 31.4805 172.92 30.5705L171.22 30.3105C170.66 31.0105 169.81 32.4405 170.89 32.5105Z" fill="#5D3A1C"/>
<path d="M165.71 37.5004C167.185 37.5004 168.38 36.305 168.38 34.8304C168.38 33.3558 167.185 32.1604 165.71 32.1604C164.235 32.1604 163.04 33.3558 163.04 34.8304C163.04 36.305 164.235 37.5004 165.71 37.5004Z" fill="#FCDEBD"/>
<path d="M165.71 32.1605C169.71 31.9305 169.47 37.6905 165.71 37.7405C161.95 37.7905 161.71 31.9405 165.71 32.1605ZM165.71 32.1605C165.057 32.2479 164.456 32.5643 164.015 33.0533C163.574 33.5422 163.32 34.1721 163.3 34.8305C163.34 35.4442 163.611 36.0197 164.06 36.4403C164.508 36.861 165.1 37.095 165.715 37.095C166.33 37.095 166.922 36.861 167.37 36.4403C167.819 36.0197 168.091 35.4442 168.13 34.8305C168.107 34.1712 167.852 33.5412 167.409 33.0524C166.966 32.5636 166.364 32.2476 165.71 32.1605V32.1605Z" fill="#EDE8FF"/>
<path d="M165.71 36.5005C165.488 36.5031 165.268 36.462 165.062 36.3795C164.856 36.297 164.668 36.1748 164.509 36.0197C164.35 35.8646 164.224 35.6798 164.136 35.4757C164.049 35.2717 164.003 35.0524 164 34.8305C164.02 34.3939 164.202 33.9804 164.511 33.6713C164.82 33.3623 165.233 33.18 165.67 33.1605C165.893 33.1492 166.116 33.1845 166.325 33.2642C166.534 33.3439 166.724 33.4662 166.883 33.6232C167.042 33.7803 167.166 33.9688 167.248 34.1767C167.331 34.3845 167.369 34.6072 167.36 34.8305C167.345 35.2653 167.167 35.6787 166.862 35.9882C166.556 36.2977 166.145 36.4806 165.71 36.5005V36.5005Z" fill="#FCFCFC"/>
<path d="M165.71 36.5004C165.475 36.5185 165.239 36.4877 165.016 36.4102C164.794 36.3327 164.59 36.21 164.417 36.05C164.244 35.8899 164.106 35.6958 164.012 35.4799C163.918 35.2641 163.869 35.031 163.869 34.7954C163.869 34.5599 163.918 34.3268 164.012 34.111C164.106 33.8951 164.244 33.701 164.417 33.5409C164.59 33.3809 164.794 33.2582 165.016 33.1807C165.239 33.1032 165.475 33.0724 165.71 33.0904C166.139 33.1234 166.541 33.3173 166.834 33.6334C167.126 33.9495 167.289 34.3645 167.289 34.7954C167.289 35.2263 167.126 35.6414 166.834 35.9575C166.541 36.2736 166.139 36.4675 165.71 36.5004V36.5004ZM165.71 36.5004C167.84 36.4304 167.93 33.2204 165.71 33.2304C165.298 33.2627 164.914 33.4489 164.634 33.752C164.353 34.055 164.198 34.4526 164.198 34.8654C164.198 35.2783 164.353 35.6759 164.634 35.9789C164.914 36.282 165.298 36.4682 165.71 36.5004Z" fill="#666666"/>
<path d="M165.97 35.4205C166.296 35.4205 166.56 35.1563 166.56 34.8305C166.56 34.5046 166.296 34.2405 165.97 34.2405C165.644 34.2405 165.38 34.5046 165.38 34.8305C165.38 35.1563 165.644 35.4205 165.97 35.4205Z" fill="#ABC7E5"/>
<path d="M165.8 34.8306C165.938 34.8306 166.05 34.7186 166.05 34.5806C166.05 34.4425 165.938 34.3306 165.8 34.3306C165.662 34.3306 165.55 34.4425 165.55 34.5806C165.55 34.7186 165.662 34.8306 165.8 34.8306Z" fill="#8E908F"/>
<path d="M165.88 35.3405C165.974 35.3405 166.05 35.2644 166.05 35.1705C166.05 35.0766 165.974 35.0005 165.88 35.0005C165.786 35.0005 165.71 35.0766 165.71 35.1705C165.71 35.2644 165.786 35.3405 165.88 35.3405Z" fill="white"/>
<path d="M166.31 34.8704C166.382 34.8704 166.44 34.8121 166.44 34.7404C166.44 34.6686 166.382 34.6104 166.31 34.6104C166.238 34.6104 166.18 34.6686 166.18 34.7404C166.18 34.8121 166.238 34.8704 166.31 34.8704Z" fill="white"/>
<path d="M166.83 38.5704C167.744 38.7854 168.704 38.6538 169.526 38.2012C170.348 37.7487 170.973 37.0072 171.28 36.1204C171.196 36.6003 171.005 37.0553 170.721 37.4517C170.437 37.8481 170.069 38.1759 169.642 38.4109C169.215 38.646 168.741 38.7823 168.254 38.8099C167.767 38.8375 167.281 38.7556 166.83 38.5704V38.5704Z" fill="#8C8C8C"/>
<path d="M169.54 34.7906C169.78 34.5776 170.089 34.46 170.41 34.46C170.731 34.46 171.04 34.5776 171.28 34.7906C170.705 34.6806 170.115 34.6806 169.54 34.7906Z" fill="#8C8C8C"/>
<path d="M169.54 34.4104C169.54 34.0804 169.96 33.7704 170.2 34.0504C169.89 34.1604 169.84 34.2804 169.54 34.4104Z" fill="#8C8C8C"/>
<path d="M163.37 36.9405C163.412 36.985 163.436 37.0441 163.436 37.1055C163.436 37.1669 163.412 37.2259 163.37 37.2705L163.01 37.6305C162.965 37.6727 162.906 37.6962 162.845 37.6962C162.784 37.6962 162.725 37.6727 162.68 37.6305C162.638 37.5859 162.614 37.5269 162.614 37.4655C162.614 37.4041 162.638 37.345 162.68 37.3005L163.04 36.9405C163.085 36.8983 163.144 36.8748 163.205 36.8748C163.266 36.8748 163.325 36.8983 163.37 36.9405V36.9405Z" fill="#696969"/>
<path d="M162.548 37.2569L160.518 39.2862C160.467 39.337 160.467 39.4193 160.518 39.4701L160.843 39.7954C160.894 39.8461 160.977 39.8461 161.027 39.7954L163.057 37.766C163.107 37.7152 163.107 37.6329 163.057 37.5821L162.731 37.2569C162.681 37.2061 162.598 37.2061 162.548 37.2569Z" fill="#D9D9D9"/>
<path d="M161.46 37.4503C161.67 37.3203 161.98 37.5003 162.16 37.6103L161.96 37.8503L162.04 38.1203C162.218 38.0601 162.411 38.0601 162.59 38.1203C163.19 38.7203 162.17 40.0503 161.11 39.7303L161.78 38.9703H161.72C161.673 38.9465 161.632 38.9123 161.6 38.8703C161.6 39.2603 161.34 39.2603 161.2 39.2203C161.31 39.3003 161.2 39.7703 160.8 39.5003C160.4 39.2303 160.2 38.9903 160.24 38.6403C160.28 38.2903 160.43 38.3203 160.59 38.3603C160.53 37.8303 160.93 37.8703 161.18 37.9703C161.13 37.6103 161.3 37.5503 161.46 37.4503Z" fill="#FBD393"/>
<path d="M161.43 38.5705V38.5005C161.02 37.6605 161.27 37.5905 161.5 37.5005C161.73 37.4105 162.02 37.5505 162.2 37.6605L162 37.9005L162.08 38.1705M161.47 38.6205C161.75 39.1805 162.06 39.0105 162.23 38.8605C162.177 38.9143 162.113 38.955 162.042 38.9793C161.971 39.0037 161.895 39.0109 161.82 39.0005M161.47 38.6205C161.539 38.7837 161.663 38.9179 161.82 39.0005M161.47 38.6205C161.632 38.421 161.842 38.2662 162.08 38.1705M161.82 39.0005L161.15 39.7605C162.21 40.0805 163.23 38.7605 162.63 38.1505C162.452 38.0903 162.258 38.0903 162.08 38.1505M160.63 38.3405C160.57 37.8105 160.97 37.8505 161.22 37.9505C161.287 38.2763 161.431 38.5815 161.64 38.8405C161.64 39.2805 161.33 39.2405 161.21 39.1905M160.63 38.3405C160.732 38.6766 160.934 38.9734 161.21 39.1905M160.63 38.3405C160.728 38.6784 160.931 38.9762 161.21 39.1905M160.63 38.3405C160.47 38.3405 160.31 38.3405 160.28 38.6205C160.25 38.9005 160.4 39.1805 160.84 39.4805C161.28 39.7805 161.36 39.1805 161.21 39.1905" stroke="#974C28" stroke-width="0.05" stroke-linejoin="round"/>
<path d="M173.82 39.3604C173.61 40.0104 172.96 39.3104 172.89 39.2804C172.82 39.2504 172.59 39.3604 172.47 39.4704C172.442 39.3877 172.43 39.3002 172.436 39.213C172.442 39.1259 172.465 39.0408 172.504 38.9626C172.543 38.8845 172.598 38.8149 172.664 38.7579C172.73 38.7008 172.807 38.6575 172.89 38.6304C172.921 38.491 173.002 38.3679 173.119 38.2849C173.235 38.2018 173.378 38.1646 173.52 38.1804C173.52 38.0504 173.7 37.8304 174.12 37.9104C174.31 38.0504 174.7 38.3904 174.64 38.6404C174.638 38.6833 174.627 38.7253 174.607 38.7632C174.587 38.8012 174.559 38.834 174.524 38.8591C174.489 38.8842 174.449 38.901 174.407 38.9082C174.364 38.9153 174.321 38.9127 174.28 38.9004C174.314 38.9836 174.314 39.0771 174.28 39.1604C174.264 39.205 174.24 39.2459 174.208 39.2806C174.176 39.3152 174.137 39.3428 174.094 39.3617C174.051 39.3805 174.004 39.3901 173.957 39.3899C173.909 39.3896 173.863 39.3796 173.82 39.3604V39.3604Z" fill="#F7C183"/>
<path d="M172.89 38.6304C173.096 38.6575 173.291 38.7396 173.455 38.868C173.618 38.9964 173.744 39.1665 173.82 39.3604M172.89 38.6304C172.921 38.491 173.002 38.3679 173.119 38.2849C173.235 38.2018 173.378 38.1646 173.52 38.1804M172.89 38.6304C172.807 38.6575 172.73 38.7008 172.664 38.7579C172.598 38.8149 172.543 38.8845 172.504 38.9626C172.465 39.0408 172.442 39.1259 172.436 39.213C172.43 39.3002 172.442 39.3877 172.47 39.4704C172.59 39.3604 172.83 39.2404 172.89 39.2804C172.95 39.3204 173.61 40.0104 173.82 39.3604M173.82 39.3604C173.863 39.3796 173.909 39.3896 173.957 39.3899C174.004 39.3901 174.051 39.3805 174.094 39.3617C174.137 39.3428 174.176 39.3152 174.208 39.2806C174.24 39.2459 174.264 39.205 174.28 39.1604C174.314 39.0771 174.314 38.9836 174.28 38.9004M173.52 38.1804C173.52 38.0504 173.7 37.8304 174.12 37.9104C174.31 38.0504 174.7 38.3904 174.64 38.6404C174.638 38.6833 174.627 38.7253 174.607 38.7632C174.587 38.8012 174.559 38.834 174.524 38.8591C174.489 38.8842 174.449 38.901 174.407 38.9082C174.364 38.9153 174.321 38.9127 174.28 38.9004M173.52 38.1804C173.836 38.3436 174.1 38.5933 174.28 38.9004" stroke="#974C28" stroke-width="0.05" stroke-linejoin="round"/>
<path d="M168.44 27.5606C169.094 27.0305 169.908 26.7379 170.75 26.7306C172.6 26.7306 174.17 28.2206 174.65 30.4406C174.692 30.6334 174.695 30.8327 174.659 31.0268C174.623 31.2208 174.549 31.4057 174.44 31.5706C174.352 31.7198 174.226 31.8435 174.075 31.9294C173.924 32.0153 173.754 32.0605 173.58 32.0606C171.45 27.5606 159.37 37.9106 159.37 30.1606C161.84 30.1606 164.22 31.1606 166.1 29.5706L168.44 27.5606ZM162.82 27.1306L163.47 23.4006C163.505 23.1987 163.581 23.006 163.693 22.8341C163.805 22.6623 163.95 22.5148 164.12 22.4006C164.291 22.2851 164.484 22.2052 164.687 22.1657C164.889 22.1261 165.098 22.1278 165.3 22.1706L169.87 23.1706C170.186 23.2327 170.474 23.3943 170.692 23.6318C170.91 23.8693 171.046 24.1702 171.08 24.4906L172 27.1306C171.84 27.1306 170.61 27.5606 170.44 27.5606C169.44 27.5606 167.71 30.0906 167.16 29.1706C167.16 29.1706 167.77 28.9806 166.08 30.4406C164.39 31.9006 162.82 31.3006 160.5 31.3006C160.35 31.3019 160.2 31.2734 160.061 31.2167C159.921 31.16 159.794 31.0762 159.688 30.9702C159.581 30.8642 159.496 30.7381 159.438 30.5991C159.38 30.4602 159.35 30.3111 159.35 30.1606C159.456 29.3176 159.868 28.5429 160.508 27.9841C161.147 27.4253 161.971 27.1215 162.82 27.1306V27.1306Z" fill="#5E5E5E"/>
<path opacity="0.2" d="M165.46 24.5704L164.65 23.3604L165.76 24.0604L170 24.0104L166 24.4404L165.05 28.0104L165.46 24.5704Z" fill="#D9D9D9"/>
<g opacity="0.2">
<path d="M162.88 27.1504C163.39 30.8404 169.81 27.9104 171.88 27.1504L170.72 27.7304C168.77 28.6504 163.05 30.7304 162.85 27.1504H162.88Z" fill="#EDE8FF"/>
</g>
<path d="M59.3302 42.2306C59.2349 42.3237 59.1592 42.4349 59.1076 42.5577C59.0559 42.6805 59.0293 42.8124 59.0293 42.9456C59.0293 43.0788 59.0559 43.2106 59.1076 43.3334C59.1592 43.4562 59.2349 43.5674 59.3302 43.6606L60.8902 45.2306C60.9835 45.3273 61.0953 45.4043 61.219 45.4569C61.3427 45.5095 61.4758 45.5366 61.6102 45.5366C61.7446 45.5366 61.8776 45.5095 62.0013 45.4569C62.125 45.4043 62.2369 45.3273 62.3302 45.2306C62.4254 45.1374 62.5011 45.0262 62.5528 44.9034C62.6044 44.7806 62.631 44.6488 62.631 44.5156C62.631 44.3824 62.6044 44.2505 62.5528 44.1277C62.5011 44.0049 62.4254 43.8937 62.3302 43.8006L60.7602 42.2306C60.667 42.1353 60.5558 42.0596 60.433 42.008C60.3102 41.9563 60.1784 41.9297 60.0452 41.9297C59.912 41.9297 59.7801 41.9563 59.6573 42.008C59.5345 42.0596 59.4233 42.1353 59.3302 42.2306V42.2306Z" fill="#F8D319" stroke="white" stroke-miterlimit="10"/>
<path d="M160 40.8304C160.097 40.9237 160.174 41.0355 160.226 41.1592C160.279 41.283 160.306 41.416 160.306 41.5504C160.306 41.6848 160.279 41.8179 160.226 41.9416C160.174 42.0653 160.097 42.1771 160 42.2704L158.44 43.8404C158.347 43.9372 158.235 44.0142 158.111 44.0668C157.987 44.1193 157.854 44.1464 157.72 44.1464C157.585 44.1464 157.452 44.1193 157.329 44.0668C157.205 44.0142 157.093 43.9372 157 43.8404C156.903 43.7471 156.826 43.6353 156.774 43.5116C156.721 43.3879 156.694 43.2548 156.694 43.1204C156.694 42.986 156.721 42.853 156.774 42.7292C156.826 42.6055 156.903 42.4937 157 42.4004L158.57 40.8304C158.663 40.7352 158.774 40.6595 158.897 40.6078C159.02 40.5562 159.152 40.5295 159.285 40.5295C159.418 40.5295 159.55 40.5562 159.673 40.6078C159.796 40.6595 159.907 40.7352 160 40.8304Z" fill="#FC8019" stroke="white" stroke-miterlimit="10"/>
<path d="M62.3298 45.2305C81.9998 61.5905 109.82 67.5405 133.81 57.7905C141.788 54.6544 149.214 50.2659 155.81 44.7905C149.958 51.3322 142.806 56.5808 134.81 60.2005C110.68 71.7205 79.8098 65.5505 62.2998 45.2005L62.3298 45.2305Z" fill="#F8D319"/>
<path d="M171.65 36.0105C171.33 35.5305 171.04 35.8805 170.65 36.0105C170.8 35.5005 171.75 35.2705 171.65 36.0105Z" fill="#8C8C8C"/>
</svg>
