<svg width="28" height="34" viewBox="0 0 28 34" fill="none" xmlns="http://www.w3.org/2000/svg">
<path d="M2.56646 23.204C2.0334 23.204 1.58052 23.0146 1.20781 22.6358C0.834243 22.2578 0.647461 21.7986 0.647461 21.2581V18.7932L5.76479 14.1878V23.204H2.56646ZM7.04412 23.204V18.0148H17.2788V23.204H7.04412ZM18.5581 23.204V12.5661L13.089 7.63641L16.9589 4.16613L23.0358 9.64722C23.249 9.84182 23.4089 10.0632 23.5155 10.3114C23.6221 10.5605 23.6754 10.8256 23.6754 11.1067V21.2581C23.6754 21.7986 23.4886 22.2578 23.1151 22.6358C22.7424 23.0146 22.2895 23.204 21.7564 23.204H18.5581ZM0.647461 17.0418V11.1067C0.647461 10.8256 0.700766 10.5553 0.807377 10.2959C0.913988 10.0364 1.0739 9.8202 1.28713 9.64722L10.8821 1.02018C11.0527 0.847206 11.2501 0.722665 11.4744 0.646556C11.6979 0.571313 11.9269 0.533691 12.1614 0.533691C12.396 0.533691 12.6254 0.571313 12.8497 0.646556C13.0732 0.722665 13.2702 0.847206 13.4408 1.02018L15.9994 3.32289L0.647461 17.0418Z" fill="#C7872E"/>
<path d="M20.5939 31.0744H21.8732V27.8312H25.0716V26.5339H21.8732V23.2906H20.5939V26.5339H17.3956V27.8312H20.5939V31.0744ZM21.2336 33.669C19.4638 33.669 17.9555 33.0368 16.7086 31.7724C15.4608 30.5071 14.8369 28.9771 14.8369 27.1825C14.8369 25.3879 15.4608 23.858 16.7086 22.5927C17.9555 21.3283 19.4638 20.696 21.2336 20.696C23.0033 20.696 24.5121 21.3283 25.7598 22.5927C27.0068 23.858 27.6302 25.3879 27.6302 27.1825C27.6302 28.9771 27.0068 30.5071 25.7598 31.7724C24.5121 33.0368 23.0033 33.669 21.2336 33.669Z" fill="#4CAF50"/>
</svg>
