<svg width="252" height="50" viewBox="0 0 252 50" fill="none" xmlns="http://www.w3.org/2000/svg">
<path d="M0 46.0071C0 47.7393 1.40422 49.1435 3.13642 49.1435C4.86862 49.1435 6.27284 47.7393 6.27284 46.0071V36.6509H19.0068V46.0144C19.0068 47.7426 20.4078 49.1435 22.136 49.1435C23.8642 49.1435 25.2652 47.7426 25.2652 46.0144V22.0305C25.2652 20.3023 23.8642 18.9014 22.136 18.9014C20.4078 18.9014 19.0068 20.3023 19.0068 22.0305V27.2199C19.0068 29.517 17.1447 31.3792 14.8476 31.3792H10.4321C8.13501 31.3792 6.27284 29.517 6.27284 27.2199V22.0378C6.27284 20.3056 4.86862 18.9014 3.13642 18.9014C1.40422 18.9014 0 20.3056 0 22.0378V46.0071Z" fill="#FE0000"/>
<path d="M40.375 49.5865C47.126 49.5865 51.3272 44.876 51.3272 37.8913C51.3272 30.8624 47.126 26.1666 40.375 26.1666C33.6241 26.1666 29.4229 30.8624 29.4229 37.8913C29.4229 44.876 33.6241 49.5865 40.375 49.5865ZM40.404 44.7135C37.2893 44.7135 35.6958 41.8045 35.6958 37.847C35.6958 33.8896 37.2893 30.9658 40.404 30.9658C43.4608 30.9658 45.0543 33.8896 45.0543 37.847C45.0543 41.8045 43.4608 44.7135 40.404 44.7135Z" fill="#FE0000"/>
<path d="M55.34 46.0578C55.34 47.762 56.7216 49.1435 58.4258 49.1435C60.13 49.1435 61.5115 47.762 61.5115 46.0578V35.5287C61.5115 33.0183 63.0761 31.3497 65.1332 31.3497C67.1614 31.3497 68.5231 32.7673 68.5231 34.9971V46.152C68.5231 47.8042 69.8625 49.1435 71.5147 49.1435C73.1669 49.1435 74.5062 47.8042 74.5062 46.152V35.2924C74.5062 32.9445 75.8245 31.3497 78.07 31.3497C80.0402 31.3497 81.5179 32.6049 81.5179 35.13V46.0651C81.5179 47.7653 82.8962 49.1435 84.5964 49.1435C86.2966 49.1435 87.6749 47.7653 87.6749 46.0651V33.8896C87.6749 28.9722 84.8064 26.1666 80.6632 26.1666C77.4477 26.1666 74.9371 27.8191 73.9937 30.3587C73.9704 30.4213 73.9111 30.4637 73.8443 30.4637C73.7733 30.4637 73.7112 30.4156 73.6913 30.3474C72.9465 27.7861 70.6943 26.1666 67.6829 26.1666C64.7226 26.1666 62.4682 27.7494 61.5189 30.3612C61.4967 30.4222 61.439 30.4637 61.3741 30.4637C61.2899 30.4637 61.2217 30.3955 61.2217 30.3113V28.4628C61.2217 27.3577 60.3259 26.4619 59.2208 26.4619H58.2809C56.6567 26.4619 55.34 27.7786 55.34 29.4028V46.0578Z" fill="#FE0000"/>
<path d="M102.691 49.5865C108.196 49.5865 111.904 46.8547 112.773 42.6462L107.066 42.2623C106.443 43.99 104.849 44.8907 102.792 44.8907C99.7062 44.8907 97.7505 42.8086 97.7505 39.4271V39.4123H112.904V37.6846C112.904 29.9764 108.326 26.1666 102.444 26.1666C95.8962 26.1666 91.6515 30.9067 91.6515 37.9061C91.6515 45.0975 95.8382 49.5865 102.691 49.5865ZM97.7505 35.5139C97.8809 32.9297 99.8076 30.8624 102.546 30.8624C105.226 30.8624 107.08 32.8116 107.095 35.5139H97.7505Z" fill="#FE0000"/>
<path d="M9.36779 15.1211H3.1072C2.28737 15.1211 1.81586 14.1888 2.30174 13.5284L11.4504 1.09469C11.85 0.551553 12.6617 0.551551 13.0613 1.09468L22.2099 13.5284C22.6958 14.1888 22.2243 15.1211 21.4045 15.1211H15.9645H9.36779Z" fill="#1ECE7A"/>
<path d="M131.963 25.5035C133.14 26.6001 134.369 28.0124 135.978 28.0124C137.724 28.0124 139.196 26.5364 138.573 24.9052C137.176 21.2445 133.357 18.9014 128.115 18.9014C121.611 18.9014 116.844 22.5635 116.873 28.0567C116.859 32.5163 119.945 35.0709 124.957 36.2965L128.188 37.1235C131.418 37.9209 133.215 38.8659 133.229 40.9037C133.215 43.1187 131.157 44.6249 127.97 44.6249C125.877 44.6249 124.161 43.9918 123.146 42.7371C122.121 41.4695 120.895 40.062 119.265 40.062C117.525 40.062 116.063 41.5262 116.568 43.1914C117.929 47.679 122.097 49.9852 128.043 49.9852C135.286 49.9852 139.545 46.456 139.56 40.9185C139.545 35.8831 135.822 33.2103 130.665 32.029L127.999 31.3792C125.421 30.7738 123.262 29.7992 123.306 27.6285C123.306 25.6793 125.001 24.2469 128.072 24.2469C129.765 24.2469 131.089 24.6897 131.963 25.5035Z" fill="#ED6823"/>
<path d="M153.717 50C158.362 50 161.653 47.8226 162.998 44.3709C163.631 42.7474 162.189 41.2434 160.447 41.2434C158.944 41.2434 157.795 42.4655 156.85 43.6344C156.118 44.5396 155.052 45.0236 153.79 45.0236C150.907 45.0236 149.038 42.5576 149.038 38.2162C149.038 33.9339 150.921 31.4826 153.79 31.4826C155.1 31.4826 156.137 31.9936 156.843 32.8631C157.793 34.0347 158.949 35.2629 160.458 35.2629C162.197 35.2629 163.642 33.7642 163 32.1476C161.63 28.7002 158.248 26.58 153.688 26.58C146.937 26.58 142.765 31.3497 142.765 38.3048C142.765 45.2008 146.865 50 153.717 50Z" fill="#ED6823"/>
<path d="M206.895 39.8996C206.91 42.9415 204.867 44.5363 202.65 44.5363C200.318 44.5363 198.811 42.8677 198.797 40.1949V29.9611C198.797 28.2569 197.415 26.8754 195.711 26.8754C194.007 26.8754 192.625 28.2569 192.625 29.9611V41.3172C192.64 46.6184 195.682 49.8523 200.159 49.8523C203.468 49.8523 205.856 48.1342 206.876 45.5259C206.896 45.4727 206.947 45.4371 207.004 45.4371C207.08 45.4371 207.141 45.4984 207.141 45.5741V47.4971C207.141 48.6347 208.064 49.557 209.201 49.557H210.104C211.74 49.557 213.067 48.2306 213.067 46.5944V29.9611C213.067 28.2569 211.685 26.8754 209.981 26.8754C208.277 26.8754 206.895 28.2569 206.895 29.9611V39.8996Z" fill="#ED6823"/>
<path d="M229.839 28.9687C229.839 27.8126 228.902 26.8754 227.745 26.8754C226.589 26.8754 225.652 25.9381 225.652 24.782V24.1583C225.652 22.6577 224.436 21.4412 222.935 21.4412H222.198C220.697 21.4412 219.481 22.6577 219.481 24.1583V25.3543C219.481 26.1943 218.8 26.8754 217.959 26.8754C217.119 26.8754 216.438 27.5564 216.438 28.3965V30.0796C216.438 30.9197 217.119 31.6007 217.959 31.6007C218.8 31.6007 219.481 32.2818 219.481 33.1218V43.4141C219.452 47.8588 222.421 50.0591 226.898 49.8671C227.309 49.8519 227.689 49.819 228.037 49.775C229.319 49.6132 230.047 48.3222 229.784 47.057L229.589 46.1152C229.414 45.2727 228.599 44.8021 227.738 44.8021C226.507 44.8021 225.652 44.3296 225.652 42.5871V33.6941C225.652 32.5379 226.589 31.6007 227.745 31.6007C228.902 31.6007 229.839 30.6635 229.839 29.5074V28.9687Z" fill="#ED6823"/>
<path d="M248.371 33.539C250.06 33.4331 251.37 31.8504 250.498 30.3997C249.049 27.9855 246.164 26.58 242.019 26.58C236.325 26.58 232.573 29.2676 232.588 33.6385C232.573 37.0349 234.674 39.2351 239.02 40.1211L242.873 40.9037C244.815 41.3024 245.698 42.026 245.727 43.163C245.698 44.5068 244.264 45.4666 242.106 45.4666C241.068 45.4666 240.194 45.2535 239.521 44.835C238.206 44.0174 236.919 42.7222 235.373 42.805C233.551 42.9025 232.137 44.6144 233.13 46.1439C234.717 48.5858 237.802 50 242.091 50C247.857 50 251.986 47.0024 252 42.5281C251.986 39.2499 249.885 37.2859 245.568 36.3851L241.541 35.5582C239.469 35.1004 238.701 34.3769 238.716 33.2841C238.701 31.9256 240.208 31.0396 242.12 31.0396C243.07 31.0396 243.85 31.2745 244.45 31.6633C245.669 32.4538 246.92 33.63 248.371 33.539Z" fill="#ED6823"/>
<path d="M184.109 24.8888C184.169 24.915 184.227 24.9443 184.284 24.9765C186.157 26.1462 187.711 27.7785 188.801 29.7224C189.114 30.2769 189.43 30.836 189.589 31.465L189.6 31.4881C189.616 31.4949 189.629 31.5073 189.637 31.5231C189.645 31.5388 189.647 31.5568 189.643 31.574C189.679 31.6721 189.78 31.7425 189.76 31.8625C189.781 31.9044 189.8 31.9474 189.817 31.9912C190.487 33.9888 190.741 36.0447 190.414 38.126C189.565 43.5309 186.596 47.2145 181.539 49.05C178.701 50.0806 175.812 49.9877 172.975 48.945C170.167 47.9127 167.953 46.0986 166.352 43.5309C164.653 40.808 164.039 37.8283 164.42 34.6322C164.523 33.6878 164.746 32.761 165.082 31.8747L165.196 31.574C165.192 31.5568 165.194 31.5387 165.202 31.523C165.209 31.5072 165.223 31.4948 165.239 31.4881L165.252 31.4667C165.232 31.3738 165.285 31.3 165.317 31.2215C165.96 29.6368 166.9 28.1956 168.085 26.9793C168.878 26.1634 169.743 25.4444 170.732 24.8888C170.914 24.0856 171.473 23.6517 172.174 23.3562C172.287 23.3083 172.397 23.2547 172.513 23.2126C173.832 22.7233 175.078 22.1191 176.155 21.1717C176.778 20.6229 178.148 20.6899 178.781 21.238C179.385 21.7753 180.061 22.2222 180.789 22.5651C181.363 22.8283 181.953 23.0568 182.538 23.2974C183.281 23.602 183.912 24.0233 184.109 24.8888Z" fill="#FEFDFD"/>
<path d="M189.6 31.4876L189.588 31.4645C189.562 31.4547 189.532 31.4518 189.511 31.4333C188.722 30.6411 187.746 30.1639 186.741 29.745C186.629 29.6958 186.533 29.6159 186.464 29.5142C186.059 28.9833 185.644 28.4617 185.145 28.014C185.004 27.8882 184.823 27.7676 184.757 27.6049C184.408 26.7347 184.099 25.8496 184.109 24.8883C183.913 24.0228 183.281 23.6033 182.538 23.2975C181.954 23.0569 181.364 22.8284 180.789 22.5652C180.062 22.222 179.386 21.775 178.782 21.2375C178.148 20.6894 176.78 20.6224 176.156 21.1712C175.081 22.1181 173.835 22.7228 172.516 23.2109C172.403 23.253 172.29 23.3067 172.176 23.3546C171.475 23.65 170.916 24.0839 170.735 24.8871C170.749 25.8588 170.419 26.7468 170.085 27.6331C170.062 27.6846 170.026 27.7292 169.982 27.7624C169.49 28.1542 169.097 28.6423 168.685 29.1143C168.479 29.3503 168.357 29.6602 168.018 29.7854C167.367 30.0348 166.745 30.3572 166.163 30.7467C165.838 30.959 165.575 31.2481 165.255 31.4651L165.244 31.4876C165.229 31.5164 165.215 31.5453 165.2 31.5735C165.162 31.6739 165.124 31.7738 165.087 31.8742C165.118 32.0836 165.231 32.2094 165.431 32.2844C165.785 32.416 166.127 32.5781 166.479 32.716C166.636 32.7778 166.697 32.8418 166.641 33.0334C166.174 34.6176 166.045 36.2857 166.265 37.9247C166.478 39.5643 167.04 41.1365 167.913 42.5304C168.176 42.4473 168.319 42.1986 168.54 42.0573C166.941 39.3499 166.53 36.4724 167.352 33.4183C167.459 33.0143 167.472 33.0143 167.861 33.1655C167.895 33.1788 167.928 33.1932 167.962 33.2071C168.266 33.1615 168.52 32.9515 168.841 32.9497C169.327 32.9497 169.383 32.9918 169.383 33.4748C169.503 33.7962 169.409 34.1372 169.471 34.4638C169.484 34.4831 169.491 34.5054 169.492 34.5284C169.494 34.5515 169.489 34.5746 169.479 34.5954C169.584 35.1254 169.688 35.6561 169.791 36.1873C169.81 36.2021 169.823 36.2223 169.829 36.2451C169.835 36.268 169.834 36.2922 169.825 36.3143C169.876 36.462 169.926 36.6091 169.975 36.7568C170.236 36.8774 170.35 37.189 170.631 37.2831C170.549 36.5035 170.529 35.7286 170.736 34.9606C170.796 34.7009 170.904 34.4551 171.054 34.2359C171.593 33.4812 171.762 32.6151 171.718 31.697C171.709 31.5014 171.728 31.4143 171.957 31.4801C172.728 31.697 173.48 31.98 174.205 32.326C175.004 32.6335 175.812 32.9093 176.668 33.0086C176.725 32.9976 176.781 32.974 176.791 32.9088C176.8 32.8228 176.725 32.8343 176.674 32.8234C176.628 32.8107 176.582 32.8009 176.536 32.7939C175.874 32.7258 175.248 32.5308 174.636 32.2706C173.828 31.9244 173.025 31.5632 172.175 31.3404C170.954 31.0214 169.718 30.8858 168.455 31.0369C167.619 31.1368 166.796 31.2625 166.029 31.6422C165.986 31.663 165.934 31.7201 165.887 31.6364C165.91 31.5435 165.99 31.5037 166.057 31.4518C166.7 30.9365 167.442 30.6013 168.171 30.2401C168.655 30 169.225 29.9112 169.583 29.4386C169.646 29.3555 169.71 29.4005 169.78 29.4415C170.429 29.8171 171.119 30.0952 171.818 30.3578C174.253 31.2758 176.757 31.6139 179.339 31.2931C181.264 31.0531 183.086 30.4628 184.821 29.5869C184.913 29.5402 185.047 29.5292 185.062 29.3774C185.016 29.3809 184.97 29.3718 184.928 29.351C184.886 29.3302 184.851 29.2985 184.825 29.2592C184.427 28.7276 184.118 28.1328 183.91 27.4987C183.881 27.411 183.815 27.3071 183.942 27.254C184.078 27.1963 184.087 27.3296 184.125 27.4104C184.395 27.9995 184.634 28.6042 185.013 29.1351C185.037 29.17 185.054 29.2099 185.063 29.2522C185.071 29.2944 185.07 29.3379 185.06 29.3798C185.129 29.4005 185.215 29.3688 185.267 29.445C185.53 29.8269 185.963 29.9193 186.343 30.0958C187.184 30.4853 188.033 30.8575 188.771 31.4403C188.846 31.498 188.941 31.5453 188.955 31.6607C187.813 31.2314 186.656 30.9792 185.45 30.9792C184.053 30.9792 182.264 31.3226 181.97 31.6532C182.029 31.7195 182.11 31.6924 182.182 31.7016C182.433 31.6278 182.685 31.5551 182.936 31.4789C183.08 31.4351 183.136 31.4703 183.129 31.6382C183.117 31.9232 183.132 32.2094 183.136 32.4956C183.171 32.5728 183.213 32.6469 183.261 32.7172C183.982 33.6173 184.306 34.6479 184.247 35.8059C184.283 36.2987 184.271 36.7938 184.213 37.2842C184.331 37.2756 184.4 37.174 184.496 37.1261C184.636 37.0569 184.64 36.8376 184.825 36.8163C184.988 36.687 184.939 36.4666 185.035 36.3079C185.025 36.2874 185.023 36.2637 185.029 36.2416C185.035 36.2195 185.049 36.2006 185.068 36.1885L185.364 34.5948C185.353 34.5742 185.349 34.5512 185.35 34.5282C185.352 34.5052 185.359 34.483 185.372 34.4638L185.462 33.5267C185.462 32.9993 185.56 32.9036 186.089 32.9607C186.227 32.9769 186.361 33.0138 186.489 33.0703C186.613 33.1331 186.745 33.1785 186.881 33.2053C186.946 33.1961 187.025 33.2053 187.074 33.173C187.357 32.9734 187.423 33.1384 187.492 33.394C188.243 36.1879 187.973 38.8676 186.65 41.4341C186.603 41.5247 186.586 41.6395 186.474 41.6822C186.511 41.8184 186.329 41.9627 186.474 42.0861C186.65 42.2408 186.741 42.4456 186.82 42.6603C186.98 42.5933 186.993 42.4196 187.069 42.2944C188.036 40.6967 188.548 38.9478 188.668 37.084C188.758 35.7227 188.601 34.3562 188.207 33.0524C188.15 32.8707 188.19 32.7905 188.349 32.7258C188.699 32.5839 189.042 32.4229 189.395 32.2925C189.606 32.2152 189.727 32.0877 189.756 31.8649C189.776 31.7438 189.675 31.6734 189.64 31.5764L189.6 31.4876ZM177.443 28.5235C176.633 28.5465 175.801 28.4548 174.974 28.314C173.615 28.0832 172.309 27.6487 171.019 27.1634C170.839 27.0959 170.846 27.0117 170.899 26.8622C171.068 26.3735 171.229 25.8756 171.248 25.3545C171.271 24.7452 171.531 24.3113 172.062 24.0453C172.248 23.953 172.436 23.8624 172.628 23.7879C173.999 23.2594 175.325 22.661 176.424 21.6236C176.936 21.1377 177.989 21.2041 178.499 21.6743C179.227 22.3521 180.065 22.8955 180.976 23.2802C181.643 23.5652 182.345 23.7712 182.97 24.1589C183.326 24.3794 183.544 24.6938 183.571 25.1127C183.619 25.7266 183.75 26.3307 183.96 26.9078C184.01 27.0469 183.981 27.1219 183.843 27.1698C183.301 27.3579 182.768 27.5702 182.218 27.741C180.671 28.22 179.101 28.5437 177.443 28.5235ZM170.857 27.2108C170.95 27.2073 170.998 27.3089 170.95 27.4577C170.736 28.1117 170.418 28.7253 170.008 29.2736C169.958 29.3399 169.91 29.4005 169.826 29.3342C169.742 29.2678 169.789 29.1986 169.833 29.1345C170.22 28.576 170.485 27.9528 170.748 27.3285C170.771 27.2737 170.785 27.2165 170.857 27.2108Z" fill="#5C3C1D"/>
<path d="M167.913 42.5305C167.039 41.1367 166.476 39.5646 166.263 37.9248C166.043 36.2857 166.171 34.6176 166.639 33.0335C166.696 32.8419 166.634 32.7778 166.476 32.7161C166.125 32.5782 165.782 32.4161 165.429 32.2845C165.228 32.2095 165.116 32.0837 165.085 31.8742C164.747 32.7603 164.523 33.6872 164.419 34.6318C164.038 37.8279 164.653 40.8058 166.351 43.5305C167.952 46.0982 170.166 47.9123 172.974 48.9446C175.811 49.9872 178.7 50.0801 181.538 49.0496C186.594 47.2141 189.566 43.5305 190.415 38.1256C190.742 36.0443 190.487 33.9884 189.821 31.9914C189.804 31.9477 189.785 31.9049 189.764 31.8633C189.734 32.086 189.613 32.2135 189.402 32.2908C189.049 32.4213 188.706 32.5822 188.357 32.7242C188.198 32.7888 188.16 32.869 188.214 33.0508C188.609 34.3545 188.765 35.721 188.676 37.0824C188.556 38.945 188.044 40.695 187.077 42.2928C187.001 42.418 186.988 42.5917 186.828 42.658C186.824 42.7704 186.798 42.8809 186.751 42.9823C186.703 43.0836 186.635 43.1737 186.551 43.2466C186.452 43.3395 186.328 43.4197 186.302 43.5726C186.431 43.7653 186.408 43.9482 186.272 44.1283C186.18 44.2563 186.063 44.3634 185.927 44.4429C185.792 44.5223 185.643 44.5724 185.488 44.5899C185.34 44.6027 185.201 44.6678 185.095 44.7739C184.248 45.5879 183.279 46.261 182.227 46.7687C180.249 47.7127 178.168 48.0219 176.01 47.7663C174.482 47.5835 173.01 47.0702 171.692 46.2609C171.048 45.8702 170.435 45.4335 169.897 44.8951C169.813 44.8956 169.729 44.902 169.646 44.9141C169.221 45.0047 168.984 44.8997 168.765 44.5022C168.751 44.4722 168.732 44.4454 168.707 44.4237C168.683 44.402 168.655 44.3859 168.624 44.3764C168.363 44.3065 168.234 44.1127 168.196 43.8605C168.148 43.5351 167.816 43.3989 167.733 43.0994C167.72 43.0492 167.913 42.5305 167.609 43.0654C167.913 42.5305 168.113 42.6026 167.738 42.5778C168.986 42.9812 168.587 42.0902 167.738 42.5778C168.986 42.9812 168.986 42.9812 167.738 42.5778C167.763 42.624 167.758 42.7036 167.842 42.6742C167.9 42.6505 167.91 42.5899 167.913 42.5305ZM186.984 42.8733C186.978 42.9154 186.98 42.9638 186.919 42.9627C186.913 42.9627 186.901 42.9511 186.901 42.9448C186.897 42.8819 186.945 42.8825 186.986 42.8756C186.98 42.7886 187.003 42.7023 187.052 42.6309C187.507 41.906 187.88 41.1319 188.166 40.3229C188.223 40.1688 188.294 40.1717 188.39 40.2536C188.704 40.5248 189.013 40.8024 189.324 41.0776C189.423 41.1659 189.437 41.2668 189.381 41.3869C189.181 41.8081 188.99 42.2333 188.787 42.6523C188.65 42.9344 188.483 43.1468 188.108 42.9985C187.969 42.9436 187.792 42.9858 187.632 42.9887C187.408 42.995 187.184 43.0065 186.984 42.8733Z" fill="#C7872E"/>
<path d="M165.253 31.4661C165.572 31.2492 165.836 30.9601 166.161 30.7477C166.742 30.3583 167.364 30.0359 168.016 29.7864C168.355 29.6612 168.477 29.3514 168.683 29.1154C169.095 28.6434 169.487 28.1552 169.979 27.7634C170.024 27.7302 170.06 27.6857 170.082 27.6342C170.416 26.7479 170.746 25.8599 170.733 24.8882C169.743 25.4438 168.876 26.1628 168.086 26.9787C166.9 28.195 165.96 29.6362 165.318 31.2209C165.288 31.2982 165.236 31.3721 165.253 31.4661Z" fill="#C7872E"/>
<path d="M184.11 24.8882C184.099 25.8512 184.408 26.7387 184.758 27.6105C184.823 27.7732 185.005 27.8938 185.145 28.0196C185.644 28.4657 186.059 28.985 186.464 29.5158C186.533 29.6175 186.63 29.6975 186.741 29.7466C187.746 30.1684 188.723 30.6427 189.511 31.435C189.529 31.4534 189.563 31.4563 189.589 31.4661C189.429 30.8372 189.114 30.2781 188.801 29.7235C187.711 27.7785 186.158 26.145 184.284 24.9742C184.228 24.9425 184.169 24.9138 184.11 24.8882Z" fill="#C7872E"/>
<path d="M165.201 31.5735C165.216 31.5452 165.23 31.5158 165.244 31.4875C165.228 31.4943 165.215 31.5067 165.207 31.5225C165.199 31.5382 165.197 31.5563 165.201 31.5735Z" fill="#C7872E"/>
<path d="M189.6 31.4875L189.643 31.5735C189.647 31.5563 189.645 31.5383 189.637 31.5225C189.629 31.5068 189.616 31.4944 189.6 31.4875Z" fill="#C7872E"/>
<path d="M174.205 32.328C173.48 31.9821 172.728 31.6991 171.957 31.4821C171.73 31.4164 171.709 31.5035 171.718 31.6991C171.762 32.6154 171.593 33.4815 171.054 34.2379C170.904 34.4572 170.796 34.703 170.736 34.9627C170.529 35.7307 170.549 36.5056 170.631 37.2851C170.799 37.7854 171.01 38.2697 171.261 38.7323C172.098 40.2764 173.209 41.5371 174.843 42.2307C176.721 43.0281 178.579 42.9658 180.406 42.0513C181.255 41.6266 181.949 40.9971 182.572 40.281C182.58 40.1656 182.464 40.101 182.454 39.9925C182.383 39.8575 182.332 39.734 182.379 39.5615C182.431 39.367 182.256 39.2303 182.141 39.1027C182.051 39.0041 181.95 39.127 181.867 39.1731C180.286 40.056 178.394 39.6959 177.15 38.4034C176.345 37.5679 175.925 36.5529 175.941 35.366C175.941 35.2171 175.995 35.0579 175.89 34.9194C175.537 34.7186 175.142 34.6522 174.755 34.5611C174.642 34.5715 174.533 34.594 174.425 34.5472L174.247 34.5472L174.226 34.5576L174.202 34.5501L173.671 34.5784L173.667 34.4999C173.922 34.4647 174.167 34.343 174.437 34.448L174.755 34.4618C175.208 34.3741 175.599 34.5743 176 34.7278C176.003 34.588 176.026 34.4494 176.069 34.3164C176.214 33.8777 176.407 33.4574 176.646 33.0637C175.995 33.0701 175.359 32.9483 174.725 32.8202C174.477 32.77 174.299 32.5802 174.205 32.328ZM173.121 36.9932C173.342 37.063 173.355 37.288 173.451 37.4548C173.766 37.8842 174.114 38.2873 174.493 38.6602C175.528 39.6988 176.765 40.2279 178.219 40.2291C178.358 40.1165 178.516 40.1898 178.667 40.1881C178.52 40.2331 178.378 40.307 178.217 40.2775C177.775 40.3814 177.334 40.3352 176.901 40.2371C175.294 39.8811 174.205 38.835 173.376 37.4519C173.25 37.3278 173.162 37.1685 173.123 36.9938C173.102 36.9736 173.051 36.9614 173.104 36.9205C173.108 36.9424 173.114 36.9678 173.121 36.9932ZM173.863 36.2488C173.315 35.9511 172.784 35.5789 172.296 36.3106C172.287 36.0117 172.447 35.8166 172.733 35.7382C173.108 35.6349 173.638 35.8611 173.862 36.2488L173.863 36.2488Z" fill="#F6C687"/>
<path d="M177.443 28.5236C179.101 28.5444 180.669 28.2207 182.218 27.7389C182.768 27.5658 183.301 27.3557 183.843 27.1676C183.981 27.1197 184.01 27.0447 183.96 26.9057C183.749 26.3296 183.618 25.7264 183.569 25.1135C183.541 24.6946 183.324 24.3801 182.968 24.1597C182.345 23.7719 181.641 23.5659 180.974 23.2809C180.064 22.8959 179.226 22.3523 178.499 21.6745C177.994 21.2042 176.938 21.1402 176.427 21.6231C175.328 22.6617 174.002 23.259 172.631 23.7875C172.438 23.8619 172.25 23.9525 172.065 24.0448C171.533 24.3108 171.273 24.7448 171.251 25.3541C171.232 25.8734 171.074 26.3731 170.902 26.8618C170.849 27.0113 170.843 27.0926 171.023 27.163C172.313 27.6483 173.617 28.0816 174.977 28.3136C175.801 28.4544 176.631 28.5461 177.443 28.5236ZM181.485 24.9836C180.218 25.2658 178.371 24.1429 178.151 22.9791C179.138 23.8573 180.197 24.5682 181.485 24.9836Z" fill="#8B8B8B"/>
<path d="M175.89 34.9172C175.995 35.0556 175.943 35.2149 175.941 35.3638C175.925 36.5507 176.345 37.5656 177.15 38.4012C178.395 39.6937 180.286 40.0537 181.867 39.1709C181.95 39.1247 182.051 39.0018 182.141 39.1005C182.254 39.228 182.431 39.3648 182.379 39.5592C182.332 39.7323 182.383 39.8552 182.453 39.9902C182.531 39.8518 182.58 39.6954 182.696 39.5806C182.772 39.4109 182.871 39.2949 183.071 39.4109L183.194 39.3855L183.217 39.3053C183.185 39.2707 183.153 39.2067 183.123 39.2072C182.881 39.2153 182.772 39.0474 182.664 38.8708C182.65 38.8483 182.6 38.8483 182.567 38.8385C182.552 38.9689 182.657 39.0405 182.714 39.1334C182.77 39.2263 182.77 39.2701 182.676 39.3371C182.581 39.404 182.528 39.4 182.468 39.3163C182.423 39.2557 182.382 39.1922 182.343 39.1288C182.303 39.0653 182.187 39.0203 182.286 38.9205C182.363 38.842 182.443 38.7543 182.569 38.8391C182.573 38.7876 182.589 38.7378 182.615 38.6932C182.641 38.6487 182.676 38.6106 182.718 38.5818C182.961 38.4004 183.183 38.1913 183.38 37.9586C183.889 37.3302 184.116 36.5893 184.248 35.8058C184.305 34.6477 183.983 33.6171 183.261 32.717C183.214 32.6466 183.172 32.5723 183.136 32.4949L182.182 31.7015C182.11 31.6922 182.03 31.7194 181.971 31.653C182.265 31.3224 184.053 30.979 185.45 30.979C186.657 30.979 187.814 31.2312 188.956 31.6605C188.943 31.5451 188.846 31.4995 188.772 31.4401C188.036 30.8573 187.186 30.4857 186.344 30.0945C185.963 29.9179 185.53 29.8256 185.268 29.4436C185.215 29.3675 185.13 29.3992 185.06 29.3784C185.048 29.5296 184.911 29.5411 184.819 29.5879C183.084 30.4615 181.263 31.0518 179.339 31.2929C176.757 31.6149 174.253 31.2768 171.816 30.3605C171.117 30.0979 170.427 29.8198 169.778 29.4442C169.708 29.4032 169.644 29.3582 169.581 29.4413C169.223 29.9139 168.653 30.0027 168.169 30.2428C167.44 30.604 166.697 30.9392 166.055 31.4545C165.99 31.5064 165.91 31.5462 165.885 31.6391C165.931 31.7228 165.984 31.6657 166.027 31.6449C166.793 31.2652 167.617 31.1395 168.453 31.0396C169.716 30.8885 170.952 31.0241 172.172 31.3431C173.021 31.5659 173.826 31.9294 174.634 32.2733C175.246 32.5335 175.872 32.7285 176.533 32.7966C176.58 32.8036 176.626 32.8134 176.672 32.8261C176.723 32.837 176.798 32.8261 176.789 32.9115C176.781 32.9767 176.725 33.0003 176.666 33.0113C176.659 33.0286 176.652 33.0459 176.644 33.0638C176.406 33.4575 176.212 33.8778 176.067 34.3165C176.024 34.4494 176.001 34.5881 175.998 34.7279C176.014 34.8202 176.028 34.9148 175.89 34.9172ZM183.363 37.5322C183.406 37.5126 183.406 37.5397 183.402 37.5703C183.381 37.6118 183.388 37.6955 183.323 37.6724C183.295 37.6637 183.302 37.5679 183.361 37.5322L183.363 37.5322ZM177.749 32.8289C177.684 32.8316 177.619 32.8389 177.555 32.8509C177.499 32.8641 177.442 32.904 177.401 32.8509C177.353 32.7822 177.407 32.7257 177.453 32.6778C177.61 32.5151 177.728 32.3194 177.92 32.1856C178.631 31.6922 179.422 31.634 180.238 31.7274C180.476 31.7546 180.728 31.7851 180.947 31.9548C180.805 32.0159 180.687 32.0771 180.562 32.1169C180.19 32.2358 179.861 32.481 179.459 32.5139C178.917 32.7747 178.336 32.822 177.748 32.8289L177.749 32.8289ZM180.631 31.4441C181.211 31.4948 181.769 31.6973 182.251 32.0321C183.718 33.0788 184.262 34.5167 183.952 36.302C183.973 36.3505 183.968 36.3856 183.909 36.3955C183.876 36.7919 183.686 37.115 183.431 37.4918C183.463 37.231 183.619 37.0717 183.538 36.8721C183.411 36.9257 183.419 37.0596 183.379 37.1606C182.786 38.6568 181.788 39.198 180.199 39.0814C179.723 39.0549 179.282 38.9049 178.845 38.722C178.467 38.5633 178.177 38.2684 177.826 38.0746C177.782 38.1853 177.871 38.2344 177.932 38.2846C178.42 38.6953 178.995 38.9853 179.611 39.1316C180.084 39.2442 180.564 39.2471 181.046 39.2471C179.598 39.8598 177.266 39.0849 176.39 36.8703C175.872 35.5599 176.268 33.26 177.085 32.9876C176.802 33.4376 176.616 33.9439 176.54 34.4729C176.519 34.6171 176.433 34.7919 176.621 34.9027C176.645 34.3093 176.808 33.7303 177.094 33.2132C177.159 33.0978 177.229 33.0321 177.377 33.0274C177.927 33.009 178.477 32.9911 179.019 32.8716C179.748 32.7153 180.422 32.3997 181.103 32.1065C181.165 32.0743 181.234 32.0588 181.303 32.0614C181.373 32.0641 181.44 32.0847 181.5 32.1215C182.887 32.9374 183.594 34.1717 183.643 35.7936C183.654 36.152 183.576 36.5137 183.539 36.8738C183.782 36.7405 183.698 36.4999 183.725 36.2933C183.858 35.2847 183.643 34.3615 183.108 33.5023C182.8 32.9901 182.392 32.5482 181.909 32.2046C181.513 31.9311 181.047 31.7499 180.578 31.6109C180.131 31.5739 179.685 31.5353 179.236 31.5226C179.693 31.4049 180.157 31.3368 180.63 31.4441L180.631 31.4441Z" fill="#8B8B8B"/>
<path d="M167.963 33.2075C167.956 33.2427 167.963 33.2889 167.942 33.3125C167.069 34.339 167.2 35.4631 167.654 36.6015C167.863 37.1414 168.232 37.6012 168.71 37.9165C168.929 38.0672 169.179 38.1662 169.44 38.2061C169.702 38.246 169.968 38.226 170.221 38.1473C170.384 38.1 170.451 38.1317 170.518 38.2835C170.65 38.5801 170.802 38.8663 170.95 39.1554C170.989 39.2315 171.046 39.2996 171.014 39.3942C171.184 39.4219 171.228 39.5512 171.252 39.6972C171.293 39.7338 171.331 39.7744 171.365 39.8183C172.034 40.8751 172.941 41.7541 174.01 42.3826C174.377 42.5995 174.787 42.7126 175.152 42.9296L175.294 42.9354C175.708 43.0817 176.137 43.1785 176.573 43.2239C176.746 43.2331 176.658 43.3681 176.677 43.4512C176.779 43.6434 177.046 43.7703 176.904 44.0594C176.797 44.274 176.814 44.5418 176.633 44.7258C176.628 44.7424 176.626 44.7599 176.628 44.7772C176.741 44.7772 176.779 44.8764 176.843 44.9416C177.032 45.1372 177.218 45.3369 177.405 45.5354C177.487 45.6231 177.592 45.7085 177.695 45.6121C177.891 45.4298 178.123 45.2734 178.223 45.0028C178.172 44.8205 178.14 44.6289 178.065 44.4575C177.895 44.0738 177.864 43.7236 178.214 43.4241C178.217 43.3889 178.22 43.3537 178.223 43.3191C178.246 43.1777 178.365 43.2198 178.446 43.2037C178.887 43.137 179.321 43.027 179.742 42.8754C179.756 42.8546 179.77 42.8338 179.794 42.865C180.121 42.7069 180.474 42.6047 180.784 42.4137C181.487 41.9856 182.134 41.4905 182.691 40.8748C182.748 40.8171 182.792 40.7306 182.895 40.745C182.805 40.576 182.717 40.4052 182.574 40.273C181.952 40.9891 181.255 41.6186 180.408 42.0433C178.584 42.9579 176.723 43.0202 174.845 42.2227C173.211 41.5303 172.101 40.2684 171.263 38.7243C171.011 38.2639 170.8 37.7818 170.631 37.2835C170.348 37.1895 170.234 36.8796 169.974 36.7573C170.014 36.9402 169.918 36.9944 169.764 36.9702C169.676 36.9564 169.595 36.9033 169.497 36.9327C169.512 36.9689 169.537 36.9993 169.57 37.019C169.604 37.0388 169.642 37.0468 169.68 37.0418C170.047 36.9564 170.107 37.2189 170.197 37.4762C170.254 37.6453 170.228 37.7203 170.053 37.7613C169.829 37.8203 169.593 37.8211 169.368 37.7635C169.143 37.706 168.936 37.592 168.765 37.4318C167.938 36.6904 167.63 35.7314 167.758 34.6402C167.88 33.6108 168.482 33.2029 169.383 33.4776C169.383 32.9946 169.327 32.9502 168.841 32.9525C168.52 32.9519 168.267 33.1619 167.963 33.2075Z" fill="#995430"/>
<path d="M170.517 43.2805C170.424 42.9343 170.263 42.6458 169.901 42.5263C169.84 42.5061 169.821 42.4507 169.79 42.4046C169.455 41.9037 169.204 41.8218 168.649 42.0278C168.613 42.0396 168.578 42.0494 168.542 42.0572C168.32 42.1986 168.178 42.4473 167.914 42.5304C167.977 42.509 167.91 42.5881 167.914 42.5304C168.095 42.4853 167.83 42.5598 167.914 42.5304C167.914 42.5304 167.982 42.5038 167.67 42.7796C167.627 42.8106 167.597 42.8565 167.585 42.9087C167.573 42.9609 167.58 43.0158 167.605 43.0629C167.653 43.0537 167.715 43.0468 167.729 43.097C167.812 43.3959 168.144 43.5326 168.192 43.8581C168.229 44.1102 168.359 44.3041 168.619 44.3739C168.65 44.3834 168.679 44.3995 168.703 44.4212C168.727 44.4429 168.747 44.4697 168.76 44.4997C168.98 44.8973 169.216 45.0023 169.641 44.9117C169.725 44.8995 169.809 44.8931 169.893 44.8926C169.893 44.783 169.988 44.7674 170.055 44.7195C170.185 44.6307 170.321 44.5464 170.351 44.3681C170.306 44.3775 170.261 44.392 170.219 44.4114C169.982 44.5516 169.738 44.6734 169.461 44.6999C169.371 44.714 169.28 44.6976 169.2 44.6532C169.12 44.6089 169.057 44.5392 169.02 44.4547C168.942 44.2816 169.074 44.1708 169.19 44.0692C169.407 43.8794 169.661 43.7559 169.918 43.6365C170.294 43.4605 170.585 43.5788 170.717 43.9827C170.788 44.1985 170.812 44.4299 170.857 44.6543C170.893 44.7232 170.943 44.7839 171.003 44.8326C171.063 44.8813 171.132 44.917 171.206 44.9376C171.504 44.8049 171.429 44.566 171.366 44.3352C171.326 44.1898 171.276 44.0467 171.23 43.9036L171.216 43.9036L171.202 43.9094C171.188 44.0333 171.202 44.1588 171.245 44.2758C171.254 44.2981 171.255 44.3228 171.249 44.3462C171.243 44.3695 171.23 44.3902 171.211 44.4051C171.199 44.411 171.185 44.4141 171.171 44.4141C171.158 44.4141 171.144 44.411 171.131 44.4051C171.028 44.3514 170.993 43.981 171.078 43.8615C171.078 43.7969 171.047 43.7686 170.991 43.7357C170.801 43.623 170.639 43.4673 170.517 43.2805ZM169.661 42.7473C169.936 42.7473 170.082 42.8823 170.191 43.0762C170.252 43.1864 170.256 43.2418 170.097 43.2885C169.633 43.4265 169.204 43.6532 168.88 44.0248C168.725 44.202 168.624 44.1402 168.518 44.0162C168.39 43.865 168.359 43.6809 168.479 43.5124C168.78 43.0872 169.223 42.8869 169.661 42.7473ZM169.09 42.1703C169.185 42.1682 169.279 42.1984 169.357 42.2563C169.442 42.318 169.541 42.3948 169.532 42.5009C169.525 42.5938 169.398 42.5875 169.323 42.6163C168.96 42.7522 168.635 42.9752 168.374 43.2666C168.247 43.4143 168.18 43.3641 168.099 43.2401C168.059 43.1863 168.033 43.1232 168.023 43.0564C168.014 42.9897 168.02 42.9215 168.043 42.8581C168.158 42.5598 168.741 42.1691 169.09 42.1703Z" fill="#995430"/>
<path d="M169.385 33.4747C168.484 33.2001 167.882 33.608 167.76 34.6374C167.63 35.7337 167.94 36.6899 168.768 37.4313C168.939 37.5914 169.146 37.7055 169.371 37.763C169.596 37.8206 169.832 37.8198 170.056 37.7608C170.23 37.7198 170.259 37.6454 170.2 37.4757C170.11 37.2184 170.05 36.9564 169.683 37.0413C169.645 37.0463 169.606 37.0383 169.573 37.0185C169.54 36.9988 169.515 36.9684 169.5 36.9322L169.504 36.9322C169.249 36.7591 169.231 36.5895 169.447 36.4129L169.444 36.4129C169.477 36.2046 169.67 36.2507 169.793 36.1821C169.689 35.6512 169.585 35.1204 169.482 34.5895C169.206 34.443 168.945 34.5134 168.685 34.638C168.902 34.3697 169.175 34.3599 169.473 34.4586C169.409 34.1372 169.504 33.7961 169.385 33.4747Z" fill="#F6C687"/>
<path d="M185.462 33.5266L185.373 34.4666C185.671 34.369 185.947 34.3685 186.161 34.6512C185.902 34.5231 185.64 34.4481 185.365 34.5975L185.069 36.1912C185.322 36.2455 185.549 36.3488 185.548 36.6529C185.548 36.8785 185.395 37.0077 185.175 37.0441C184.836 36.9719 184.73 37.1837 184.653 37.4676C184.606 37.6407 184.608 37.7209 184.807 37.7665C185.001 37.8128 185.202 37.8168 185.397 37.7783C185.592 37.7398 185.777 37.6597 185.939 37.5432C186.971 36.8508 187.436 35.0909 186.889 33.9617C186.61 33.3858 185.991 33.1971 185.462 33.5266Z" fill="#F6C687"/>
<path d="M185.462 33.5266C185.991 33.1983 186.611 33.3858 186.887 33.9582C187.433 35.0875 186.968 36.8433 185.937 37.5398C185.774 37.6563 185.59 37.7364 185.394 37.7749C185.199 37.8134 184.998 37.8093 184.805 37.7631C184.606 37.7175 184.603 37.6396 184.651 37.4642C184.727 37.1803 184.831 36.9685 185.173 37.0406C185.173 37.0112 185.173 36.9829 185.173 36.9524C185.047 36.9333 184.884 37.0147 184.826 36.8162C184.641 36.8364 184.637 37.0568 184.497 37.126C184.4 37.1739 184.331 37.2755 184.214 37.2841C184.118 37.5322 184.037 37.7884 183.922 38.0273C183.711 38.4659 183.545 38.9327 183.218 39.3054C183.21 39.3319 183.202 39.3585 183.195 39.3856C183.4 39.396 183.478 39.5731 183.591 39.7024C183.657 39.587 183.664 39.4272 183.832 39.3966C183.806 39.3146 183.847 39.2517 183.883 39.1825C184.015 38.9499 184.135 38.7101 184.242 38.4641C184.347 38.2004 184.451 38.092 184.775 38.1785C185.393 38.3435 185.96 38.1393 186.417 37.6967C187.338 36.8018 187.677 35.695 187.472 34.4193C187.407 34.0271 187.23 33.6634 186.962 33.3737C186.919 33.3258 186.857 33.2872 186.882 33.2052C186.744 33.1788 186.611 33.1333 186.486 33.0702C186.358 33.0137 186.224 32.9768 186.086 32.9606C185.559 32.9035 185.459 32.9992 185.462 33.5266Z" fill="#995430"/>
<path d="M186.473 41.6823C186.339 41.3725 186.133 41.14 185.799 41.0569C185.767 41.0505 185.738 41.0362 185.713 41.0153C185.688 40.9943 185.669 40.9674 185.657 40.9368C185.328 40.2312 185.179 40.144 184.452 40.2104C184.3 40.3575 184.146 40.3743 183.987 40.2237C183.964 40.4285 184.151 40.4943 184.241 40.6276C184.487 40.5122 184.727 40.3581 185.015 40.4822C185.472 40.6789 185.524 41.0736 185.169 41.5958C184.915 41.9691 184.915 41.9685 184.649 41.6246C184.588 41.5395 184.521 41.4595 184.448 41.3852C184.335 41.2813 184.29 41.1815 184.391 41.039C184.442 40.9674 184.48 40.8797 184.351 40.837C184.322 40.9928 184.193 41.1198 184.08 41.0569C183.741 40.8653 183.413 40.9415 183.078 41.0361L182.681 41.8081C182.757 41.8658 182.738 41.9501 182.738 42.028C182.738 42.1059 182.728 42.1699 182.724 42.2409C182.745 42.414 182.84 42.5721 182.8 42.7533C183.022 42.9079 183.121 43.1705 183.322 43.3563C183.642 43.6523 184.007 43.8756 184.341 44.1479C184.489 44.1375 184.639 44.1214 184.784 44.1704C184.84 44.1895 184.903 44.2074 184.932 44.145C184.942 44.1285 184.948 44.1099 184.949 44.0907C184.95 44.0715 184.947 44.0522 184.94 44.0343C184.933 44.0165 184.922 44.0006 184.908 43.9879C184.894 43.9751 184.877 43.9659 184.859 43.961C184.727 43.9667 184.596 43.9597 184.466 43.9402C183.934 43.8525 183.61 43.4694 183.323 43.0689C182.967 42.5756 182.813 42.0303 183.138 41.4412C183.227 41.279 183.343 41.2023 183.543 41.1936C184.072 41.1705 184.282 41.5739 184.538 41.9195C184.621 42.0349 184.657 42.1578 184.567 42.2928C184.529 42.3536 184.475 42.4029 184.412 42.4355C184.349 42.468 184.278 42.4827 184.208 42.478C184.094 42.4706 183.986 42.4295 183.895 42.3598C183.838 42.3228 183.778 42.2617 183.725 42.3338C183.672 42.4059 183.746 42.4573 183.782 42.5069C183.883 42.6408 184.054 42.6748 184.173 42.7839C184.315 42.6488 184.412 42.7446 184.492 42.8583C184.571 42.9878 184.68 43.0952 184.81 43.171C184.847 43.1889 184.88 43.2149 184.906 43.2471C184.932 43.2793 184.95 43.317 184.96 43.3574C185.113 43.8404 185.517 43.9921 185.957 43.7452C186.07 43.6828 186.155 43.5623 186.301 43.5721C186.328 43.4186 186.452 43.3413 186.551 43.246C186.633 43.1728 186.7 43.0829 186.746 42.9821C186.793 42.8813 186.818 42.7717 186.821 42.6604C186.738 42.448 186.651 42.2432 186.47 42.0891C186.328 41.9628 186.51 41.8185 186.473 41.6823ZM185.703 41.2819C185.961 41.2727 186.264 41.6974 186.138 41.9362C185.918 42.3528 185.623 42.7181 185.216 42.9633C185.04 43.0695 184.895 42.9529 184.767 42.8271C184.626 42.6887 184.705 42.5825 184.795 42.4579C185.062 42.0897 185.432 41.7989 185.588 41.35C185.597 41.3273 185.613 41.3083 185.634 41.296C185.655 41.2837 185.679 41.2788 185.703 41.2819ZM185.538 43.6205C185.471 43.6168 185.406 43.5934 185.352 43.5531C185.297 43.5127 185.255 43.4572 185.231 43.3932C185.169 43.2276 185.331 43.2172 185.414 43.1572C185.695 42.9633 185.937 42.7175 186.129 42.4325C186.278 42.2017 186.372 42.3003 186.476 42.4584C186.535 42.5466 186.558 42.6542 186.543 42.7596C186.501 43.0683 185.863 43.6275 185.538 43.6205Z" fill="#995430"/>
<path d="M183.217 39.3052C183.544 38.9325 183.71 38.4657 183.921 38.0272C184.035 37.7883 184.117 37.5321 184.213 37.284C184.271 36.7935 184.283 36.2984 184.247 35.8057C184.116 36.5892 183.889 37.3301 183.379 37.9585C183.183 38.1912 182.961 38.4003 182.717 38.5817C182.675 38.6105 182.64 38.6486 182.614 38.6931C182.589 38.7377 182.573 38.7875 182.568 38.839C182.601 38.8488 182.651 38.8488 182.665 38.8713C182.773 39.0479 182.882 39.2175 183.124 39.2077C183.153 39.2066 183.186 39.2706 183.217 39.3052Z" fill="#F6C687"/>
<path d="M185.06 29.3786C185.07 29.3368 185.071 29.2932 185.063 29.251C185.055 29.2088 185.038 29.1688 185.013 29.1339C184.635 28.6031 184.395 27.9984 184.125 27.4092C184.087 27.3285 184.078 27.1958 183.942 27.2529C183.816 27.306 183.881 27.4098 183.91 27.4975C184.118 28.1316 184.428 28.7264 184.825 29.258C184.851 29.2973 184.886 29.329 184.928 29.3498C184.97 29.3706 185.016 29.3797 185.062 29.3763L185.06 29.3786Z" fill="#8B8B8B"/>
<path d="M170.857 27.211C170.787 27.2168 170.772 27.2739 170.75 27.3264C170.488 27.9508 170.223 28.5739 169.835 29.1325C169.791 29.1965 169.745 29.2669 169.828 29.3321C169.911 29.3973 169.96 29.3379 170.01 29.2715C170.419 28.7236 170.737 28.1107 170.95 27.4574C170.996 27.312 170.949 27.2076 170.857 27.211Z" fill="#8B8B8B"/>
<path d="M182.181 31.7016L183.135 32.495C183.131 32.2065 183.117 31.9232 183.128 31.6382C183.135 31.4703 183.08 31.4351 182.935 31.4789C182.685 31.5551 182.433 31.6278 182.181 31.7016Z" fill="#F6C687"/>
<path d="M176.647 33.063C176.654 33.0451 176.661 33.0278 176.668 33.0105C175.812 32.9112 175.004 32.6354 174.205 32.3279C174.299 32.58 174.477 32.7699 174.726 32.8195C175.36 32.9447 175.996 33.0693 176.647 33.063Z" fill="#C7872E"/>
<path d="M169.498 36.9327C169.593 36.9033 169.676 36.9563 169.765 36.9702C169.921 36.9944 170.014 36.9402 169.975 36.7573C169.925 36.6096 169.876 36.4624 169.825 36.3147C169.677 36.268 169.572 36.3909 169.441 36.4163L169.445 36.4163C169.338 36.6044 169.445 36.7688 169.501 36.9356L169.498 36.9327Z" fill="#F6C687"/>
<path d="M184.827 36.8166C184.883 37.0151 185.048 36.932 185.173 36.9528C185.339 36.8714 185.467 36.7578 185.4 36.5489C185.38 36.4685 185.332 36.3986 185.264 36.3536C185.196 36.3085 185.113 36.2917 185.033 36.3065C184.941 36.467 184.989 36.6874 184.827 36.8166Z" fill="#F6C687"/>
<path d="M185.036 36.3077C185.116 36.2929 185.198 36.3097 185.267 36.3548C185.335 36.3998 185.383 36.4697 185.402 36.5501C185.467 36.7572 185.339 36.8709 185.176 36.954C185.176 36.9834 185.176 37.0117 185.176 37.0423C185.396 37.0059 185.549 36.8767 185.549 36.6511C185.549 36.3476 185.323 36.2443 185.07 36.1895C185.051 36.2014 185.037 36.2201 185.031 36.242C185.025 36.2638 185.027 36.2872 185.036 36.3077Z" fill="#C7872E"/>
<path d="M169.471 34.4666C169.173 34.3679 168.9 34.3777 168.682 34.646C168.943 34.5214 169.204 34.451 169.479 34.5976C169.489 34.5769 169.494 34.5539 169.492 34.5309C169.491 34.5079 169.484 34.4857 169.471 34.4666Z" fill="#995430"/>
<path d="M185.365 34.595C185.64 34.4456 185.902 34.5206 186.162 34.6487C185.947 34.3659 185.671 34.3665 185.373 34.464C185.36 34.4832 185.353 34.5054 185.352 34.5284C185.35 34.5514 185.355 34.5744 185.365 34.595Z" fill="#995430"/>
<path d="M169.442 36.4158C169.572 36.3904 169.677 36.2675 169.826 36.3142C169.834 36.2921 169.835 36.2679 169.829 36.2451C169.823 36.2222 169.81 36.202 169.792 36.1873C169.668 36.2553 169.475 36.2075 169.442 36.4158Z" fill="#995430"/>
<path d="M182.731 42.026C182.731 41.9481 182.753 41.865 182.675 41.8067C181.725 42.3035 180.893 42.9497 180.223 43.8026C179.943 44.1592 179.947 44.1626 180.296 44.4783C180.083 44.5937 179.874 44.7004 179.673 44.8198C179.129 45.1435 178.585 45.4684 178.08 45.8585C177.989 45.9289 177.889 46.0229 177.767 45.8902C177.624 45.7344 177.811 45.7021 177.863 45.6254C177.915 45.5486 177.988 45.5099 178.04 45.4407C178.178 45.2595 178.429 45.1591 178.432 44.8799C178.343 44.8902 178.329 45.0333 178.219 45.0068C178.118 45.2774 177.886 45.4338 177.69 45.6161C177.587 45.7113 177.483 45.6271 177.4 45.5394C177.213 45.3409 177.028 45.1412 176.838 44.9456C176.775 44.8804 176.734 44.7823 176.623 44.7812C176.675 45.0616 176.919 45.1897 177.084 45.379C177.329 45.6605 177.679 45.855 177.773 46.2595C177.744 46.2736 177.712 46.2791 177.68 46.2753C177.648 46.2716 177.618 46.2587 177.593 46.2381C176.703 45.5648 175.728 45.0426 174.731 44.5602C174.612 44.5025 174.548 44.4448 174.699 44.3502C174.894 44.2255 174.869 44.0847 174.732 43.9295C174.529 43.7022 174.343 43.4587 174.129 43.2429C173.13 42.2319 171.932 41.5643 170.604 41.1298C170.397 41.0623 170.348 40.9798 170.466 40.7836C170.698 40.3988 170.943 40.0249 171.251 39.6977C171.228 39.5517 171.183 39.4225 171.014 39.3948C170.603 39.8235 170.296 40.3272 170.005 40.8431C169.895 41.0375 169.926 41.1097 170.146 41.1697C171.332 41.4876 172.442 42.0475 173.41 42.8153C173.589 42.9572 173.61 43.0167 173.387 43.1269C173.024 43.3069 172.691 43.6347 172.318 43.6843C171.945 43.7339 171.542 43.5112 171.151 43.4171C170.941 43.3652 170.728 43.3242 170.517 43.2786C170.638 43.4655 170.8 43.6215 170.99 43.7345C171.046 43.7674 171.079 43.7956 171.076 43.8603L171.2 43.9093L171.214 43.9035L171.229 43.9035C171.329 43.7962 171.44 43.8608 171.545 43.8851C172.055 44.0005 172.561 44.1043 173.11 44.1159C173.038 43.9601 172.867 44.0051 172.796 43.8805C172.952 43.727 173.153 43.645 173.34 43.5423C173.887 43.2411 173.888 43.2429 174.302 43.7022C174.703 44.1476 174.703 44.147 174.181 44.4327C174.173 44.4361 174.171 44.4488 174.167 44.4569C174.182 44.5233 174.244 44.5313 174.289 44.5619C174.402 44.6381 174.614 44.6035 174.596 44.8325C174.575 45.0755 174.546 45.2941 174.271 45.4095C173.89 45.5725 173.501 45.7151 173.105 45.8365C172.925 45.8896 172.723 45.9104 172.551 45.8244C172.068 45.5871 171.616 45.2898 171.205 44.9393C171.132 44.9187 171.063 44.8831 171.003 44.8346C170.943 44.7861 170.893 44.7257 170.857 44.6571C170.74 44.6531 170.687 44.5498 170.605 44.4909C170.524 44.4321 170.483 44.3086 170.352 44.3721C170.322 44.5492 170.186 44.6346 170.056 44.7235C169.989 44.7696 169.896 44.7852 169.894 44.8966C170.432 45.4349 171.045 45.8717 171.689 46.2624C173.007 47.0713 174.48 47.5839 176.008 47.7661C178.166 48.0217 180.247 47.7124 182.224 46.7684C183.277 46.2608 184.245 45.5877 185.093 44.7737C185.199 44.6675 185.338 44.6024 185.485 44.5896C185.64 44.5721 185.79 44.5221 185.925 44.4426C186.06 44.3632 186.178 44.256 186.27 44.128C186.405 43.948 186.429 43.7651 186.299 43.5723C186.152 43.5631 186.067 43.6837 185.955 43.7454C185.515 43.9907 185.11 43.8407 184.958 43.3577C184.948 43.3173 184.929 43.2796 184.903 43.2474C184.877 43.2152 184.845 43.1892 184.808 43.1713C184.678 43.0955 184.568 42.9881 184.489 42.8586C184.409 42.7432 184.312 42.6491 184.17 42.7841C184.382 43.1881 184.671 43.5406 184.854 43.9595C184.872 43.9645 184.889 43.9737 184.903 43.9864C184.917 43.9992 184.928 44.0151 184.935 44.0329C184.942 44.0507 184.945 44.07 184.944 44.0892C184.943 44.1084 184.937 44.127 184.927 44.1436C184.898 44.2059 184.835 44.188 184.779 44.169C184.634 44.1199 184.485 44.1361 184.336 44.1465C184.328 44.1616 184.32 44.1772 184.314 44.1932L184.266 44.2423L184.255 44.2526C184.251 44.2815 184.237 44.2959 184.207 44.2861L184.098 44.3126C184.031 44.5435 183.847 44.6404 183.65 44.7241C183.646 44.7818 183.658 44.851 183.581 44.8752C183.185 45.1805 182.82 45.533 182.372 45.769C182.25 45.84 182.106 45.8621 181.969 45.8308C181.543 45.7396 181.171 45.5071 180.762 45.3755C180.646 45.3341 180.536 45.2779 180.434 45.2082C180.17 45.0351 180.185 44.761 180.459 44.6115C180.538 44.5683 180.641 44.5538 180.682 44.4557C180.641 44.3715 180.554 44.3802 180.488 44.3484C180.22 44.2192 180.198 44.1436 180.385 43.911C180.54 43.7183 180.709 43.5383 180.867 43.3485C180.914 43.2908 180.969 43.2434 181.034 43.2815C181.255 43.4085 181.499 43.5152 181.677 43.6901C181.787 43.7985 181.575 43.952 181.568 44.102C181.574 44.1402 181.585 44.1773 181.601 44.2122C182.108 43.7985 182.425 43.2515 182.795 42.7518C182.836 42.5706 182.739 42.4108 182.719 42.2394C182.55 42.4703 182.375 42.6924 182.216 42.9284C181.873 43.4367 181.879 43.4356 181.373 43.0865C181.26 43.0074 181.26 42.9653 181.364 42.8845C181.654 42.6572 181.942 42.4264 182.262 42.2458C182.41 42.1621 182.534 42.0104 182.731 42.026ZM178.442 46.5676C178.404 46.428 178.285 46.458 178.189 46.4395C178.092 46.4211 177.988 46.417 177.954 46.3097C177.916 46.1885 178.031 46.1429 178.099 46.0893C178.657 45.6467 179.26 45.2745 179.87 44.9116C180.024 44.8204 180.06 44.8885 180.083 45.0351C180.127 45.3673 180.188 45.697 180.266 46.0229C180.326 46.2537 180.234 46.2993 180.047 46.3374C179.805 46.387 179.552 46.3951 179.277 46.5105C179.326 46.5394 179.38 46.5577 179.437 46.5642C179.493 46.5708 179.55 46.5654 179.604 46.5486C179.788 46.5099 179.976 46.4834 180.155 46.4286C180.281 46.3899 180.289 46.4574 180.322 46.544C180.366 46.6657 180.294 46.6645 180.216 46.6847C179.843 46.7817 179.465 46.8532 179.084 46.9254C179.031 46.9373 178.976 46.9369 178.923 46.9243C178.87 46.9118 178.82 46.8873 178.777 46.8527C178.754 46.8913 178.736 46.9577 178.707 46.9629C178.48 47.0038 178.248 47.0552 178.014 47.0252C177.852 47.0044 177.824 46.829 177.728 46.7315C177.679 46.683 177.596 46.6622 177.584 46.5763C177.872 46.4505 178.159 46.5382 178.442 46.5676ZM177.527 46.4141C177.276 46.5047 177.067 46.5803 176.823 46.5774C176.105 46.5693 175.407 46.4164 174.699 46.3287C174.575 46.3131 174.549 46.2554 174.572 46.1331C174.644 45.7673 174.708 45.3997 174.768 45.0316C174.8 44.8308 174.881 44.8054 175.054 44.8983C175.895 45.3495 176.718 45.825 177.526 46.4141L177.527 46.4141ZM177.789 47.0713C176.657 47.1002 175.581 46.934 174.503 46.6542C174.58 46.462 174.692 46.4112 174.875 46.4551C175.101 46.5088 175.337 46.5324 175.567 46.5745C176.169 46.6859 176.781 46.6697 177.388 46.7199C177.6 46.7378 177.706 46.8434 177.788 47.0713L177.789 47.0713ZM181.645 46.136C181.339 46.3039 181.033 46.3951 180.739 46.5099C180.64 46.548 180.606 46.4955 180.588 46.4037C180.536 46.1527 180.478 45.9029 180.418 45.6173L181.645 46.136ZM174.413 45.7286C174.357 45.9894 174.312 46.1902 174.276 46.3968C174.253 46.5295 174.188 46.5451 174.078 46.5018C173.826 46.4014 173.572 46.3045 173.263 46.1839L174.413 45.7286Z" fill="#5C3C1D"/>
<path d="M186.984 42.8733C187.184 43.0083 187.409 42.995 187.633 42.9887C187.793 42.9858 187.973 42.9437 188.109 42.9985C188.482 43.1468 188.649 42.9344 188.789 42.6523C188.991 42.2334 189.185 41.8081 189.382 41.3869C189.438 41.2669 189.427 41.1659 189.325 41.0776C189.014 40.8024 188.702 40.5248 188.391 40.2537C188.295 40.1717 188.221 40.1688 188.168 40.3229C187.881 41.132 187.508 41.9061 187.053 42.6309C187.004 42.7023 186.981 42.7887 186.987 42.8756L186.984 42.8733Z" fill="#C7872E"/>
<path d="M186.986 42.8751C186.945 42.882 186.897 42.8815 186.901 42.9444C186.901 42.9507 186.913 42.9617 186.919 42.9622C186.98 42.9622 186.978 42.9149 186.984 42.8728L186.986 42.8751Z" fill="#C7872E"/>
<path d="M183.076 41.0355C183.412 40.9432 183.737 40.8624 184.079 41.0563C184.192 41.1192 184.321 40.9922 184.35 40.8364L184.241 40.6247C184.151 40.4942 183.964 40.4285 183.987 40.2207L183.987 40.2167C183.807 40.1757 183.761 40.0211 183.704 39.8734L183.704 39.8705C183.669 39.8581 183.639 39.8344 183.619 39.8032C183.599 39.772 183.589 39.7349 183.591 39.6974C183.478 39.5681 183.4 39.391 183.194 39.3806L183.072 39.406C182.932 39.4297 182.872 39.6368 182.696 39.5756C182.583 39.691 182.532 39.8468 182.454 39.9853C182.465 40.0938 182.581 40.1584 182.572 40.2738C182.715 40.406 182.803 40.5768 182.893 40.7458L183.076 41.0355Z" fill="#5C3C1D"/>
<path d="M173.376 37.4485C174.204 38.8333 175.293 39.8777 176.9 40.2337C177.334 40.3295 177.774 40.378 178.216 40.2741C178.215 40.258 178.215 40.2418 178.216 40.2256C176.762 40.2256 175.525 39.6971 174.49 38.6567C174.112 38.2839 173.763 37.8811 173.448 37.4519L173.376 37.4485Z" fill="#995430"/>
<path d="M173.862 36.2488C173.638 35.861 173.108 35.6348 172.729 35.7381C172.444 35.8166 172.284 36.0116 172.293 36.3105C172.781 35.5789 173.314 35.951 173.862 36.2488Z" fill="#995430"/>
<path d="M175.89 34.9173C176.029 34.9173 176.014 34.8203 176.001 34.7269C175.599 34.5734 175.208 34.3732 174.755 34.4609L174.755 34.559C175.142 34.6501 175.537 34.7165 175.89 34.9173Z" fill="#5C3C1D"/>
<path d="M174.437 34.4473C174.167 34.3423 173.922 34.464 173.667 34.4992L173.671 34.5777L174.202 34.5494C174.216 34.5252 174.231 34.5229 174.247 34.5466L174.425 34.5466C174.429 34.5125 174.433 34.4796 174.437 34.4473Z" fill="#5C3C1D"/>
<path d="M173.376 37.4486L173.45 37.4521C173.355 37.2876 173.342 37.0626 173.12 36.9905C173.159 37.1655 173.248 37.3249 173.376 37.4486Z" fill="#995430"/>
<path d="M178.216 40.2259C178.215 40.2421 178.215 40.2582 178.216 40.2744C178.377 40.3038 178.519 40.23 178.666 40.1849C178.515 40.1867 178.358 40.1134 178.216 40.2259Z" fill="#995430"/>
<path d="M174.437 34.447C174.434 34.4793 174.429 34.5122 174.425 34.5451C174.534 34.5919 174.645 34.5693 174.756 34.559L174.756 34.4609L174.437 34.447Z" fill="#5C3C1D"/>
<path d="M173.122 36.9928C173.116 36.9674 173.11 36.942 173.104 36.9172C173.052 36.9582 173.104 36.9703 173.124 36.9905L173.122 36.9928Z" fill="#C7872E"/>
<path d="M174.247 34.5464C174.231 34.5227 174.216 34.525 174.203 34.5492L174.226 34.5567L174.247 34.5464Z" fill="#995430"/>
<path d="M181.485 24.9833C180.198 24.5678 179.138 23.857 178.151 22.9788C178.371 24.1426 180.218 25.2655 181.485 24.9833Z" fill="#5C3C1D"/>
<path d="M179.014 32.8757C178.473 32.9952 177.922 33.0131 177.372 33.0315C177.225 33.0361 177.156 33.099 177.089 33.2173C176.802 33.7343 176.64 34.3134 176.616 34.9068C176.616 34.9882 176.612 35.0695 176.61 35.1515C176.704 35.3136 176.61 35.4867 176.635 35.6512C176.757 36.4492 177.042 37.171 177.588 37.774C177.673 37.868 177.8 37.9361 177.817 38.0844L177.817 38.0787C178.17 38.2725 178.459 38.5674 178.836 38.7261C179.273 38.909 179.715 39.059 180.19 39.0855C180.174 38.9124 180.166 38.752 180.417 38.7624C180.444 38.7576 180.47 38.746 180.493 38.7285C180.515 38.7109 180.532 38.6881 180.544 38.662C180.567 38.5892 180.603 38.5216 180.652 38.4633C180.7 38.405 180.76 38.357 180.827 38.3222C180.883 38.2893 180.94 38.2235 180.919 38.156C180.835 37.8784 181.067 37.8098 181.216 37.7521C181.736 37.5472 182.061 37.1422 182.358 36.6973C182.327 36.6003 182.354 36.5092 182.379 36.4151C182.481 36.0051 182.512 35.5799 182.47 35.159C182.325 33.4626 180.567 32.4603 179.145 33.2744C178.415 33.6928 178.088 34.3915 177.93 35.1947C177.916 35.2617 177.953 35.358 177.836 35.3829C177.81 35.1743 177.827 34.9626 177.885 34.7608C178.102 34.035 178.451 33.4083 179.118 33.0125C179.008 33.024 178.935 33.0113 179.014 32.8757ZM180.372 35.0164C180.738 35.3777 180.755 35.8762 180.451 36.2339C180.299 36.4066 180.089 36.5153 179.863 36.5388C179.637 36.5623 179.41 36.4989 179.227 36.3609C178.893 36.0943 178.805 35.5386 179.038 35.1653C179.297 34.7499 179.785 34.6333 180.257 34.9097C179.966 34.9068 179.731 34.9674 179.756 35.2842C179.772 35.4798 179.926 35.5813 180.121 35.5583C180.441 35.5219 180.377 35.2692 180.374 35.0164L180.372 35.0164Z" fill="#FEFDFD"/>
<path d="M179.013 32.876C177.62 32.9244 179.009 33.0254 179.118 33.0127C179.155 33.007 179.191 32.9979 179.226 32.9856C180.075 32.6209 180.887 32.7144 181.639 33.2395C182.35 33.7351 182.617 34.4835 182.667 35.3219C182.696 35.8037 182.637 36.2786 182.362 36.6969C182.065 37.1418 181.74 37.5469 181.22 37.7517C180.754 37.9179 180.364 38.0304 179.93 37.9467C178.946 37.7569 178.39 37.4615 177.927 36.3409C177.337 34.9134 179.13 32.9042 179.116 33.0127C179.101 33.1489 177.432 32.4167 176.828 33.4662C175.73 35.3756 176.987 36.9064 177.257 37.3455C178.036 38.6149 179.304 39.0471 180.196 39.0858C181.786 39.2012 182.783 38.6611 183.376 37.1649C183.416 37.0633 183.408 36.9295 183.535 36.8764C183.572 36.5163 183.648 36.1545 183.638 35.7962C183.591 34.1742 182.883 32.94 181.495 32.1241C181.436 32.0873 181.368 32.0666 181.299 32.064C181.23 32.0614 181.161 32.0769 181.099 32.1091C180.417 32.404 179.744 32.7196 179.013 32.876Z" fill="#F6C687"/>
<path d="M176.613 35.1522C176.613 35.0703 176.617 34.9889 176.619 34.9075C176.431 34.7967 176.517 34.6219 176.538 34.4777C176.615 33.9487 176.801 33.4424 177.084 32.9924C176.266 33.2648 175.871 35.5648 176.389 36.8751C177.264 39.0897 179.596 39.8647 181.044 39.2519C180.562 39.2519 180.082 39.249 179.61 39.1365C178.993 38.9901 178.418 38.7001 177.93 38.2894C177.87 38.2392 177.781 38.1902 177.824 38.0794L177.824 38.0851C177.704 38.1232 177.654 38.0194 177.598 37.9547C176.868 37.1671 176.469 36.2462 176.522 35.1464L176.51 35.1205L176.524 35.1453L176.613 35.1522Z" fill="#F6C687"/>
<path d="M183.951 36.3034C184.261 34.5147 183.717 33.0791 182.25 32.0335C181.769 31.6988 181.211 31.4963 180.63 31.4456L180.574 31.6187C181.043 31.7577 181.507 31.9389 181.905 32.2124C182.388 32.556 182.796 32.9978 183.104 33.5101C183.639 34.3693 183.854 35.2925 183.721 36.3011C183.694 36.5077 183.778 36.7483 183.535 36.8816C183.617 37.0812 183.461 37.2405 183.428 37.5013C183.684 37.1222 183.874 36.7991 183.907 36.405C183.851 36.3323 183.891 36.3132 183.951 36.3034ZM183.821 35.9261L183.844 35.8799C183.852 35.8943 183.867 35.9087 183.868 35.9232C183.868 35.9376 183.855 35.9538 183.848 35.9688L183.821 35.9261Z" fill="#FEFDFD"/>
<path d="M179.273 32.5942C179.398 32.5485 179.525 32.51 179.654 32.4788C179.971 32.4003 180.251 32.2139 180.559 32.1147C180.684 32.0749 180.802 32.0137 180.944 31.9526C180.725 31.7795 180.473 31.7523 180.235 31.7252C179.419 31.6317 178.628 31.69 177.918 32.1834C177.725 32.3172 177.607 32.5128 177.45 32.6756C177.405 32.724 177.35 32.7806 177.398 32.8487C177.437 32.9064 177.498 32.8642 177.552 32.8487C177.607 32.8331 178.035 32.8596 178.035 32.8596L178.488 32.8106C178.4 32.8654 178.858 32.7511 179.273 32.5942Z" fill="#F6C687"/>
<path d="M180.573 31.615L180.629 31.4419C180.156 31.3346 179.693 31.4026 179.23 31.5244C179.681 31.5394 180.127 31.5781 180.573 31.615Z" fill="#F6C687"/>
<path d="M182.569 38.8396C182.444 38.7548 182.364 38.8425 182.286 38.921C182.187 39.0208 182.303 39.0658 182.342 39.1293C182.382 39.1928 182.423 39.2562 182.467 39.3168C182.528 39.4005 182.587 39.4016 182.676 39.3376C182.765 39.2735 182.77 39.2262 182.714 39.1339C182.658 39.0416 182.552 38.9695 182.567 38.8391L182.569 38.8396Z" fill="#FEFDFD"/>
<path d="M182.696 39.5807C182.872 39.6413 182.932 39.4347 183.071 39.411C182.871 39.2951 182.772 39.411 182.696 39.5807Z" fill="#FEFDFD"/>
<path d="M183.361 37.5325C183.302 37.5682 183.295 37.664 183.322 37.6727C183.387 37.6958 183.378 37.6121 183.401 37.5706C183.388 37.5573 183.375 37.5446 183.361 37.5325Z" fill="#F6C687"/>
<path d="M183.951 36.3032C183.891 36.313 183.851 36.3321 183.908 36.3967C183.966 36.3869 183.972 36.3517 183.951 36.3032Z" fill="#F6C687"/>
<path d="M183.362 37.532C183.375 37.5442 183.388 37.5569 183.402 37.5701C183.405 37.5395 183.405 37.5124 183.362 37.532Z" fill="#FEFDFD"/>
<path d="M171.253 39.7C170.945 40.0271 170.7 40.401 170.468 40.7859C170.35 40.9798 170.399 41.0623 170.606 41.1321C171.933 41.5643 173.13 42.2319 174.128 43.2376C174.342 43.4534 174.529 43.6992 174.731 43.9243C174.868 44.0795 174.893 44.2203 174.698 44.3449C174.547 44.4418 174.611 44.4972 174.73 44.5549C175.725 45.0396 176.702 45.5618 177.593 46.2381C177.619 46.2597 177.649 46.2734 177.682 46.2776C177.714 46.2818 177.747 46.2763 177.777 46.2617C177.682 45.8578 177.332 45.6628 177.088 45.3812C176.923 45.1919 176.679 45.0639 176.627 44.7834C176.535 44.7973 176.492 44.7286 176.444 44.6715C175.977 44.121 175.53 43.5544 175.152 42.9353C174.787 42.7183 174.377 42.6052 174.01 42.3882C172.941 41.7587 172.035 40.8787 171.367 39.8211C171.333 39.7772 171.295 39.7366 171.253 39.7ZM174.892 44.4113C174.935 44.2958 174.983 44.1862 175.124 44.2053C175.152 44.2069 175.18 44.2143 175.205 44.2268C175.23 44.2393 175.253 44.2568 175.271 44.2783C175.29 44.2997 175.304 44.3247 175.313 44.3518C175.322 44.3789 175.326 44.4075 175.324 44.4361C175.324 44.5705 175.232 44.6092 175.116 44.6092C175.089 44.6115 175.061 44.6083 175.034 44.5996C175.008 44.5909 174.984 44.5769 174.962 44.5585C174.941 44.5401 174.924 44.5176 174.912 44.4923C174.899 44.467 174.892 44.4395 174.89 44.4113L174.892 44.4113Z" fill="#C7872E"/>
<path d="M183.076 41.0359L182.893 40.7514C182.79 40.737 182.743 40.8212 182.689 40.8812C182.132 41.4963 181.485 41.992 180.782 42.4201C180.469 42.6111 180.119 42.7132 179.793 42.8713L179.746 43.0023L179.743 43.0179C179.764 43.1206 179.713 43.1991 179.664 43.2822C179.403 43.7319 179.11 44.1619 178.788 44.5689C178.688 44.6935 178.643 44.8857 178.436 44.8886L178.436 44.8793C178.432 45.1586 178.182 45.259 178.043 45.4402C177.992 45.5077 177.914 45.5556 177.867 45.6248C177.82 45.6941 177.628 45.7339 177.771 45.8897C177.893 46.0224 177.992 45.9283 178.084 45.8579C178.589 45.4702 179.133 45.1453 179.677 44.8193C179.878 44.6999 180.087 44.5943 180.3 44.4777C179.951 44.1621 179.947 44.1586 180.227 43.8021C180.896 42.9492 181.729 42.3018 182.678 41.8062L183.076 41.0359ZM179.518 44.4177C179.538 44.2994 179.603 44.2117 179.734 44.2048C179.876 44.1973 179.94 44.3052 179.947 44.4218C179.95 44.4507 179.946 44.4799 179.937 44.5073C179.927 44.5347 179.912 44.5597 179.892 44.5803C179.871 44.601 179.847 44.617 179.82 44.6271C179.794 44.6371 179.765 44.6411 179.737 44.6387C179.708 44.6403 179.679 44.6356 179.652 44.6251C179.624 44.6146 179.6 44.5984 179.579 44.5776C179.559 44.5568 179.543 44.5318 179.532 44.5042C179.522 44.4767 179.517 44.4472 179.518 44.4177Z" fill="#C7872E"/>
<path d="M178.221 45.0063C178.332 45.0328 178.345 44.8909 178.435 44.8793L178.435 44.8886C178.762 44.3802 179.17 43.929 179.467 43.3993C179.247 43.3664 179.145 43.6099 178.947 43.6266L178.951 43.6232C178.928 43.6631 178.893 43.6953 178.852 43.7162C178.811 43.7371 178.765 43.7459 178.72 43.7415L178.724 43.738C178.722 43.7614 178.716 43.7842 178.705 43.8049C178.694 43.8256 178.679 43.8438 178.661 43.8584C178.642 43.8729 178.622 43.8836 178.599 43.8897C178.577 43.8958 178.554 43.8972 178.531 43.8938C178.381 43.8569 178.369 43.6918 178.324 43.5649L178.328 43.5695L178.21 43.4276C177.861 43.727 177.893 44.0773 178.062 44.461C178.138 44.6324 178.17 44.8239 178.221 45.0063Z" fill="#FEFDFD"/>
<path d="M176.631 44.7295C176.812 44.5449 176.795 44.2772 176.902 44.0625C177.045 43.774 176.778 43.6465 176.675 43.4543L176.511 43.5697L176.511 43.5651C176.479 43.6629 176.437 43.7571 176.386 43.8461C176.308 43.9558 176.249 43.9125 176.225 43.7959L176.23 43.7994C176.039 43.8207 175.928 43.6148 175.743 43.6211C176.042 43.9908 176.338 44.3603 176.631 44.7295Z" fill="#FEFDFD"/>
<path d="M179.744 43.0173L179.747 43.0017C179.747 42.9613 179.744 42.9209 179.741 42.8811C179.321 43.0328 178.887 43.1427 178.445 43.2094C178.365 43.2227 178.245 43.1806 178.222 43.3248C178.261 43.3514 178.292 43.3887 178.311 43.4324C178.33 43.4761 178.337 43.5244 178.33 43.5718L178.327 43.5672C178.471 43.5989 178.489 43.9336 178.727 43.7403L178.722 43.7437C178.747 43.7049 178.782 43.6735 178.823 43.6527C178.863 43.6319 178.909 43.6225 178.954 43.6254L178.949 43.6289C179.017 43.535 179.102 43.4559 179.201 43.3964C179.299 43.3369 179.408 43.2982 179.521 43.2827C179.587 43.1852 179.636 43.0761 179.744 43.0173Z" fill="#FEFDFD"/>
<path d="M176.574 43.2267C176.139 43.1814 175.71 43.0846 175.296 42.9382C175.366 43.1488 175.544 43.2804 175.659 43.4575C175.88 43.5222 176.055 43.6618 176.237 43.7986L176.232 43.7951C176.416 43.8326 176.369 43.5712 176.518 43.5643L176.518 43.5689C176.535 43.4547 176.555 43.341 176.574 43.2267Z" fill="#FEFDFD"/>
<path d="M175.659 43.4579C175.546 43.2802 175.366 43.1487 175.296 42.9386L175.153 42.9329C175.532 43.552 175.978 44.1186 176.445 44.6691C176.493 44.7268 176.537 44.7949 176.628 44.781C176.627 44.7637 176.629 44.7463 176.634 44.7297L175.75 43.6212C175.719 43.6078 175.694 43.5846 175.677 43.5551C175.661 43.5256 175.655 43.4915 175.659 43.4579Z" fill="#5C3C1D"/>
<path d="M176.574 43.2271C176.554 43.3425 176.534 43.455 176.517 43.5692L176.681 43.4538C176.659 43.3713 176.748 43.2374 176.574 43.2271Z" fill="#8B8B8B"/>
<path d="M178.33 43.5692C178.336 43.5219 178.33 43.4735 178.31 43.4299C178.291 43.3862 178.26 43.3489 178.221 43.3223C178.219 43.3569 178.215 43.3921 178.212 43.4273L178.33 43.5692Z" fill="#8B8B8B"/>
<path d="M179.74 42.8815C179.74 42.9213 179.744 42.9617 179.745 43.0021L179.792 42.8711C179.768 42.84 179.754 42.8607 179.74 42.8815Z" fill="#5C3C1D"/>
<path d="M183.987 40.2236C184.146 40.3742 184.3 40.3575 184.451 40.2103C184.276 39.9147 184.067 39.6416 183.828 39.3967C183.659 39.4273 183.654 39.5883 183.588 39.7025C183.624 39.7134 183.655 39.7366 183.675 39.7682C183.696 39.7999 183.705 39.8379 183.701 39.8756L183.701 39.8785C183.858 39.9397 183.937 40.0661 183.984 40.2219L183.987 40.2236Z" fill="#5C3C1D"/>
<path d="M171.205 44.9397C171.616 45.2903 172.068 45.5876 172.55 45.8249C172.72 45.9108 172.925 45.8901 173.105 45.837C173.5 45.7155 173.89 45.573 174.271 45.41C174.546 45.2946 174.575 45.0747 174.595 44.833C174.614 44.6022 174.402 44.6385 174.288 44.5623C174.243 44.5318 174.181 44.5237 174.166 44.4573C174.17 44.4493 174.173 44.4366 174.18 44.4331C174.703 44.1475 174.703 44.1481 174.301 43.7026C173.888 43.241 173.887 43.241 173.339 43.5428C173.152 43.6455 172.952 43.7274 172.795 43.8809C172.867 44.0055 173.037 43.9605 173.11 44.1163C172.561 44.1077 172.052 44.005 171.544 43.8855C171.439 43.8613 171.328 43.7967 171.229 43.904C171.274 44.0477 171.324 44.1925 171.364 44.3356C171.427 44.5681 171.503 44.807 171.205 44.9397Z" fill="#C7872E"/>
<path d="M170.351 44.372C170.482 44.3085 170.528 44.4343 170.605 44.4908C170.682 44.5474 170.739 44.653 170.856 44.657C170.811 44.4326 170.787 44.2012 170.716 43.9854C170.584 43.5815 170.293 43.4661 169.917 43.6392C169.66 43.7586 169.407 43.8821 169.189 44.0719C169.076 44.1735 168.942 44.2843 169.02 44.4574C169.056 44.5419 169.12 44.6116 169.199 44.6559C169.279 44.7003 169.37 44.7167 169.46 44.7026C169.737 44.6761 169.981 44.5543 170.219 44.4141C170.261 44.395 170.305 44.3809 170.351 44.372Z" fill="#F6C687"/>
<path d="M169.661 42.7476C169.222 42.8872 168.78 43.0874 168.478 43.5127C168.359 43.6812 168.39 43.8652 168.518 44.0164C168.623 44.1411 168.725 44.2022 168.879 44.0251C169.204 43.6535 169.633 43.4267 170.097 43.2888C170.255 43.2421 170.252 43.1867 170.19 43.0765C170.082 42.8826 169.936 42.7458 169.661 42.7476Z" fill="#F6C687"/>
<path d="M169.09 42.1705C168.742 42.1705 168.158 42.5594 168.043 42.8589C168.02 42.9223 168.014 42.9905 168.024 43.0572C168.034 43.1239 168.06 43.1871 168.1 43.2409C168.18 43.3649 168.247 43.414 168.374 43.2674C168.635 42.976 168.96 42.7529 169.324 42.6171C169.398 42.5871 169.526 42.5934 169.532 42.5017C169.541 42.3955 169.442 42.3188 169.357 42.257C169.28 42.199 169.186 42.1686 169.09 42.1705Z" fill="#F6C687"/>
<path d="M171.2 43.9111L171.076 43.8621C170.991 43.9815 171.026 44.3519 171.13 44.4056C171.142 44.4116 171.156 44.4147 171.17 44.4147C171.184 44.4147 171.197 44.4116 171.21 44.4056C171.228 44.3907 171.242 44.37 171.248 44.3467C171.254 44.3234 171.252 44.2987 171.243 44.2764C171.201 44.1597 171.186 44.0346 171.2 43.9111Z" fill="#C7872E"/>
<path d="M169.501 36.9353C169.445 36.7657 169.338 36.6012 169.445 36.416C169.229 36.5926 169.247 36.7622 169.501 36.9353Z" fill="#995430"/>
<path d="M184.311 44.1943C184.318 44.1783 184.326 44.1627 184.334 44.1476C184.001 43.8764 183.635 43.6519 183.315 43.3559C183.114 43.1701 183.015 42.9076 182.793 42.7529C182.422 43.2526 182.105 43.7996 181.599 44.2133C181.582 44.1784 181.571 44.1413 181.565 44.1031C181.572 43.9531 181.784 43.7996 181.674 43.6911C181.496 43.518 181.252 43.4096 181.031 43.2826C180.966 43.2445 180.911 43.293 180.864 43.3496C180.706 43.5394 180.537 43.7194 180.382 43.9121C180.195 44.143 180.217 44.2203 180.485 44.3495C180.551 44.3813 180.638 44.3726 180.679 44.4568C180.639 44.5567 180.536 44.5694 180.456 44.6126C180.182 44.7621 180.167 45.0373 180.431 45.2093C180.533 45.279 180.643 45.3352 180.759 45.3766C181.168 45.5082 181.54 45.7407 181.966 45.8319C182.103 45.8632 182.247 45.8411 182.37 45.7701C182.817 45.5341 183.18 45.1816 183.578 44.8769C183.582 44.825 183.586 44.773 183.59 44.7211C183.428 44.7211 183.307 44.6553 183.25 44.4903C183.227 44.4975 183.203 44.4955 183.182 44.4848C183.161 44.474 183.145 44.4553 183.137 44.4326L183.08 44.3749C182.888 44.338 182.747 44.1545 182.778 44.0287C182.82 43.8556 182.955 43.6433 183.138 43.5896C183.282 43.5475 183.413 43.6998 183.478 43.8579C183.591 43.8579 183.656 43.9323 183.705 44.031C183.874 44.0731 184.027 44.1383 184.101 44.3195L184.101 44.3166L184.209 44.2901L184.257 44.2566L184.268 44.2462L184.311 44.1943Z" fill="#C7872E"/>
<path d="M184.851 43.9603C184.668 43.5414 184.38 43.1865 184.168 42.7849C184.049 42.6758 183.878 42.6418 183.777 42.5079C183.738 42.4566 183.67 42.3983 183.72 42.3348C183.771 42.2713 183.833 42.3239 183.89 42.3608C183.981 42.4305 184.089 42.4716 184.203 42.4791C184.273 42.4838 184.344 42.4691 184.407 42.4365C184.47 42.4039 184.524 42.3547 184.562 42.2939C184.652 42.1588 184.619 42.033 184.533 41.9205C184.277 41.5743 184.067 41.1704 183.538 41.1946C183.338 41.2033 183.222 41.28 183.133 41.4422C182.811 42.0302 182.963 42.5766 183.318 43.0699C183.605 43.4704 183.929 43.8535 184.461 43.9412C184.59 43.96 184.721 43.9664 184.851 43.9603Z" fill="#F6C687"/>
<path d="M185.703 41.2819C185.679 41.2793 185.655 41.2845 185.635 41.2968C185.615 41.3091 185.599 41.3277 185.59 41.35C185.432 41.7989 185.062 42.0897 184.797 42.4579C184.707 42.5825 184.627 42.6887 184.769 42.8272C184.897 42.9529 185.042 43.0695 185.218 42.9633C185.625 42.7181 185.92 42.3528 186.14 41.9362C186.264 41.6974 185.96 41.2756 185.703 41.2819Z" fill="#F6C687"/>
<path d="M184.241 40.6247L184.35 40.8364C184.479 40.8791 184.441 40.9669 184.39 41.0384C184.29 41.1786 184.338 41.2784 184.447 41.3846C184.52 41.4589 184.587 41.539 184.648 41.6241C184.914 41.9703 184.913 41.9703 185.168 41.5952C185.524 41.073 185.47 40.6783 185.014 40.4816C184.726 40.3552 184.487 40.5081 184.241 40.6247Z" fill="#F6C687"/>
<path d="M185.538 43.6207C185.862 43.6276 186.5 43.0685 186.542 42.7598C186.558 42.6544 186.534 42.5468 186.476 42.4586C186.371 42.3005 186.277 42.2035 186.129 42.4326C185.937 42.7176 185.694 42.9635 185.414 43.1573C185.331 43.215 185.169 43.2277 185.231 43.3933C185.255 43.4574 185.297 43.5129 185.352 43.5532C185.406 43.5936 185.471 43.617 185.538 43.6207Z" fill="#F6C687"/>
<path d="M178.779 46.8533C178.822 46.8879 178.871 46.9124 178.924 46.925C178.977 46.9376 179.033 46.9379 179.086 46.926C179.464 46.8539 179.842 46.7823 180.218 46.6854C180.295 46.6652 180.368 46.6663 180.323 46.5446C180.291 46.4563 180.283 46.3888 180.157 46.4292C179.977 46.4869 179.79 46.5105 179.606 46.5492C179.552 46.5661 179.495 46.5714 179.438 46.5648C179.382 46.5583 179.327 46.54 179.278 46.5111C179.553 46.3957 179.807 46.3888 180.049 46.338C180.236 46.2999 180.328 46.2538 180.267 46.0235C180.189 45.6975 180.128 45.3676 180.084 45.0351C180.061 44.8886 180.027 44.8205 179.87 44.9116C179.261 45.2746 178.658 45.6468 178.099 46.0893C178.032 46.143 177.916 46.1886 177.954 46.3097C177.988 46.4171 178.097 46.4217 178.189 46.4396C178.281 46.4575 178.405 46.428 178.443 46.5677L178.44 46.5677L179.222 46.5169C179.06 46.6629 178.943 46.6323 178.838 46.6323C178.716 46.6323 178.673 46.69 178.669 46.8014C178.68 46.7953 178.692 46.7921 178.705 46.7919C178.717 46.7916 178.73 46.7945 178.741 46.8001C178.752 46.8057 178.762 46.814 178.77 46.8242C178.777 46.8345 178.782 46.8464 178.785 46.8591L178.779 46.8533Z" fill="#C7872E"/>
<path d="M177.527 46.4139C176.719 45.8248 175.894 45.3493 175.054 44.8981C174.88 44.8052 174.8 44.8306 174.768 45.0314C174.708 45.3995 174.644 45.7671 174.572 46.1329C174.548 46.2552 174.572 46.3129 174.699 46.3285C175.406 46.4162 176.105 46.5691 176.822 46.5772C177.066 46.5801 177.276 46.5045 177.527 46.4139Z" fill="#C7872E"/>
<path d="M177.788 47.0714C177.708 46.8435 177.6 46.7379 177.388 46.72C176.781 46.6698 176.169 46.6859 175.566 46.5746C175.336 46.5325 175.102 46.5088 174.874 46.4551C174.691 46.4113 174.58 46.4621 174.502 46.6542C175.58 46.9341 176.656 47.1002 177.788 47.0714Z" fill="#C7872E"/>
<path d="M181.645 46.1358L180.413 45.6165C180.476 45.9021 180.534 46.1519 180.583 46.4029C180.601 46.4947 180.635 46.5472 180.735 46.5091C181.033 46.3948 181.339 46.3037 181.645 46.1358Z" fill="#FEFDFD"/>
<path d="M183.65 44.7245C183.847 44.6408 184.031 44.5422 184.099 44.3131L184.099 44.316C183.948 44.2479 183.772 44.2156 183.702 44.0275C183.582 44.0321 183.521 43.9559 183.476 43.8544C183.326 43.8745 183.172 43.5053 183.023 43.8584C183.144 43.8728 183.303 43.8278 183.317 44.0211C183.32 44.0402 183.319 44.0597 183.313 44.0782C183.308 44.0967 183.298 44.1136 183.285 44.1278C183.272 44.1419 183.256 44.1529 183.239 44.1599C183.221 44.1669 183.202 44.1698 183.183 44.1682C183.006 44.1394 183.039 43.9813 183.025 43.8561C182.883 43.9455 182.868 44.0546 182.977 44.1821C183.025 44.2398 183.09 44.2848 183.078 44.3731L183.135 44.4308C183.146 44.4265 183.158 44.4246 183.169 44.4252C183.181 44.4258 183.193 44.4289 183.204 44.4343C183.214 44.4398 183.224 44.4474 183.231 44.4567C183.239 44.466 183.245 44.4768 183.248 44.4885C183.386 44.5181 183.508 44.6007 183.587 44.7193L183.65 44.7245Z" fill="#C7872E"/>
<path d="M178.442 46.5668C178.159 46.5374 177.873 46.4514 177.586 46.5761C177.598 46.662 177.682 46.6828 177.73 46.7313C177.827 46.8288 177.854 47.0042 178.017 47.025C178.25 47.055 178.48 47.0036 178.709 46.9627C178.738 46.9575 178.757 46.8911 178.78 46.8525C178.768 46.857 178.756 46.859 178.744 46.8585C178.732 46.858 178.72 46.855 178.709 46.8496C178.698 46.8441 178.689 46.8365 178.681 46.827C178.673 46.8176 178.667 46.8066 178.664 46.7948C178.568 46.7415 178.49 46.6614 178.437 46.564L178.442 46.5668Z" fill="#C7872E"/>
<path d="M183.65 44.725L183.594 44.7209C183.59 44.7729 183.586 44.8248 183.582 44.8767C183.656 44.8531 183.644 44.7844 183.65 44.725Z" fill="#995430"/>
<path d="M184.312 44.1938L184.264 44.2429L184.312 44.1938Z" fill="#995430"/>
<path d="M184.253 44.2534L184.205 44.2869C184.235 44.2967 184.249 44.2823 184.253 44.2534Z" fill="#995430"/>
<path d="M183.984 40.2198C183.94 40.064 183.861 39.9376 183.701 39.8765C183.758 40.0242 183.804 40.1794 183.984 40.2198Z" fill="#995430"/>
<path d="M183.702 39.8731C183.706 39.8353 183.697 39.7973 183.676 39.7657C183.655 39.734 183.625 39.7108 183.589 39.7C183.587 39.7374 183.597 39.7746 183.617 39.8058C183.637 39.837 183.667 39.8606 183.702 39.8731Z" fill="#995430"/>
<path d="M180.374 35.0164C180.377 35.2692 180.441 35.5219 180.123 35.5583C179.925 35.5813 179.774 35.4798 179.758 35.2842C179.733 34.9662 179.968 34.9068 180.258 34.9097C179.786 34.6333 179.296 34.7499 179.04 35.1653C178.807 35.5386 178.895 36.0943 179.229 36.3609C179.411 36.4988 179.638 36.5623 179.865 36.5388C180.091 36.5153 180.301 36.4066 180.452 36.2339C180.757 35.8762 180.739 35.3777 180.374 35.0164ZM179.437 36.309C179.313 36.2997 179.232 36.2299 179.23 36.0966C179.23 35.9841 179.274 35.8923 179.408 35.8923C179.555 35.8923 179.634 35.9726 179.638 36.118C179.642 36.2461 179.563 36.3026 179.437 36.309Z" fill="#8B8B8B"/>
<path d="M182.363 36.6966C182.638 36.2783 182.696 35.8034 182.667 35.3216C182.618 34.4832 182.35 33.7348 181.64 33.2392C180.888 32.7141 180.077 32.6206 179.227 32.9853C179.191 32.9976 179.155 33.0067 179.118 33.0124C178.452 33.4082 178.103 34.0349 177.885 34.7607C177.827 34.9625 177.811 35.1742 177.836 35.3828C177.953 35.3579 177.917 35.2616 177.93 35.1947C178.088 34.3915 178.416 33.6944 179.146 33.2744C180.567 32.4602 182.325 33.4625 182.47 35.1589C182.514 35.5794 182.484 36.0044 182.383 36.4145C182.358 36.5085 182.332 36.6014 182.363 36.6966Z" fill="#8B8B8B"/>
<path d="M176.613 35.1517L176.517 35.1448C176.465 36.2446 176.864 37.1643 177.593 37.9531C177.653 38.0177 177.701 38.1216 177.819 38.0835C177.802 37.9352 177.675 37.8671 177.589 37.7731C177.044 37.1701 176.758 36.4459 176.637 35.6502C176.614 35.4869 176.708 35.3138 176.613 35.1517Z" fill="#8B8B8B"/>
<path d="M176.518 35.1433L176.504 35.1199L176.516 35.1444L176.518 35.1433Z" fill="#8B8B8B"/>
<path d="M183.82 35.926L183.847 35.9687C183.854 35.9537 183.867 35.9382 183.866 35.9232C183.866 35.9082 183.851 35.8943 183.843 35.8799L183.82 35.926Z" fill="#F6C687"/>
<path d="M174.89 44.4113C174.892 44.4395 174.899 44.4671 174.912 44.4923C174.924 44.5176 174.941 44.5401 174.962 44.5585C174.984 44.5769 175.008 44.5909 175.034 44.5996C175.061 44.6083 175.089 44.6116 175.116 44.6092C175.232 44.6121 175.323 44.5717 175.324 44.4361C175.326 44.4075 175.322 44.3789 175.313 44.3518C175.304 44.3248 175.29 44.2998 175.271 44.2783C175.253 44.2569 175.23 44.2394 175.205 44.2268C175.18 44.2143 175.152 44.207 175.124 44.2053C174.981 44.1862 174.933 44.2959 174.89 44.4113Z" fill="#995430"/>
<path d="M179.744 43.0173C179.638 43.075 179.588 43.1852 179.521 43.2793C179.525 43.2906 179.527 43.3027 179.527 43.3148C179.527 43.327 179.524 43.3389 179.519 43.35C179.514 43.3611 179.508 43.3711 179.499 43.3795C179.49 43.3879 179.48 43.3944 179.469 43.3987C179.171 43.9284 178.764 44.3797 178.437 44.888C178.644 44.8851 178.689 44.693 178.79 44.5683C179.111 44.1613 179.404 43.7313 179.665 43.2816C179.713 43.1985 179.763 43.1218 179.744 43.0173Z" fill="#5C3C1D"/>
<path d="M179.518 44.4174C179.517 44.4469 179.522 44.4764 179.532 44.5039C179.543 44.5314 179.559 44.5564 179.579 44.5772C179.6 44.5981 179.624 44.6142 179.652 44.6248C179.679 44.6353 179.708 44.6399 179.737 44.6384C179.765 44.6408 179.794 44.6368 179.82 44.6267C179.847 44.6166 179.871 44.6007 179.892 44.58C179.912 44.5593 179.927 44.5344 179.937 44.507C179.946 44.4796 179.95 44.4504 179.947 44.4214C179.94 44.306 179.876 44.197 179.734 44.2045C179.604 44.2114 179.54 44.2991 179.518 44.4174Z" fill="#995430"/>
<path d="M179.468 43.3992C179.479 43.3949 179.489 43.3883 179.498 43.38C179.506 43.3716 179.513 43.3616 179.518 43.3505C179.523 43.3394 179.526 43.3275 179.526 43.3153C179.526 43.3032 179.524 43.2911 179.52 43.2798C179.406 43.2951 179.297 43.3337 179.199 43.3932C179.101 43.4527 179.015 43.5319 178.948 43.626C179.146 43.6098 179.249 43.3663 179.468 43.3992Z" fill="#8B8B8B"/>
<path d="M178.725 43.7376C178.488 43.9309 178.469 43.5962 178.325 43.5645C178.37 43.6914 178.382 43.8564 178.532 43.8934C178.555 43.8967 178.578 43.8953 178.6 43.8893C178.622 43.8832 178.643 43.8725 178.661 43.8579C178.68 43.8433 178.695 43.8251 178.706 43.8045C178.717 43.7838 178.723 43.761 178.725 43.7376Z" fill="#8B8B8B"/>
<path d="M178.952 43.6226C178.906 43.6197 178.861 43.6291 178.82 43.6498C178.78 43.6706 178.745 43.702 178.72 43.7409C178.766 43.7453 178.812 43.7366 178.853 43.7156C178.894 43.6947 178.928 43.6625 178.952 43.6226Z" fill="#8B8B8B"/>
<path d="M175.659 43.4578C175.655 43.4912 175.661 43.5252 175.678 43.5546C175.694 43.584 175.719 43.6071 175.75 43.6205C175.935 43.6141 176.046 43.8201 176.237 43.7988C176.058 43.662 175.88 43.5224 175.659 43.4578Z" fill="#8B8B8B"/>
<path d="M176.518 43.5645C176.368 43.5714 176.415 43.8328 176.231 43.7953C176.255 43.9107 176.315 43.9551 176.392 43.8455C176.443 43.7564 176.485 43.6622 176.518 43.5645Z" fill="#8B8B8B"/>
<path d="M183.025 43.8583C183.172 43.5052 183.326 43.8745 183.478 43.8543C183.415 43.6962 183.284 43.5438 183.138 43.586C182.955 43.6396 182.82 43.852 182.778 44.0251C182.747 44.1526 182.888 44.3361 183.08 44.3713C183.091 44.283 183.027 44.2363 182.979 44.1803C182.87 44.0528 182.885 43.9437 183.027 43.8543L183.025 43.8583Z" fill="#995430"/>
<path d="M183.704 44.0288C183.772 44.2158 183.948 44.2481 184.1 44.3173C184.026 44.1361 183.873 44.0709 183.704 44.0288Z" fill="#995430"/>
<path d="M183.589 44.7196C183.509 44.601 183.387 44.5184 183.249 44.4888C183.307 44.6538 183.427 44.719 183.589 44.7196Z" fill="#995430"/>
<path d="M183.478 43.8557C183.521 43.9555 183.582 44.0288 183.704 44.0288C183.656 43.9296 183.594 43.8569 183.478 43.8557Z" fill="#995430"/>
<path d="M183.249 44.489C183.245 44.4773 183.24 44.4665 183.232 44.4572C183.225 44.4478 183.215 44.4402 183.205 44.4348C183.194 44.4294 183.182 44.4263 183.17 44.4256C183.159 44.425 183.147 44.4269 183.136 44.4312C183.143 44.4539 183.16 44.4726 183.181 44.4834C183.202 44.4942 183.226 44.4962 183.249 44.489Z" fill="#995430"/>
<path d="M183.136 44.4315L183.08 44.3738L183.136 44.4315Z" fill="#995430"/>
<path d="M178.439 46.5651C178.491 46.6625 178.57 46.7426 178.665 46.7959C178.67 46.6852 178.712 46.628 178.835 46.6269C178.939 46.6269 179.056 46.658 179.218 46.5115L178.439 46.5651Z" fill="#5C3C1D"/>
<path d="M178.665 46.7959C178.669 46.8077 178.675 46.8187 178.682 46.8282C178.69 46.8376 178.7 46.8453 178.711 46.8507C178.722 46.8561 178.734 46.8592 178.746 46.8597C178.758 46.8602 178.77 46.8581 178.781 46.8536C178.779 46.8409 178.774 46.829 178.766 46.8188C178.759 46.8085 178.749 46.8002 178.738 46.7946C178.726 46.789 178.714 46.7862 178.701 46.7864C178.689 46.7866 178.676 46.7899 178.665 46.7959Z" fill="#5C3C1D"/>
<path d="M183.027 43.8557C183.042 43.9809 183.008 44.139 183.185 44.1679C183.204 44.1694 183.223 44.1666 183.241 44.1595C183.259 44.1525 183.275 44.1415 183.287 44.1274C183.3 44.1132 183.31 44.0963 183.315 44.0778C183.321 44.0593 183.322 44.0398 183.32 44.0207C183.305 43.8274 183.146 43.8724 183.025 43.858L183.027 43.8557Z" fill="#5C3C1D"/>
<path d="M179.437 36.3092C179.563 36.3028 179.642 36.2463 179.638 36.1182C179.634 35.9728 179.555 35.8926 179.408 35.8926C179.274 35.8926 179.228 35.9843 179.23 36.0968C179.232 36.2301 179.313 36.2999 179.437 36.3092Z" fill="#FEFDFD"/>
</svg>
